<svg id="svgLogo" xmlns="http://www.w3.org/2000/svg" viewBox="0 0 212.58 281.68"><defs><style>.cls-1{fill:#42853a;}</style></defs><title>treize-icon</title><path class="cls-1" d="M168,88.27c-1.5-.1-2.3-.1-3.2-.1H118.3a8.87,8.87,0,0,0-4.2,1.2c-4.3,2.5-8.8,4.7-13.8,5.3-1.9.2-3.8-.3-6-.5a10.66,10.66,0,0,1,.7-1.9c5-6.5,7.3-14.3,9.9-21.8.7-1.9,1.6-2.4,3.5-2.4,26.8.1,53.6,0,80.4.1a27.42,27.42,0,0,1,9,1.5c2.8.9,2.9,2.4.9,4.5l-57.8,61c-.7.8-1.4,1.6-2.3,2.6,10.4-1,20.3-.6,29.9,2.2,16.6,4.7,30.2,13.5,38.6,29.1,7.1,13.1,6.6,26.8,2.5,40.6-5.2,17.5-16,31.3-30,42.7-18.6,15.1-39.8,25-63.6,28.6a75.92,75.92,0,0,1-10.7.7c-3.2.1-5-1.3-5.4-3.7s1.2-4.7,4.1-5.5c4.2-1.2,8.5-2,12.8-3.2,18-4.9,34.5-12.8,48.4-25.4,11.8-10.7,19.8-23.6,22-39.6,2.2-15.4-.8-29.3-13.6-39.6-6.6-5.4-14.5-7.9-22.8-9.2s-17-2.5-25.4-.6a43.89,43.89,0,0,0-9.8,4c-3.6,1.8-7.3,1.3-9-1.7a4.16,4.16,0,0,1,.6-5.5q25.2-26.1,50.3-52.4C160.9,95.77,164.2,92.27,168,88.27Z"/><path class="cls-1" d="M1.4,190.87h0a4.29,4.29,0,0,1,4.1-4.3c19.7-.7,29.6-6.9,29.6-18.5V43c0-8-3.5-12-10.6-12H4.5a4.27,4.27,0,0,1-4.3-4.3h0v-.6a4.39,4.39,0,0,1,3.6-4.3q8.25-1.35,14.4-2.7a66.12,66.12,0,0,0,13.1-4c3.8-1.6,6.8-1.6,9.3-5.2,2-3,2.6-5.7,6.5-8.9a4.07,4.07,0,0,1,3.8-.8l1.4.4a4.24,4.24,0,0,1,3.1,4.9,54.28,54.28,0,0,0-.8,6.3,83.94,83.94,0,0,0-.4,8.4l1.3,148c0,11.6,14.5,17.7,34.2,18.5a4.29,4.29,0,0,1,4.1,4.3h0a4.27,4.27,0,0,1-4.3,4.3H5.7a4.29,4.29,0,0,1-4.3-4.4C1.3,191,1.3,190.87,1.4,190.87Z"/><path class="cls-1" d="M12.3,248.37H8.4v-.8l2.1-.3-.5-4.4H5.7l-2.4,4.4,2,.3-.2.8H0v-.8l1.9-.3,8.7-15.5,1.6-.5,1.7,16,1.8.3-.2.8Zm-6.1-6.6,3.8.1-.4-5.7v-1.3Z"/><path class="cls-1" d="M16.7,235.17l-.4-1,5.7-2.6,1,1.1L21.1,244a2.46,2.46,0,0,0,.1,1.7,1.23,1.23,0,0,0,1,.5,1.88,1.88,0,0,0,.8-.2c.3-.1.6-.3.9-.4a5.58,5.58,0,0,0,.8-.5l.7-.5,1.6-1.1,1.9-11.4h2.9l-2.5,14.2,2.9-1.8.6.9-4.9,3.5-1.5-1,.3-2,.5-1-6,4a3.29,3.29,0,0,1-1.7-.4,3.13,3.13,0,0,1-1.1-.9,3,3,0,0,1-.5-1.3,2.85,2.85,0,0,1,0-1.3l1.9-11Z"/><path class="cls-1" d="M37.9,256.67l.5-2.8h4a6,6,0,0,0,.9-1.5,7.37,7.37,0,0,0,.4-1.4l3-16.8-3.2,1.1-.4-1,5.7-2.6,1.1,1.1-3,16.9a8.09,8.09,0,0,1-.8,2.5,3.53,3.53,0,0,1-1.5,1.7l-4.3,2.8Zm65.1-32,1-.2,1.9.2v1.7l-.6,1.5-.9.2-2.2-.2.1-1.7Z"/><path class="cls-1" d="M74.8,235.37l-1.1,3.8,4.6-7.2h2.8l-.7,3.2H78.9a10.1,10.1,0,0,0-1.6,1.3c-.6.6-1.2,1.2-1.7,1.8L74.3,240l-1.5,8.4h-3L72.3,234l-3.2,1.1-.4-1,5.7-2.6.9.9Z"/><path class="cls-1" d="M89.4,247.87l.4-2,.6-1.5-5,4.7a6.36,6.36,0,0,1-1.8-.6,4.43,4.43,0,0,1-1.5-1.2,5,5,0,0,1-1-1.9,9.25,9.25,0,0,1-.4-2.9,10.32,10.32,0,0,1,.4-3,9,9,0,0,1,1.1-2.7,8.34,8.34,0,0,1,1.9-2.3,9.48,9.48,0,0,1,2.7-1.7l2.3-1a6.75,6.75,0,0,1,1.4.2,15.43,15.43,0,0,1,1.7.5l1.2-6.6-3.4.9-.4-1.1,6.1-1.9.8.8-3.9,21.8,2.9-1.8.6.9L91.2,249Zm-5.4-6.1a5.47,5.47,0,0,0,.7,3.1,3.86,3.86,0,0,0,1.6,1.5l4-3.3,1.5-8.3a3.55,3.55,0,0,0-.9-.4l-1.2-.3a5,5,0,0,0-1.2-.2,3.4,3.4,0,0,0-1-.1,5,5,0,0,0-1.4,1.5,18.58,18.58,0,0,0-1.1,1.9,15.46,15.46,0,0,0-.7,2.3,8.52,8.52,0,0,0-.3,2.3Z"/><path class="cls-1" d="M98.4,235.17l-.4-1,5.7-2.6,1.1,1.1-2.4,13.7,2.9-1.8.6.9L101,249l-1.8-1.1,2.5-13.8Z"/><path class="cls-1" d="M119.9,236.77a4.84,4.84,0,0,0,0-1.7,1,1,0,0,0-1.1-.7,4.71,4.71,0,0,0-1.7.4c-.6.3-1.1.6-1.6.9l-1.7,1.1-2,11.5h-2.9l2.6-14.4-3.3,1.1-.4-1,5.7-2.6,1.1,1.1-.3,1.7-.5,1,5.9-3.8a5.66,5.66,0,0,1,1.8.3,2.65,2.65,0,0,1,1.6,2.1,3.79,3.79,0,0,1,0,1.5l-2,10.9,2.9-1.8.6.9-4.9,3.5-1.8-1.1Z"/><path class="cls-1" d="M62.9,248.37H59v-.8l2.1-.3-.5-4.4H56.2l-2.4,4.4,2,.3-.2.8H50.5v-.8l1.9-.3,8.7-15.5,1.6-.5,1.7,16,1.8.3-.2.8Zm-6.1-6.6,3.8.1-.4-5.7v-1.3Z"/><g id="Yd8zqC.tif"><path class="cls-1" d="M54.9,228.87c.1.2,0,.3-.2.3a5.85,5.85,0,0,1-1.3.2h-.9c-.1,0-.1.1-.2.1l-.1-.1c-.1-.1-.3,0-.4.1v.1a4.18,4.18,0,0,1-.4,1,2.18,2.18,0,0,1-.4.5.35.35,0,0,1-.2.1c-.1,0-.2,0-.2-.2v-.2l-.1.1c-.1,0-.2,0-.2.1v-.2a2.19,2.19,0,0,1,.3-.5,1.08,1.08,0,0,0,0-1.1c-.2-.5-.4-1-.6-1.4s-.3-.6-.4-.9-.3-.9-.5-1.4l-.3-.9c-.1-.5-.2-1-.3-1.4v-.3c0-.3.1-.4.4-.2a2.35,2.35,0,0,0,.2-.8v-4.3a4.1,4.1,0,0,0-.1-1.1v-.1c0-.1,0-.3.2-.3s.2.1.2.2a.35.35,0,0,0,.1.2c.1-.1.2-.3.3-.4.1-.3.3-.7.4-1s.2-.7.3-1.1c.1-.2.1-.4.2-.6a4.87,4.87,0,0,0,.1-1.2c0-.1.1-.3.1-.4s.1-.1.2-.1.4.1.5-.1.5-.7.7-1.1.5-.9.7-1.3a3,3,0,0,1,.5-.7c.1-.2.3-.2.5-.1h.2l.6-.6a10.59,10.59,0,0,0,1-1.2.1.1,0,0,1,.1-.1c.2-.2.2-.2.4,0s.1.1.2.1a6.53,6.53,0,0,0,1.5-1c.1-.1.1-.2.2-.2s.2-.2.3-.1l.1.1a.37.37,0,0,0,.5.2h0a3.55,3.55,0,0,0,.9-.4,1.2,1.2,0,0,0,.5-.5c.1-.1.3-.2.4-.1a.44.44,0,0,0,.5.1,1.8,1.8,0,0,0,.9-.6c.1-.1.1-.2.2-.2s.3-.1.6.1a.75.75,0,0,0,.9,0c.1,0,.2-.1.3-.2s.5-.3.7-.5.2-.2.3,0a.37.37,0,0,0,.3.1c.3-.1.6-.3.9-.4s.3-.2.5-.3.2,0,.3.1,0,.2.1.2h.2a2.38,2.38,0,0,0,1.1-.6l.1-.1c.2-.1.2-.1.2.1s.1.2.3.2a2.62,2.62,0,0,0,.9-.5l.1-.1a.19.19,0,0,1,.3,0,.67.67,0,0,0,1,0c.1-.1.2-.2.3-.2h.3a.85.85,0,0,0,.7,0c.2-.1.5-.2.7-.3a1.76,1.76,0,0,0,.5-.4.19.19,0,0,1,.3,0,.3.3,0,0,0,.4,0c.2-.1.5-.3.7-.4s.2-.1.2,0,.1.1.1.2a2.35,2.35,0,0,0-.2.8c0,.3-.1.2-.2.4v.3a.19.19,0,0,1,0,.3,3.59,3.59,0,0,0-.7,1v.2a.35.35,0,0,1,.1.2c0,.1-.1.2-.1.3s-.3.4-.4.6-.1.2-.1.3h0c.1-.1.2-.1.3-.2h.2v.1c-.1.1-.1.2-.2.3a2.19,2.19,0,0,1-.3.5.19.19,0,0,0,0,.3v.2c0,.1-.1.2-.2.3a4.18,4.18,0,0,0-.4,1c-.1.2,0,.3.2.3s.3,0,.1.3a3,3,0,0,0-.4.8,1.48,1.48,0,0,0-.1.7.22.22,0,0,0,.2.2c.1,0,.2,0,.2.1v.2l-.9,1.5a.75.75,0,0,0-.1.5.22.22,0,0,0,.2.2h.3c.1,0,.2,0,.2.1s0,.1-.1.2a1.38,1.38,0,0,1-.4.3,3.17,3.17,0,0,0-.8,1.2c-.1.3-.1.5.2.5s.2.2.1.4c-.2.4-.4.7-.6,1.1-.1.2-.1.3-.2.5a.75.75,0,0,0,.1.5.37.37,0,0,1,.1.3l-.1.1a6,6,0,0,0-.8.8c-.2.3-.5.5-.7.8,0,.1-.1.1-.1.2h.2a.35.35,0,0,1,.2.1v.1c0,.1-.1.1-.1.2-.3.4-.7.7-1,1.1a1.42,1.42,0,0,0-.2.6c0,.1.1.3.1.4a.1.1,0,0,0,.1.1.19.19,0,0,1,0,.3.1.1,0,0,0-.1.1c-.3.2-.7.3-1,.5s-.6.3-.9.5a3.51,3.51,0,0,1-.8.5.37.37,0,0,0-.2.5.1.1,0,0,0,.1.1.19.19,0,0,1,0,.3.1.1,0,0,0-.1.1c-.4.2-.8.3-1.2.5a10.37,10.37,0,0,1-1,.4.78.78,0,0,0-.4.4v.2c0,.2,0,.4-.2.4-.4.1-.8.2-1.3.3s-.8.1-1.2.2c-.2.1-.4.1-.5.2a.22.22,0,0,0-.2.2c0,.1-.1.2-.3.2a6.15,6.15,0,0,0-1.3.1,2,2,0,0,0-.8.4c-.1.1-.2.2-.2.3s-.2.2-.4.2H55.1Zm17.6-23.6-.2.1c-.1,0-.2.2-.3.1s-.3.1-.5.2-.1.1-.2.1v-.1c0-.1.1-.1.2-.1s.2-.1.2-.2.1-.2.1-.3a.73.73,0,0,0-.6.2,6,6,0,0,0-.8.8l-.7.6v.1h.4c.3,0,.6.1.9.1.5,0,1.1-.1,1.6-.1a2.84,2.84,0,0,0,1.3-.4l.1-.1a3.55,3.55,0,0,1,.4-.9c.1-.1,0-.2-.1-.2a.19.19,0,0,1-.1-.3l.1-.3a.52.52,0,0,0-.4.2.32.32,0,0,1-.3.3v-.3l-.3.1v.2c-.1.1-.2.2-.3.2s-.1,0-.2.1l-.4.2-.1-.1.2-.2q.3-.15.3-.3h-.6a.22.22,0,0,0-.2.2v.1h.4C72.4,205.07,72.5,205.17,72.5,205.27Zm-5.7,0h0l.6-.2v.1l-.6.3c-.2.1-.4.2-.4.4l.5-.3a1.69,1.69,0,0,1,.5-.2v.1c-.4.1-.7.5-1.2.5v.5h0l.1-.1h.2c.1,0,.2-.1.3-.2a.6.6,0,0,1,.4-.1v.1a3.7,3.7,0,0,0-1.1.5h0l.8-.3h0v.1a2.51,2.51,0,0,0-.7.4c-.2.2-.2.2-.2.3l.6-.3a1.08,1.08,0,0,1,.7-.2,2,2,0,0,0-.8.4l.3-.1v.1l.3-.1v.1l-.5.2h0a.14.14,0,0,0-.2,0l-.2.1.1-.2a.35.35,0,0,0-.2.1s-.2.1-.2.2c0,.3-.1.6-.1.9a1.48,1.48,0,0,1-.1.7h.1l.7-.4h0l-.4.3h.2l-.5.4c-.2.1-.2.3-.1.5a5.72,5.72,0,0,1,.8-.7,3.45,3.45,0,0,0,.8-.9,2.18,2.18,0,0,0,.3-.5c.1-.6.1-1.1.2-1.7,0-.4.1-.8.1-1.2a5.28,5.28,0,0,1,.3-1.2c.1-.4.2-.7.3-1.1-.3.1-.5.4-.8.5a.45.45,0,0,1,0,.5l-.1.1-.4.2.2.1h0l-.2.1.2.1-.9.5v.1a1.45,1.45,0,0,1,.7-.2l-.3.2h0l.3-.1v.1l-.2.1c-.2.1-.5.3-.7.4s-.2.3-.1.3a1.69,1.69,0,0,0,.6-.3Zm-11.4,19.1h0l-.2.1h0l.2-.2h-.1l-.6.4a.1.1,0,0,0-.1.1c-.2.3-.5.7-.7,1-.1.1,0,.1.1.2h2.2l1.3.1.9.1,1.6.1h.2a4.88,4.88,0,0,0,1.7.1h1.2a.37.37,0,0,1,.3.1v.1l-.5.2v.1c.1,0,.2-.1.4-.1s.1-.1.1-.1a1.34,1.34,0,0,1,.7-.8l.9-.5c-.1-.1-.2,0-.4,0s-.1.1-.1.1H64l-.3-.1v-.1l.6-.2c-.1,0-.1-.1-.2-.1h-.7c-.1,0-.1,0-.2.1a4.87,4.87,0,0,1-.7.3c0-.3.4-.1.5-.4l-.8-.1-1.8-.1h-.7c-.3,0-.7-.1-1-.1a6.15,6.15,0,0,1-1.3-.1.78.78,0,0,0-.8.2c-.1,0-.1.1-.2.1h0l.4-.3a6.6,6.6,0,0,0-1.4-.1Zm4.3-4.2c-.2.1-.5.2-.7.3a.75.75,0,0,1-.9,0l1-.5H59l-.8.1a.71.71,0,0,0-.6.3c-.2.3-.5.6-.7.9a3.2,3.2,0,0,0-.3.5h.2l.9-.1h1.2a4.33,4.33,0,0,1,.5.1h1.1a3.08,3.08,0,0,1,1,.1,2.15,2.15,0,0,0,.8,0,10,10,0,0,1,1.6.2,10.87,10.87,0,0,0,1.8.1h1.9a1.7,1.7,0,0,0,.7-.1c.2,0,.3-.1.5-.1a2.09,2.09,0,0,1,.8-1.6c-.1,0-.1,0-.2.1-.2.3-.5.1-.8.1h0l.5-.3c-.3-.1-.7,0-.7.2l.3-.1h0a.1.1,0,0,1-.1.1c-.3.1-.6.4-1,.3h-.2l-.3.1h-.2v-.1a3.13,3.13,0,0,0,1-.5H65.2a3,3,0,0,0-1.3.2l-.4.1h0l.3-.3h0c-.4,0-.7.3-1.1.3h0l.3-.2h0l-.9.3v-.1l.4-.2h0a6.47,6.47,0,0,0-1.3.4h0l.3-.2h0l-1,.3v-.1c.3-.2.6-.2.9-.4h-.1l-.5-.1h-.4c-.1,0-.2,0-.2.1s-.1.1-.2.1-.3.1-.4.2-.2.1-.3.1l.2-.3h.1a1.42,1.42,0,0,0,.4-.2h-.4l.1.1Zm6,2.5h-.4v-.1l.4-.2c-.1,0-.3-.1-.4-.1l-1.6-.1-1.6-.2-1.9-.1a1.49,1.49,0,0,0-.9.2h-.1l.2-.2h0l-.4.2h-.1v-.2h-.6v.1l.3.1c-.2.2-.4.3-.5.1a.35.35,0,0,1-.2.1h-.3l-.2.1v-.2l-.5.2h0l.2-.2h0l-.4.3c-.1-.2.2-.2.2-.4-.1,0-.1,0-.2.1-.2.3-.5.7-.7,1a1.38,1.38,0,0,1-.3.4l-.2.4H57a10,10,0,0,1,1.6.2h.5a2.48,2.48,0,0,1,.8.1l1.3.1.9.1H63c.2,0,.4.1.7.1H65c.5,0,.7-.1,1.1-.1h.3c.1,0,.1.1,0,.2h-.1l-.5.3h.1l.6-.3v-.5a1.38,1.38,0,0,1,.3-.4,3.59,3.59,0,0,1,1-.7c-.1-.1-.4.1-.5-.1a.37.37,0,0,1-.5-.2c-.2.1-.3.2-.5.1.2-.2.6-.2.8-.5h-.2a1.49,1.49,0,0,1-.9.4h-.1v-.1a.91.91,0,0,0,.7-.3c-.2,0-.3.1-.5.2ZM58,220h.6c.3,0,.5-.1.8-.1h1.8a1.27,1.27,0,0,1,.6.1c.4,0,.7.1,1.1.1h5.2a11,11,0,0,0,1.8-.2c.1,0,.2,0,.2-.2a.37.37,0,0,1,.1-.3,6.47,6.47,0,0,1,.8-.9l.6-.6c.2-.1.2-.3.1-.5v-.2a1.85,1.85,0,0,1,.2-.7c.1-.2.1-.4.2-.6-.2,0-.3.3-.6.2l-.3.1v-.1l.3-.4h-.3a1,1,0,0,1-.7.7l.6-.6h0l-1.2.1c0,.3-.5.5-.7.5l.6-.5a5.63,5.63,0,0,1-1.3,0,7.41,7.41,0,0,1-2.1-.1h-.2a1.14,1.14,0,0,1-.8.3l.5-.3a1.27,1.27,0,0,0-.6-.1c-.2,0-.3,0-.4.2l-.6.3h-.1l.6-.4v-.1h-.5a2.19,2.19,0,0,0-.5.3l-.4.2V216h0l.6-.3H62.8l-.5.3-.4.2h0c.1-.1.2-.2.3-.2s.2-.1.3-.2v-.1h-.8v-.3h.5c.6,0,1.2.1,1.8.1h1.4c.5,0,1.2.1,1.8.1h1l1.2-.1h.8a2.77,2.77,0,0,0,.9-.1l1.2-.2c0-.1,0-.1-.1-.1a.62.62,0,0,1-.1-.7c0-.1.1-.2.1-.3a2.07,2.07,0,0,1,.6-1c.2-.2.1-.2,0-.3s-.2-.3-.2-.5a5.48,5.48,0,0,1,.8-1.5c0-.1.1-.2.1-.3l-.9.2c-.1,0-.1.1-.2.1a2.77,2.77,0,0,0-.9.1H71c-.1.1-.2.1-.2,0H69c-.1,0-.1,0-.2.1s-.2.2-.2.3-.2.1-.4.1l.3-.4c-.4,0-.5.3-.8.4v.1h-.3a.1.1,0,0,1,.1-.1l.3-.3h-.3c-.1,0-.3.2-.5.3a.31.31,0,0,1-.2.1v-.1l.5-.4h-.7c-.1-.1-.3,0-.4.1h0c0,.1-.2.2-.3.3h-.1a.3.3,0,0,0-.4,0,.1.1,0,0,0-.1.1h0l.6-.5-.1-.1c.2,0,.4-.1.6-.1h1.4l2.1-.1,2.1-.1a2.77,2.77,0,0,0,1.3-.3c0-.1-.1-.3-.1-.4l.3-.9c0-.1.1-.2.1-.3v-.1h-.1l-.3.2c-.2.1-.3.1-.4.3h-.2a1,1,0,0,0-.3-.1.6.6,0,0,0-.4.1c-.1.1-.1.2-.3.2l-.1-.2-.2.1-.2.2h0l.1-.2c-.1.1-.2.1-.3.2a.35.35,0,0,0-.2.1h0l.1-.2c-.3,0-.3.3-.5.3l.1-.2h0l-.3.2-.4.2c0-.2.2-.3.3-.5-.2.2-.3.4-.6.5,0-.3.3-.3.4-.5a4.87,4.87,0,0,0-1.2-.1v.2c-.2.2-.5.3-.7.5h0v-.1l.3-.3a.16.16,0,1,0-.1-.3h-.2l.1-.1h1.1a5.64,5.64,0,0,1,.7.1h1.1a4.1,4.1,0,0,0,1.1-.1,2.77,2.77,0,0,0,.9-.1H73a.73.73,0,0,0,.6-.2v-.4c.1-.2.1-.4.2-.6l.3-.7H74c-.3.2-.7.2-1,.5a.3.3,0,0,1-.4,0h0a.19.19,0,0,0-.3,0c-.1.1-.2.2-.3.2h-.2l.2-.2h-.2a.22.22,0,0,1-.2.2h-.2a.35.35,0,0,1-.2.1.1.1,0,0,1-.1-.1c.1-.1.2-.1.3-.2h-.3l-1.3-.1a.6.6,0,0,0-.4.1c-.1.2-.3.3-.4.4l-1.3,1.2-.3.3-.3.3a.52.52,0,0,1-.2.4l-.2.2-.5.6c-.2.2-.4.5-.6.7a7.05,7.05,0,0,0-.7.9,6,6,0,0,1-.8.8c-.3.3-.4.5-.7.8l-.1.2-.8.9-.7.7a8.65,8.65,0,0,0-.7,1c-.1.1-.1.2-.2.2a2.41,2.41,0,0,0-.6.8H62c.5,0,.9.1,1.4.1h.4l1.1.1h.5c.5,0,.9.1,1.3.1h2a8.6,8.6,0,0,0,1.6-.1c.2,0,.4-.1.6-.1h.7l-.1.1a6.37,6.37,0,0,1-.7.2,6.6,6.6,0,0,1-1.4.1H65.1a4.87,4.87,0,0,1-1.2-.1l-2-.2h-.5v.2l.2-.1a.55.55,0,0,1-.5.3l.2-.2-.5.2v-.1l.5-.3v-.1l-.8.5h0l.5-.4h-.6a.37.37,0,0,0-.3.1c-.1.1-.2.4-.4.5s-.1.1-.2.2l-.9,1.2Zm-2.5,2.4c0-.2.1-.4.1-.6a5,5,0,0,0,.2-1.2v-2.2c0-.3-.1-.6-.1-.9a6.6,6.6,0,0,1-.1-1.4.6.6,0,0,0-.1-.4,4.42,4.42,0,0,1-.2-2c0-.1-.1-.3-.1-.4v-2c0-.3.1-.8.1-1.2,0-.1,0-.2-.1-.1l-.3.3h0l.2-.1v.1l-.4.4h-.1l.1-.2h0c.1-.3.2-.5.5-.6a.55.55,0,0,0,.3-.5,4.4,4.4,0,0,1,.2-1l.1-.6c-.1.1-.4.1-.3.4a.35.35,0,0,0-.1.2l-.1.1v.1l.1-.1c0,.2-.1.3-.2.5a1.2,1.2,0,0,0-.5.5c-.1,0-.1.1-.2.1v-.5c.2-.2.5-.3.6-.7a.76.76,0,0,0-.4.2,1.79,1.79,0,0,1-.7.5.22.22,0,0,0-.2.2h.1l.2-.1v.2a.76.76,0,0,1-.2.5c-.1.4-.2.9-.3,1.3a4.87,4.87,0,0,0-.1,1.2v4.3a6.15,6.15,0,0,0,.1,1.3v.7c0,.2.1.8.1,1.1l.1,1a1.7,1.7,0,0,0,.1.7,2,2,0,0,1,.1.8c0,.3.1.6.1.9v.8H54v-.4a1.7,1.7,0,0,0-.1-.7c0-.2,0-.4-.2-.5v-.3c0-.2-.1-.5-.1-.7-.3,0,0-.2-.1-.3s-.2-.5.1-.6l-.3-3.4c0,.1-.1.1-.2.2s-.1.1-.2.1c.1-.3.2-.4.4-.4v-3.8l-.3.2c0-.2,0-.3.3-.3v-.3h0l-.2.2c-.1,0-.1-.1,0-.2h0c.3-.2.2-.4.2-.7-.1.1-.2.2-.1.2s0,.3-.1.3H53a.35.35,0,0,1,.1-.2c-.1-.2.1-.3.2-.4l.2-.2-.1-.1-.3.2-.1-.1.4-.5h-.1c-.1.1-.2.3-.4.4s-.1.1-.2.1,0-.1.1-.2l.3-.3c.1-.1.2-.1.2,0h0l.1-1h0a.35.35,0,0,1-.2.1l-.6.7c-.1.1-.1.2-.2.2a.22.22,0,0,0-.2.2c0,.1-.1.1-.1.2a6.47,6.47,0,0,1-.8.9.19.19,0,0,1-.3,0l-.1-.1c-.1.4-.1.7-.2,1.1a2.92,2.92,0,0,1-.2.9l-.6,1.8c-.1.3-.2.5-.5.6h-.2c-.1,0-.1,0-.1.1v.6h.1l.1-.3c.3.1.1.4.2.6l.2-.9h.1v.2h0l.2-.5h0l-.2,1h0l.2-.4h.1l-.3,1.1h.1a.1.1,0,0,1,.1-.1.3.3,0,0,0,.2-.4c0,.1.1.1.1.2s-.1.3,0,.3,0,.2,0,.3a4.25,4.25,0,0,0-.2,1.1.55.55,0,0,1-.2.5.6.6,0,0,0-.1-.4c-.1-.2,0-.4,0-.5l.1-.2h-.1c-.1.2,0,.3-.2.5v.4c.1.5.2,1.1.3,1.6l.3,1.6c0,.2.1.4.1.6s.1.5.1.8.2.6.2.9l.2.9c.1.4.2.9.3,1.3a.6.6,0,0,0,.1.4,1.41,1.41,0,0,1,.1.9l.8-1.3v-.1a2.85,2.85,0,0,0,0-1.3c0-.2-.1-.4-.1-.6l-.2.3h-.1c0-.2.1-.3.2-.5h-.2v-.3c-.2-.2-.1-.3,0-.5v-.1h0l-.2.3h-.1c.1-.2,0-.4.3-.5v-.2c-.1.1-.1.1-.1.2s-.1,0-.2,0a.75.75,0,0,1-.1-.8,1.06,1.06,0,0,0,.1-.8c0-.2-.1-.3-.1-.5-.1-.4-.1-.7-.2-1.1-.1-.6-.2-1.3-.3-1.9a8.6,8.6,0,0,1-.1-1.6c0-.6-.1-1.3-.1-1.9v-2.3c0-.1.1-.2.1-.3s.1,0,.2,0v.2a1.85,1.85,0,0,1-.2.7V217a3.4,3.4,0,0,0,.1,1c.1.5.1.9.2,1.3l.1.4.2,1c.1.3.1.6.2.9s.1.8.2,1.2l.3,1.8a3.55,3.55,0,0,0,.2,1,5,5,0,0,1,.2,1.2v.5l.2-.2a2.18,2.18,0,0,1,.4-.5,3.13,3.13,0,0,0,.5-1,1.73,1.73,0,0,0,.1-1v-.3h.1l.1.9a1.38,1.38,0,0,0,.3-.4.75.75,0,0,0,.1-.5h0v.1a.19.19,0,0,0,0-.3l.3-.3.3-.6c.1-.3.2-.5.3-.8h.4Zm5.3-17.5c0,.1-.1.1-.1.2-.1.4-.3.9-.4,1.3s-.1.7-.2,1-.1.7-.1,1.1-.1.6-.1.9v3.2c0,.4.1,1.1.1,1.7v2h0c0-.2.1-.3.2-.5s.2-.3.2-.5h.1l-.4,1.2c.1-.1.3-.1.4-.3s.2-.3.1-.4c-.1.2-.1.4-.3.5a.37.37,0,0,1,.1-.3c.1-.1,0-.3.2-.3v-.3c0-.1.1,0,.1,0s.1,0,.2-.1.4-.5.7-.8l.1-.1v.2h.1v-.5h0a2.94,2.94,0,0,1-1,1.2v-.1l.2-.2a5.5,5.5,0,0,0,.7-.9l.3-.3h0c.2.1.4-.1.6-.2s.3-.2.5-.3.1-.1.2-.2l-.2-.1v.2l-.5.3h-.1v-.1a1.38,1.38,0,0,0,.3-.4.31.31,0,0,1,.2-.1c-.2-.2-.2-.2,0-.3s.3-.2.5-.3l.1-.1c.1-.1.3-.2.3-.3h0l-.6.5v-.1l.6-.5v-.1l-.6.3v-.1l.3-.2c.2-.1.5-.1.5-.5v-2.6a16.41,16.41,0,0,1,.2-2.3,4.67,4.67,0,0,1,.3-1.7v-.2l-.1-.1c-.1.1-.2.1-.2.2s-.1.2-.2.2l-.3.1-.5.2v-.1c.2-.3.6-.3.9-.5a1.42,1.42,0,0,0-.6.2c-.2.1-.1,0-.2,0s0-.1,0-.2.2-.1.3-.1l.4-.2h0l-.9.2v.2c-.1.2-.4.2-.6.4,0-.3.2-.4.4-.5l-.5-.2h-.1c-.2.1-.3.3-.4.4h0l.2-.1v.1c-.1.1-.1.2-.2.3a.37.37,0,0,1-.3.1c-.1,0-.1-.1-.2-.1v-.1c-.2,0-.4.2-.7.1Zm-1.7,11.9-.4,1.5h0v-.2c-.1-.1-.2.1-.2-.1a.6.6,0,0,0-.1.4.32.32,0,0,1-.3.3l.5-2.2h0v1h0l.2-.8c0-.2.1-.3.2-.5s0-.1.1-.3c.2,0,.2-.3.3-.5h0v.3a.1.1,0,0,1,.1-.1l.1-.1.1.1v.1c0,.2-.1.5-.1.7l.2-.1h0l-.4,1.2h.1l.2-.6.1.1c0-.1.1-.1.1-.2s.1-.1.1-.2c0-.3-.1-.5-.1-.8v-1.1a4.87,4.87,0,0,0-.1-1.2.9.9,0,0,0-.1-.5,1.38,1.38,0,0,1-.3.4c-.1.1-.1,0-.1,0v-.1l.3-.3c.1-.1.2-.2.2-.3,0-.5-.1-1-.1-1.5a13.4,13.4,0,0,1,.1-2c.1-.7.2-1.5.3-2.2.1-.5.3-1,.4-1.5l.1-.4h0l-.5.6.3-.1c0,.3-.2.4-.3.4l-.7.3c.3.1.5-.2.7-.1l-1,.5a.35.35,0,0,1,.1-.2.49.49,0,0,1,.1-.3l.3-.3h-.2l.3-.2h-.2a3.55,3.55,0,0,1-1,.2h-.1c-.1.1-.1.2-.2.3a4.87,4.87,0,0,0-.3.7c-.1-.2-.2,0-.3,0a.37.37,0,0,1-.1.3c-.1.1-.2.2-.3.2h0a.6.6,0,0,1,.4-.1.22.22,0,0,0,.2-.2.1.1,0,0,1,.1-.1H58a.9.9,0,0,0-.1.5c0,.5-.1.9-.1,1.4s-.1,1-.1,1.5V216c0,.5.1,1,.1,1.4v2h-.1v-.8c-.1.3-.1.5-.2.8a.22.22,0,0,0,.2.2l.1-.2c.2.2,0,.4,0,.6h0l1.5-1.9-.1-.1a2.92,2.92,0,0,1,.2-.9c-.2-.1-.1-.2-.3-.3Zm-2.5,4.1h0v-.2a3.59,3.59,0,0,0,.2-1.1,3.55,3.55,0,0,1,.2-1c0-.1.1-.2.2-.3v-.2a1.7,1.7,0,0,0,.1-.7c0-.4-.1-.8-.1-1.3v-4.7h0l-.5.4h0v-.2c.1-.1.2-.3.4-.4a.48.48,0,0,0,.2-.6c-.2,0-.2.3-.5.2l.2-.2q-.3-.15,0-.3a.55.55,0,0,0,.3-.5c0-.3.1-.7.1-1.1v-.6l-.5.2h0l.1-.2c-.1-.1,0-.2,0-.3h-.2l.2-.2-.3-.3c-.1.1-.3.1-.3-.1l.3-.4a1.27,1.27,0,0,0-.6.1l-.1.1-.1.5a3.55,3.55,0,0,0-.2,1,13.55,13.55,0,0,0-.2,2c0,.7-.1,1.5-.1,2.3v.2a5.85,5.85,0,0,0,.2,1.3,4.1,4.1,0,0,1,.1,1.1c0,.1.1.2.1.4a1.7,1.7,0,0,0,.1.7c.1.2.1.7.2,1a5.63,5.63,0,0,1,0,1.3c0,.4.1.8.1,1.3v2h.1l.2-.2.4-.6c.1-.2.3-.3.2-.6l-.1.2h0v-.2h0Zm-2.5,5.5a.44.44,0,0,1-.5.1c-.1,0-.1,0-.2.1l-.6.9c0,.1-.1.1-.1.2h2.9c.3,0,.6.1.9.1s.8-.1,1.3-.1H58v.1c-.1,0-.1,0-.2.1H55.5c-.4,0-.6-.2-.9.1-.2.1-.4.3-.6.3h0l.2-.2h0l-.5.3h0l.2-.1.4-.2a.1.1,0,0,1,.1-.1l-.6.3a1.42,1.42,0,0,1-.6.2v-.1l.8-.4v-.1h-.2a.76.76,0,0,0-.5.2c-.2.1-.3.3-.6.3a.22.22,0,0,0-.2.2l-.2.4-.2.4a12.29,12.29,0,0,0,2.7-.2c0-.2.1-.3.3-.4h.2l1.3.1h.9c.3,0,.3,0,.4-.1a.78.78,0,0,1,.4-.4l.6-.3a7.84,7.84,0,0,1,1.4-.2.35.35,0,0,0,.2-.1.22.22,0,0,0,.2-.2l.4-.2a.6.6,0,0,1,.4-.1l.8-.2-.1-.1c-.3.1-.4.1-.4,0l-.7.1v-.2l-.5.1v-.1l-.3.1v-.1l.1-.3h-.8l-1.4-.1-1-.1h-.5a.6.6,0,0,0-.4.1l-.4.1h-.4l-.4.1h0l.5-.3v-.2a.37.37,0,0,0-.3.1c-.2.1-.4.4-.8.3-.2-.1-.3-.2-.4-.2Zm11-15.4-.7.4-.1-.2.8-.6h0l-.3.1v-.1a1.79,1.79,0,0,1,.7-.5c0,.4-.3.5-.5.8.1,0,.2,0,.2-.1a1.79,1.79,0,0,0,.5-.7c0-.2.1-.5.1-.8l-.3.1.2.1c-.3.2-.5.5-.8.5,0-.3.2-.4.4-.6,0-.2.2-.3.4-.4,0,.1,0,.1.1.1v-.3l-.5.3h0l.2-.2-.3.1a1.79,1.79,0,0,1,.7-.5l-.3.3h0l.3-.1a5.16,5.16,0,0,0,.2-1.1v-.2a2.77,2.77,0,0,1,.1-.9c.1-.5.1-1,.2-1.5a3.55,3.55,0,0,0,.2-1c0-.3.2-.5.2-.8h-.1v.2c0,.1-.3.3-.4.5v.2l.1.1-.7.2h0l.4-.1v.1a.76.76,0,0,0-.5.2c-.1.1-.4.1-.5.2h0l.3-.4h-.1a2.9,2.9,0,0,1,.9-.9c-.1,0-.2-.1-.2,0l-.6.2a.1.1,0,0,0-.1.1l-.3.6c-.1.2-.1.5-.2.7a7.61,7.61,0,0,0-.3,2.1c0,.5-.1,1-.1,1.5v1.9a3.4,3.4,0,0,1-.1,1v.5c.2-.2.5-.3.5-.6s.2-.3.4-.3Zm-14.4,14.8h0l-.2.2v-.6c0-.2.1-.4,0-.6s-.1-.5-.2-.8h0c.1-.2,0-.3,0-.5L50,222l-.3-1.5c-.1-.5-.2-.9-.3-1.4v-.3h0V222a6.89,6.89,0,0,1-.3.8.31.31,0,0,0-.2.1c-.1.1-.1.1-.1.2s.1.3.1.4c.1.4.2.7.3,1.1s.2.6.3,1,.3.7.4,1.1a.37.37,0,0,0,.1.3,4.87,4.87,0,0,1,.3.7,6.89,6.89,0,0,0,.3.8,3.18,3.18,0,0,1,.3.9.4.4,0,0,0,.2.4c0-.2.1-.3.1-.5a.32.32,0,0,1,.3-.3c.1,0,.2-.1.1-.2v-.1c0-.3-.1-.6-.1-.9s-.1-.5-.1-.8l-.3.4H51v-.1a1.47,1.47,0,0,0,.2-.4c0-.1.1-.2.1-.3h-.1l-.1.3H51v-.4c0-.1-.1-.2-.1-.3a.52.52,0,0,0-.2-.4Zm20.2-20.7.3-.3,1.1-1,.5-.5a4.62,4.62,0,0,1,.7-.7l1-1v-.1h-.1l-.3.3c-.1.1-.1.2-.2.2a.86.86,0,0,0-.6.3h-.2c-.1,0,0-.1,0-.2s.2-.2.2-.2a1.87,1.87,0,0,0,.3-.4,2.35,2.35,0,0,1-.8.2c-.3,0-.5.2-.8,0h-.1a1,1,0,0,1-.9.3.55.55,0,0,0-.5.3,13.36,13.36,0,0,0-.7,1.8c-.1.6-.2,1.2-.3,1.7a4.74,4.74,0,0,0,1-1l-.7.5v-.1l.4-.4a.1.1,0,0,0,.1-.1c0-.2.2-.2.3-.2Zm-2.9,2.8.4-.4c.3-.3.7-.6,1-.9a.76.76,0,0,0,.2-.4v-.6a10.55,10.55,0,0,1,.5-1.9,6.12,6.12,0,0,1,.5-1.2c0-.1,0-.2-.1-.2h-.2c-.2.1-.4.3-.6.4.1,0,.1,0,.2.1s.4,0,.2.3a.78.78,0,0,1-.4.4l.1.1-.1.1-.5.2h-.1v-.1l.1-.4-.5-.2a14.87,14.87,0,0,0-.7,4.7Zm7.5-6.7-.5.3-.3.3-1,1a10,10,0,0,1-1.1,1,9,9,0,0,0-1,.9h.3a8.75,8.75,0,0,0,1.6-.2,3.55,3.55,0,0,0,.9-.4c.3-.2.2-.2.2-.4v-.3c0-.1.1-.2.2-.3a1.76,1.76,0,0,1,.4-.5c.1-.1.1-.2.2-.3a4.33,4.33,0,0,1,.1-.5c-.2-.3-.1-.4,0-.6ZM62,214.37a6.47,6.47,0,0,0,.8-.9C62.1,213.87,62,214,62,214.37Zm11.7-12.8a1.88,1.88,0,0,0,.8-.2.54.54,0,0,0-.8.2Zm-21.3,26.5c.3,0,.4-.2.6-.3a.45.45,0,0,0-.6.3Zm5-21.7h.5a.49.49,0,0,1,.1-.3h0Zm9.3,16.3h0l.8-.4a1.23,1.23,0,0,0-.8.4Zm.4-19.1a.44.44,0,0,1,.1-.5H67c-.1.2-.1.3-.2.5Zm-11.5,18.8c-.1,0-.2.2-.2.3v.2c0,.1-.1.2-.2.3h0A.91.91,0,0,0,55.6,222.37Zm-6-4.1h0l.2-1h-.1Zm14.8-13.9c.4,0,.5-.2.5-.5l-.2.1c.1.2-.3.1-.3.4Zm3.6,18h0a2.09,2.09,0,0,0-.6.4v.1Zm-10-.5c-.4-.1-.5,0-.6.2l.2-.1v.1Zm-5.1-11.5-.1-.1-.2.4h0Zm16.2-7.5h0c-.1-.1-.1-.1-.2-.1s-.1.1-.1.2h0ZM57.4,208a.1.1,0,0,0,.1-.1v-.2h-.1v.3Zm17.5-6.6.2-.2h0c-.1-.1-.2-.1-.2.2Zm-2.9,14h-.3c-.1,0-.1.1-.1.2Zm-5-11.2h0l-.4.2v.1Zm-9.8,3.2c.3,0,.3,0,.3-.1Z"/><path class="cls-1" d="M66.8,205.27h-.2a.35.35,0,0,0,.1-.2l.8-.4h.1l-.8.6Z"/><path class="cls-1" d="M55.5,224.57l-.2.1.1-.2h.2l-.1.1Z"/><path class="cls-1" d="M70.4,213.47l.3-.2h0l-.8.2h-.3l-.3.1c-.3.1-.5.1-.8.2h-.1l.8-.3v-.1h-.5c.1.2-.1.2-.2.3-.3.1-.6.1-.8.2h-.1v-.1l1.1-.3v-.1h-.8a.1.1,0,0,0-.1.1.37.37,0,0,1-.5.2h0l.5-.2H66.6l-1.6-.1H64l.1-.1c.5,0,1-.1,1.5-.1a13.55,13.55,0,0,1,2,.2h3a2.77,2.77,0,0,0,.9-.1,2.66,2.66,0,0,0,1.2-.3H73s-.1.2-.2.2-.3.2-.4.4c-.1,0-.1.1-.2.1l-.8.3c-.1,0-.2.1-.2,0s-.2,0-.3,0h-.2Z"/><path class="cls-1" d="M68.9,208.87l.2-.1v.1l-.4.3h0c-.2-.2-.3,0-.5,0h-.1l.6-.4A.35.35,0,0,1,68.9,208.87Z"/><path class="cls-1" d="M69.6,216.37l.3-.3.4-.3h.1v.1l-.8.5Z"/><path class="cls-1" d="M70.1,207.37c.1-.1.3-.2.4-.3h.3l-.1.1a2,2,0,0,1-.6.2Z"/><path class="cls-1" d="M66.9,210.87l-.8.6h0c0-.1.1-.1.1-.2.3-.1.5-.4.7-.4Z"/><path class="cls-1" d="M61.3,218.17a.1.1,0,0,1,.1-.1l.5-.2H62a.1.1,0,0,1-.1.1l-.6.2Z"/><path class="cls-1" d="M69.5,210.77h0l-.4.3h-.2l.1-.1.3-.2Z"/><path class="cls-1" d="M63.5,215.77l-.3.2v-.1c0-.1.1-.3.3-.1Z"/><path class="cls-1" d="M69.5,211.07l.3-.2c0,.2-.2.2-.3.2Z"/><path class="cls-1" d="M55,211c-.2.2,0,.5-.3.7V211a.55.55,0,0,1,.5-.3l-.3.3H55Z"/><path class="cls-1" d="M54.4,209.47c0-.2.6-.7.9-.7A5.49,5.49,0,0,1,54.4,209.47Z"/><path class="cls-1" d="M53.2,210.57l-.6.7h0v-.1l.6-.6Z"/><path class="cls-1" d="M54.6,210v-.1a2.74,2.74,0,0,1,.5-.4c.2-.1.1,0,.1,0l-.1.1-.5.4Z"/><path class="cls-1" d="M52.7,216.87a.38.38,0,0,1,.3-.5A.55.55,0,0,1,52.7,216.87Z"/><path class="cls-1" d="M53.3,224.67a1.39,1.39,0,0,1,0,.9v-.9Z"/><path class="cls-1" d="M54.5,214.37c0-.1.1-.1.1-.2l.3-.3H55v.1A1,1,0,0,1,54.5,214.37Z"/><path class="cls-1" d="M55,209.27a.66.66,0,0,1-.5.4Z"/><path class="cls-1" d="M54.7,213.87l.2-.2C54.9,213.87,54.9,213.87,54.7,213.87Z"/><path class="cls-1" d="M62,212l-.2.1v-.2c.4-.3.2-.7.2-1,0-.5-.1-1-.1-1.5v-1.8c0-.3.1-.6.1-.9v-.3a10.46,10.46,0,0,1,.4-1.7.66.66,0,0,1,.4-.5l-.3.7.7-.3v.1l-.7.4h0l.7-.2h0l-.5.3h.5c-.2.1-.5.2-.7.3a.22.22,0,0,0-.2.2v.5l1.2-.3v.1l-.4.2c-.3.1-.5.2-.8.3-.1,0-.1.2-.1.4v1.6a2.77,2.77,0,0,0,.1.9,5.28,5.28,0,0,0,.1,1.3,5.65,5.65,0,0,1,0,1.3.31.31,0,0,1-.1.2Z"/><path class="cls-1" d="M63,207.07l.4-.1h0l-.2.1h0l.7-.1v.1l-1.3.5v-.1l.4-.4h-.2l-.1-.3h0a2,2,0,0,0,.8-.4h.2c0,.1,0,.2-.1.2s-.4.3-.6.5Z"/><path class="cls-1" d="M62.2,206.67a7.84,7.84,0,0,1,1.4-.5v.1l-1.4.6Z"/><path class="cls-1" d="M64.3,204.77c0,.2-.2.4-.4.3s-.1,0-.2-.1S63.9,204.77,64.3,204.77Z"/><path class="cls-1" d="M62.8,207.67l1.1-.5A1.43,1.43,0,0,1,62.8,207.67Z"/><path class="cls-1" d="M62.8,208.37a3.13,3.13,0,0,1,1-.5v.1l-1,.4Z"/><path class="cls-1" d="M63.9,208.37l-.9.5v-.1a1.88,1.88,0,0,1,.9-.4Z"/><path class="cls-1" d="M62.8,206l1.2-.5v.1l-1.2.4Z"/><path class="cls-1" d="M63.2,208.07a1.61,1.61,0,0,1,.7-.4A.75.75,0,0,1,63.2,208.07Z"/><path class="cls-1" d="M63.9,210.17c-.1.1-.3.2-.4.3s-.1,0-.1,0v-.2c.1.1.3,0,.5-.1Z"/><path class="cls-1" d="M62.4,205.77l.8-.3A1.14,1.14,0,0,1,62.4,205.77Z"/><path class="cls-1" d="M63.5,210.07c-.1-.2.1-.4.3-.4C63.8,209.87,63.7,210,63.5,210.07Z"/><path class="cls-1" d="M64.2,205.17a.76.76,0,0,1-.5.2A.76.76,0,0,1,64.2,205.17Z"/><path class="cls-1" d="M64,211.27l-.5.3h-.1v-.1l.6-.2Z"/><path class="cls-1" d="M62,205a.71.71,0,0,1-.6.3A3.33,3.33,0,0,1,62,205Z"/><path class="cls-1" d="M61.2,205.87l.5-.3v.1l-.5.2Z"/><path class="cls-1" d="M61.2,205.57l.5-.3C61.7,205.57,61.5,205.67,61.2,205.57Z"/><path class="cls-1" d="M61.2,214.27c0-.1.1-.2.1-.3a.1.1,0,0,0,.1-.1v.1s-.1.3-.2.3Z"/><path class="cls-1" d="M61.6,206.07l-.4.2C61.3,206.07,61.4,206.07,61.6,206.07Z"/><path class="cls-1" d="M63.9,210.57l-.3.2C63.5,210.67,63.6,210.57,63.9,210.57Z"/><path class="cls-1" d="M64,209.27l-.3.2v-.1a.19.19,0,0,1,.3-.1Z"/><path class="cls-1" d="M60.8,206.77l.2-.2h.1v.1c0,.1-.1.1-.3.1Z"/><path class="cls-1" d="M59,209.27c.1-.1.3-.2.2-.4a.1.1,0,0,1,.1-.1c.1,0,0-.2-.2-.3s.3-.3.4-.3.1.2,0,.3l-.2.1.2.3-.2.2h.2C59.5,209.17,59.2,209.27,59,209.27Z"/><path class="cls-1" d="M58.5,207.47a1.7,1.7,0,0,1,.8-.6A1.24,1.24,0,0,1,58.5,207.47Z"/><path class="cls-1" d="M59.8,206.57l-.8.5A.89.89,0,0,1,59.8,206.57Z"/><path class="cls-1" d="M59.3,207.37a.91.91,0,0,1-.7.3l.7-.3Z"/><path class="cls-1" d="M59.2,214l.3-.3h.1v.1a.52.52,0,0,1-.4.2Z"/><path class="cls-1" d="M59.5,207.67a.52.52,0,0,1-.4.2h-.2l.3-.1.3-.1Z"/><path class="cls-1" d="M59.7,212.27l-.2.3h-.1v-.1C59.4,212.37,59.5,212.27,59.7,212.27Z"/><path class="cls-1" d="M59.5,212c0,.1-.1.2-.2.3s-.1,0-.1,0-.1-.1,0-.1.1-.2.3-.2Z"/><path class="cls-1" d="M59.6,214.07l-.3.3A.32.32,0,0,1,59.6,214.07Z"/><path class="cls-1" d="M59.1,208.17h0l.2-.3v.1C59.2,208.07,59.2,208.17,59.1,208.17Z"/><path class="cls-1" d="M56.5,214.07a3.59,3.59,0,0,1,.7-1A2,2,0,0,1,56.5,214.07Z"/><path class="cls-1" d="M56.5,212.27c0-.1,0-.1.1-.2l.3-.3c.1-.1.1,0,.1,0v.1a2.74,2.74,0,0,1-.5.4Z"/><path class="cls-1" d="M56.4,212.87c0-.3.4-.7.6-.6Z"/><path class="cls-1" d="M57.1,214.87h0a1.38,1.38,0,0,1-.3.4h-.1v-.1l.4-.3Z"/><path class="cls-1" d="M57,215.47c0,.3-.2.4-.4.5A.51.51,0,0,1,57,215.47Z"/><path class="cls-1" d="M57.1,214.27a.52.52,0,0,1-.2.4h-.1v-.1l.3-.3Z"/><path class="cls-1" d="M56.8,214.37c-.1-.2.1-.4.3-.4Z"/><path class="cls-1" d="M57.1,210.87c0,.1-.1.1-.1.2a.1.1,0,0,0-.1.1c0,.1-.1-.1,0-.2S57,210.87,57.1,210.87Z"/><path class="cls-1" d="M60.2,220.27l.6-.2a.45.45,0,0,1-.6.2Z"/><path class="cls-1" d="M55.5,224.57a.76.76,0,0,0,.4-.2c.2-.1.3-.3.6-.1v.1a1.42,1.42,0,0,1-.6.2c-.1,0-.2,0-.2.1-.2,0-.2,0-.2-.1Z"/><path class="cls-1" d="M63.4,225a.52.52,0,0,1,.4-.2v.1l-.4.1Z"/><path class="cls-1" d="M55.7,228.57c.1-.1.3-.2.4-.3h.2c.1,0,0,.2-.1.2s-.3.2-.5.1Z"/><path class="cls-1" d="M54.3,228.27a.37.37,0,0,1,.5-.2Z"/><path class="cls-1" d="M55.2,228.17l-.5.2c0-.2.2-.3.5-.2Z"/><path class="cls-1" d="M56.8,227.37c0,.1-.1.1-.2.2a.1.1,0,0,1-.1-.1l.3-.1Z"/><path class="cls-1" d="M55.1,228.37l.3-.1v.1Z"/><path class="cls-1" d="M65.9,204.77l-1,.4A1,1,0,0,1,65.9,204.77Z"/><path class="cls-1" d="M65.2,208.37a.78.78,0,0,0,.4-.4h.3v.2a1.4,1.4,0,0,0-.5.4Z"/><path class="cls-1" d="M64.9,210.27v-.1c.2-.1.3-.3.5-.4h.1v.1Z"/><path class="cls-1" d="M65,205.27a6.89,6.89,0,0,1,.8-.3h0l-.8.3Z"/><path class="cls-1" d="M64.9,206a.6.6,0,0,1,.6-.3l-.6.3Z"/><path class="cls-1" d="M65,207.07l-.3.1c.1-.2,0-.4.3-.4l-.1.2Z"/><path class="cls-1" d="M65.1,206.27l-.2.1v-.1l.4-.2v.1l-.2.1h.2C65.2,206.37,65.1,206.37,65.1,206.27Z"/><path class="cls-1" d="M65.4,205.37a.76.76,0,0,1-.5.2l.5-.2Z"/><path class="cls-1" d="M67.2,208.07a1.7,1.7,0,0,1-1,.6Z"/><path class="cls-1" d="M67.5,207.77l-.9.5v-.1a3.55,3.55,0,0,1,.9-.4Z"/><path class="cls-1" d="M67.6,207.37l-.7.3C66.9,207.57,67.3,207.37,67.6,207.37Z"/><path class="cls-1" d="M66.6,206.17a1.53,1.53,0,0,1,.7-.5h0Z"/><path class="cls-1" d="M66.9,207.37c0-.1.3-.2.5-.2Z"/><path class="cls-1" d="M70.8,203.77l-.6.1.4-.5c-.1-.1-.1-.1.1-.4l.2.1-.2-.3h.2l1-.5H72v.2a8.8,8.8,0,0,0-.5,1.5c0,.2-.1.3-.1.5l-.1.1-.1-.1a4.4,4.4,0,0,1,.2-1c0-.1.1-.2.1-.3s0-.1-.1-.2l-.1.1c-.1.1-.1.2-.2.3s-.1.3-.3.4Z"/><path class="cls-1" d="M70.8,203.77h.1c.1,0,.1,0,.2.1v.1a.35.35,0,0,1-.1.2h.2a.35.35,0,0,0-.2.1c-.1,0-.1.1-.2.2s-.2.1-.3.1a.1.1,0,0,1-.1-.1v-.3c0-.1.2-.3.3-.4Z"/><path class="cls-1" d="M73.1,202.57a1.7,1.7,0,0,1-.6.6C72.6,202.87,72.9,202.77,73.1,202.57Z"/><path class="cls-1" d="M68.8,205l.3-.1v.1l-.6.3c-.1-.2-.1-.3,0-.4a3.33,3.33,0,0,1,.6-.3l.1.1-.4.3Z"/><path class="cls-1" d="M69.4,203.87h.3c0,.1,0,.1-.1.1-.3.1-.5.2-.8.3.2-.3.4-.6.8-.5l-.2.1Z"/><path class="cls-1" d="M68.7,204.77c0-.2,0-.3.2-.4l.6-.2c0,.1-.1.2-.1.3v.1Z"/><path class="cls-1" d="M68.4,206.27v-.2a.32.32,0,0,1,.3-.3h.1v.1a.37.37,0,0,0-.2.3C68.5,206.17,68.5,206.17,68.4,206.27Z"/><path class="cls-1" d="M68.6,205.57c0-.2.1-.2.2-.2h0Z"/></g></svg>