
<svg version="1.1" id="Calque_1" xmlns="http://www.w3.org/2000/svg" xmlns:xlink="http://www.w3.org/1999/xlink" x="0px" y="0px"
	 viewBox="0 0 624 624"">
<style type="text/css">
	.st0{fill:#FFFFFF;}
	.st1{font-family:'ArialMT';}
	.st2{font-size:23.35px;}
	.st3{font-size:26.1827px;}
	.st4{font-size:26.2127px;}
	.st5{font-size:26.1003px;}
	.st6{font-size:26.1395px;}
	.st7{font-size:26.078px;}
	.st8{font-size:26.2088px;}
	.st9{font-size:26.0202px;}
	.st10{font-size:26.1513px;}
	.st11{font-size:26.197px;}
	.st12{font-size:26.1461px;}
	.st13{font-size:26.2244px;}
	.st14{font-size:26.2296px;}
	.st15{font-size:26.0793px;}
	.st16{font-size:26.1944px;}
	.st17{font-size:26.2674px;}
	.st18{font-size:26.2804px;}
	.st19{font-size:26.2049px;}
	.st20{font-size:26.0885px;}
	.st21{font-size:26.0832px;}
	.st22{font-size:26.214px;}
	.st23{font-size:26.1304px;}
	.st24{font-size:26.2557px;}
	.st25{font-size:26.1709px;}
	.st26{font-size:26.0097px;}
	.st27{font-size:26.2609px;}
	.st28{font-size:26.0518px;}
	.st29{font-size:26.2335px;}
	.st30{font-size:26.1983px;}
	.st31{font-size:26.1251px;}
	.st32{font-size:26.0727px;}
	.st33{font-size:26.15px;}
	.st34{font-size:26.1552px;}
	.st35{font-size:26.2648px;}
	.st36{font-size:26.1134px;}
	.st37{font-size:26.2192px;}
	.st38{font-size:26.1147px;}
	.st39{font-size:25.9939px;}
	.st40{font-size:26.0084px;}
	.st41{font-size:26.1618px;}
	.st42{font-size:26.1107px;}
</style>
<g>
	<ellipse class="st0" cx="520.4" cy="528.1" rx="234.3" ry="234.2"/>
	<text transform="matrix(0.8 -0.6 0.6 0.8 397.6455 365.1085)" class="st1 st2">.</text>
	<text transform="matrix(0.8489 -0.5693 0.5593 0.829 401.8353 361.7487)" class="st1 st3">L</text>
	<text transform="matrix(0.8978 -0.4888 0.4789 0.8779 417.2547 351.5389)" class="st1 st4">u</text>
	<text transform="matrix(0.9318 -0.4208 0.4108 0.9117 431.5655 343.7085)" class="st1 st5">n</text>
	<text transform="matrix(0.9604 -0.3501 0.3401 0.9404 446.1458 337.2295)" class="st1 st6">c</text>
	<text transform="matrix(0.9927 -0.2808 0.2707 0.9627 458.776 332.59)" class="st1 st7">h</text>
	<text transform="matrix(0.9978 -0.2195 0.2095 0.9778 475.7252 328.0584)" class="st1 st8">,</text>
	<text transform="matrix(1.0251 -0.1005 0.1005 0.9949 490.6151 325.0184)" class="st1 st9">B</text>
	<text transform="matrix(1.0199 -9.999501e-03 9.999500e-03 0.9999 510.9955 323.1187)" class="st1 st10">r</text>
	<text transform="matrix(1.0182 5.989229e-02 -5.989229e-02 0.9982 525.6864 322.9189)" class="st1 st11">u</text>
	<text transform="matrix(1.0102 0.15 -0.14 0.9901 541.9862 323.9988)" class="st1 st12">n</text>
	<text transform="matrix(0.9978 0.2195 -0.2095 0.9778 557.7557 326.3586)" class="st1 st8">c</text>
	<text transform="matrix(0.9772 0.2991 -0.2892 0.9573 570.936 329.2187)" class="st1 st13">h</text>
	<text transform="matrix(0.9571 0.3489 -0.3489 0.9371 587.6353 334.4695)" class="st1 st14">,</text>
	<text transform="matrix(0.9225 0.4612 -0.4512 0.8924 601.835 339.8586)" class="st1 st15">C</text>
	<text transform="matrix(0.8685 0.5391 -0.5291 0.8486 620.2448 349.2797)" class="st1 st16">o</text>
	<text transform="matrix(0.8115 0.6312 -0.6112 0.7915 633.5663 357.3388)" class="st1 st5">ff</text>
	<text transform="matrix(0.7367 0.6969 -0.6869 0.7267 653.4164 373.1986)" class="st1 st17">e</text>
	<text transform="matrix(0.6866 0.7463 -0.7363 0.6766 663.1463 382.4696)" class="st1 st18">e</text>
	<text transform="matrix(0.5987 0.8283 -0.8083 0.5888 677.8953 399.1899)" class="st1 st19">T</text>
	<text transform="matrix(0.5491 0.8685 -0.8486 0.5291 686.2857 410.809)" class="st1 st16">e</text>
	<text transform="matrix(0.4912 0.9021 -0.8821 0.4711 693.446 422.1884)" class="st1 st20">a</text>
	<text transform="matrix(0.4411 0.9324 -0.9023 0.4311 700.1461 434.9387)" class="st1 st21">,</text>
	<text transform="matrix(0.3292 0.9676 -0.9477 0.3192 706.4853 448.7588)" class="st1 st22">C</text>
	<text transform="matrix(0.2402 1.0008 -0.9707 0.2402 712.9558 468.3898)" class="st1 st23">a</text>
	<text transform="matrix(0.1695 1.0071 -0.9872 0.1595 716.3148 482.3085)" class="st1 st13">k</text>
	<text transform="matrix(9.959745e-02 1.0159 -0.996 8.963770e-02 718.7153 497.1085)" class="st1 st24">e</text>
	<text transform="matrix(4.996005e-02 1.0192 -0.9992 3.996804e-02 719.8551 510.5585)" class="st1 st25">,</text>
	<text transform="matrix(-4.993762e-02 1.0187 -0.9988 -4.993762e-02 720.2151 525.8487)" class="st1 st3">&amp;</text>
	<text transform="matrix(-0.181 1.0154 -0.9853 -0.1709 718.8055 547.2692)" class="st1 st26">C</text>
	<text transform="matrix(-0.2689 0.9858 -0.9659 -0.2589 715.056 567.5989)" class="st1 st27">o</text>
	<text transform="matrix(-0.3413 0.9737 -0.9435 -0.3312 710.8849 582.6992)" class="st1 st28">c</text>
	<text transform="matrix(-0.4087 0.937 -0.9171 -0.3987 706.406 595.4191)" class="st1 st29">k</text>
	<text transform="matrix(-0.4691 0.9083 -0.8884 -0.4592 700.3568 609.169)" class="st1 st30">t</text>
	<text transform="matrix(-0.5301 0.8801 -0.8601 -0.5101 694.9858 619.6091)" class="st1 st12">a</text>
	<text transform="matrix(-0.5793 0.8489 -0.829 -0.5593 687.5062 631.8688)" class="st1 st3">i</text>
	<text transform="matrix(-0.6212 0.8115 -0.7915 -0.6112 682.2366 639.6082)" class="st1 st5">l</text>
	<text transform="matrix(-0.6706 0.7707 -0.7507 -0.6606 674.2267 649.9083)" class="st1 st31">s</text>
	<text transform="matrix(-0.7068 0.7367 -0.7267 -0.6869 666.8364 658.2798)" class="st1 st17">.</text>
	<text transform="matrix(-0.7322 0.7221 -0.7021 -0.7121 662.3353 662.9781)" class="st1 st32">.</text>
	<text transform="matrix(-0.7518 0.7017 -0.6816 -0.7317 657.6876 667.5302)" class="st1 st20">.</text>
	<text transform="matrix(-0.82 0.61 -0.6 -0.8 646.3151 677.718)" class="st1 st33">e</text>
	<text transform="matrix(-0.8489 0.5693 -0.5593 -0.829 635.5266 685.8193)" class="st1 st3">t</text>
	<text transform="matrix(-0.9121 0.4811 -0.4711 -0.8821 618.1567 696.9291)" class="st1 st20">p</text>
	<text transform="matrix(-0.9418 0.4208 -0.4108 -0.9117 605.7756 703.3682)" class="st1 st5">l</text>
	<text transform="matrix(-0.9604 0.3501 -0.3401 -0.9404 593.9141 708.6478)" class="st1 st6">u</text>
	<text transform="matrix(-0.9927 0.2808 -0.2707 -0.9627 578.4553 714.0377)" class="st1 st7">s</text>
	<text transform="matrix(-1.0154 0.181 -0.1709 -0.9853 559.1147 718.9676)" class="st1 st26">s</text>
	<text transform="matrix(-1.0228 0.1304 -0.1203 -0.9927 548.1648 720.8579)" class="st1 st7">i</text>
	<text transform="matrix(-1.015 -0.1007 9.829785e-02 -0.9952 528.7902 723.5313)" class="st1 st34">aff</text>
	<text transform="matrix(-0.9981 -0.2091 0.207 -0.9784 494.6006 720.9649)" class="st1 st18">i</text>
	<text transform="matrix(-0.9956 -0.219 0.219 -0.9757 482.7256 719.699)" class="st1 st35">n</text>
	<text transform="matrix(-0.98 -0.28 0.28 -0.96 467.1645 716.0998)" class="st1 st33">i</text>
	<text transform="matrix(-0.9737 -0.3413 0.3312 -0.9435 458.1346 713.4779)" class="st1 st28">t</text>
	<text transform="matrix(-0.9407 -0.4003 0.3903 -0.9207 447.0547 709.6084)" class="st1 st23">é</text>
	<text transform="matrix(-0.9183 -0.4492 0.4392 -0.8984 434.6456 704.3083)" class="st1 st11">s</text>
	<text transform="matrix(-0.8978 -0.4888 0.4789 -0.8779 424.6969 699.2911)" class="st1 st4">.</text>
	<text transform="matrix(-0.8801 -0.5201 0.5101 -0.8601 419.0052 696.1281)" class="st1 st12">.</text>
	<text transform="matrix(-0.8612 -0.5508 0.5408 -0.8412 413.4444 692.7886)" class="st1 st36">.</text>
	<text transform="matrix(-0.8066 -0.6273 0.6174 -0.7867 400.7459 684.2899)" class="st1 st27">5</text>
	<text transform="matrix(-0.7707 -0.6706 0.6606 -0.7507 389.6561 675.3881)" class="st1 st31">,</text>
	<text transform="matrix(-0.7017 -0.7518 0.7317 -0.6816 378.386 665.1398)" class="st1 st20">r</text>
	<text transform="matrix(-0.6383 -0.7979 0.7779 -0.6283 368.3366 654.4102)" class="st1 st37">u</text>
	<text transform="matrix(-0.5808 -0.8411 0.8211 -0.5708 358.1759 641.6087)" class="st1 st38">e</text>
	<text transform="matrix(-0.4811 -0.9121 0.8821 -0.4711 345.9752 622.9495)" class="st1 st20">d</text>
	<text transform="matrix(-0.4125 -0.9456 0.9155 -0.4024 339.0349 609.7079)" class="st1 st39">e</text>
	<text transform="matrix(-0.2715 -0.9954 0.9652 -0.2614 330.2551 589.3099)" class="st1 st40">M</text>
	<text transform="matrix(-0.1695 -1.0071 0.9872 -0.1595 323.3256 562.3091)" class="st1 st13">e</text>
	<text transform="matrix(-8.963770e-02 -1.0159 0.996 -8.963770e-02 321.1651 549.0495)" class="st1 st24">d</text>
	<text transform="matrix(-2.998651e-02 -1.0195 0.9996 -2.998651e-02 319.9251 534.1077)" class="st1 st41">i</text>
	<text transform="matrix(2.998651e-02 -1.0195 0.9996 2.998651e-02 319.6151 524.7092)" class="st1 st41">c</text>
	<text transform="matrix(8.971337e-02 -1.0168 0.9968 7.974522e-02 320.0657 511.1887)" class="st1 st29">i</text>
	<text transform="matrix(0.1402 -1.0215 0.9915 0.1302 320.8653 501.8384)" class="st1 st42">s</text>
	<text transform="matrix(0.2596 -0.9883 0.9684 0.2496 323.8854 482.1786)" class="st1 st16">P</text>
	<text transform="matrix(0.3292 -0.9676 0.9477 0.3192 328.4951 464.7491)" class="st1 st22">a</text>
	<text transform="matrix(0.4003 -0.9407 0.9207 0.3903 333.176 451.2284)" class="st1 st23">r</text>
	<text transform="matrix(0.4612 -0.9225 0.8924 0.4512 339.1453 437.5793)" class="st1 st15">i</text>
	<text transform="matrix(0.5108 -0.8913 0.8713 0.4907 343.3758 429.1584)" class="st1 st42">s</text>
	<text transform="matrix(0.5987 -0.8283 0.8083 0.5888 353.5264 412.0791)" class="st1 st19">6</text>
	<text transform="matrix(0.6806 -0.7707 0.7507 0.6606 363.4355 398.4592)" class="st1 st31">m</text>
	<text transform="matrix(0.742 -0.712 0.6919 0.722 376.7454 383.6192)" class="st1 st7">e</text>
	<text transform="matrix(0.7707 -0.6706 0.6606 0.7507 386.5957 374.3195)" class="st1 st31">.</text>
	<path d="M581.3,471.3c-1.5-0.1-2.3-0.1-3.2-0.1c-15.5,0-31,0-46.5,0c-1.5,0-2.9,0.5-4.2,1.2c-4.3,2.5-8.8,4.7-13.8,5.3
		c-1.9,0.2-3.8-0.3-6-0.5c0.2-0.7,0.4-1.3,0.7-1.9c5-6.5,7.3-14.2,9.9-21.8c0.7-1.9,1.6-2.4,3.5-2.4c26.8,0.1,53.6,0,80.4,0.1
		c3.1,0,6.1,0.5,9,1.5c2.8,0.9,2.9,2.4,0.9,4.5l-57.8,61c-0.7,0.8-1.4,1.6-2.3,2.6c10.4-1,20.3-0.6,29.9,2.2
		c16.6,4.7,30.2,13.5,38.6,29.1c7.1,13.1,6.6,26.8,2.5,40.6c-5.2,17.5-16,31.3-30,42.7c-18.6,15.1-39.8,25-63.6,28.6
		c-3.5,0.5-7.1,0.7-10.7,0.7c-3.2,0.1-5-1.3-5.4-3.7s1.2-4.7,4.1-5.5c4.2-1.2,8.5-2,12.8-3.2c18-4.9,34.5-12.8,48.4-25.4
		c11.8-10.7,19.8-23.6,22-39.6c2.2-15.4-0.8-29.3-13.6-39.6c-6.6-5.4-14.5-7.9-22.8-9.2c-8.4-1.3-17-2.5-25.4-0.6
		c-3.4,0.9-6.7,2.3-9.8,4c-3.6,1.8-7.3,1.3-9-1.7c-1.2-1.7-1-4,0.6-5.5c16.8-17.4,33.6-34.9,50.3-52.4
		C574.1,478.8,577.5,475.3,581.3,471.3z"/>
	<path d="M414,573.7L414,573.7c0-2.3,1.8-4.2,4.2-4.3c19.9-0.7,29.9-6.9,29.8-18.5V426c0-8-3.6-12-10.7-12h-20
		c-2.4,0-4.3-1.9-4.3-4.3l0,0v-0.6c0-2.1,1.5-3.9,3.6-4.3c5.5-0.9,10.3-1.8,14.4-2.7c4.5-0.9,8.9-2.2,13.1-4
		c3.8-1.6,6.8-1.6,9.3-5.2c2-3,2.6-5.7,6.5-8.9c1.1-0.9,2.5-1.2,3.8-0.8l1.4,0.4c2.2,0.6,3.5,2.7,3.1,4.9c-0.4,2.3-0.7,4.4-0.8,6.3
		c-0.3,3-0.4,5.8-0.4,8.4l1.3,147.8c0,11.6,14.5,17.7,34.2,18.4c2.3,0.1,4.1,2,4.1,4.3l0,0c0,2.4-1.9,4.3-4.3,4.3c0,0,0.6,0,0.6,0
		h-84.7C415.9,578,414,576.1,414,573.7L414,573.7z"/>
	<path d="M424.7,632H421v-0.9l2-0.3l-0.4-4.8h-4.1l-2.2,4.8l1.9,0.3l-0.2,0.9H413v-0.9l1.8-0.3l8.2-16.8l1.5-0.5l1.6,17.3l1.7,0.3
		l-0.2,0.9H424.7z M419.6,624.8l3.8,0.1l-0.4-5.7v-1.3L419.6,624.8z"/>
	<path d="M429.9,618l-0.4-1l5.7-2.6l1,1.1l-1.9,11.3c-0.2,0.6-0.1,1.2,0.1,1.7c0.2,0.3,0.6,0.5,1,0.5c0.3,0,0.6-0.1,0.8-0.2
		c0.3-0.1,0.6-0.3,0.9-0.4c0.3-0.2,0.6-0.3,0.8-0.5l0.7-0.5l1.6-1.1l1.9-11.4h2.9l-2.5,14.2l2.9-1.8l0.6,0.9l-4.9,3.5l-1.5-1l0.3-2
		l0.5-1l-6,4c-0.6,0-1.2-0.1-1.7-0.4c-0.4-0.2-0.8-0.5-1.1-0.9c-0.3-0.4-0.4-0.8-0.5-1.3c-0.1-0.4-0.1-0.9,0-1.3l1.9-11L429.9,618z"
		/>
	<path d="M450.8,640l0.5-3h4.3c0.4-0.5,0.7-1,1-1.6c0.2-0.5,0.4-1,0.5-1.5l3.2-17.9l-3.4,1.2l-0.4-1.1l6.1-2.7l1.1,1.2l-3.2,18
		c-0.2,0.9-0.4,1.8-0.8,2.6c-0.3,0.7-0.9,1.4-1.6,1.8l-4.6,3L450.8,640z M516.1,607.6l1-0.2l1.9,0.2v1.7l-0.6,1.5l-0.9,0.2l-2.2-0.2
		l0.1-1.7L516.1,607.6z"/>
	<path d="M488,618.3l-1.1,3.6l4.5-7h2.9l-0.7,3H492c-0.6,0.4-1.1,0.8-1.6,1.3c-0.6,0.6-1.2,1.2-1.7,1.8l-1.3,1.7l-1.5,8.2H483
		l2.5-14l-3.1,1.1l-0.4-1l5.5-2.5l0.9,0.9L488,618.3z"/>
	<path d="M502.6,630.9l0.4-2l0.6-1.5l-5,4.7c-0.6-0.1-1.2-0.3-1.8-0.6c-0.6-0.3-1.1-0.7-1.5-1.2c-0.5-0.6-0.8-1.2-1-1.9
		c-0.3-0.9-0.4-1.9-0.4-2.9c0-1,0.1-2,0.4-3c0.2-0.9,0.6-1.9,1.1-2.7c0.5-0.9,1.1-1.6,1.9-2.3c0.8-0.7,1.7-1.3,2.7-1.7l2.3-1
		c0.5,0,0.9,0.1,1.4,0.2c0.5,0.1,1.1,0.3,1.7,0.5l1.2-6.6l-3.4,0.9l-0.4-1.1l6.1-1.9l0.8,0.8l-3.9,21.8l2.9-1.8l0.6,0.9l-4.9,3.5
		L502.6,630.9z M497.2,624.8c-0.1,1.1,0.2,2.2,0.7,3.1c0.4,0.6,0.9,1.2,1.6,1.5l4-3.3l1.5-8.3c-0.3-0.2-0.6-0.3-0.9-0.4
		c-0.4-0.1-0.8-0.2-1.2-0.3c-0.4-0.1-0.8-0.2-1.2-0.2c-0.3-0.1-0.7-0.1-1-0.1c-0.6,0.4-1,0.9-1.4,1.5c-0.4,0.6-0.8,1.3-1.1,1.9
		c-0.3,0.7-0.5,1.5-0.7,2.3C497.3,623.2,497.2,624,497.2,624.8L497.2,624.8z"/>
	<path d="M511.7,618.2l-0.4-1l5.7-2.6l1.1,1.1l-2.4,13.7l2.9-1.8l0.6,0.9l-4.9,3.5l-1.8-1.1l2.5-13.8L511.7,618.2z"/>
	<path d="M533.1,620.3c0.1-0.5,0.1-1.1,0-1.7c-0.1-0.4-0.5-0.7-1.1-0.7c-0.6,0-1.2,0.2-1.7,0.4c-0.6,0.3-1.1,0.6-1.6,0.9l-1.7,1.1
		l-2,11.5h-2.9l2.6-14.4l-3.3,1.1l-0.4-1l5.7-2.6l1.1,1.1l-0.3,1.7l-0.5,1l5.9-3.8c0.6,0,1.2,0.1,1.8,0.3c0.9,0.4,1.5,1.2,1.6,2.1
		c0.1,0.5,0.1,1,0,1.5l-2,10.9l2.9-1.8l0.6,0.9l-4.9,3.5l-1.8-1.1L533.1,620.3z"/>
	<path d="M475.7,632H472v-0.9l2-0.3l-0.4-4.8h-4.1l-2.2,4.8l1.9,0.3l-0.2,0.9H464v-0.9l1.8-0.3l8.2-16.8l1.5-0.5l1.6,17.3l1.7,0.3
		l-0.2,0.9H475.7z M469.7,624.8l3.8,0.1l-0.4-5.7v-1.3L469.7,624.8z"/>
	<g id="Yd8zqC.tif_1_">
		<path d="M468.1,611.9c0.1,0.2,0,0.3-0.2,0.3c-0.4,0.1-0.9,0.2-1.3,0.8h-0.7c-0.1-0.6-0.2-0.6-0.2-0.6c-0.1,0-0.1,0.1-0.2,0.1
			c0,0-0.1-0.1-0.1-0.1c-0.1-0.1-0.3,0-0.4,0.1c0,0,0,0.1,0,0.1c-0.1,0.3-0.2,0.7-0.4,1c-0.1,0.2-0.3,0.4-0.4,0.5
			c0,0-0.1,0.1-0.2,0.1s-0.2,0-0.2-0.2c0-0.1,0-0.1,0-0.2c0,0-0.1,0.1-0.1,0.1c-0.1,0-0.2,0-0.2,0.1c0-0.1,0-0.1,0-0.2
			c0.1-0.2,0.2-0.4,0.3-0.5c0.2-0.3,0.2-0.7,0-1.1c-0.2-0.5-0.4-1-0.6-1.4c-0.1-0.3-0.3-0.6-0.4-0.9s-0.3-0.9-0.5-1.4
			c-0.1-0.3-0.2-0.6-0.3-0.9c-0.1-0.5-0.2-1-0.3-1.4c0-0.1,0-0.2,0-0.3c0-0.3,0.1-0.4,0.4-0.2c0.1-0.3,0.2-0.5,0-0.8v-1
			c0.2-0.3,1-0.7,1-0.7s0,0,0,0v-0.6c0-0.1,0-0.1,0-0.2c0-0.6,0-1.1,0-1.7c0-0.4,0-0.7-0.1-1.1c0,0,0-0.1,0-0.1c0-0.1,0-0.3,0.1-0.3
			s0.2,0.1,0.2,0.2c0,0.1,0.1,0.2,0.1,0.2c0.1-0.1,0.2-0.3,0.3-0.4c0.1-0.3,0.3-0.7,0.4-1s0.2-0.7,0.3-1.1c0.1-0.2,0.1-0.4,0.2-0.6
			c0.1-0.4,0.1-0.8,0.1-1.2c0-0.1,0-0.3,0.1-0.4c0-0.1,0.1-0.1,0.2-0.1s0.4,0.1,0.5-0.1c0.1-0.2,0.5-0.7,0.7-1.1s0.5-0.9,0.7-1.3
			c0.1-0.2,0.3-0.5,0.5-0.7c0.1-0.2,0.3-0.2,0.5-0.1c0.1,0,0.2,0,0.2,0c0.2-0.2,0.4-0.4,0.6-0.6c0.4-0.4,0.7-0.8,1-1.2
			c0,0,0-0.1,0.1-0.1c0.2-0.2,0.2-0.2,0.4,0s0.1,0.1,0.2,0.1c0.5-0.2,1-0.6,1.4-1c0.1-0.1,0.1-0.2,0.2-0.2c0.1-0.1,0.2-0.2,0.3-0.1
			c0,0,0.1,0.1,0.1,0.1c0.1,0.2,0.3,0.3,0.5,0.2c0,0,0,0,0,0c0.3-0.1,0.6-0.2,0.9-0.4c0.2-0.1,0.4-0.3,0.5-0.5
			c0.1-0.1,0.2-0.2,0.4-0.1c0.1,0.1,0.3,0.2,0.5,0.1c0.3-0.1,0.6-0.3,0.9-0.6c0.1-0.1,0.1-0.2,0.2-0.2c0.1-0.1,0.3-0.1,0.6,0.1
			c0.3,0.2,0.6,0.2,0.9,0c0.1,0,0.2-0.1,0.3-0.2c0.2-0.2,0.4-0.3,0.7-0.5c0.2-0.2,0.2-0.2,0.3,0c0.1,0.1,0.2,0.1,0.3,0.1
			c0.3-0.1,0.6-0.3,0.9-0.4s0.3-0.2,0.5-0.3c0.2-0.1,0.2,0,0.2,0.1c0,0.1,0,0.2,0.1,0.2c0.1,0,0.1,0,0.2,0c0.4-0.1,0.8-0.3,1.1-0.6
			c0,0,0.1-0.1,0.1-0.1c0.2-0.1,0.2-0.1,0.2,0.1s0.1,0.2,0.2,0.2c0.3-0.1,0.6-0.3,0.9-0.5l0.1-0.1c0.1-0.1,0.2-0.1,0.3,0
			c0.3,0.3,0.7,0.3,1,0c0.1-0.1,0.2-0.2,0.3-0.2c0.1,0,0.2,0,0.3,0c0.2,0.1,0.4,0.1,0.6,0c0.2-0.1,0.5-0.2,0.7-0.3
			c0.2-0.1,0.3-0.2,0.5-0.4c0.1-0.1,0.2-0.1,0.3,0c0.1,0.1,0.3,0.1,0.4,0c0.2-0.1,0.5-0.3,0.7-0.4c0.1,0,0.2-0.1,0.2,0
			c0.1,0.1,0.1,0.1,0.1,0.2c-0.1,0.3-0.1,0.5-0.2,0.8s-0.1,0.2-0.2,0.4c0,0.1,0,0.2,0,0.3c0.1,0.1,0.1,0.2,0,0.3
			c-0.3,0.3-0.5,0.6-0.7,1c0,0.1,0,0.1,0,0.2c0,0,0.1,0.1,0.1,0.2c0,0.1-0.1,0.2-0.1,0.3c-0.1,0.2-0.3,0.4-0.4,0.6
			c0,0.1-0.1,0.2-0.1,0.3h0c0.1-0.1,0.2-0.1,0.3-0.2c0.1,0,0.1,0,0.2,0c0,0,0,0.1,0,0.1c-0.1,0.1-0.1,0.2-0.2,0.3
			c-0.1,0.2-0.2,0.4-0.3,0.5c-0.1,0.1-0.1,0.2,0,0.3c0,0.1,0,0.2,0,0.2c0,0.1-0.1,0.2-0.2,0.3c-0.2,0.3-0.3,0.7-0.4,1
			c-0.1,0.2,0,0.3,0.2,0.3c0.2,0,0.2,0,0.1,0.3c-0.2,0.3-0.3,0.5-0.4,0.8c-0.1,0.2-0.1,0.4-0.1,0.7c0,0.1,0.1,0.2,0.2,0.2
			c0.1,0,0.2,0,0.2,0.1c0,0,0,1.2,0,1.2c-0.3,0.5-0.6,1-0.9,1.5c-0.1,0.1-0.1,0.3-0.1,0.5c0,0.1,0.1,0.1,0.2,0.2c0.1,0,0.2,0,0.3,0
			c0.1,0,0.2,0,0.2,0.1c0,0.1,0,0.1-0.1,0.2c-0.1,0.1-0.2,0.2-0.4,0.3c-0.3,0.3-0.6,0.7-0.8,1.2c-0.1,0.3-0.1,0.4,0.2,0.5
			c0.3,0.1,0.2,0.2,0.1,0.3c-0.2,0.3-0.4,0.7-0.6,1c-0.1,0.2-0.1,0.3-0.2,0.5c0,0.2,0,0.3,0.1,0.5c0.1,0.1,0.1,0.2,0.1,0.3
			c0,0,0,0-0.1,0.1c-0.3,0.2-0.5,0.5-0.8,0.7s-0.5,0.5-0.7,0.7c0,0.1-0.1,0.1-0.1,0.2h0.2c0.1,0,0.2,0.1,0.2,0.1c0,0,0,0.1,0,0.1
			c0,0.1-0.1,0.1-0.1,0.2c-0.3,0.3-0.6,0.7-1,1c-0.1,0.2-0.2,0.3-0.2,0.5c0,0.1,0.1,0.2,0.1,0.4c0.1,0.1,0.1,0.1,0.1,0.1
			c0.1,0.1,0.1,0.2,0,0.2c0,0-0.1,0-0.1,0.1c-0.3,0.2-0.6,0.3-1,0.4s-0.6,0.3-0.8,0.5c-0.3,0.2-0.5,0.3-0.7,0.5
			c-0.2,0.1-0.3,0.3-0.2,0.5c0,0,0,0.1,0.1,0.1c0.1,0.1,0.1,0.2,0,0.3c0,0-0.1,0-0.1,0.1c-0.4,0.2-0.8,0.3-1.2,0.5
			c-0.3,0.1-0.6,0.3-0.9,0.4c-0.2,0.1-0.3,0.2-0.4,0.4c0,0,0,0.1,0,0.1c0,0.2,0,0.3-0.2,0.4c-0.4,0.1-0.8,0.2-1.2,0.3
			c-0.4,0.1-0.8,0.1-1.2,0.2c-0.2,0.1-0.3,0.1-0.5,0.2c-0.1,0-0.1,0.1-0.2,0.2s-0.1,0.2-0.3,0.2c-0.4,0-0.8,0-1.2,0.1
			c-0.3,0.1-0.5,0.2-0.8,0.4c-0.1,0.1-0.1,0.2-0.2,0.3c0,0.1-0.2,0.2-0.4,0.2h-2.1h-0.8L468.1,611.9z M485.7,588.3l-0.2,0.1
			c-0.1,0-0.2,0.2-0.3,0.1s-0.3,0.1-0.5,0.2c-0.1,0,0.3,0.1,0.3,0.1v-0.1c0,0-0.4-0.1-0.4-0.1c0.1-0.1,0.2-0.1,0.2-0.2
			c0-0.1,0.1-0.2,0.1-0.3c-0.2,0-0.4,0-0.6,0.2c-0.3,0.3-0.6,0.5-0.8,0.8l-0.5,0.6v0.1c-0.2,0-0.1,0.3-0.1,0.3h0.3
			c0,0,0.6-0.1,0.9-0.1c0.5,0,1.1-0.1,1.6-0.1c0.5,0,0.9-0.2,1.3-0.4c0,0,0.1-0.1,0.1-0.1c0.1-0.3,0.2-0.6,0.4-0.9
			c0.1-0.1,0-0.2-0.1-0.2s-0.2-0.2-0.1-0.3l0.1-0.3c-0.2,0-0.3,0.1-0.4,0.2c0,0.2-0.2,0.3,0,0.3v-0.3l-0.6,0.1c0,0.1,0,0.2,0,0.2
			c-0.1,0.1-0.2,0.2-0.3,0.2c-0.1,0-0.1,0-0.2,0.1l-0.4,0.2l-0.1-0.1L485.7,588.3c0.2-0.1,0.3-0.2,0.3-0.3h-0.6
			c-0.1,0-0.2,0-0.2,0.1c0,0,0,0,0,0.1c0.1,0,0.2,0,0.4,0C485.7,588.1,485.7,588.2,485.7,588.3z M480,588.3L480,588.3v-0.2v0.1
			c0,0,0.3,0.2,0,0.3s-0.4,0.2-0.4,0.4l0.5-0.3c0.2-0.1,0.8-0.2,0.8-0.2v0.1c0,0-1,0.5-1,0.5v0.1h0l0.1-0.1c0.1,0,0.1,0,0.2,0
			c0.1,0,0.2-0.1,0.3-0.2c0.1,0,0.3-0.1,0.4-0.1v0.1c-0.4,0.1-0.7,0.3-1,0.5v0.5l1-0.3v0l-0.6,0.1c-0.2,0.1-0.5,0.2-0.7,0.4
			s-0.2,0.2-0.2,0.3l0.6-0.3c0.3-0.2,0.5-0.2,0.7-0.2c-0.3,0.1-0.6,0.2-0.8,0.4l0-0.1v0.1V590v0.1l0.2,0.2l0,0c-0.1-0.1-0.2,0-0.2,0
			l-0.2,0.1l0.1-0.2c-0.1,0-0.2,0.1-0.2,0.1s-0.2,0.1-0.2,0.2c0,0.3-0.1,0.6-0.1,0.9s-0.1-0.3-0.1-0.3h0.1l0.7,0.6l0,0l-0.4,0.4l0,0
			h0.2l0,0l-0.5,0.3c-0.2,0.1-0.2,0.3-0.1,0.5c0.2-0.2,0.5-0.5,0.8-0.7s0.6-0.6,0.8-0.9c0.1-0.1,0.2-0.3,0.3-0.5
			c0.1-0.6,0.1-1.1,0.2-1.7c0-0.4,0.1-0.8,0.1-1.2s0.2-0.8,0.3-1.2s0.2-0.7,0.3-1.1c-0.3,0.1-0.5,0.4-0.8,0.5c0.1,0.1,0.1,0.4,0,0.5
			c0,0,0,0-0.1,0.1l-0.4,0.2l0.2,0.1l0,0l-0.2,0.1l0.2,0.1l-0.8,0.5v0.1c0.1-0.1,0.3-0.2,0.5-0.2l-0.3,0.2l0,0l0.8-0.1v0.1l-0.6,0.1
			c-0.2,0.1-0.5,0.3-0.7,0.4c-0.1,0.1-0.2,0.3-0.1,0.3S480,588.3,480,588.3L480,588.3z M468.7,607L468.7,607l-0.2,0.5l0,0l0.2,0.5
			h-0.1l-0.6-0.3c0,0-0.1,0-0.1,0.1c-0.2,0.3-0.5,0.7-0.7,1c-0.1,0.1,0.1,0.2,0.1,0.2h0.3h1.9l1.3,0l0.9,0.1l1.6,0.1
			c0.1,0,0.2,0,0.2,0c0.6,0.1,1.1,0.2,1.7,0.8h1.2c0.1-0.6,0.2-0.6-0.4-0.6v0.1v0.2v0.1c0,0,0.4-0.1,0.5-0.1s0.1-0.1,0.1-0.1
			c0.1-0.3,0.3-0.6,0.7-0.8l0.9-0.5c-0.1-0.1-0.2,0-0.4,0s-0.1,0.1-0.1-0.2h-0.5l0,0l-0.2,0.2v-0.1l0.6-0.2c-0.1,0-0.1-0.1-0.2-0.1
			c-0.2,0-0.5,0-0.7,0c-0.1,0-0.1,0-0.2,0.1c-0.2,0.1-0.4,0.2-0.7,0.3c0-0.3,0.4-0.1,0.5-0.4l-0.8-0.1l-1.8-0.7H473
			c-0.3,0.5-0.7,0.5-1,0.5s-0.9,0-1.3-0.1c-0.3-0.1-0.6,0-0.8,0.2c-0.1,0-0.1,0.1,0.1,0.1v0l0.1-0.3c-0.5-0.1-0.9-0.1-1.4-0.1
			L468.7,607z M473,603.2c-0.2,0.1-0.5,0.2-0.7,0.3c-0.3,0.2-0.6,0.2-0.9,0l1-0.5c0,0-0.1,0-0.1,0l-0.8,0.1c-0.2,0-0.5,0.1-0.6,0.3
			c-0.2,0.3-0.5,0.6-0.7,0.9s-0.3-0.3-0.3-0.3h0.2l0.9,1h1.2h0.5h1.1c0,0,0.7-0.2,1-0.2s0.5,0,0.8,0c0.5,0,1,0.1,1.6,0.2
			s1.2,0.1,1.8,0.1s1.3,0,1.9,0c0.2,0,0.5,0,0.7-0.1c0.2,0,0.3-0.1,0.5-0.1c0-0.6,0.3-1.2,0.8-1.6c-0.1,0-0.1,0-0.2,0.1
			c-0.2,0.3-0.5,0.1-0.8,0.1v0l0.5-0.3c-0.3-0.1-0.7,0-0.7,0.2l0.3-0.1l0,0c0,0,0,0.1-0.1,0.1c-0.3,0.1-0.6,0.4-1,0.3
			c-0.1,0-0.1,0-0.2,0l-0.3,0.1c-0.1,0-0.1,0-0.6,0v-0.1c0.8-0.1,1.1-0.3,1.4-0.5c-0.1,0-0.2,0-0.2,0c-0.2,0-0.6-0.1-0.6-0.1h-1.9
			c0,0-0.9,0.2-1.3,0.3l-0.4,0.1l0,0l0.1-0.3v0c-0.1,0-2,0.3-2,0.3v0l1.5-0.2l0,0l-0.5,0.3v-0.1v-0.2v0c0,0-0.9,0.2-1.3,0.4l0,0
			l0.3-0.2l0,0l-1,0.3v-0.1c0.3-0.2,0.6-0.2,0.9-0.6h-0.1l-0.5,1h-0.1H474c-0.1-0.9-0.2-0.9-0.2-0.8s-0.1,0.1-0.2,0.1
			c-0.1,0.1-0.3,0.1-0.4,0.2c-0.1,0-0.2,0.1-0.3,0.1l0.2-0.6h0.1l0.4,1l0,0h-0.4l0.1-0.8L473,603.2z M478.9,606H478v-0.1l0.4-0.2
			c-0.1,0-0.3-0.1-0.4-0.1l-1.6-0.1l-1.6-0.2l-1.9-0.1c-0.3,0-0.6,0-0.9,0.2c0,0-0.1,0-0.1,0v-0.3l0.6-0.2l0,0l-0.4,0.2
			c0,0-0.1,0-0.1,0c0,0,0-0.1,0.9-0.1v0h-2v0l0.7,0.1c-0.2,0.2-0.4,0.3-0.5,0.1c0,0-0.1,0.1-0.2,0.1c0,0-0.1,0-0.1,0.7h-0.2
			l-0.7-0.7v-0.1l0,0.2l0,0l0.2-0.2l0,0l-0.4,0.3c-0.1-0.2,0.2-0.2,0.2-0.4c-0.1,0-0.1,0-0.2,0.1c-0.2,0.3-0.5,0.7-0.7,1
			c-0.1,0.2-0.2,0.3-0.3,0.4l-0.2,0.4h0.1h1.4c0.5,0,1.6,1,1.6,1h0.5c0,0,0.5-0.8,0.8-0.7l1.3,0.1l0.9-0.3h0.9l0.7,1h1.3
			c0,0,0.7-0.6,1.1-0.6c0.1,0,0.2,0,0.3,0c0.1,0,0,0.6,0,0.6h-0.1h-0.5l0,0h0.1c0.2-0.3,0.2-0.5,0.2-0.5v-0.2V607
			c0.6-0.2,0.7-0.3,0.8-0.4c0.3-0.3,0.6-0.5,1-0.7c-0.1-0.1-0.4,0.1-0.5-0.1c-0.2,0.1-0.4,0-0.5-0.2c-0.2,0.1-0.3,0.2-0.5,0.1
			c0.2-0.2,0.6-0.2,0.8-0.5c-0.1,0-0.1,0-0.2,0c-0.2,0.2-0.6,0.4-0.9-0.1h-0.1c0,0.5,0,0.5,0,0.5c0.3,0,0.5-0.1,0.7-0.3
			c-0.2,0-0.3,0.1-0.5,0.2L478.9,606z M471.2,603L471.2,603l0.6,0c0.3,0,0.5-0.1,0.8-0.1s0.5,0,0.7-0.8h1.1c0.2,0.8,0.4,0.9,0.6,0.9
			c0.4,0,1.1,0.1,1.1,0.1h1.6h2.3h0.5c0.3,0,0.5,0,0.8,0c0.6,0,1.2-0.1,1.8-0.2c0.1,0,0.2,0,0.2-0.2c0-0.1,0-0.2,0.1-0.3
			c0.2-0.3,0.5-0.6,0.8-0.9c0.2-0.2,0.4-0.4,0.6-0.6c0.2-0.1,0.2-0.3,0.1-0.5c0-0.1,0-0.1,0-0.2c0-0.2,0.1-0.5,0.2-0.7
			s0.1-0.4,0.2-0.6c-0.2,0-0.3,0.3-0.6,0.2l-0.6,0.1V599l0.6-1h-0.3c0,0-0.4,1.3-0.7,1.3l0.6-0.6l0,0l-1.2,0.1
			c0,0.3-0.5,0.5-0.7,0.5l0.6-0.5c-0.4,0-0.8,0.1-1.3,0c-0.7,0.1-1.4,0-2.1-0.1c-0.1,0-0.1,0-0.2,0c-0.2,0.2-0.5,0.3-0.8,0.3
			l0.5-0.3c-0.2-0.1-0.4-0.1-0.6-0.1c-0.2,0-0.3,0-0.4,0.2c-0.2,0.1-0.4,0.2-0.6,0.1h-0.1l0,0l0.6-0.2v-0.1c-0.2,0-0.4,0-0.5,0
			c-0.2,0.1-0.4,0.2-0.5,0.3l-0.9,0.2V599l0,0l1-0.3V598h-0.1c0,0-0.5,0.7-0.8,0.7c0,0-0.1,0-0.1,0l-0.5,0.3l-0.4,0.2l0,0
			c0.1-0.1,0.2-0.2,0.3-0.2s0.2-0.1,0.6-0.2v0.2h-1l0,0h0.4c0.6-0.6,1.2-0.5,1.8-0.5s0.9,0,1.4,0s1.8,0.5,1.8,0.5s0.6,0,0.9,0
			l1.2-0.1c0.3,0,0.5,0,0.8-0.1c0.3-0.1,0.6,0,1-0.1l1.2-0.2c0-0.1,0-0.1-0.1-0.1c-0.2-0.2-0.3-0.5-0.1-0.8c0-0.1,0.1-0.2,0.1-0.3
			c0.1-0.4,0.4-0.7,0.6-1c0.2-0.2,0.1-0.2,0-0.3c-0.2-0.1-0.2-0.3-0.2-0.5c0.2-0.5,0.5-1.1,0.8-1.5c0-0.1,0.1-0.2,0.1-0.3l-0.9,0.2
			c-0.1,0-0.1,0.1-0.2,0.1c-0.3,0-0.6,0-0.9,0.1c-0.1,0-0.2,0-0.2,0s-0.2-0.2-0.3-0.2c-0.1,0.1-0.2,0.1-0.2,0c0,0-0.1,0-0.1,0.2
			h-0.4h-1.3c-0.1-0.2-0.1-0.2-0.2-0.1c-0.1,0.1-0.2,0.2-0.2,0.3c-0.1,0.1-0.2,0.1-0.4,0.1l0.3-0.4c-0.4,0-0.5,0.3-1,0.4v0.7h0h-0.1
			c0-0.6,0-0.7,0.1-0.7l0.1-0.3v0h0c-0.1-0.1-0.3,0.2-0.5,0.3c-0.1,0.1-0.5,0.1-0.5,0.1v-0.1l0.8-1.4h-0.2c-0.2,0.9-0.3,0.9-0.5,0.9
			c-0.1-0.1-0.3,0-0.4,0.1c0,0,0,0,0,0c0,0.1-0.2,0.2-0.3,0.3c0,0-0.1,0-0.1,0c-0.1-0.1-0.3-0.1-0.4,0c0,0-0.1,0-0.1,0.1l0,0
			l0.6-0.5l-0.1-0.1c0.2,0,0.6,0.2,0.6,0.2s0.6,0,1.1,0l2.3-0.1l2.2-0.1c0.5,0,1-0.1,1.5-0.4c-0.1-0.2-0.1-0.3-0.1-0.5
			c0.1-0.3,0.2-0.7,0.3-1c0-0.1,0.1-0.2,0.2-0.4c0,0,0-0.1,0-0.1c0,0-0.1,0-0.1,0l-0.3,0.2c-0.2,0.1-0.4,0.1-0.5,0.3H486
			c0,0-0.2-0.2-0.3-0.1s-0.3,0-0.4,0.1s-0.1,0.2-0.3,0.2l-0.1-0.2l-0.2,0.1l-0.2,0.2l0,0l0.1-0.2c-0.1,0.1-0.2,0.1-0.3,0.2
			c-0.1,0-0.2,0.1-0.4,0.1v0l0.2-0.2c-0.3,0-0.3,0.3-0.5,0.3l0.1,0.7h0l-0.3-0.7l-0.4,0.2c0-0.2,0.2-0.3,0.3-0.5
			c-0.2,0.2-0.3,0.4-0.6,0.5c0-0.3,0.3-0.3,0.4-0.5c-0.4-0.1-1.2-0.1-1.2-0.1v0.2c0,0-0.6,0.3-1,0.5l0,0v-0.1c0.2,0,0.4-0.2,0.5-0.3
			c0,0,0.1-0.1,0.1-0.2c0,0-0.1-0.1-0.2-1h-0.2c0,0.8,0.1,1,0.1,1h1.1c0,0,0.5-0.1,0.7-0.1c0.4,0,0.8,0,1.1,0c0.4,0,0.7,0,1.1-0.1
			c0.3,0,0.9,0.2,0.9,0.2h0c0.2,0,0.5,0,0.6-0.2c0-0.1,0-0.3,0-0.4c0.1-0.2,0.1-0.5,0.2-0.7l0.3-0.7h-0.1c0,0-0.7,0.1-1,0.4
			c-0.1,0.1-0.3,0.1-0.4,0c0,0,0,0,0,0c-0.1-0.1-0.2-0.1-0.3,0c-0.1,0.1-0.3,0.6-0.3,0.6h-0.2l0,0h0.2h-0.2c0-0.4-0.1-0.3-0.2-0.3
			c0,0,0,0,0,0c-0.1,0,0.1,0,0.1,0v0c0,0-0.4,0.1-0.5,0.1c0,0-0.1,0-0.1-0.1c0.1-0.1,0.2-0.1,0.3-0.2c0.1,0,0.1,0,0.2,0.5l0,0h-0.5
			l-1.3-0.6c-0.1,0-0.3,0-0.4,0.1c-0.1,0.2-0.3,0.3-0.4,0.4l-1.4,1.3l-0.3,0.3c-0.1,0.1-0.2,0.2-0.3,0.3c0,0.2-0.1,0.3-0.2,0.4
			l-0.2,0.2l-0.5,0.6c-0.2,0.2-0.4,0.5-0.6,0.7s-0.5,0.6-0.7,0.9s-0.5,0.5-0.8,0.8s-0.4,0.5-0.7,0.8l-0.1,0.2l-0.8,0.9
			c-0.2,0.2-0.5,0.5-0.7,0.7s-0.5,0.7-0.7,1c-0.1,0.1-0.1,0.2-0.2,0.2c-0.3,0.2-0.6-0.2-0.6-0.2h0.1h1.6c0.5,0.9,1.4,1,1.4,1h0.4
			l1.1,1h0.5l1.3-1h1.6c0,0,0.2,0.2,0.4,0.2c0.5,0,1.1,0,1.6-0.1c0.2,0,0.4-0.1,0.6-0.1s0.4,0,0.6,0c0,0,0.1,0,0.1,0
			c0,0-0.1,0.1-0.1,0.1c-0.2,0.1-0.4,0.1-0.7,0.2c-0.5,0.1-1.4,0.7-1.4,0.7h-2.5h-0.8h-1c-0.4-0.6-0.8-0.6-1.2-0.7l-2-0.3H475v0.3
			l-0.1-0.1c-0.1,0.2-0.3,0.3-0.5,0.3l0.2-0.2l-0.6,0.2v-0.1v-0.3v-0.1l-0.2,0.5l0,0l0.5-0.4c-0.2,0-0.4,0-0.6,0
			c-0.1,0-0.2,0-0.3,0.1s-0.2,0.4-0.4,0.5c-0.1,0-0.1,0.1-0.2,0.2c-0.3,0.4-0.6,0.8-0.9,1.2L471.2,603z M468.8,605.4
			c0-0.2,0.1-0.4,0.1-0.6c0.1-0.4,0.2-0.8,0.2-1.2c0-0.4-1.1-1.1-1.1-1.1v-1.1c0,0,1-0.6,1-0.9c-0.1-0.5-0.1-0.9-0.1-1.4
			c0-0.1,0-0.3-0.1-0.4c-0.2-0.6-0.3-1.3-0.2-2c0-0.1,0.4-0.4,0.4-0.4v-1v-1c-0.5-0.3-0.4-0.8-0.4-1.2c0-0.1,0-0.2-0.1-0.1
			c-0.1,0.1-0.2,0.2-0.3,0.3l0,0l-0.3-0.1v0.1l0,0.4l-0.1,0l0.1-0.6h-0.2c0,0,0.2-0.1,0.5-0.2c0.2-0.1,0.3-0.3,0.3-0.5
			c0-0.3,0.1-0.6,0.2-1l0.1-0.6c-0.1,0.1-0.4,0.1-0.3,0.4c0,0-0.1,0.1-0.1,0.2l-0.5,0.1v0.1l0.6-0.1c0,0.2-0.1,0.3-0.2,0.5
			c-0.2,0.1-0.4,0.3-0.5,0.5c-0.1,0,1.2,0.1,1.2,0.1v-0.5c0,0-0.9-0.3-0.8-0.7c-0.1,0-0.3,0.1-0.4,0.2c-0.2,0.2-0.4,0.4-0.7,0.5
			c-0.1,0-0.2,0.1-0.2,0.2l0,0c0,0,0,0,0.1,0l0.2-0.1c0,0.1,0,0.1,0,0.2c0,0.2-0.1,0.4-0.2,0.5c-0.1,0.4-0.2,0.9-0.3,1.3
			c-0.1,0.4-0.7,1.2-0.7,1.2v0.5v1.2v1v1.2v0.4c0.6,0.4,0.6,0.8,1,1.3v0.7c-0.3,0.2-0.2,0.8-0.2,1.1l0.1,1c0,0.2,0,0.5,0.1,0.7
			s0.1,0.5,0.1,0.8s0.1,0.6,0.1,0.9s0,0.4,0,0.7c0,0,0,0.2,0,0.2h-0.1c0,0,0-0.3,0-0.4c0-0.2,0-0.5-0.1-0.7c0-0.2,0-0.4-0.1-0.5
			v-0.1c-0.1-0.1-0.1-0.1-0.1-0.2c0-0.2-0.1-0.5-0.1-0.7c-0.3,0,0-0.2-0.1-0.3c-0.2-0.2-0.2-0.5,0.1-0.6l-0.3-3.4
			c0,0.1-0.1,0.1-0.2,0.2c-0.1,0.1-0.1,0.1-0.2,0.1c0.1-0.3,1-0.4,1-0.4v-3.8l-0.8,0.2c0-0.2-0.2-0.3-0.2-0.3v-0.4l0,0l-0.2,0.2
			c-0.1,0-0.1-0.1,0-0.2c0,0,0,0,0,0c0.3-0.2,0.2-0.4,0.2-0.7c-0.1,0.1-0.1,0.2-0.1,0.2c0,0.1,0,0.3-0.1,0.3c0,0-0.1,0-0.1,0
			c0-0.1,0.1-0.2,0.1-0.2c-0.1-0.2,0.1-0.3,0.2-0.4l0.2-0.2l-0.1-0.1l-0.3,0.2l-0.1-0.1l0.4-0.5l-0.1,0c-0.1,0.1-0.2,0.3-0.4,0.4
			c-0.1,0-0.1,0.1-0.2,0.1c0-0.1,0-0.1,0.1-0.2c0.1-0.1,0.2-0.2,0.3-0.3c0.1-0.1,0.2-0.1,0.2,0l0,0l0.1-1h0c0,0-0.1,0.1-0.1,0.1
			l-0.6,0.7c-0.1,0.1-0.1,0.2-0.2,0.2s-0.2,0.1-0.2,0.2s-0.1,0.1-0.1,0.2c-0.2,0.3-0.5,0.6-0.7,0.9c-0.1,0.1-0.2,0.1-0.3,0l-0.1-0.1
			c-0.1,0.4-0.1,0.7-0.2,1.1c0,0.3-0.1,0.6-0.2,0.9c-0.2,0.6-0.4,1.2-0.6,1.8c-0.1,0.3-0.2,0.5-0.4,0.6c-0.1,0-0.2,0-0.2,0
			c-0.1,0-0.1,0-0.1,0.1c0,0.1,0,0.1,0,0.2c0,0.1,0,0.1,0,0.1h0.4l0.1,0.1c0.3,0.1,0.1,0.4,0.2,0.6l0.2,0.3h0.1v-1.1l0,0l0.1-0.9h0
			l-0.2,1.5l0,0l0.2-0.5h0.1l-0.3,1h0.1c0,0,0,0,0.1,0s0.3-0.2,0.2-0.4c0,0.1,0.1,0.1,0.1,0.2c0,0.1-0.1,0.3,0,0.3s0,0.2,0,0.3
			c-0.1,0.4-0.2,0.7-0.2,1.1c0,0.2,0,0.3-0.2,0.5c0-0.1,0-0.3-0.1-0.4c-0.1-0.2,0-0.4,0-0.5l0.1-0.1h-0.1c-0.1,0.2,0,0.4-0.2,0.5
			c0,0,0,0.1,0,0.1c0,0.1,0,0.2,0,0.3c0.1,0.6,0.2,1.1,0.3,1.7l0.3,1.6c0,0.2,0.1,0.4,0.1,0.6s0.1,0.5,0.1,0.8
			c0.1,0.3,0.2,0.6,0.2,0.9l0.2,1c0.1,0.4,0.2,0.9,0.3,1.3c0,0.1,0,0.3,0.1,0.4c0.1,0.3,0.2,0.6,0.1,0.9l0.9-1.3c0,0,0-0.1,0-0.1
			c0.1-0.4,0.1-0.9,0-1.3c0-0.2-0.1-0.4-0.1-0.6l-0.2,0.3H465l0.2-2H465v0.9c-0.3-0.2-0.1-0.3-0.1-0.5c0,0,0-0.1,0-0.1l0,0l-0.2,0.7
			h0c0.1-0.2,0-0.4,0.3-0.5v-0.2c-0.1,0.1-0.1,0.1-0.1,0.2s-0.1,0-0.2,0c-0.2-0.2-0.2-0.5-0.1-0.8c0.1-0.2,0.2-0.5,0.1-0.8
			c0-0.2-0.1-0.3-0.1-0.5c-0.1-0.4-0.1-0.7-0.2-1.1c-0.1-0.6-0.2-1.3-0.3-1.9c-0.1-0.6-0.1-1-0.1-1.6s-0.1-1.3-0.1-1.9s0-1.2,0-1.7
			c0-0.2,0-0.4,0-0.6c0-0.1,0.1-0.2,0.1-0.3c0.1-0.1,0.1,0,0.2,0c0,0.1,0,0.1,0,0.2c0,0.2-0.1,0.5-0.2,0.7c0,0.2,0,0.3,0,0.5
			c0,0.2,0,0.1,0,0.1v0.9v0.9c0,0.3,0,0.7,0.1,1c0.1,0.5,0.1,0.9,0.2,1.3l0.1,0.4l0.2,1c0.1,0.3,0.1,0.6,0.2,0.9s0.1,0.8,0.2,1.2
			c0.1,0.6,0.2,1.2,0.3,1.8c0,0.3,0.1,0.7,0.2,1c0.1,0.4,0.2,0.8-0.3,1.2v0.5l0.6-0.2c0.1-0.2,0.3-0.4,0.4-0.5
			c0.2-0.3,0.4-0.6,0.5-1c0.1-0.3,0.2-0.7,0.1-1c0-0.1,0-0.2,0-0.2h0.1l0.1,0.8c0.1-0.1,0.2-0.2,0.3-0.4c0.1-0.1,0.1-0.3-0.2-0.5
			l0,0v0.1c0.4-0.1,0.4-0.2,0.3-0.3c0.1-0.1,0.2-0.2,0.3-0.3c0.1-0.2,0.2-0.4,0.3-0.6c0.1-0.3,0.2-0.5,0.3-0.8l0,0L468.8,605.4z
			 M474,587.9c0,0.1,0,0.1-0.1,0.2c-0.1,0.4-0.3,0.9-0.4,1.3c-0.1,0.3-0.1,0.7-0.2,1c0,0.4-0.1,0.7-0.1,1.1s-0.1,0.6-0.3,0.9v2v1.2
			c0.2,0.4,0.2,1.1,0.2,1.7s0,1.2,0,1.8c0,0.1,0,0.1,0,0h0c0,0.1,0.1-0.1,0.2-0.3c0.1-0.2,0.2-1.7,0.2-1.7h0.1l-0.4,2.5
			c0.1-0.1,0.3-0.1,0.4-0.3c0.1-0.3,0.2-0.3,0.1-0.4c-0.1,0.2-0.1,0.4-0.3,0.5c0-0.1,0-0.2,0.1-0.3c0.1-0.1,0-0.3,0.3-0.3v-0.1v-0.2
			c-0.1,0,0,0,0.1,0c0.1,0,0.1,0,0.2-0.1c0.2-0.2,0.4-0.5,0.7-0.8c0,0,0.1-0.1,0.1-0.1v0.6l0,0v-0.5l0,0c-0.2,0.5-0.6,0.9-1,1.2
			c0,0,0-0.9,0-1c0-0.1,0.1-0.1,0.2-0.2c0.2-0.3,0.4-0.6,0.6-0.9c0.1-0.1,0.2-0.2,0.3-0.3l0,0c0.2,0.1,0.3-0.1,0.5-0.2
			c0.2-0.1,0.3-0.2,0.5-0.3c0.1,0,0.1-0.1,0.2-0.2l-0.2-0.1v0.1c0,0,0,0.1,0,0.1l-0.4,0.3h0.1c0,0,0,0.4,0,0.3
			c0.1-0.1,0.2-0.2,0.3-0.4c0.1-0.1,0.2-0.1,0.2-0.1c-0.2-0.2-0.2-0.2,0-0.3s0.3-0.2,0.5-0.3l0.1-0.1c0.1-0.1,0.3-0.2,0.3-0.3l0,0
			l-0.6,0.5l0-0.1l-0.6-0.5v-0.1l1,0.3l0-0.1l-0.1-0.2c0.2-0.1,0.5-0.1,0.5-0.5c0-0.1,0-0.2-0.4-0.2v-1.2v-1.2
			c0.4-0.8,0.5-1.6,0.6-2.3c0-0.6,0.1-1.2,0.3-1.7c0-0.1,0-0.1,0-0.2l-0.1-0.1c-0.1,0.1-0.2,0.1-0.2,0.2c0,0.2-0.1,0.2-0.2,0.2
			l-0.3,0.1L477,588V588c0,0,0.2-0.3,0.5-0.5c-0.2,0-0.4,0.1-0.6,0.2s-0.1,0-0.2,0s0-0.1,0-0.2s0.2-0.1,0.3-0.1l0.4-0.2l0,0
			l-0.4,0.2v0.2c0,0-0.9,0.2-1.1,0.4c0-0.3,0.2-0.4,0.4-0.5l-0.5-0.2c0,0-0.1,0-0.1,0c-0.2,0.1-0.3,0.3-0.4,0.4l0,0l0.7-0.1v0.1
			c0,0-0.5,0.2-0.6,0.3c-0.1,0.1-0.2,0.1-0.3,0.1c-0.1,0-0.1-0.1-0.1-0.1v-0.1L474,587.9L474,587.9z M472,599.8l-1,1.5l0,0V601
			c0.8-0.1,0.7,0.1,0.7-0.1c-0.1,0.1-0.1,0.3-0.1,0.4c0,0.2-0.2,0.3-0.3,0.3l0.7-2.2l0,0v1l0,0V599.8c0-0.2,0.1-0.4,0.2-0.5
			s0-0.1,0.1-0.3c0.2,0,0.2-0.3,0.3-1H472v0.7c0,0,0.6-0.1,0.7-0.1c0,0,0.1-0.1,0.1-0.1c0,0,0.1,0.1,0.2,0.1v0.1
			c-0.2,0.2-0.2,0.5-0.3,0.7l0.2-0.1l0,0l-0.4,1.7h0.1l0.2-1.1l0.1,0.1c0-0.1,0.1-0.1,0.1-0.2c0-0.1,0.1-0.1,0.1-0.2
			c0-0.3-0.1-0.5-0.1-0.8s0-0.7,0-1.1s0-0.8-0.1-1.2c0-0.2,0-0.3-0.1-0.5c-0.1,0.2-0.2,0.3-0.3,0.4s-0.1,0-0.1,0s0-0.1,0-0.1
			c0.1-0.1,0.2-0.2,0.3-0.3c0.1-0.1,0.2-0.2,0.2-0.3c0-0.5-0.1-1-0.1-1.5c0-0.7,0-1.3,0.1-2s0.2-1.5,0.3-2.2c0.1-0.5,0.3-1,0.4-1.5
			l0.1-0.3h0l-0.5,0.5l0.3-0.1c0,0.3-0.2,0.4-0.3,0.4l-0.7,0.3c0.3,0.1,0.5-0.2,0.7-0.1l-1,0.5c0-0.1,0.1-0.2,0.1-0.2s0-0.2,0.1-0.3
			l0.3-1.2h-0.2l0,0l0.3,1h-0.2c0,0-0.7-0.1-1-0.2c0,0-0.1,0-0.1,0c-0.1,0.1-0.1,0.2-0.2,0.3c-0.1,0.2-0.2,0.4-0.3,0.7
			c-0.1-0.2-0.2,0-0.3,0c0,0.1,0,0.2-0.1,0.3c-0.1,0.1-0.2,0.2-0.5,0.2v0c0.3-0.1,0.5-0.1,0.6-0.1c0.1,0,0.2-0.1,0.2-0.2
			s0.1-0.1,0.1-0.1h0.1c0,0-0.1,0.3-0.1,0.5c0,0.5-0.1,0.9-0.1,1.4s-0.1,1-0.1,1.5s0,0.8-0.6,1.2v0.8v1.4c0.6,0.7,0.6,1.4,0.6,2.2
			c0,0.5,0.4,1.4,0.4,1.4v1.9c0,0-0.3,0.1-0.3-0.2h0.3v-0.4c-0.5,0.3-0.5,0.5-0.6,0.8c0,0.1,0.1,0.2,0.2,0.2l0.1-0.2
			c0.2,0.2,0,0.6,0,0.6h0l1.5-1.9c0,0-0.1-0.1-0.1-0.1c0-0.3,0.1-0.6,0.2-0.9C472.4,600,472.6,599.8,472,599.8L472,599.8z
			 M470,603.9L470,603.9c0-0.1-0.2-0.2-0.2-0.2c0.1-0.3,0.2-0.7,0.2-1.1c0-0.3,0.1-0.7,0.2-1c0-0.1,0.1-0.2,0.2-0.3
			c0-0.1,0-0.1,0-0.2c0.1-0.2,0.1-0.5,0.1-0.7c0-0.4-0.1-0.8-0.1-1.3s0.6-1.2,0.6-1.2v-0.5v-1.1V595v-0.6l0,0l-1,0.4l0,0v-0.2
			c0.1-0.1,0.2-0.3,0.3-0.4c0.2-0.1,0.3-0.4,0.2-0.6c-0.2,0-0.2,0.3-0.5,0.2l0.2-0.2c-0.2-0.1-0.2-0.2,0-0.3
			c0.2-0.1,0.3-0.3,0.3-0.5c0-0.3-0.6-1.1-0.6-1.1v-0.6l0.2,0.2l0,0l0.1-0.2c-0.1-0.1,0-0.2,0-0.2h-0.2l0,0l0.2-0.3l-0.3-0.3
			c-0.1,0.1-0.3,0.1-0.3-0.1l0.3-0.4c-0.2,0-0.4,0-0.6,0.1c0,0-0.1,0.1-0.1,0.1l-0.1,0.5c-0.1,0.3-0.2,0.7-0.2,1
			c-0.1,0.7-0.2,1.3-0.2,2s-0.1,1.5-0.1,2.3c0,0.1,0,0.1,0,0.2c0,0.4,0.1,0.9,0.2,1.3s0.1,0.7,0.1,1.1c0,0.1,0.1,0.2,0.1,0.4
			s0,0.5,0.1,0.7s0.1,0.7,0.2,1s0,0.9,0,1.3s0.1,0.8-0.1,1.3v0.5v0.8v0.6h0.3c0,0,0.1-0.1,0.2-0.2l0.4-0.6c0.1-0.2,0.3-0.3,0.2-0.6
			l-1.1,0.2l0,0v-0.2l0,0L470,603.9z M467,609.3c0.2,0.1,0,0.2-0.2,0.1c-0.1,0-0.1,0-0.2,0.1l-0.6,0.9c0,0.1-0.1-0.4-0.1-0.4h0.3
			c0,0,0.4,0.7,0.5,0h1l1.1,0.7c0.3,0,0.6,0.1,0.9,0.1c0.4,0,0.8-0.1,1.3-0.8h0v0.7c0.2,0,0,0.3,0,0.3h-1.1h-1.2
			c-0.4-0.2-0.6-0.4-0.9-0.1c-0.2,0.1-0.4,0.3-0.6,0.3l0,0l0.2-0.2l0,0l-0.5,0.3l0,0l0.2-0.1l0.4-0.2c0,0,0-0.1,0.1-0.1
			c-0.2,0.1-0.4,0.2-0.6,0.3c-0.2,0.1-0.4,0.2-0.8,0.2v-0.1l1-0.4v-0.1c0,0-0.1,0-0.2,0c-0.2,0-0.4,0.1-0.5,0.2
			c-0.2,0.1-0.3,0.3-0.6,0.3c-0.1,0-0.2,0.1-0.2,0.2l-0.2,0.4l-0.2,0.4c0.9,0,1.8,0,2.7-0.2c0-0.2,0.3-1.1,0.3-1.1h0.2l1.3,1h0.9
			c0.3-0.2,0.3-0.2,0.4-0.3c0.1-0.2,0.2-0.3,0.4-0.4c0.2-0.1,0.4-0.2,0.6-0.3c0.5-0.1,1-0.2,1.4-0.2c0.1,0,0.2-0.1,0.2-0.1
			c0.1,0,0.2-0.1,0.2-0.2l0.4-0.2c0.1-0.1,0.3-0.1,0.4-0.1l0.8-0.2l-0.1-0.1c-0.3,0.1-0.4,0.1-0.4,0L473,610v-0.2l1,0.1v-0.1v0.1
			v-0.1l-0.6-0.8h-0.8l-1.4,0.3l-1-0.1c-0.2,0-0.3,0-0.5,0c-0.1,0-0.3,0-0.4,0.1l-0.4,0.7h-0.4l-0.4-0.5l0,0l-0.1-0.3v-0.1
			c0.5,0,0.4,0,0.3,0.1c-0.2,0.1-0.4,0.4-0.8,0.3C467.5,609.5,467.4,609.4,467,609.3L467,609.3z M478.3,594l-0.7,0.4l-0.1-0.2
			l0.8-0.6l0,0l-0.4,0.1v-0.1c0,0,0.5-0.4,0.8-0.5c0,0.4-0.3,0.5-0.5,0.8c0.1,0,0.2,0,0.2-0.1c0.2-0.2,0.4-0.4,0.5-0.7
			c0-0.2,0.1-0.5,0.1-0.8l-0.3,0.1l0.2,0.1c-0.3,0.2-0.5,0.5-0.8,0.5c0-0.3,0.2-0.4,0.4-0.6c0-0.2,0.2-0.3,0.4-0.4
			c0,0.1-1,0.1-1,0.1v-0.3l1,0.3v0l-0.3-0.2l-0.3,0.1c0.2-0.2,0.4-0.4,0.7-0.5l-0.3,0.3l0,0l0.3-0.1c0.1-0.4-0.1-1.1-0.1-1.1v-0.2
			c0,0,0.4-0.6,0.4-0.9c0.1-0.5,0.1-1,0.2-1.5c0.1-0.3,0.2-0.7,0.2-1s0.2-0.5,0.2-0.8l-1.1,0.1v0.2l1,0.5v0.2l-0.4,0.1l-0.7,0.2l0,0
			l0.1-0.1v0.1c0.1,0-0.1,0.1-0.2,0.2s-0.4,0.1-0.5,0.2l0,0l0.3-0.8h-0.1c0,0,0.2,0,0.4-0.1c0.2-0.2,0.3-0.3,0.5-0.4
			c-0.1,0-0.2-0.1-0.2,0l-0.6,0.2c-0.1,0-0.1,0.1-0.1,0.1c-0.1,0.2-0.2,0.4-0.3,0.6c-0.1,0.2-0.1,0.5-0.2,0.7
			c-0.2,0.7-0.3,1.4-0.3,2.1c0,0.5-0.1,1-0.1,1.5s0,1.3,0,1.9c0,0.3,0,0.7-0.5,1v0.5c0.7-0.2,0.9-0.3,1-0.6c0-0.2,0.2-0.3,0.4-0.3
			L478.3,594z M464,608.8L464,608.8L464,608.8l1,0.2v-0.2c0,0-1.2-0.1-1.2-0.2c0-0.1,0-0.2,0-0.2c0-0.2,0.1-0.4,0-0.6
			s-0.1-0.5-0.2-0.8l0,0c0.1-0.2,0-0.3,0-0.5c-0.1-0.5-0.2-1-0.3-1.5s-0.2-1-0.3-1.5s-0.2-0.9-0.3-1.4c0-0.1,0-0.2,0.3-0.3l0,0v0.5
			v1.4v0.8c-0.2,0.2-0.2,0.3-0.3,0.5c-0.1,0.3-0.2,0.6-0.3,0.8c0,0-0.1,0-0.2,0.1s-0.1,0.1-0.1,0.2c0,0.1,0.1,0.3,0.1,0.4
			c0.1,0.4,0.2,0.7,0.3,1.1s0.2,0.6,0.3,1s0.3,0.7,0.4,1.1c0,0.1,0,0.2,0.1,0.3s0.2,0.5,0.3,0.7c0.1,0.3,0.2,0.6,0.3,0.8
			c0.1,0.3,0.3,0.6,0.3,0.9c0,0.1,0,0.3,0.2,0.4c0-0.2,0.1-0.3,0.1-0.5c0-0.1,0.1-0.3,0.3-0.3c0.1,0,0.2-0.1,0.1-0.2
			c0,0,0-0.1,0-0.1c0-0.3-0.1-0.6-0.1-0.9s-0.1-0.5-0.1-0.8l-0.3-1h-0.1c0,1.4,0,1.3,0,1.2s0.2-0.3,0.2-0.4c0-0.1,0.1,0.2,0.1,0.2
			h-0.1h-0.1h-0.1c0-0.2,0-0.3-0.3-0.4v-0.2c0.3,0,0.2-0.2,0.2-0.3C464.2,609,464.1,608.9,464,608.8L464,608.8z M484.1,588.1
			l0.3-0.3l1.1-1l0.5-0.5c0.2-0.2,0.4-0.5,0.7-0.7l0.3-1v-0.1c0.7,0,0.6,0,0.6,0s-0.2,0.2-0.3,0.3s-0.1,0.2-0.2,0.2
			c-0.2,0-0.4,0.1-0.6-0.1h-0.2c-0.1,0.4,0,0.3,0,0.2s0.2-0.2,0.2-0.2s0.2-0.2,0.3-0.4c-0.3,0.1-0.5,0.2-0.8,0.2s-0.5,0.2-0.8,0
			c0,0-0.1,0-0.1,0c-0.2,0.2-0.6,0.4-0.9,0.3c-0.2,0-0.4,0.1-0.5,0.3c-0.3,0.6-0.5,1.2-0.7,1.8c-0.1,0.6-0.2,1.2-0.3,1.7
			c0.4-0.3,0.7-0.6,1-1l-0.9,0.5v-0.1l0.6-0.4c0,0,0.1,0,0.1-0.1c0-0.2,0.2-0.2,0.3-0.2L484.1,588.1z M481.3,590.9l0.4-0.4
			c0.3-0.3,0.7-0.6,1-0.9c0.1-0.1,0.2-0.3,0.4-0.4v-0.6c-0.1-0.7,0.1-1.3,0.3-1.9c0.1-0.4,0.3-0.8,0.5-1.2c0-0.1,0-0.2-0.1-0.2
			c-0.1,0-0.2,0-0.2,0c-0.2,0.1-0.4,0.3-0.6,0.4c0.1,0,0.1,0,0.2,0.1c0.1,0.1,0.4,0,0.2,0.3c-0.1,0.2-0.2,0.3-0.4,0.4l0.1,0.1
			c0,0-0.1,0.1-0.1,0.1l-0.5,0.4H482v-0.3l0.4-0.4l-0.5-0.2C481.4,587.7,481.2,589.3,481.3,590.9L481.3,590.9z M488.7,584.2
			l-0.5,0.3c-0.1,0.1-0.2,0.2-0.3,0.3l-1,1c-0.4,0.4-0.7,0.7-1.1,1s-0.7,0.6-1,0.9c0.1,0,0.2,0,0.3,0c0.5,0,1.1-0.1,1.6-0.2
			c0.3-0.1,0.6-0.2,0.9-0.4s0.2-0.2,0.2-0.4c0-0.1,0-0.2,0-0.3c0-0.1,0.1-0.2,0.2-0.3c0.1-0.2,0.2-0.3,0.4-0.5
			c0.1-0.1,0.1-0.2,0.2-0.3c0-0.2,0.1-0.4,0.1-0.5C488.6,584.5,488.6,584.4,488.7,584.2L488.7,584.2z M475.3,597.4
			c0.3-0.3,0.6-0.6,0.8-0.9C475.3,596.9,475.3,597,475.3,597.4z M487,584.6c0.3,0,0.6-0.1,0.8-0.2
			C487.5,584.2,487.2,584.3,487,584.6L487,584.6z M466,611.1c0.3,0,0.4-0.2,0.6-0.3C466.4,610.7,466.1,610.8,466,611.1
			C466,611,466,611.1,466,611.1L466,611.1z M470.6,589h0.4h0.1c0,0.4,0,0.2,0.1,1h0L470.6,589z M480,605.7L480,605.7l0.8-0.4
			C480.5,605.3,480.2,605.5,480,605.7L480,605.7z M480.4,586.5c-0.1-0.2,0-0.4,0.1-0.5c-0.1,0-0.2,0-0.2,0c-0.1,0.2-0.1,0.3-0.2,0.5
			L480.4,586.5z M468.8,605.2c-0.1,0-0.2,0.2-0.2,0.3c0,0.1,0,0.1,0,0.2c0,0.1-0.1,0.2-0.2,0.3h0
			C468.7,605.8,468.8,605.5,468.8,605.2z M462.8,601L462.8,601l0.2-1H463L462.8,601z M477.6,587.3c0.4,0,0.5-0.2,0.5-0.5l-0.2,0.1
			C478,587.2,477.6,587.1,477.6,587.3L477.6,587.3z M480,605.4L480,605.4c1,0.1,0.8,0.2,1,0.4v0.1L480,605.4z M471.4,604.9
			c-0.4-0.1-0.5,0-0.6,0.2l0.2-0.1v0.1L471.4,604.9z M466.1,593.4l-0.1-0.1l-0.2,0.4l0,0L466.1,593.4z M482,585.9L482,585.9
			c-0.1-0.1-0.1-0.1-0.2-0.1s-0.1,0.1-0.1,0.2l0,0L482,585.9z M471,591.3c0.1,0,0.1-0.1,0.1-0.1c0-0.1,0-0.2,0-0.2h-0.1
			C471,591.1,471,591.2,471,591.3L471,591.3z M488,584.4l0.2-0.2l0,0C488.1,584.1,488,584.1,488,584.4L488,584.4z M485.3,598H485
			c-0.1,0-0.1,0.1-0.1,0.2L485.3,598z M480.4,587.1L480.4,587.1l-0.4,0.2v0.1L480.4,587.1z M470.4,590.4c0.3,0,0.3,0,0.3-0.1
			L470.4,590.4z"/>
		<path d="M480.1,588h-0.2c0,0.3,0.1,0.2,0.1,0.2l0.8,0.8h0.1l-0.9-0.7L480.1,588z"/>
		<path d="M468.9,607.2l-0.2,0.1l0.1-0.2h0l0.2,0v0L468.9,607.2L468.9,607.2z"/>
		<path d="M483.6,596.5l0.3-0.2l0,0l-0.8,0.2c-0.1,0-0.2,0-0.3,0l-0.3,0.1c-0.3,0.1-0.8,0.4-0.8,0.4h-0.1l0.4-0.5v0.5h-0.1
			c0,0-0.1-0.4-0.2-0.3c-0.3,0.1-0.6,0.1-0.8,0.3h0.1v-0.2l1-0.3V596h-1c0,0.4-0.1,0.4-0.1,0.5c-0.1,0.2,0,0.2,0,0.2v0l-0.1-0.6l0,0
			h-1.2l-1.6,1h-0.9H477c0-0.6,0.1-0.7,0.1-0.7c0.5,0,1-0.1,1.5-0.1c0.7,0,1.3,0.1,2,0.2c0.4,0,1.1-0.4,1.1-0.4h1h0.9
			c0.3,0.4,0.6,0.3,0.9,0.3c0.4,0,1.2,0.7,1.2,0.7s0.4,0,0.4,0c0,0-0.1,0.2-0.2,0.2s-0.3,0.3-0.4,0.4c-0.1,0-0.1,0.1-0.2,0.1
			l-0.8,0.3c-0.1,0-0.2,0.1-0.2-0.1s-0.2,0-0.3,0l-0.1-2L483.6,596.5z"/>
		<path d="M481.8,591.7l0.2-0.1v0.1l-0.4,0.3l0,0c-0.2-0.2-0.3,0-0.5,0s0,0-0.1,0l0.6-0.4C481.6,591.6,481.7,591.7,481.8,591.7z"/>
		<path d="M482.8,599.6c0.1-0.1,0.2-0.2,0.3-0.3l0.4-0.3c0,0,0.1,0,0.1,0s0,0.1,0,0.1L482.8,599.6L482.8,599.6z"/>
		<path d="M483.3,590.3c0.1-0.1,0.3-0.2,0.4-0.3c0.1,0,0.2,0,0.3,0c0,0-0.1,0.1-0.1,0.1S483.6,590.3,483.3,590.3L483.3,590.3z"/>
		<path d="M480.2,593.9l-0.8,0.6l0,0c0-0.1,0.1-0.1,0.1-0.2C479.7,594.1,479.9,593.9,480.2,593.9L480.2,593.9z"/>
		<path d="M474.5,601.2c0,0,0-0.1,0.1-0.1l0.5-0.2c0,0,0.1,0,0.1,0c0,0,0,0.1-0.1,0.1L474.5,601.2L474.5,601.2z"/>
		<path d="M482.7,593.8C482.7,593.8,482.7,593.9,482.7,593.8l-0.4,0.3c-0.1,0-0.1,0-0.2,0c0,0,0.1-0.1,0.1-0.1l0.3-0.2L482.7,593.8
			L482.7,593.8z"/>
		<path d="M476.3,598.8l-0.3,0.2v-0.1C476.1,598.8,476.2,598.6,476.3,598.8L476.3,598.8z"/>
		<path d="M482.7,594.1l0.3-0.2C483,594.1,482.8,594.1,482.7,594.1L482.7,594.1z"/>
		<path d="M468.3,593.9c-0.2,0.2,0,0.5-0.3,0.7c0-0.1,0-0.3,0-0.4s0-0.1,0-0.2s0-0.1,0-0.1c0.1-0.2,0.3-0.3,0.5-0.3l-0.3,0.3l0,0
			L468.3,593.9z"/>
		<path d="M467.7,592.5c0-0.2,0.6-0.7,0.9-0.7C468.3,592.1,468,592.3,467.7,592.5z"/>
		<path d="M466.6,593.6l-0.6,0.7l0,0c0,0,0-0.1,0-0.1L466.6,593.6L466.6,593.6z"/>
		<path d="M468,593c0,0,0-0.1,0-0.1s0.3-0.3,0.5-0.4s0.1,0,0.1,0l-0.1,0.1l-0.5,0.4L468,593L468,593z"/>
		<path d="M466,599.9c-0.1-0.2,0.1-0.5,0.3-0.5C466.3,599.6,466.1,599.8,466,599.9z"/>
		<path d="M466.6,608c0.1,0.3,0.1,0.6,0,0.9V608L466.6,608z"/>
		<path d="M467.5,597.4c0-0.1,0.1-0.1,0.1-0.2l0.3-0.3c0,0,0.1,0,0.1,0c0,0,0,0,0,0.1C467.9,597.2,467.7,597.3,467.5,597.4z"/>
		<path d="M468.2,592.3c-0.1,0.2-0.3,0.4-0.5,0.4L468.2,592.3z"/>
		<path d="M467.9,596.9l0.2-0.2C468.1,596.9,468.1,596.9,467.9,596.9z"/>
		<path d="M475.2,595l-0.2,0.1v-0.2c0,0,0.2-0.7,0.2-1c0-0.5-0.1-1-0.1-1.5s0-1.2,0-1.8c0-0.3,0.1-0.6,0.1-0.9c0-0.1,0-0.2,0-0.3
			c0.1-0.6,0.2-1.1,0.4-1.7c0-0.2,0.2-0.4,0.4-0.5l-0.3,0.7l0.2-0.3v0.1l-0.3,0.4l0,0l0.7-0.2l0,0L476,588h0.5l0,0
			c-0.2,0.3-0.5,0.4-0.7,0.5c-0.1,0-0.2,0.1,0.3,0.2v0.5l1-0.3v0.1l-0.7,0.2c-0.3,0.1-0.5,0.2-0.8,0.3c-0.1,0-0.1,0.2-0.1,0.4
			c0,0.2,0.6,0.6,0.6,0.6v1c0,0-0.6,0.6-0.5,0.9c0,0.5,0,0.9,0.1,1.3s0,0.9,0,1.3c0,0,0,0.1-0.1,0.2L475.2,595z"/>
		<path d="M476.2,590.1l0.4-0.1l0,0l-0.2,0.1l0,0l0.5-0.1v0.1l-1,0.5v-0.1L476.2,590.1l-0.1-0.1H476l-0.1-0.3l0,0
			c0.3-0.1,0.6-0.2,0.8-0.4c0.1,0,0.1,0,0.2,0c0,0.1,0,0.2-0.1,0.2C476.7,589.7,476.5,589.8,476.2,590.1L476.2,590.1z"/>
		<path d="M475.6,589.7c0.5-0.2,0.9-0.4,1.4-0.5v0.1l-1.4,0.6L475.6,589.7z"/>
		<path d="M477.5,587.8c0,0.2-0.2,0.4-0.4,0.3c-0.1,0-0.1,0-0.2-0.1C476.9,587.9,477.2,587.8,477.5,587.8z"/>
		<path d="M476.1,590.7l1.1-0.5C476.9,590.5,476.5,590.7,476.1,590.7z"/>
		<path d="M476,591.4c0.3-0.2,0.6-0.4,1-0.5v0.1L476,591.4L476,591.4z"/>
		<path d="M477,591.4l-1,0.5v-0.1C476.5,591.6,476.8,591.5,477,591.4L477,591.4z"/>
		<path d="M476,589l1-0.5v0.1L476,589L476,589z"/>
		<path d="M476.4,591.1c0.2-0.2,0.4-0.3,0.7-0.4C477,591,476.7,591.1,476.4,591.1z"/>
		<path d="M477.5,593.2c-0.1,0.1-0.3,0.2-0.4,0.3s-0.1,0-0.1,0s0-0.1,0-0.2C477.1,593.4,477.3,593.3,477.5,593.2L477.5,593.2z"/>
		<path d="M475.7,588.8l0.8-0.3C476.2,588.7,476,588.8,475.7,588.8z"/>
		<path d="M476.7,593.1c-0.1-0.2,0.1-0.4,0.3-0.4C477.1,592.9,476.9,593,476.7,593.1z"/>
		<path d="M477.4,588.2c-0.1,0.1-0.3,0.2-0.5,0.2C477,588.3,477.2,588.2,477.4,588.2z"/>
		<path d="M477.6,594.3l-0.5,0.3c0,0-0.1,0-0.1,0c0,0,0-0.1,0-0.1L477.6,594.3L477.6,594.3z"/>
		<path d="M475.2,588c-0.1,0.2-0.4,0.3-0.6,0.3C474.8,588.2,475,588.1,475.2,588z"/>
		<path d="M474,588.9l1-0.3v0.1L474,588.9L474,588.9z"/>
		<path d="M474.4,588.6l0.5-0.3C474.9,588.6,474.7,588.7,474.4,588.6z"/>
		<path d="M474.7,597.3c0-0.1,0.1-0.2,0.1-0.3c0,0,0.1,0,0.1-0.1c0,0,0,0.1,0,0.1S474.8,597.3,474.7,597.3L474.7,597.3z"/>
		<path d="M474.8,589.1l-0.4,0.2C474.5,589.1,474.6,589.1,474.8,589.1z"/>
		<path d="M477.1,593.6l-0.3,0.2C476.8,593.7,476.9,593.6,477.1,593.6z"/>
		<path d="M478,592.3l-1,0.2v-0.1C477,592.3,477.1,592.2,478,592.3L478,592.3z"/>
		<path d="M473.7,590.2l0.2-0.2h0.1c0,0,0,0.1,0,0.1C473.9,590.1,473.8,590.2,473.7,590.2L473.7,590.2z"/>
		<path d="M472.2,592.2c0.1-0.1,0.3-0.2,0.2-0.4c0,0,0-0.1,0.1-0.1s0-0.2-0.2-0.3s0.3-0.3,0.4-0.3s0.1,0.2,0,0.3l-0.2,0.1l0.2,0.3
			l-0.2,0.2h0.2C472.7,592.2,472.4,592.3,472.2,592.2z"/>
		<path d="M471.8,590.5c0.2-0.2,0.4-0.5,0.8-0.6C472.4,590.2,472.1,590.4,471.8,590.5z"/>
		<path d="M473,589.6l-0.8,0.5C472.4,589.8,472.7,589.6,473,589.6z"/>
		<path d="M472.5,590.4c-0.2,0.2-0.4,0.3-0.7,0.3L472.5,590.4L472.5,590.4z"/>
		<path d="M472.4,596.9l0.3-0.3c0,0,0.1,0,0.1,0c0,0,0,0.1,0,0.1C472.8,596.9,472.7,597,472.4,596.9L472.4,596.9z"/>
		<path d="M472.6,590.8c-0.1,0.1-0.2,0.2-0.4,0.2c0,0-0.1,0-0.2,0v0l0.3-0.1L472.6,590.8L472.6,590.8z"/>
		<path d="M472.9,595.7l-0.2,0.3c0,0-0.1,0-0.1,0c0,0,0-0.1,0-0.1C472.6,595.8,472.8,595.7,472.9,595.7z"/>
		<path d="M473,595c0,0.1-0.1,0.2-0.2,0.3s-0.1,0-0.1,0s-0.1-0.1,0-0.1S472.8,595,473,595L473,595z"/>
		<path d="M472.9,597.1l-0.3,0.3C472.5,597.3,472.6,597.1,472.9,597.1z"/>
		<path d="M472.8,591.2C472.8,591.2,472.8,591.2,472.8,591.2l0.2-0.3v0.1C472.9,591.1,472.8,591.2,472.8,591.2z"/>
		<path d="M469.7,597.1c0.2-0.4,0.4-0.7,0.7-1C470.4,596.3,470,596.9,469.7,597.1z"/>
		<path d="M469.8,595.3c0-0.1,0-0.1,0.1-0.2c0.1-0.1,0.2-0.2,0.3-0.3s0.1,0,0.1,0s0,0.1,0,0.1s-0.3,0.3-0.5,0.4L469.8,595.3z"/>
		<path d="M469.7,595.9c0-0.3,0.4-0.7,0.6-0.6L469.7,595.9z"/>
		<path d="M470.4,597.6C470.4,597.6,470.4,597.6,470.4,597.6c-0.1,0.2-0.2,0.3-0.3,0.4c0,0-0.1,0-0.1,0s0-0.1,0-0.1L470.4,597.6
			L470.4,597.6z"/>
		<path d="M470.2,598.5c0,0.3-0.2,0.4-0.4,0.5C469.8,598.8,470,598.6,470.2,598.5z"/>
		<path d="M470.3,597.6c0,0.2-0.1,0.3-0.2,0.4H470c0,0,0-0.1,0-0.1L470.3,597.6L470.3,597.6z"/>
		<path d="M470,597.4c-0.1-0.2,0.1-0.4,0.3-0.4L470,597.4z"/>
		<path d="M470.4,593.9c0,0.1-0.1,0.1-0.1,0.2c0,0-0.1,0-0.1,0.1s-0.1-0.1,0-0.2C470.2,593.9,470.3,593.9,470.4,593.9z"/>
		<path d="M473.4,603.3l0.6-0.2C473.9,603.3,473.7,603.4,473.4,603.3L473.4,603.3z"/>
		<path d="M469.1,608c0.1,0,0.3-0.1,0.4-0.2c0.2-0.1,0.3-0.3,0.6-0.1c0,0,0,0.1,0,0.1c-0.2,0.1-0.4,0.2-0.6,0.2
			c-0.1,0-0.2,0-0.2,0.1C469.1,608.1,469,608.1,469.1,608L469.1,608z"/>
		<path d="M477,608c-0.2-0.1-0.1-0.2-1-0.2v0.1L477,608L477,608z"/>
		<path d="M468.9,611.3c0.1-0.1,0.3-0.2,0.4-0.3c0,0,0.1,0,0.2,0s0,0.2-0.1,0.2C469.3,611.3,469.1,611.3,468.9,611.3L468.9,611.3z"
			/>
		<path d="M467.6,611.3c0.1-0.2,0.3-0.3,0.5-0.2L467.6,611.3z"/>
		<path d="M468.4,611.2l-0.5,0.2C468,611.2,468.2,611.1,468.4,611.2L468.4,611.2z"/>
		<path d="M470,610.4c0,0.1-0.1,0.1-0.2,0.2c0,0-0.1,0-0.1-0.1L470,610.4L470,610.4z"/>
		<path d="M468.7,611.4l0.3-0.1v0.1C468.9,611.4,468.8,611.4,468.7,611.4L468.7,611.4z"/>
		<path d="M479.1,587.8l-1,0.4C478.4,587.9,478.7,587.7,479.1,587.8z"/>
		<path d="M478.4,591.4c0.2-0.1,0.3-0.2,0.4-0.4c0,0,0,0,0.1,0h0.2c0,0.1,0,0.2,0,0.2s-0.4,0.2-0.5,0.4L478.4,591.4z"/>
		<path d="M478,593.5c0-0.1,0-0.1,0-0.1c0.2-0.1,0.3-0.3,0.5-0.4c0,0,0.1,0,0.1,0s0,0.1,0,0.1L478,593.5z"/>
		<path d="M478.2,588.3c0.2-0.1,0.5-0.2,0.8-0.3l0,0L478.2,588.3L478.2,588.3z"/>
		<path d="M478.1,589c0.1-0.2,0.3-0.3,0.6-0.3L478.1,589L478.1,589z"/>
		<path d="M478.2,590.1l-0.3,0.1c0.1-0.2,0-0.4,0.3-0.4l-0.1,0.2L478.2,590.1z"/>
		<path d="M478.3,589.3l-0.3,0.1v-0.1V589v0.1l0.3-0.1h0.2C478.4,589.4,478.4,589.4,478.3,589.3z"/>
		<path d="M478.7,588.4c-0.1,0.1-0.3,0.2-0.5,0.2L478.7,588.4L478.7,588.4z"/>
		<path d="M480.4,591.1c-0.2,0.3-0.6,0.5-1,0.6L480.4,591.1z"/>
		<path d="M480.9,590.8l-0.9,0.5v-0.1C480.3,591,480.6,590.9,480.9,590.8L480.9,590.8z"/>
		<path d="M480.8,590.4l-0.7,0.3C480.1,590.6,480.5,590.4,480.8,590.4z"/>
		<path d="M479.8,589.2c0.2-0.3,0.5-0.4,0.7-0.5l0,0L479.8,589.2z"/>
		<path d="M480.1,590.4c0-0.1,0.3-0.2,0.5-0.2L480.1,590.4z"/>
		<path d="M483.8,586.8l-0.6,0.1l0.4-0.5c-0.1-0.1-0.1-0.1,0.1-0.4l0.2,0.1l-0.2-0.3c0,0,0.1,0,0.2,0l1-0.5c0,0,0.1,0,0.1,0
			c0,0,0,0.1,0,0.2c-0.2,0.5-0.4,1-0.5,1.5c0,0.2-0.1,0.3-0.1,0.5c0,0-0.1,0.1-0.1,0.1s-0.1-0.1-0.1-0.1c0-0.3,0.1-0.6,0.2-1
			c0-0.1,0.1-0.2,0.1-0.3s0-0.1-0.1-0.2c0,0-0.1,0.1-0.1,0.1c-0.1,0.1-0.1,0.2-0.2,0.3C484.1,586.6,483.9,586.7,483.8,586.8
			C483.8,586.8,483.8,586.8,483.8,586.8L483.8,586.8z"/>
		<path d="M484,587h0.2c0,0,0.1-0.1-0.2-0.1V587c0.3,0.1,0.2,1,0.2,1h0.2l0,0c-0.1-0.7-0.2-0.7-0.2-0.6c-0.1,0-0.1,0.1-0.2,0.2
			c-0.1,0-0.2,0.1-0.3,0.1c0,0-0.1,0-0.7-0.1v-0.3c0.6-0.1,0.7-0.3,0.9-0.4l0.1-0.1V587z"/>
		<path d="M486.3,585.6c-0.1,0.2-0.3,0.4-0.6,0.6C485.8,585.9,486.1,585.8,486.3,585.6z"/>
		<path d="M481.7,588l0.3-0.1v0.1l-0.6,0.3c-0.1-0.2-0.1-0.3,0-0.4s0.4-0.2,0.6-0.3l0.1,0.1L481.7,588L481.7,588z"/>
		<path d="M482.7,587h0.3c0,0.1,0,0.1-0.1,0.1c-0.3,0.1-0.5,0.2-0.8,0.3c0.2-0.3,0.4-0.6,0.8-0.5L482.7,587L482.7,587z"/>
		<path d="M482,587.8c0-0.2,0-0.3,0.2-0.4l0.6-0.2c0,0.1-0.1,0.2-0.1,0.3c0,0,0,0,0,0.1L482,587.8z"/>
		<path d="M482,589.5c0-0.1,0-0.2,0-0.2c0-0.1,0.1-0.3,0.3-0.3c0,0,0.1,0,0.1,0s0,0.1,0,0.1s-0.2,0.1-0.2,0.3
			C482.1,589.5,482,589.5,482,589.5z"/>
		<path d="M481.8,588.6c0-0.2,0.1-0.2,0.2-0.2l0,0L481.8,588.6z"/>
	</g>
</g>
</svg>
