<?xml version="1.0" standalone="no"?>
<!DOCTYPE svg PUBLIC "-//W3C//DTD SVG 1.1//EN" "http://www.w3.org/Graphics/SVG/1.1/DTD/svg11.dtd">
<svg xmlns="http://www.w3.org/2000/svg"><metadata>This SVG WebFont was generated by YouWorkForThem.
Copyright (c) 2012 by Hans van Maanen. Published by Canada Type. All rights reserved.</metadata><defs><font horiz-adv-x="901" id="ywftsvg"><font-face ascent="1638" bbox="-303 -934 2400.04 1898" cap-height="1434" descent="-410" font-family="" font-stretch="normal" font-weight="400" panose-1="2 0 5 3 0 0 0 2 0 3" underline-position="0" underline-thickness="0" unicode-range="U+000D-FB04" units-per-em="2048" x-height="809"/><missing-glyph d="M197 92h706v1153h-706v-1153zM102 1337h895v-1337h-895v1337z" horiz-adv-x="1099"/><glyph d="M579 1434q42 0 42 -27q0 -18 -24 -25.5t-51.5 -19.5t-50 -33.5t-22.5 -66.5v-1104q0 -45 21.5 -63.5t47 -28t47 -14.5t21.5 -23q0 -10 -12 -19.5t-33 -9.5l-170 8q-49 0 -95 -10t-88 -10t-42 26q0 16 22.5 24.5t50 20t51 33t23.5 66.5v1104q1 69 -69 93q-26 9 -48 14 t-22 24q0 10 13.5 19t33.5 9l170 -8q49 0 95.5 10.5t88.5 10.5zM811 -358q0 16 62.5 62.5t133.5 166.5q70 120 70 285v1106q1 69 -69 93q-26 9 -48 14t-22 24q0 10 13.5 19t33.5 9l170 -8q49 0 95 10.5t88 10.5t42 -27q0 -18 -23.5 -25.5t-51 -19.5t-50 -33.5t-22.5 -66.5 v-1014q1 -326 -229 -538q-112 -103 -153 -103q-40 0 -40 35z" glyph-name="IJ" horiz-adv-x="1499" unicode="IJ"/><glyph d="M195 592q0 129 -70 129t-70 25t39 32l178 37q28 8 43.5 8t16.5 -20v-651q0 -66 66 -88q26 -8 46.5 -13.5t20.5 -23.5q0 -10 -10.5 -18.5t-28.5 -8.5l-162 14q-47 0 -89 -13t-81 -13t-39 26q0 16 21.5 23.5t48.5 19t48.5 32t21.5 63.5v440zM244 1192q0 33 22.5 56.5 t55.5 23.5t56 -23.5t23 -56.5t-23.5 -55.5t-55.5 -22.5q-33 0 -55.5 22.5t-22.5 55.5zM698 592q0 129 -69.5 129t-69.5 25t39 32l178 37q28 8 43.5 8t16.5 -20v-826q0 -316 -177 -481q-37 -37 -63 -37q-31 0 -31 25q0 16 35 45q98 73 98 459v604zM748 1192q0 33 22.5 56.5 t54.5 23.5q33 0 56.5 -23.5t23.5 -56.5t-23.5 -55.5t-56.5 -22.5t-55 22.5t-22 55.5z" glyph-name="ij" horiz-adv-x="1024" unicode="ij"/><glyph d="M561 -12q-39 0 -39 26q0 16 21.5 23.5t48 19t48.5 32t22 63.5v587h-330v-587q0 -43 25.5 -60.5t57 -27t57.5 -14.5t26 -23q0 -10 -10.5 -18.5t-28.5 -8.5l-195 14q-47 0 -89 -13t-81 -13t-39 26q0 16 21.5 23.5t48.5 19t48.5 32t21.5 63.5v587h-76l76 74v158 q0 197 124 329t316 132q82 0 147 -35q105 96 262 96q104 -1 178 -63q18 -16 18.5 -35t-31.5 -55q-32 -37 -49 -37t-65.5 60t-133.5 60q-57 0 -109 -77q-53 -77 -53 -230v-303h174q37 0 50 -5t13 -29t-16 -43t-27 -19q-22 22 -114 22h-80v-587q0 -43 25.5 -60.5t57 -27 t57.5 -14.5t26 -23q0 -10 -10.5 -18.5t-28.5 -8.5l-195 14q-47 0 -89 -13t-81 -13zM551 1362q-219 0 -219 -389v-160h330v301q0 84 36 168q-68 80 -147 80z" glyph-name="uniFB00" horiz-adv-x="1060" unicode="ff"/><glyph d="M94 -12q-39 0 -39 26q0 16 21.5 23.5t48.5 19t48.5 32t21.5 63.5v587h-76l76 74v301q0 147 101 263t282 116q104 -1 178 -63q18 -16 18 -35t-32 -55q-32 -37 -49 -37t-65.5 60t-133.5 60q-57 0 -109 -77q-53 -77 -53 -230v-303h174q37 0 50 -5t13 -29t-16 -43t-27 -19 q-22 22 -114 22h-80v-587q0 -43 25.5 -60.5t57 -27t57.5 -14.5t26 -23q0 -10 -10.5 -18.5t-28.5 -8.5l-195 14q-47 0 -89 -13t-81 -13zM737 592q0 129 -69.5 129t-69.5 25t39 32l178 37q28 8 43.5 8t15.5 -20v-651q0 -66 67 -88q26 -8 46.5 -13.5t20.5 -23.5 q0 -10 -10.5 -18.5t-28.5 -8.5l-162 14q-47 0 -89 -13t-81 -13t-39 26q0 16 21.5 23.5t48 19t48 32t21.5 63.5v440zM786 1192q0 33 22.5 56.5t55.5 23.5t56.5 -23.5t23.5 -56.5t-23.5 -55.5t-56.5 -22.5t-55.5 22.5t-22.5 55.5z" glyph-name="uniFB01" horiz-adv-x="1064" unicode="fi"/><glyph d="M565 -12q-39 0 -39 26q0 16 21.5 23.5t48.5 19t48.5 32t21.5 63.5v1110q0 102 -84 144q-34 17 -94 17t-108 -73.5t-48 -233.5v-303h182q37 0 50.5 -5t13.5 -29t-16.5 -43t-26.5 -19q-22 22 -115 22h-88v-587q0 -43 22.5 -60.5t49 -27t49 -14.5t22.5 -23q0 -10 -10 -18.5 t-29 -8.5l-172 14q-47 0 -89 -13t-81 -13t-39 26q0 16 21.5 23.5t48.5 19t48.5 32t21.5 63.5v587h-76l76 74v301q0 147 101 263t282 116q47 0 86 -25l71 17q39 8 49 8q27 0 27 -27l-8 -204v-1110q1 -66 67 -88q26 -8 46 -13.5t20 -23.5q0 -10 -10.5 -18.5t-28.5 -8.5 l-162 14q-47 0 -89 -13t-81 -13z" glyph-name="uniFB02" horiz-adv-x="991" unicode="fl"/><glyph d="M561 -12q-39 0 -39 26q0 16 21.5 23.5t48 19t48.5 32t22 63.5v587h-330v-587q0 -43 25.5 -60.5t57 -27t57.5 -14.5t26 -23q0 -10 -10.5 -18.5t-28.5 -8.5l-195 14q-47 0 -89 -13t-81 -13t-39 26q0 16 21.5 23.5t48.5 19t48.5 32t21.5 63.5v587h-76l76 74v158 q0 197 124 329t316 132q82 0 147 -35q105 96 262 96q104 -1 178 -63q18 -16 18.5 -35t-31.5 -55q-32 -37 -49 -37t-65.5 60t-133.5 60q-57 0 -109 -77q-53 -77 -53 -230v-303h174q37 0 50 -5t13 -29t-16 -43t-27 -19q-22 22 -114 22h-80v-587q0 -43 25.5 -60.5t57 -27 t57.5 -14.5t26 -23q0 -10 -10.5 -18.5t-28.5 -8.5l-195 14q-47 0 -89 -13t-81 -13zM551 1362q-219 0 -219 -389v-160h330v301q0 84 36 168q-68 80 -147 80zM1200 592q0 129 -69.5 129t-69.5 25t39 32l178 37q28 8 43.5 8t15.5 -20v-651q0 -66 67 -88q26 -8 46 -13.5 t20 -23.5q0 -10 -10 -18.5t-28 -8.5l-162 14q-47 0 -89 -13t-81 -13t-39 26q0 16 21.5 23.5t48 19t48 32t21.5 63.5v440zM1249 1192q0 33 22.5 56.5t55.5 23.5t56.5 -23.5t23.5 -56.5t-23.5 -55.5t-56.5 -22.5t-55.5 22.5t-22.5 55.5z" glyph-name="uniFB03" horiz-adv-x="1527" unicode="ffi"/><glyph d="M1032 -12q-39 0 -39 26q0 16 21.5 23.5t48.5 19t48.5 32t21.5 63.5v1110q1 102 -83 144q-34 17 -94.5 17t-108.5 -73.5t-48 -233.5v-303h174q37 0 50 -5t13 -29t-16 -43t-27 -19q-22 22 -114 22h-80v-587q0 -43 25.5 -60.5t57 -27t57.5 -14.5t26 -23q0 -10 -10.5 -18.5 t-28.5 -8.5l-195 14q-47 0 -89 -13t-81 -13t-39 26q0 16 21.5 23.5t48 19t48.5 32t22 63.5v587h-330v-587q0 -43 25.5 -60.5t57 -27t57.5 -14.5t26 -23q0 -10 -10.5 -18.5t-28.5 -8.5l-195 14q-47 0 -89 -13t-81 -13t-39 26q0 16 21.5 23.5t48.5 19t48.5 32t21.5 63.5v587 h-76l76 74v158q0 197 124 329t316 132q82 0 147 -35q105 96 262 96q50 0 86 -25l72 17q39 8 49 8q27 0 27 -27l-8 -204v-1110q0 -66 66 -88q26 -8 46.5 -13.5t20.5 -23.5q0 -10 -10.5 -18.5t-28.5 -8.5l-162 14q-47 0 -89 -13t-81 -13zM551 1362q-219 0 -219 -389v-160h330 v301q0 84 36 168q-68 80 -147 80z" glyph-name="uniFB04" horiz-adv-x="1458" unicode="ffl"/><glyph d="M551 1362q-219 0 -219 -389v-821q0 -43 25.5 -60.5t57 -27t57.5 -14.5t26 -23q0 -10 -10.5 -18.5t-28.5 -8.5l-195 14q-47 0 -89 -13t-81 -13t-39 26q0 16 21.5 23.5t48.5 19t48.5 32t21.5 63.5v587h-76l76 74v158q0 197 124 329t316 132q82 0 147 -35q105 96 262 96 q104 -1 178 -63q18 -16 18.5 -25.5t-41.5 -57.5q-42 -49 -55 -49t-63 56.5t-119 56.5t-116 -72t-47 -223v-964q0 -43 25.5 -60.5t57 -27t57.5 -14.5t26 -23q0 -10 -10.5 -18.5t-28.5 -8.5l-195 14q-47 0 -89 -13t-81 -13t-39 26q0 16 21.5 23.5t48 19t48.5 32t22 63.5v962 q0 84 36 168q-68 80 -147 80z" glyph-name="longs_longs.liga" horiz-adv-x="1021" unicode="ſſ"/><glyph d="M551 1362q-219 0 -219 -389v-821q0 -43 25.5 -60.5t57 -27t57.5 -14.5t26 -23q0 -10 -10.5 -18.5t-28.5 -8.5l-195 14q-47 0 -89 -13t-81 -13t-39 26q0 16 21.5 23.5t48.5 19t48.5 32t21.5 63.5v587h-76l76 74v158q0 197 124 329t316 132q82 0 147 -35q105 96 262 96 q104 -1 178 -63q18 -16 18.5 -35t-31.5 -55q-32 -37 -49 -37t-65.5 60t-133.5 60q-57 0 -109 -77q-53 -77 -53 -230v-303h174q37 0 50 -5t13 -29t-16 -43t-27 -19q-22 22 -114 22h-80v-587q0 -43 25.5 -60.5t57 -27t57.5 -14.5t26 -23q0 -10 -10.5 -18.5t-28.5 -8.5l-195 14 q-47 0 -89 -13t-81 -13t-39 26q0 16 21.5 23.5t48 19t48.5 32t22 63.5v587h-76l76 74v301q0 84 36 168q-68 80 -147 80z" glyph-name="longs_f.liga" horiz-adv-x="1060" unicode="ſf"/><glyph d="M565 -12q-39 0 -39 26q0 16 21.5 23.5t48.5 19t48.5 32t21.5 63.5v1110q0 102 -84 144q-34 17 -94 17t-108 -73.5t-48 -233.5v-964q0 -43 22.5 -60.5t49 -27t49 -14.5t22.5 -23q0 -10 -10 -18.5t-29 -8.5l-172 14q-47 0 -89 -13t-81 -13t-39 26q0 16 21.5 23.5t48.5 19 t48.5 32t21.5 63.5v587h-76l76 74v301q0 147 101 263t282 116q47 0 86 -25l71 17q39 8 49 8q27 0 27 -27l-8 -204v-594q42 61 130 105t183 44q240 0 240 -235v-430q0 -66 66 -88q26 -8 46.5 -13.5t20.5 -23.5q0 -10 -10.5 -18.5t-28.5 -8.5l-162 14q-47 0 -89 -13t-81 -13 t-39 26q0 16 21.5 23.5t48.5 19t48.5 32t21.5 63.5v362q0 111 -45.5 154t-118.5 43t-146 -33t-106 -98v-428q1 -66 67 -88q26 -8 46 -13.5t20 -23.5q0 -10 -10.5 -18.5t-28.5 -8.5l-162 14q-47 0 -89 -13t-81 -13z" glyph-name="longs_h.liga" horiz-adv-x="1546" unicode="ſh"/><glyph d="M657 37q1 25 5 52t4 104v1069q0 102 -84 144q-34 17 -94 17t-108 -73.5t-48 -233.5v-964q0 -43 22.5 -60.5t49 -27t49 -14.5t22.5 -23q0 -10 -10 -18.5t-29 -8.5l-172 14q-47 0 -89 -13t-81 -13t-39 26q0 16 21.5 23.5t48.5 19t48.5 32t21.5 63.5v587h-76l76 74v301 q0 147 101 263t282 116q47 0 86 -25l71 17q39 8 49 8q27 0 27 -27l-8 -204v-543q120 98 275 98t286 -106t131 -292q0 -185 -126 -308t-308 -123q-114 0 -178 30q-63 30 -86 30t-45 -24q-21 -23 -52 -24q-43 0 -43 37zM1356 348q0 146 -93 264t-234 118.5t-226 -99.5v-441 q79 -133 293 -133q114 0 187 81t73 210z" glyph-name="longs_b.liga" horiz-adv-x="1560" unicode="ſb"/><glyph d="M565 -12q-39 0 -39 26q0 16 21.5 23.5t48.5 19t48.5 32t21.5 63.5v1110q0 102 -84 144q-34 17 -94 17t-108 -73.5t-48 -233.5v-964q0 -43 22.5 -60.5t49 -27t49 -14.5t22.5 -23q0 -10 -10 -18.5t-29 -8.5l-172 14q-47 0 -89 -13t-81 -13t-39 26q0 16 21.5 23.5t48.5 19 t48.5 32t21.5 63.5v587h-76l76 74v301q0 147 101 263t282 116q47 0 86 -25l71 17q39 8 49 8q27 0 27 -27l-8 -204v-832l176 164q33 27 53.5 67.5t20.5 57t-11.5 26t-24.5 15.5t-24.5 12t-11.5 16q0 25 33 25t58.5 -7t60.5 -7l157 14q41 0 41 -27q0 -10 -10 -20t-33 -10 q-59 0 -155 -99l-140 -143l295 -377q46 -57 96 -79q18 -8 26.5 -12.5t8.5 -16.5q0 -29 -35.5 -29t-95.5 12t-107.5 -6t-86.5 -18t-39 26q0 12 12.5 19.5t28.5 14.5q42 19 43 46q0 26 -35 72l-209 256l-92 -80v-190q1 -66 67 -88q26 -8 46 -13.5t20 -23.5q0 -10 -10.5 -18.5 t-28.5 -8.5l-162 14q-47 0 -89 -13t-81 -13z" glyph-name="longs_k.liga" horiz-adv-x="1419" unicode="ſk"/><glyph d="M1118 -12q-39 0 -39 26q0 16 21.5 23.5t48.5 19t48.5 32t21.5 63.5v362q0 111 -45.5 154t-118.5 43t-146 -33t-106 -98v-428q1 -66 67 -88q26 -8 46 -13.5t20 -23.5q0 -10 -10.5 -18.5t-28.5 -8.5l-162 14q-47 0 -89 -13t-81 -13t-39 26q0 16 21.5 23.5t48.5 19t48.5 32 t21.5 63.5v1110q0 102 -84 144q-34 17 -94 17t-108 -73.5t-48 -233.5v-303h182q37 0 50.5 -5t13.5 -29t-16.5 -43t-26.5 -19q-22 22 -115 22h-88v-587q0 -43 22.5 -60.5t49 -27t49 -14.5t22.5 -23q0 -10 -10 -18.5t-29 -8.5l-172 14q-47 0 -89 -13t-81 -13t-39 26 q0 16 21.5 23.5t48.5 19t48.5 32t21.5 63.5v587h-76l76 74v301q0 147 101 263t282 116q47 0 86 -25l71 17q39 8 49 8q27 0 27 -27l-8 -204v-594q42 61 130 105t183 44q240 0 240 -235v-430q0 -66 66 -88q26 -8 46.5 -13.5t20.5 -23.5q0 -10 -10.5 -18.5t-28.5 -8.5l-162 14 q-47 0 -89 -13t-81 -13z" glyph-name="f_h.liga" horiz-adv-x="1546" unicode="fh"/><glyph d="M657 37q1 25 5 52t4 104v1069q0 102 -84 144q-34 17 -94 17t-108 -73.5t-48 -233.5v-303h182q37 0 50.5 -5t13.5 -29t-16.5 -43t-26.5 -19q-22 22 -115 22h-88v-587q0 -43 22.5 -60.5t49 -27t49 -14.5t22.5 -23q0 -10 -10 -18.5t-29 -8.5l-172 14q-47 0 -89 -13t-81 -13 t-39 26q0 16 21.5 23.5t48.5 19t48.5 32t21.5 63.5v587h-76l76 74v301q0 147 101 263t282 116q47 0 86 -25l71 17q39 8 49 8q27 0 27 -27l-8 -204v-543q120 98 275 98t286 -106t131 -292q0 -185 -126 -308t-308 -123q-114 0 -178 30q-63 30 -86 30t-45 -24q-21 -23 -52 -24 q-43 0 -43 37zM1356 348q0 146 -93 264t-234 118.5t-226 -99.5v-441q79 -133 293 -133q114 0 187 81t73 210z" glyph-name="f_b.liga" horiz-adv-x="1560" unicode="fb"/><glyph d="M565 -12q-39 0 -39 26q0 16 21.5 23.5t48.5 19t48.5 32t21.5 63.5v1110q0 102 -84 144q-34 17 -94 17t-108 -73.5t-48 -233.5v-964q0 -43 22.5 -60.5t49 -27t49 -14.5t22.5 -23q0 -10 -10 -18.5t-29 -8.5l-172 14q-47 0 -89 -13t-81 -13t-39 26q0 16 21.5 23.5t48.5 19 t48.5 32t21.5 63.5v587h-76l76 74v301q0 147 101 263t282 116q47 0 86 -25l71 17q39 8 49 8q27 0 27 -27l-8 -204v-1110q1 -66 67 -88q26 -8 46 -13.5t20 -23.5q0 -10 -10.5 -18.5t-28.5 -8.5l-162 14q-47 0 -89 -13t-81 -13z" glyph-name="longs_l.liga" horiz-adv-x="991" unicode="ſl"/><glyph d="M1331 786q0 -10 -10 -20t-33 -10q-59 0 -155 -99l-140 -143l295 -377q46 -57 96 -79q18 -8 26.5 -12.5t8.5 -16.5q0 -29 -35.5 -29t-95.5 12t-107.5 -6t-86.5 -18t-39 26q0 12 12.5 19.5t28.5 14.5q42 19 43 46q0 26 -35 72l-209 256l-92 -80v-190q1 -66 67 -88 q26 -8 46 -13.5t20 -23.5q0 -10 -10.5 -18.5t-28.5 -8.5l-162 14q-47 0 -89 -13t-81 -13t-39 26q0 16 21.5 23.5t48.5 19t48.5 32t21.5 63.5v1110q0 102 -84 144q-34 17 -94 17t-108 -73.5t-48 -233.5v-303h182q37 0 50.5 -5t13.5 -29t-16.5 -43t-26.5 -19q-22 22 -115 22 h-88v-587q0 -43 22.5 -60.5t49 -27t49 -14.5t22.5 -23q0 -10 -10 -18.5t-29 -8.5l-172 14q-47 0 -89 -13t-81 -13t-39 26q0 16 21.5 23.5t48.5 19t48.5 32t21.5 63.5v587h-76l76 74v301q0 147 101 263t282 116q47 0 86 -25l71 17q39 8 49 8q27 0 27 -27l-8 -204v-832 l176 164q40 40 57 74t17 50.5t-11.5 26t-24.5 15.5t-24.5 12t-11.5 16q0 25 33 25t58.5 -7t60.5 -7l157 14q41 0 41 -27z" glyph-name="f_k.liga" horiz-adv-x="1419" unicode="fk"/><glyph d="M197 92h706v1153h-706v-1153zM102 1337h895v-1337h-895v1337z" glyph-name=".notdef" horiz-adv-x="1099"/><glyph glyph-name="glyph1" horiz-adv-x="0"/><glyph glyph-name="glyph3" horiz-adv-x="0"/><glyph glyph-name="glyph3" horiz-adv-x="0"/><glyph glyph-name="space" horiz-adv-x="368" unicode=" "/><glyph d="M322 1145q0 -261 -22 -507.5t-30 -328.5q-4 -31 -28 -30q-12 0 -23.5 8t-11.5 22q-21 763 -61 884q-14 42 -44 71q23 39 57 68.5t103 43.5q60 -39 60 -231zM135 104l113 125l112 -125l-112 -124z" glyph-name="exclam" horiz-adv-x="421" unicode="!"/><glyph d="M190 877q0 117 -62 270q-19 47 -46 72l137 151l137 -151q-70 -65 -101 -271q-7 -47 -7 -71h-58zM541 877q0 62 -32 181t-77 161l137 151l138 -151q-71 -66 -102 -271q-7 -47 -7 -71h-57z" glyph-name="quotedbl" horiz-adv-x="788" unicode="&quot;"/><glyph d="M924 338q53 0 53 -39q0 -23 -22.5 -43t-61.5 -20h-143l-66 -216q-19 -59 -80 -59q-18 0 -32.5 10.5t-14.5 23.5t4 25l66 216h-199l-61 -216q-19 -59 -74 -59t-55 41q0 12 2 18l63 216h-137q-53 0 -53 38q0 23 21.5 43.5t62.5 20.5h137l53 180h-139q-53 0 -53 39 q0 20 21.5 40.5t62.5 20.5h141l69 236q15 59 69 59t54 -43v-9q0 -5 -2 -9l-67 -234h200l66 234q8 31 32.5 46t49.5 15q47 0 47 -43q0 -12 -2 -18l-72 -234h146q53 0 53 -38q0 -20 -22.5 -41t-63.5 -21h-139l-60 -180h146zM457 338h200l54 180h-197z" glyph-name="numbersign" horiz-adv-x="1216" unicode="#"/><glyph d="M121 167q39 54 63 54q8 0 16 -20.5t26 -46.5q48 -73 130 -86v370q-122 71 -158 106q-77 76 -77 150q0 120 127 186q45 24 108 29v58q0 33 16.5 46t35 13t35 -13.5t16.5 -45.5v-56q163 -13 233 -67q22 -16 21.5 -35.5t-37.5 -70.5q-37 -50 -58 -50q-10 0 -19 20t-27 48 q-47 74 -113 90v-297q123 -63 173 -106q97 -85 97 -167q0 -117 -65.5 -192.5t-204.5 -87.5v-76q0 -29 -16.5 -42t-34.5 -13t-35 13t-17 42v76q-170 14 -250 70q-24 16 -24 31.5t39 69.5zM608 221.5q0 46.5 -43 86.5t-106 77v-315q72 15 110 60q39 45 39 91.5zM242 715 q0 -31 30.5 -57.5t83.5 -55.5v242q-114 -26 -114 -129z" glyph-name="dollar" horiz-adv-x="882" unicode="$"/><glyph d="M650 766q-89 -96 -215 -96q-125 0 -224 80q-98 80 -98 220t96 229t213 89q120 0 218 -84t99 -213q0 -129 -89 -225zM225 1020q0 -98 73 -187q73 -88 158 -88t129 57t44 142.5t-71 174.5t-169 89q-164 0 -164 -188zM1532 178q0 -130 -89 -225q-89 -96 -215 -96 q-125 0 -224 81t-99 219q0 139 96 228q96 90 213 90q120 0 219 -83q99 -84 99 -214zM1018 207q0 -99 72 -187t159 -88q86 0 129 56t43 142t-70 176q-70 89 -169 89q-164 0 -164 -188zM522 -272q-31 0 -48 15t-17 35.5t4 26.5l588 1536q14 37 43 37t48 -16t19 -36.5t-2 -27.5 l-590 -1531q-14 -39 -45 -39z" glyph-name="percent" horiz-adv-x="1634" unicode="%"/><glyph d="M565 772q49 0 49 -33q0 -27 -61.5 -26.5t-126 -24t-112.5 -67.5q-103 -92 -103 -231t95 -232q95 -92 240.5 -92t233.5 69.5t88 204.5q0 63 -53 119l-156 -56q-102 -37 -102 -73.5t9 -50t9 -30.5q0 -36 -30 -36q-20 0 -52 34t-32 83q0 118 172 180l354 121q69 22 86 22 q37 0 37 -47q0 -98 -59 -98q-90 0 -154 -21q57 -72 57 -159q0 -164 -117.5 -253t-310.5 -89t-324 109q-132 109 -132 263t74.5 248t205.5 135q-147 92 -147 230q0 112 99 192t230 80t209 -46t78 -97q1 -32 -65 -98q-14 -14 -24.5 -14.5t-21 26t-27.5 58.5q-45 85 -131.5 85 t-137 -53t-50.5 -133t57 -140q57 -59 146 -59z" glyph-name="ampersand" horiz-adv-x="1089" unicode="&amp;"/><glyph d="M190 877q0 117 -62 270q-19 47 -46 72l137 151l137 -151q-70 -65 -101 -271q-7 -47 -7 -71h-58z" glyph-name="quotesingle" horiz-adv-x="438" unicode="'"/><glyph d="M471 -273q0 -13 -9 -24.5t-24.5 -11.5t-27.5 20q-145 174 -226.5 391t-81.5 437q0 313 178 649q54 100 115 184q19 23 35 23q38 0 37 -35q0 -14 -6 -23q-205 -424 -205 -810q0 -387 209 -771q6 -16 6 -29z" glyph-name="parenleft" horiz-adv-x="522" unicode="("/><glyph d="M51 1357.5q0 14.5 9.5 26t24.5 11.5t28 -21q145 -174 226 -391t81 -436q0 -313 -178 -649q-54 -100 -115 -185q-31 -39 -61 -13q-10 9 -10.5 23.5t5.5 24.5q205 424 205 810q0 387 -209 771q-6 14 -6 28.5z" glyph-name="parenright" horiz-adv-x="522" unicode=")"/><glyph d="M189 1120q38 0 85 15q48 -101 90 -135q16 -14 44 -33q0 87 -44 151q-14 22 -34 49q47 47 65 80t35 109q10 -72 31.5 -111t60.5 -78q-18 -29 -45.5 -72t-32.5 -128q76 45 107 109q12 24 29 59q51 -18 98 -18.5t115 26.5q-53 -47 -78 -84t-39 -90q-18 2 -30 2h-48 q-53 0 -135 -35q61 -32 88 -33.5t43 -1.5h40q24 0 42 2q18 -85 66 -134q18 -19 46 -44q-72 27 -118.5 27t-89.5 -15q-42 83 -59 103t-33.5 31.5t-43.5 31.5q4 -67 17 -102q14 -35 61 -99q-62 -54 -84 -126q-8 -26 -16 -62q-23 105 -47.5 136.5t-44.5 51.5q62 80 74 144 q4 22 4 57q-51 -23 -79 -64.5t-55 -101.5q-39 17 -92 17t-121 -27q53 47 78 84t37 90q18 -2 34 -2h56q51 0 123 37q-25 12 -48.5 24.5t-70.5 12.5h-56q-19 0 -38 -2q-10 57 -34.5 94t-75.5 84q85 -29 123 -29z" glyph-name="asterisk" horiz-adv-x="854" unicode="*"/><glyph d="M555 53q0 -23 -6 -47t-43 -24t-43 24.5t-6 46.5v303h-303q-23 0 -47.5 6.5t-24.5 43.5t24.5 43t47.5 6h303v303q0 23 6 47t43 24t43 -24.5t6 -46.5v-303h303q23 0 46.5 -6.5t23.5 -42.5q0 -37 -23.5 -43.5t-46.5 -6.5h-303v-303z" glyph-name="plus" horiz-adv-x="1009" unicode="+"/><glyph d="M147 8q0 23 -16 47.5t-55 67.5l125 137l125 -137q-143 -229 -215 -307q-14 -16 -29 -17q-21 0 -21 25q1 14 21 42q64 90 65 142z" glyph-name="comma" horiz-adv-x="387" unicode=","/><glyph d="M426 475q27 0 51 19h62l-80 -119h-279q-29 0 -51 -17h-61l79 117h279z" glyph-name="hyphen" horiz-adv-x="606" unicode="-"/><glyph d="M61 127l134 147l133 -147l-133 -150z" glyph-name="period" horiz-adv-x="389" unicode="."/><glyph d="M65.5 -272q-31.5 0 -48.5 15t-17 35.5t4 26.5l588 1536q14 37 43 37t48 -16t19 -36.5t-2 -27.5l-589 -1531q-14 -39 -45.5 -39z" glyph-name="slash" horiz-adv-x="702" unicode="/"/><glyph d="M311 194q90 -120 215 -120q124 0 192 82t68 213q0 130 -91 246t-226 116q-108 0 -178 -81t-70 -208q0 -128 90 -248zM926 376.5q0 -133.5 -122 -261.5q-122 -127 -290 -127t-300 110t-132 295q0 186 130 305t286 119t284 -102q64 -51 104 -128t40 -210.5z" glyph-name="zero" horiz-adv-x="1015" unicode="0"/><glyph d="M494 817q39 0 38 -26q0 -14 -21 -22.5t-47 -20.5q-68 -31 -69 -93v-503q1 -64 65 -88q24 -8 44 -14.5t20 -22.5q0 -10 -10 -18.5t-29 -8.5l-161 14q-47 0 -89 -13t-81 -13t-39 26q0 14 21.5 21.5t47.5 17.5q70 26 70 88v514q0 43 -20.5 60.5t-45 26t-45 13.5t-20.5 23 q0 10 10 18.5t29 8.5l162 -14q47 0 89 13t81 13z" glyph-name="one" horiz-adv-x="647" unicode="1"/><glyph d="M82 0q-20 0 -21 18q0 12 13 23q183 123 242 180.5t106 108.5q96 104 96 202t-72 144q-50 32 -113 31q-123 0 -202 -86q-19 -23 -35 -10.5t-16 24.5t10 27q136 155 285 155t227 -78t78 -168t-52 -154q-30 -37 -182 -177l-114 -109h200q36 -1 85 23t73.5 24t24.5 -22 q0 -10 -82 -166q-11 -22 -47.5 -6t-93.5 16h-410z" glyph-name="two" horiz-adv-x="837" unicode="2"/><glyph d="M462 358q72 0 151 -30.5t133 -79.5q110 -98 110 -232q0 -248 -248 -430q-140 -102 -302 -144q-77 -20 -140 -20q-39 0 -39 31q0 8 9 18.5t30 14.5q270 58 400 196t130 289q0 279 -352 279q-67 0 -95.5 -19.5t-45 -19.5t-27 11t-10.5 24q0 12 10 20l393 410h-338 q-67 -43 -103 -43t-36 7t16 27t58 140h532q74 0 80 -29l-403 -426q15 6 87 6z" glyph-name="three" horiz-adv-x="980" unicode="3"/><glyph d="M760 0v-510q0 -29 -21.5 -35t-50.5 -6t-49.5 6t-20.5 35v510h-516q-71 0 -71 33q0 14 18 37l649 729q24 28 39.5 28t19 -14t3.5 -51v-631h41q68 0 88 21h39q-8 -91 -72 -152h-96zM618 131v459l-389 -459h389z" glyph-name="four" horiz-adv-x="1030" unicode="4"/><glyph d="M468 408q150 0 273 -103t123 -289q0 -145 -75.5 -255.5t-184 -185.5t-226.5 -114t-204 -39q-39 0 -39 31q0 8 9.5 18.5t29.5 14.5q273 58 402 198q129 139 129 289q-1 271 -205 309q-60 12 -113 11q-113 0 -209 -45q-29 -14 -41 -15q-20 0 -20 25l145 549h551 q47 0 72 -29q0 -21 -19 -81t-32 -60q-23 0 -66 19.5t-88 19.5h-365l-77 -309q80 41 230 41z" glyph-name="five" horiz-adv-x="1003" unicode="5"/><glyph d="M637 829q143 0 270 -112t127 -295q0 -184 -135 -309t-321 -125q-234 0 -357 174q-104 147 -104 370q0 166 64.5 319t167 269.5t228 186t250.5 69.5q39 0 39 -26q0 -30 -43 -37q-432 -82 -563 -664q53 88 143.5 134t233.5 46zM262 461q0 -166 87 -276q87 -111 267 -111 q113 0 190 85t77 238q0 152 -101 242t-223 90q-117 0 -207 -70q-90 -69 -90 -198z" glyph-name="six" horiz-adv-x="1146" unicode="6"/><glyph d="M45 -578q-96 0 -96 39q0 20 16.5 56.5t98.5 173.5t266 419.5t387 565.5h-477q-43 0 -57.5 -5t-35.5 -20q-49 0 -49 19q0 8 6 20l64 117h616q79 0 113 -29q-221 -309 -416.5 -625.5t-351.5 -672.5q-10 -23 -32.5 -40.5t-51.5 -17.5z" glyph-name="seven" horiz-adv-x="997" unicode="7"/><glyph d="M909 328q0 -150 -127 -245t-278 -95q-152 0 -270 92q-119 92 -119 244q0 183 180 314q55 40 121 81q-31 27 -71.5 59.5t-74.5 70.5q-84 93 -84 188.5t106 181.5t228 86q131 0 224 -71q92 -71 92 -196q0 -167 -222 -282q295 -220 295 -428zM242 290.5q0 -78.5 67 -153.5 q67 -76 187.5 -76t201 62.5t80.5 185.5t-78 208q-78 84 -223 171q-176 -104 -221 -268q-14 -51 -14 -129.5zM733 1030q0 89 -62 149t-158.5 60t-149 -49t-52.5 -123t83 -153t167 -128q172 111 172 244z" glyph-name="eight" horiz-adv-x="1024" unicode="8"/><glyph d="M529 -23q-153 0 -284 113q-130 113 -130 298q0 186 136.5 307.5t319.5 121.5q233 0 357 -174q104 -147 104 -349t-57 -355.5t-155.5 -267t-227.5 -177t-270 -63.5q-39 0 -39 26q0 30 43 37q374 70 502 446q36 108 61 218q-43 -76 -125 -128.5t-235 -52.5zM800 620 q-87 111 -268 111q-114 0 -190 -84t-76 -237q0 -152 101 -242t223 -90q117 0 207 70t90 215q0 146 -87 257z" glyph-name="nine" horiz-adv-x="1146" unicode="9"/><glyph d="M61 127l134 147l133 -147l-133 -150zM61 676l134 147l133 -147l-133 -150z" glyph-name="colon" horiz-adv-x="389" unicode=":"/><glyph d="M74 676l133 147l133 -147l-133 -150zM147 8q0 23 -16 47.5t-55 67.5l125 137l125 -137q-143 -229 -215 -307q-14 -16 -29 -17q-21 0 -21 25q1 14 21 42q64 90 65 142z" glyph-name="semicolon" horiz-adv-x="401" unicode=";"/><glyph d="M829.5 684q13.5 0 30.5 -11t17 -40t-48 -49l-571 -232l571 -231q48 -18 48 -48t-16.5 -41.5t-29.5 -11.5t-40 11l-658 268q-51 21 -51 55.5t51 51.5l658 268q25 10 38.5 10z" glyph-name="less" horiz-adv-x="958" unicode="&lt;"/><glyph d="M928 481q0 -49 -70 -49h-704q-72 0 -72 49q0 33 24.5 41t47.5 8h704q70 0 70 -49zM928 221q0 -49 -70 -49h-704q-23 0 -47.5 8t-24.5 41t24.5 41t47.5 8h704q70 0 70 -49z" glyph-name="equal" horiz-adv-x="1009" unicode="="/><glyph d="M127.5 20q-12.5 0 -29 11.5t-16.5 37t15.5 36t31.5 16.5l571 231l-571 232q-47 21 -47 49.5t16.5 39.5t30.5 11t39 -10l657 -268q51 -16 52 -56q0 -29 -52 -51l-657 -268q-28 -11 -40.5 -11z" glyph-name="greater" horiz-adv-x="958" unicode=">"/><glyph d="M246 311q0 -29 -21 -28q-59 0 -91 92t-32 183.5t40 162.5q58 102 186 102q55 0 114.5 -19.5t114.5 -19.5t105 44q51 44 50.5 105t-56.5 157q-78 133 -238 143q-12 6 -12 35t27 71q27 41 71 41q55 -27 110.5 -57.5t98.5 -72.5q96 -94 96 -216t-32 -196t-73.5 -119 t-85 -65.5t-87 -20.5t-109.5 18.5t-111 18.5t-87 -40t-42 -71t10.5 -69.5t21.5 -75.5t21.5 -66t10.5 -37zM129 96l119 131l117 -131l-117 -133z" glyph-name="question" horiz-adv-x="870" unicode="?"/><glyph d="M489 178.5q0 127.5 474 253.5l12 60q4 20 4 49.5t-30 64.5t-95 35t-99 -12.5t-57.5 -25.5t-41 -25.5t-39.5 -12.5t-27 25q0 14 14 26q140 125 320 125q96 0 144 -56t48 -107l-55 -463q12 -12 45 -12.5t73.5 24.5t74.5 71q80 106 79 259q0 153 -142 280t-321 127 q-104 0 -210.5 -39t-194.5 -109.5t-143.5 -170t-55.5 -252.5t152 -302t385 -149q128 0 227 39l33 -59q-115 -53 -250.5 -53t-242.5 39.5t-193 112.5t-139.5 172.5t-53.5 228t59.5 243.5t157 197t220 127t300.5 45t333 -138t155 -345t-120 -336t-328 -129q-35 0 -37 24l4 72 q-129 -100 -258 -100q-86 0 -133.5 34.5t-47.5 162zM645 131q0 -70 103 -70q47 0 91 26t93 63l24 210q-311 -76 -311 -229z" glyph-name="at" horiz-adv-x="1583" unicode="@"/><glyph d="M475 1397q0 30 36 30t60.5 -8t59.5 -8l67 8q31 0 45 -26l496 -1178q42 -99 70 -122q28 -24 59 -31t42 -13t11 -18t-11 -21.5t-34 -9.5l-176 8q-47 0 -100 -10t-96 -10t-43 26q0 16 19 22.5t43 13.5q62 18 62 63t-28 114l-74 176h-614l-86 -215q-31 -79 15 -102 q32 -16 120 -32q28 -5 28 -25q0 -10 -12 -19.5t-28 -9.5l-181 8q-47 0 -93 -10t-84 -10t-38 24q0 16 18 23.5t42 16.5q65 24 94 91l442 1069q8 18 8 52t-23.5 68t-82.5 34q-10 0 -21.5 8t-11.5 23zM674 1159l-266 -655h534z" glyph-name="A" horiz-adv-x="1431" unicode="A"/><glyph d="M816 1436q150 0 273 -96t123 -224.5t-70.5 -200t-174.5 -100.5q168 -41 271 -144t103 -253t-51 -231t-131 -126q-130 -73 -377 -73q-117 0 -208 10t-160.5 10t-115.5 -10t-87 -10t-41 26q0 18 22.5 25.5t50 19t51 33t23.5 68.5v1102q1 69 -69 93q-26 9 -48 14t-22 24 q0 10 13.5 18t29.5 8l174 -6q79 -1 175 11t246 12zM784.5 76q184.5 0 293.5 98q83 75 83 230t-115 258q-115 102 -305 102h-268v-666q127 -22 311.5 -22zM701.5 1348q-82.5 0 -228.5 -17v-487h150q184 0 256.5 28.5t114.5 81t42 139.5t-26.5 134t-69.5 73.5t-99.5 37 t-139 10.5z" glyph-name="B" horiz-adv-x="1474" unicode="B"/><glyph d="M1343 1125.5q0 -78.5 -41 -78.5q-36 0 -36 87t-104 156q-104 68 -285 68q-229 0 -389 -124q-85 -66 -140 -175t-55 -258t41 -278.5t116.5 -229.5t184.5 -159.5t244 -59.5q248 0 353 118q42 48 42 107t-13.5 77.5t-13.5 38t3 29t18.5 9.5t38 -25t32 -62.5t22 -91 t48.5 -92.5q-46 -73 -202 -135q-157 -61 -340 -61t-325.5 64.5t-235.5 169t-138 234.5t-45 280.5t58.5 287t159.5 230.5q208 194 536 194q104 0 180 -14.5t99.5 -14.5t49 7.5t46 16.5t36 16t28.5 7t13 -20t-7 -41t-7 -54.5t14 -89t14 -134z" glyph-name="C" horiz-adv-x="1490" unicode="C"/><glyph d="M807.5 1436q150.5 0 283 -47.5t237 -137.5t168 -219t63.5 -372t-208 -457q-208 -215 -575 -215q-72 0 -206 10t-181 10t-91 -10t-86 -10t-42 26q0 16 22 24t50 20q74 31 75 102v1102q1 69 -69 93q-26 9 -48 14t-22 24q0 10 14.5 19t32.5 9l172 -8q50 -1 155 11t255.5 12z M757 76q148 0 269 52t199 141q153 175 153 456q0 282 -161 452q-161 171 -420 171h-76q-143 0 -248 -17v-1233q136 -22 284 -22z" glyph-name="D" horiz-adv-x="1701" unicode="D"/><glyph d="M1098 514q-35 0 -35 67.5t-59 97.5t-181 30h-350v-541q0 -53 31 -74h346q214 0 295.5 34t120.5 86t39 144q0 14 12 22.5t26 8.5q37 0 37 -56t-30 -171t-29 -162q0 -10 -12.5 -15t-19.5 -5t-31.5 10t-77.5 10h-975q-35 0 -35 27q0 18 22 24.5t50 18.5q74 31 75 98v1106 q1 69 -69 93q-26 9 -48 14t-22 24q0 10 14.5 19.5t32.5 9.5h889q41 0 75 11t61.5 11t29.5 -29l14 -251q2 -16 -6 -26.5t-18 -10.5q-34 0 -41 28q-12 57 -31.5 91t-67.5 58t-237 23h-385q-35 -31 -35 -75v-455h350q123 1 160 19q72 36 72 137q0 43 37 43q14 0 25 -10.5 t11 -54.5t-10 -89t-10 -95t10 -101.5t10 -97.5t-30 -46z" glyph-name="E" horiz-adv-x="1441" unicode="E"/><glyph d="M212 -12q-42 0 -42 26q0 16 22.5 24.5t50 20t51 33t23.5 66.5v1116q1 68 -67 93q-24 9 -46 14t-22 24q0 10 11.5 19.5t31.5 9.5h889q41 0 75 11t61.5 11t29.5 -29l14 -251q2 -16 -6 -26.5t-18 -10.5q-34 0 -41 28q-12 57 -31.5 91t-67.5 58t-237 23h-387q-33 -28 -33 -75 v-455h334q125 1 162 19q71 36 71 137q0 23 11.5 33t25.5 10t24.5 -10.5t10.5 -54.5t-9 -89t-9 -95t10 -101.5t10 -97.5t-32.5 -46t-32 68t-59.5 97q-60 30 -183 30h-334v-551q0 -45 25.5 -63.5t56.5 -28t56.5 -14.5t25.5 -23q0 -10 -12.5 -19.5t-32.5 -9.5l-197 8 q-49 0 -95 -10t-88 -10z" glyph-name="F" horiz-adv-x="1398" unicode="F"/><glyph d="M1343 1182q0 -166 -65 -166q-37 0 -37 22t10.5 29.5t10.5 49.5t-31 87t-83 79q-115 75 -261 75q-84 0 -187.5 -29t-193.5 -95.5t-151.5 -176t-61.5 -258t43 -277.5t121 -228t188.5 -159.5t252.5 -60.5t237 38q39 16 88 38v374q0 53 -34 84t-74 31t-53 -5t-31.5 -5t-30 8 t-11.5 23t39 25q39 11 80 11t97.5 -11t103.5 -11t90 10t85 10t42 -22t-23.5 -29t-51.5 -19q-73 -30 -73 -106v-254q0 -37 9.5 -64.5t9.5 -67.5t-33 -48q-59 -10 -114.5 -26.5t-151.5 -44.5t-211 -27q-195 0 -339.5 64.5t-238.5 169t-140 233.5t-46 279.5t59.5 286.5 t161.5 230t242.5 144.5t274.5 50.5t210 -13.5t94.5 -13.5t44 7.5t45 16.5t34 16t22.5 7q18 0 18 -20t-7 -41t-7 -51.5t14 -84t14 -85.5z" glyph-name="G" horiz-adv-x="1583" unicode="G"/><glyph d="M1582 1434q42 0 42 -27q0 -18 -23.5 -25.5t-51 -19.5t-50 -33.5t-22.5 -66.5v-1104q0 -45 21.5 -63.5t47 -28t47 -14.5t21.5 -23q0 -10 -12.5 -19.5t-32.5 -9.5l-170 8q-49 0 -95.5 -10t-88.5 -10t-41 26q0 16 22.5 24.5t50 20t51 33t23.5 66.5v553h-848v-553 q0 -45 21.5 -63.5t47 -28t47 -14.5t21.5 -23q0 -10 -12 -19.5t-33 -9.5l-170 8q-49 0 -95 -10t-88 -10t-42 26q0 16 22.5 24.5t50 20t51 33t23.5 66.5v1104q1 69 -69 93q-26 9 -48 14t-22 24q0 10 13.5 19t33.5 9l170 -8q49 0 95.5 10.5t88.5 10.5t42 -27q0 -18 -24 -25.5 t-51.5 -19.5t-50 -33.5t-22.5 -66.5v-451h848v451q1 69 -69 93q-26 9 -48 14t-22 24q0 10 13 19t34 9l170 -8q49 0 95 10.5t88 10.5z" glyph-name="H" horiz-adv-x="1794" unicode="H"/><glyph d="M579 1434q42 0 42 -27q0 -18 -24 -25.5t-51.5 -19.5t-50 -33.5t-22.5 -66.5v-1104q0 -45 21.5 -63.5t47 -28t47 -14.5t21.5 -23q0 -10 -12 -19.5t-33 -9.5l-170 8q-49 0 -95 -10t-88 -10t-42 26q0 16 22.5 24.5t50 20t51 33t23.5 66.5v1104q1 69 -69 93q-26 9 -48 14 t-22 24q0 10 13.5 19t33.5 9l170 -8q49 0 95.5 10.5t88.5 10.5z" glyph-name="I" horiz-adv-x="790" unicode="I"/><glyph d="M20 -358q1 16 62.5 62t132.5 166q72 120 72 286v1106q0 70 -70 93q-27 9 -48.5 14t-21.5 24q0 10 13.5 19t34.5 9l170 -8q49 0 95 10.5t88 10.5t42 -27q0 -18 -23.5 -25.5t-51.5 -19.5t-50.5 -33.5t-22.5 -66.5v-1014q0 -326 -229 -538q-111 -104 -152 -103q-41 0 -41 35 z" glyph-name="J" horiz-adv-x="708" unicode="J"/><glyph d="M579 1434q42 0 42 -27q0 -18 -24 -25.5t-51.5 -19.5t-50 -33.5t-22.5 -66.5v-514l479 469q58 55 58 76.5t-21.5 35.5t-46 23.5t-46.5 17.5t-22 20.5t13.5 21.5t34.5 9l170 -8q49 0 96 10.5t88 10.5t41 -25t-8.5 -29t-30.5 -12q-90 -32 -182 -126q-91 -94 -182 -178.5 t-222 -207.5l631 -713q39 -44 84 -64t58.5 -28t13.5 -20t-13.5 -21.5t-33.5 -9.5l-205 8q-47 0 -105.5 -10t-100.5 -10t-42 26q0 16 18.5 21.5t40.5 11.5q60 16 60 69.5t-35 92.5l-483 543l-107 -103v-491q0 -45 21.5 -63.5t47 -28t47 -14.5t21.5 -23q0 -10 -12 -19.5 t-33 -9.5l-170 8q-49 0 -95 -10t-88 -10t-42 26q0 16 22.5 24.5t50 20t51 33t23.5 66.5v1104q1 69 -69 93q-26 9 -48 14t-22 24q0 10 13.5 19t33.5 9l170 -8q49 0 95.5 10.5t88.5 10.5z" glyph-name="K" horiz-adv-x="1478" unicode="K"/><glyph d="M838 1339q0 -26 -18.5 -26t-62 24.5t-137.5 24.5t-116.5 -16t-26.5 -35t-4 -76v-1151h262q334 0 447 142q45 56 45 147q0 16 12 25.5t25.5 9.5t26 -10.5t12.5 -41t-35 -161.5q-35 -130 -35 -191q0 -20 -20.5 -20t-46 8t-79.5 8h-741l-141 -12q-33 0 -33 26 q0 18 22.5 25.5t50 20t50 34t22.5 66.5v1095q1 73 -69 97q-26 10 -48 17t-22 21q0 30 47 31l164 -8q61 1 117 15q57 14 119.5 14t118.5 -18q94 -30 94 -85z" glyph-name="L" horiz-adv-x="1323" unicode="L"/><glyph d="M1457 -12q-40 0 -40 26q0 16 24.5 24.5t54.5 21t54.5 35t24.5 69.5v1106l-522 -1235q-16 -31 -30.5 -31t-27.5 31l-612 1212v-1093q0 -49 30.5 -67.5t67.5 -25t68 -10.5t31 -22q0 -10 -13.5 -19.5t-31.5 -9.5l-170 8q-47 0 -94.5 -10t-89.5 -10t-42 26q0 16 22.5 24.5 t50.5 21t51.5 33t23.5 61.5v1118q-4 41 -31 59.5t-58.5 26.5t-57 13t-25.5 24q0 10 12 19t33 9l278 -8q43 0 91.5 10.5t121.5 10.5q37 0 37 -27q0 -16 -21 -23.5t-45 -14.5q-66 -19 -65 -71q0 -25 4 -45t29 -67l467 -922l397 965q33 80 33 96t-17.5 24.5t-38 12.5t-38 10 t-17.5 18.5t13.5 21.5t33.5 9l170 -8l242 21q35 0 35 -27q0 -16 -22 -24.5t-48 -20.5q-70 -31 -69 -94v-1110q0 -45 20.5 -64.5t45 -29t45 -14.5t20.5 -23q0 -10 -11.5 -19.5t-31.5 -9.5l-179 6q-49 0 -96 -9t-87 -9z" glyph-name="M" horiz-adv-x="2048" unicode="M"/><glyph d="M1458 1423.5q47 10.5 89 10.5t42 -27q0 -16 -22.5 -24.5t-49 -20.5t-49 -32.5t-22.5 -61.5l-6 -1266q0 -14 -15 -14t-43 35l-999 1167v-1036q0 -49 30.5 -67.5t67.5 -25t68 -10.5t31 -22q0 -10 -12.5 -19.5t-32.5 -9.5l-170 8q-51 0 -97.5 -10t-87.5 -10t-41 26 q0 16 22.5 24.5t50.5 21t51.5 33t23.5 61.5v1009q-1 153 -93 185q-24 8 -44.5 13t-34 11t-13.5 18.5t13.5 21.5t34.5 9l133 -6q64 0 106 19l959 -1127v961q0 49 -32 67.5t-69 24.5t-68.5 10t-31.5 23q0 10 13.5 19t33.5 9l170 -8q47 0 94 10.5z" glyph-name="N" horiz-adv-x="1720" unicode="N"/><glyph d="M860 -14q-156 0 -289 57t-233 156.5t-157.5 234.5t-57.5 365t205 439q205 208 514 208q166 0 303 -59.5t235.5 -161t152.5 -236.5t54 -288t-54 -283.5t-151.5 -227t-231.5 -150.5t-290 -54zM281 794.5q0 -104.5 44 -235.5t123.5 -234.5t190.5 -167t310 -63.5t340 150 t141 364q0 127 -44.5 257t-124 234.5t-193.5 171t-259.5 66.5t-247.5 -51t-164.5 -129t-89 -168t-26.5 -194.5z" glyph-name="O" horiz-adv-x="1710" unicode="O"/><glyph d="M811 1436q139 0 297 -146t158 -349t-145 -361t-353 -158q-165 0 -295 51v-313q0 -45 31 -64.5t66.5 -29t66.5 -14.5t31 -23q0 -10 -13.5 -19.5t-33.5 -9.5l-226 8q-47 0 -94 -10t-89 -10t-42 26q0 16 22 24t50 20q74 31 75 102v1102q1 69 -69 93q-26 9 -48 14t-22 24 q0 10 13.5 19t33.5 9l170 -8q113 -1 195 11t221 12zM680 1352q-104 0 -207 -27v-741q39 -74 236 -74q157 0 267 120q111 120 111 324q0 158 -111 278t-296 120z" glyph-name="P" horiz-adv-x="1368" unicode="P"/><glyph d="M1554 -428q-317 0 -503.5 104.5t-223.5 309.5q-147 6 -276 65.5t-224.5 157.5t-149.5 231t-54 283.5t53.5 282t149.5 229.5q206 211 514 211q166 0 303 -59.5t235.5 -161t153.5 -236.5t55.5 -345t-163.5 -406q-163 -195 -425 -240q39 -164 170 -245t362 -81t563 98 l278 85q29 0 28 -29q1 -21 -22 -29q-421 -171 -637 -209q-94 -16 -187 -16zM281 794.5q0 -104.5 44 -235.5t123.5 -234.5t189.5 -167t310 -63.5t341 150t141 364q0 127 -43.5 257t-124 234.5t-194.5 171t-260.5 66.5t-247.5 -51t-163.5 -129t-89 -168t-26.5 -194.5z" glyph-name="Q" horiz-adv-x="1710" unicode="Q"/><glyph d="M1391.5 66q60.5 0 60.5 -39q0 -16 -13.5 -27.5t-41.5 -11.5q-283 0 -393 218q-32 62 -61.5 116.5t-93 174t-171.5 150.5q-78 25 -205 35v-522q0 -47 21.5 -65.5t47 -28t47 -14.5t21.5 -23q0 -10 -12 -19.5t-31 -9.5l-172 8q-47 0 -95 -10t-89 -10t-41 26q0 16 22.5 24.5 t50 20t51 33t23.5 68.5v1102q1 69 -69 93q-26 9 -48 14t-22 24q0 10 13.5 19t33.5 9l170 -8q109 -1 195 11t186 12t200 -35t166 -93q130 -114 130 -291t-148 -280q-100 -70 -241 -88q95 -59 181 -217q36 -66 67.5 -130t69.5 -117.5t84 -86t106.5 -32.5zM730.5 725 q151.5 0 257.5 79t106 225q0 147 -113 233t-291 86q-116 0 -217 -19v-557q106 -47 257.5 -47z" glyph-name="R" horiz-adv-x="1513" unicode="R"/><glyph d="M569 1358q-266 0 -266 -228q1 -126 265 -250q104 -48 213.5 -113t161.5 -117q114 -114 114 -272t-120 -275t-325 -117q-133 0 -309 78q-33 14 -49 14t-20.5 -13.5t-11.5 -29.5t-22 -15.5t-27.5 13t-12.5 35t-9.5 70.5t-19.5 93t-19.5 80t-9.5 56.5t14.5 35t28.5 13.5 t20.5 -17.5t22.5 -72.5t39 -86q119 -166 389 -166q125 0 208 83t83 210q0 92 -98 180t-220 147.5t-278.5 145t-156.5 282.5q0 139 113 232q113 92 265 92q66 0 170.5 -28.5t123.5 -28.5t30 22q3 6 18.5 6t28 -12t12.5 -36t5.5 -61.5t10.5 -71.5t10 -59.5t5 -47t-20.5 -35 t-24.5 -13.5q-12 0 -18 16.5t-22 68.5t-46.5 89t-106.5 70q-77 33 -139 33z" glyph-name="S" horiz-adv-x="1159" unicode="S"/><glyph d="M176 1427h903q23 1 53 15t46 14q44 0 17 -107q-26 -107 -26 -190q0 -18 -14 -30.5t-20 -12.5q-23 0 -30 68.5t-47 108.5t-161 40h-217v-1175q0 -45 26.5 -64.5t57.5 -28t57.5 -13.5t26.5 -23q0 -10 -12.5 -19.5t-32.5 -9.5l-201 8q-55 0 -98 -10t-85 -10t-42 26 q0 16 22.5 24.5t50 20t51 33t23.5 66.5v1175h-194q-121 0 -163 -25.5t-63.5 -58t-36 -72t-34.5 -38.5q-10 0 -21.5 10t-11.5 27l2 26l59 248q50 -23 115 -23z" glyph-name="T" horiz-adv-x="1204" unicode="T"/><glyph d="M517 1434q42 0 42 -27q0 -18 -23.5 -25.5t-51 -19.5t-50 -33.5t-22.5 -66.5v-783q0 -198 124 -299q106 -86 252 -86q221 0 422 197v971q0 69 -70 93q-26 9 -47.5 14t-21.5 24q0 10 13.5 19t33.5 9l170 -8q49 0 95.5 10.5t88.5 10.5t41 -27q0 -18 -23.5 -25.5t-51 -19.5 t-50 -33.5t-22.5 -66.5v-955q0 -105 16 -136q28 -54 109 -54q49 0 49 -37q0 -25 -54 -24.5t-132 -29.5t-104 -30t-25 22l6 91q0 29 -21 77q-167 -121 -257 -160q-90 -40 -205 -40t-197.5 21.5t-148.5 78.5q-146 127 -146 408v768q0 69 -70 93q-26 9 -47.5 14t-21.5 24 q0 10 13 19t34 9l170 -8q49 0 95 10.5t88 10.5z" glyph-name="U" horiz-adv-x="1683" unicode="U"/><glyph d="M352 1423.5q49 10.5 90 10.5t41 -27q0 -18 -20.5 -24.5t-65.5 -21t-45 -57.5q0 -42 33 -118l401 -963l392 928q41 93 41 128.5t-27 51t-58.5 22.5t-58 13t-26.5 27q0 10 13 19t34 9l170 -8q53 0 97 10.5t86 10.5t42 -27q0 -18 -17.5 -25.5t-43.5 -17.5q-70 -27 -99 -94 l-553 -1272q-21 -31 -32.5 -31t-26.5 31l-526 1229q-23 53 -39.5 81.5t-48 44t-63.5 17.5t-32 26.5t47 24.5l191 -8q55 0 104 10.5z" glyph-name="V" horiz-adv-x="1501" unicode="V"/><glyph d="M1295 1423.5q48 10.5 90 10.5t42 -27q0 -18 -20.5 -24.5t-46.5 -14.5q-66 -21 -66 -72q0 -36 31 -110l399 -963l361 926q41 100 41 133t-26.5 48.5t-58.5 22.5t-58.5 13t-26.5 27q0 10 13 19t32 9l170 -8q55 0 99 10.5t86 10.5t42 -27q0 -18 -18 -25.5t-44 -17.5 q-68 -27 -98 -94l-520 -1272q-16 -31 -31 -31t-26 31l-453 1051l-454 -1051q-16 -31 -29.5 -31t-28.5 31l-512 1241q-4 8 -9 21.5t-11 26.5t-12.5 24.5t-16.5 22.5t-33.5 18.5t-43 12.5t-34 11t-14.5 19q0 26 45 26l189 -8q61 0 108 10.5t89 10.5t42 -27q0 -18 -20.5 -24.5 t-46 -14.5t-46 -22.5t-20.5 -42.5t7.5 -50t23.5 -67l381 -963l397 940l-26 64q-32 81 -49 98.5t-39.5 25t-42 12.5t-34 11t-14.5 19q0 28 45 28l189 -8q59 0 107 10.5z" glyph-name="W" horiz-adv-x="2408" unicode="W"/><glyph d="M470 1434q42 0 42 -27q0 -16 -18 -23.5t-40 -14.5q-56 -18 -56.5 -58.5t34.5 -81.5l311 -402l301 383q16 23 34 42.5t18 42t-20.5 37t-45 22.5t-45 15t-20.5 20.5t13 22.5t34 9l168 -8q51 0 97 10.5t86 10.5t40 -25q0 -18 -13.5 -22.5t-39.5 -14.5q-78 -30 -158 -129 l-389 -493l510 -652q24 -30 66 -37.5t58.5 -12.5t16.5 -17t-12 -21.5t-33 -9.5l-207 8q-57 0 -105 -10t-90.5 -10t-41.5 24q0 16 17 23.5t38.5 14.5t39 17.5t17.5 36t-6 43t-33 50.5l-340 436l-321 -418q-29 -39 -41 -57.5t-12 -38t21.5 -31.5t47 -20.5t47 -16.5t21.5 -20 t-13.5 -21.5t-33.5 -9.5l-170 8q-47 0 -95.5 -10t-88.5 -10t-40 26q0 18 59.5 38t147.5 132l414 523l-479 618q-16 21 -61.5 31t-63 16t-17.5 18.5t12.5 21.5t33.5 9l202 -10q47 0 103.5 11.5t98.5 11.5z" glyph-name="X" horiz-adv-x="1474" unicode="X"/><glyph d="M1367 1434q42 0 42 -22t-36 -34t-57.5 -21t-34.5 -26.5t-27.5 -44t-30.5 -51.5l-443 -694v-383q0 -45 21.5 -63.5t47 -28t47.5 -14.5t22 -23q0 -10 -12.5 -19.5t-33.5 -9.5l-170 8q-49 0 -95 -10t-88 -10t-42 26q0 16 22.5 24.5t50.5 20t51.5 33t23.5 66.5v397l-502 768 q-16 24 -54 35.5t-53.5 17.5t-15.5 21q0 25 45 24l172 -8q64 1 123 11t89 10t30 -23q0 -16 -19.5 -22.5t-41.5 -13.5q-62 -19 -62 -56q0 -29 35 -88l377 -582l321 529q37 71 37 103t-21.5 49.5t-48 24.5t-48 13t-21.5 25q0 10 12 19t33 9l170 -8q53 0 98 10.5t87 10.5z" glyph-name="Y" horiz-adv-x="1409" unicode="Y"/><glyph d="M129 0q-37 0 -37 23q0 16 23 40l993 1262h-518q-307 0 -348 -84t-50.5 -87t-19.5 -3t-18.5 9t-8.5 18.5t5 17.5l98 238q12 35 39 34q6 0 39.5 -24.5t74.5 -24.5h906q43 0 43 -16q0 -10 -17 -27l-1018 -1282h414q143 0 236.5 4t153 26.5t96 74t65.5 143.5q6 16 33 16 q45 0 45 -39q0 -50 -27.5 -123t-37 -110t-22.5 -80t-36 -43q-16 0 -51.5 18.5t-85.5 18.5h-969z" glyph-name="Z" horiz-adv-x="1449" unicode="Z"/><glyph d="M565 1352q43 0 43 -37q0 -16 -10 -31.5t-33 -15.5h-299v-1557h299q18 0 30.5 -13t12.5 -30.5t-12 -30t-31 -12.5h-463v1727h463z" glyph-name="bracketleft" horiz-adv-x="526" unicode="["/><glyph d="M0 1328q0 18 20.5 34t49 16t43.5 -37l587 -1536q2 -6 2 -26.5t-16 -35.5t-47 -15t-45 39l-590 1531q-4 12 -4 30z" glyph-name="backslash" horiz-adv-x="702" unicode="\"/><glyph d="M-82 1315q0 37 43 37h463v-1727h-463q-18 0 -30.5 12.5t-12.5 29.5t12.5 30.5t30.5 13.5h299v1557h-299q-43 0 -43 47z" glyph-name="bracketright" horiz-adv-x="526" unicode="]"/><glyph d="M477 426l-170 397l-162 -397h-129l265 618h55l276 -618h-135z" glyph-name="asciicircum" horiz-adv-x="569" unicode="^"/><glyph d="M-2 -238q0 27 17.5 43.5t41.5 16.5h877q25 0 42 -16.5t17 -43.5t-17.5 -43t-41.5 -16h-877q-25 0 -42 16t-17 43z" glyph-name="underscore" horiz-adv-x="993" unicode="_"/><glyph d="M144 1182q60 0 81 -41l111 -211h-53l-254 219q55 33 115 33z" glyph-name="grave" horiz-adv-x="413" unicode="`"/><glyph d="M108.5 629q-20.5 0 -20.5 20t10 29q151 139 334 139q119 0 176 -64q58 -64 58 -155v-451q0 -77 56 -92q22 -6 40 -8t18 -20t-160 -42q-34 -5 -47 -5q-35 0 -36 32l-9 92q-39 -41 -111.5 -78.5t-169.5 -37.5t-151.5 43t-54 136t118.5 167q89 55 368 147v101 q0 135 -180 135q-82 -1 -152 -45q-28 -18 -47.5 -30.5t-40 -12.5zM326 68q98 0 202 104v242q-226 -67 -277.5 -124t-51.5 -122q0 -100 127 -100z" glyph-name="a" horiz-adv-x="804" unicode="a"/><glyph d="M125 37q0 22 4 52t4 104v1069q1 92 -69 120q-26 10 -48 14.5t-22 20.5q0 24 39 31l170 37q39 8 49 8q27 0 27 -27l-9 -204v-543q120 98 256 98q176 0 306 -106q131 -106 131 -292q0 -185 -127 -308t-308 -123q-113 0 -177 30q-63 30 -87.5 30t-44.5 -24t-57 -24t-37 37z M823 348q0 146 -93 264t-234 118.5t-226 -99.5v-441q79 -133 293 -133q116 0 188 81q72 82 72 210z" glyph-name="b" horiz-adv-x="1028" unicode="b"/><glyph d="M449.5 -12q-76.5 0 -151.5 34t-129 90q-112 117 -112 275q0 192 130 311t292 119q102 0 187 -33q86 -33 86 -61q0 -21 -33 -65t-52 -44t-27 18t-26 42q-45 60 -161 61q-179 0 -235 -145q-20 -53 -21 -133q0 -156 99 -270q99 -113 226 -113q95 0 157 45t73 45q23 0 22 -23 q0 -18 -25.5 -44.5t-68.5 -51.5t-98.5 -41t-132 -16z" glyph-name="c" horiz-adv-x="794" unicode="c"/><glyph d="M733 121q-128 -133 -281.5 -133t-273.5 109q-121 109 -121 297t130 306q130 117 283.5 117t264.5 -51v496q1 92 -69 120q-26 10 -48 14.5t-22 20.5q0 24 39 31l170 37q39 8 49 8q27 0 27 -27l-9 -204v-1115q0 -43 17.5 -59t39 -23.5t40 -13.5t18.5 -26q-1 -20 -157 -39 q-34 -4 -48 -4q-35 0 -37 30zM735 594q-90 149 -240.5 149t-224 -75.5t-73.5 -213.5t89 -259t226 -121t223 123v397z" glyph-name="d" horiz-adv-x="1058" unicode="d"/><glyph d="M776 154q0 -12 -26.5 -40t-70.5 -56q-191 -120 -375 -40q-147 63 -214 226q-33 80 -33 207.5t100 246.5t285 119q126 -1 216 -75q42 -35 87 -101q29 -6 29 -40t-39 -46l-526 -184q25 -123 104.5 -197t223.5 -74q51 0 102 28t70 46q18 18 30 19q37 0 37 -39zM197 496v-33 q0 -17 2 -33l395 154q0 44 -40 81q-76 70 -170.5 70t-140.5 -66.5t-46 -172.5z" glyph-name="e" horiz-adv-x="827" unicode="e"/><glyph d="M94 -12q-39 0 -39 26q0 16 21.5 23.5t48.5 19t48.5 32t21.5 63.5v587h-76l76 74v301q0 147 101 263t282 116q104 -1 178 -63q18 -16 18 -35t-32 -55q-32 -37 -49 -37t-65.5 60t-133.5 60q-57 0 -109 -77q-53 -77 -53 -230v-303h174q37 0 50 -5t13 -29t-16 -43t-27 -19 q-22 22 -114 22h-80v-587q0 -43 25.5 -60.5t57 -27t57.5 -14.5t26 -23q0 -10 -10.5 -18.5t-28.5 -8.5l-195 14q-47 0 -89 -13t-81 -13z" glyph-name="f" horiz-adv-x="593" unicode="f"/><glyph d="M254 53q0 -23 49 -37t123 -25t161 -25.5t160.5 -39t123 -62.5t49.5 -96t-40 -120t-111 -112q-162 -114 -368 -114q-205 0 -289 86q-34 34 -34 110q0 140 205 257q-184 53 -185 113q0 25 54.5 70.5t136.5 107.5q-92 39 -149.5 114.5t-57.5 205.5t118 231q118 100 281 100 t275 -108q125 104 149.5 104t33.5 -10t9 -45t-9 -51.5t-27.5 -20.5t-45 -8t-61.5 -27q55 -84 55 -195.5t-117 -218.5q-117 -106 -266 -106q-76 0 -139 19q-84 -63 -84 -97zM295 294q76 -87 186 -87t176 72t66 187q0 114 -84 194q-84 81 -189 81t-168 -72t-63 -180t76 -195z M211 -326q0 -72 64.5 -119t196.5 -47t222 65t90 157q0 29 -39.5 47t-103 31.5t-142.5 25.5t-159 27q-51 -35 -90 -75t-39 -112z" glyph-name="g" horiz-adv-x="978" unicode="g"/><glyph d="M646 -12q-38 0 -38 26q0 18 21.5 26t48.5 18q70 27 70 94v362q0 111 -46 154t-142 43t-180 -70q-30 -25 -48 -61v-428q0 -66 66 -88q26 -8 46.5 -13.5t20.5 -23.5q0 -27 -47 -27l-150 14q-49 0 -93 -13t-82 -13t-38 26q0 18 21.5 26t48.5 18q70 27 70 94v1110 q0 92 -70 120q-27 10 -48.5 14.5t-21.5 24.5t39 27l170 37q39 8 51 8q25 0 25 -27l-8 -204v-594q47 63 133 106t198.5 43t167 -66.5t54.5 -168.5v-430q1 -66 67 -88q26 -8 46 -13.5t20 -23.5q0 -27 -47 -27l-150 14q-49 0 -93 -13t-82 -13z" glyph-name="h" horiz-adv-x="1075" unicode="h"/><glyph d="M195 592q0 129 -70 129t-70 25t39 32l178 37q28 8 43.5 8t16.5 -20v-651q0 -66 66 -88q26 -8 46.5 -13.5t20.5 -23.5q0 -10 -10.5 -18.5t-28.5 -8.5l-162 14q-47 0 -89 -13t-81 -13t-39 26q0 16 21.5 23.5t48.5 19t48.5 32t21.5 63.5v440zM244 1192q0 33 22.5 56.5 t55.5 23.5t56 -23.5t23 -56.5t-23.5 -55.5t-55.5 -22.5q-33 0 -55.5 22.5t-22.5 55.5z" glyph-name="i" horiz-adv-x="522" unicode="i"/><glyph d="M195 592q0 129 -70 129t-70 25t39 32l178 37q28 8 43.5 8t16.5 -20v-826q0 -316 -176 -481q-37 -37 -64 -37q-31 0 -31 25q0 14 35 45q99 74 99 459v604zM244 1192q0 33 22.5 56.5t55.5 23.5t56 -23.5t23 -56.5t-23.5 -55.5t-55.5 -22.5q-33 0 -55.5 22.5t-22.5 55.5z " glyph-name="j" horiz-adv-x="520" unicode="j"/><glyph d="M94 -12q-39 0 -39 26q0 16 21.5 23.5t48.5 19t48.5 32t21.5 63.5v1110q0 92 -70 120q-27 10 -48.5 14.5t-21.5 20.5q0 24 39 31l170 37q39 8 49 8q27 0 27 -27l-8 -204v-832l176 164q40 40 57 74t17 55t-36 37t-36 28q0 25 33 25t58.5 -7t60.5 -7l157 14q41 0 41 -27 q0 -10 -10 -20t-33 -10q-59 0 -155 -99l-140 -143l295 -377q45 -57 95 -79q18 -8 27 -12.5t9 -16.5q0 -29 -35.5 -29t-95.5 12t-107.5 -6t-87 -18t-38.5 26q0 12 13 19.5t29 14.5q42 19 42 46q0 26 -35 72l-209 256l-92 -80v-190q0 -66 66 -88q26 -8 46.5 -13.5t20.5 -23.5 q0 -10 -10.5 -18.5t-28.5 -8.5l-162 14q-47 0 -89 -13t-81 -13z" glyph-name="k" horiz-adv-x="948" unicode="k"/><glyph d="M94 -12q-39 0 -39 26q0 16 21.5 23.5t48.5 19t48.5 32t21.5 63.5v1110q0 92 -70 120q-27 10 -48.5 14.5t-21.5 20.5q0 24 39 31l170 37q39 8 49 8q27 0 27 -27l-8 -204v-1110q0 -66 66 -88q26 -8 46.5 -13.5t20.5 -23.5q0 -10 -10.5 -18.5t-28.5 -8.5l-162 14 q-47 0 -89 -13t-81 -13z" glyph-name="l" horiz-adv-x="520" unicode="l"/><glyph d="M1006 27q0 -27 -40 -27t-73 7t-79 7t-88 -13t-81 -13t-39 26q0 16 21.5 23.5t48 19t48 32t21.5 63.5v366q0 100 -46 146.5t-143 46.5t-179 -70q-29 -25 -45 -61v-428q0 -64 64 -88q24 -8 44.5 -13.5t20.5 -23.5q0 -10 -10.5 -18.5t-28.5 -8.5l-158 14q-47 0 -89 -13 t-81 -13t-39 26q0 16 21.5 23.5t48.5 19t48.5 32t21.5 63.5v440q0 129 -70 129t-70 25t39 32l178 37q28 8 43.5 8t16.5 -20v-135q68 98 219 137q47 12 94 12q98 0 156.5 -42t79.5 -109q44 60 134 105q89 46 200.5 46t167 -64.5t55.5 -179.5v-421q0 -64 64 -88 q24 -8 44.5 -13.5t20.5 -23.5q0 -10 -10.5 -18.5t-28.5 -8.5l-158 14q-47 0 -89 -13t-81 -13t-39 26q0 16 21.5 23.5t48 19t48 32t21.5 63.5v362q0 197 -161 197q-123 -1 -204 -65q-32 -26 -52 -66v-428q-1 -64 61 -88q22 -8 42 -13.5t20 -23.5z" glyph-name="m" horiz-adv-x="1628" unicode="m"/><glyph d="M195 592q0 129 -70 129t-70 25t39 32l178 37q28 8 43.5 8t16.5 -20v-135q42 61 130 105t183 44q240 0 240 -235v-430q1 -66 67 -88q26 -8 46 -13.5t20 -23.5q0 -10 -10.5 -18.5t-28.5 -8.5l-162 14q-47 0 -89 -13t-81 -13t-39 26q0 16 21.5 23.5t48.5 19t48.5 32 t21.5 63.5v362q0 111 -45.5 154t-119 43t-145.5 -33q-73 -33 -106 -98v-428q0 -66 66 -88q26 -8 46.5 -13.5t20.5 -23.5q0 -10 -10.5 -18.5t-28.5 -8.5l-162 14q-47 0 -89 -13t-81 -13t-39 26q0 16 21.5 23.5t48.5 19t48.5 32t21.5 63.5v440z" glyph-name="n" horiz-adv-x="1075" unicode="n"/><glyph d="M287 194q90 -120 227 -120q168 0 230 172q18 51 18 152.5t-91 216.5q-91 116 -227 116q-108 0 -177 -80q-70 -80 -70 -208q0 -129 90 -249zM901 375.5q0 -134.5 -122 -260.5q-122 -127 -290 -127q-167 0 -300 110q-132 110 -132 295q0 186 130 305t286 119 q157 0 285 -102q64 -51 103.5 -128t39.5 -211.5z" glyph-name="o" horiz-adv-x="966" unicode="o"/><glyph d="M186 592q0 129 -69.5 129t-69.5 25t39 32l178 37q28 8 43.5 8t16.5 -20v-113q41 47 117.5 87t209.5 40.5t249 -105.5t116 -303t-134 -309t-294.5 -112t-263.5 69v-411q0 -59 23.5 -79t53 -25t53 -5t23.5 -20q0 -27 -52.5 -27t-110.5 -11t-102 -23.5t-72.5 -24 t-33.5 -11.5q-35 0 -34 27q0 18 42.5 33.5t57 38t14.5 69.5v1004zM625.5 57q107.5 0 179.5 87t72 230q0 144 -86 250q-86 107 -207 107q-78 0 -147.5 -33.5t-112.5 -91.5v-418q39 -66 116.5 -98.5t185 -32.5z" glyph-name="p" horiz-adv-x="1073" unicode="p"/><glyph d="M727 125q-123 -137 -277 -137t-274 110q-119 110 -119 294q0 185 131 305t289.5 120t284.5 -63q20 18 37.5 39.5t49.5 21.5t32 -31q0 -12 -8.5 -29t-8.5 -102v-972q0 -43 21.5 -58.5t48.5 -22t48.5 -10.5t21.5 -22q0 -27 -31 -32t-83 -4.5t-138 -29.5t-130 -30t-44 32 q0 14 23 23t51 23q74 39 75 120v455zM288 208q91 -120 220 -120q76 0 133 39t86 84v387q-84 145 -272 145q-102 0 -180 -77t-78 -208q0 -130 91 -250z" glyph-name="q" horiz-adv-x="1007" unicode="q"/><glyph d="M94 -12q-39 0 -39 26q0 16 21.5 23.5t48.5 18t48.5 30.5t21.5 64v442q0 72 -32 100.5t-70 28.5t-38 27q0 20 39 28l197 43q16 4 22 4q18 0 19 -20v-76q55 41 112.5 68.5t89.5 27.5t76 -50q43 -50 43 -83.5t-39 -67.5t-56 -34t-25.5 18t-19.5 42q-28 60 -74.5 60.5 t-106.5 -46.5v-510q0 -43 25.5 -61.5t57 -27t57.5 -14.5t26 -22q0 -10 -10.5 -18.5t-28.5 -8.5l-197 14q-45 0 -87 -13t-81 -13z" glyph-name="r" horiz-adv-x="663" unicode="r"/><glyph d="M324 752q-107 0 -107 -86q0 -33 33 -60.5t82 -54.5t189.5 -100.5t140.5 -214.5q0 -164 -164 -228q-54 -20 -125 -20t-127 26q-57 27 -71.5 27.5t-30.5 -21.5q-16 -21 -29 -22q-33 0 -33 43l4 78q0 47 -7 67.5t-7 36.5t9 23.5t18 7.5t17.5 -12t17.5 -36t38 -60.5t87 -61.5 t129 -25t116 43t45 86.5t-33 76t-83 61t-190.5 99.5t-140.5 196t129 177q45 18 94.5 18.5t74 -6.5t43 -16.5t29.5 -16.5t24.5 -7t23.5 6t17.5 12.5t12.5 12.5t11 6q25 0 25 -43l-2 -62l8 -53q0 -53 -25 -53q-14 0 -20 14q-86 142 -223 142z" glyph-name="s" horiz-adv-x="702" unicode="s"/><glyph d="M414 739h-123v-497q0 -74 29.5 -112t101.5 -38q32 0 86 36t67 36q20 0 21 -23q0 -10 -4 -16q-89 -137 -246 -137q-116 0 -170 92q-22 37 -22 96v563q-47 0 -61.5 3t-14.5 12.5t15.5 24t35.5 34.5l107 107q12 12 26 12q29 0 29 -35v-84h219q72 0 72 -29q0 -48 -43 -69 q-32 24 -125 24z" glyph-name="t" horiz-adv-x="606" unicode="t"/><glyph d="M170 592q0 129 -69.5 129t-69.5 25t39 32l178 37q28 8 43.5 8t15.5 -20v-555q0 -150 172 -150q121 0 242 107v387q0 129 -70 129t-69 27q0 23 39 30l178 37q28 8 43.5 8t15.5 -20v-649q0 -72 56 -92q22 -8 40.5 -12.5t18.5 -22.5q0 -23 -46 -23t-69.5 -4t-39 -8t-27 -8 t-27.5 -4q-29 0 -33 32l-10 123q-159 -147 -330 -147q-106 0 -163.5 70.5t-57.5 195.5v338z" glyph-name="u" horiz-adv-x="1048" unicode="u"/><glyph d="M297 760q-55 0 -55 -38q0 -25 30 -91l215 -441l195 441q25 57 25 83.5t-15.5 35t-35 12.5t-35 8t-15.5 18q0 27 33 27l115 -10l135 12q33 0 33 -23.5t-17.5 -26.5t-53.5 -31t-75 -115l-274 -594q-23 -43 -58 -43q-16 0 -24 14l-332 686q-30 54 -61 68q-43 14 -43 34 q0 27 41 27l155 -12q33 0 57.5 6t69.5 6t45 -26.5t-55 -26.5z" glyph-name="v" horiz-adv-x="921" unicode="v"/><glyph d="M1119 815l149 -12l110 8q37 0 37 -23t-12.5 -29.5t-30.5 -16.5q-54 -28 -84 -89l-293 -620q-20 -49 -34.5 -49t-22.5 14l-229 549l-242 -514q-24 -49 -40 -49q-15 0 -24 14l-307 684q-27 60 -69.5 71t-42.5 31q0 27 53 27l151 -12q35 0 60.5 6t69 6t42.5 -25 q0 -28 -53 -28t-53 -40t25 -89l190 -436l201 446l-19 43q-26 58 -87 66q-60 9 -60 36t43 27l190 -12q33 0 51.5 7t62.5 7t44 -25q0 -16 -15.5 -21t-50 -10.5t-34.5 -24.5q0 -14 26 -79l176 -460l197 438q25 55 25 80t-17.5 32t-37 10t-37 9t-17.5 26q0 27 9 27z" glyph-name="w" horiz-adv-x="1415" unicode="w"/><glyph d="M555 -12q-39 0 -39 26q0 19 35 30t50 19.5t15 29t-26 54.5l-146 195l-163 -192q-14 -16 -15 -29q0 -28 71 -54t71 -42q0 -25 -35 -25t-67 8t-69 8t-101 -13t-92 -13t-28 24q0 16 13 22t37 18q74 36 127 96l213 245l-183 242q-37 49 -59.5 78.5t-44.5 36.5q-47 12 -47 34 q0 27 45 27l151 -12q35 0 60.5 6t68.5 6t43 -25q0 -14 -15 -19t-34.5 -10t-35 -13.5t-15.5 -30t14 -41.5l135 -180l150 182q23 29 23 51q0 16 -14 21.5t-32 8.5q-46 8 -46.5 33t27.5 25t53.5 -6t66.5 -6l131 14q37 0 37 -20t-11.5 -27.5t-48.5 -19.5t-67 -48l-230 -260 l220 -292q38 -50 109 -82q28 -12 47.5 -21.5t19.5 -19.5t-9.5 -18.5t-27.5 -8.5l-164 14q-47 0 -88 -13t-80 -13z" glyph-name="x" horiz-adv-x="940" unicode="x"/><glyph d="M748 803l87 7q87 7 87 -13t-13.5 -29.5t-36.5 -19.5q-48 -21 -96 -130l-401 -935q-14 -33 -27.5 -66t-31.5 -75t-17.5 -67t-34.5 -39t-131 -14q-47 0 -47 31q0 19 43 58t92 110.5t109 188.5q60 118 88 194l-330 680q-6 12 -19.5 36.5t-41.5 31.5q-43 9 -43 35t41 26 l155 -12q33 0 57.5 6t69.5 6t45 -25.5t-56 -25.5t-56 -45q0 -32 30 -92l222 -453l184 416q35 79 35 135q-1 24 -53 32q-20 3 -36 9t-16 24q0 27 8 27z" glyph-name="y" horiz-adv-x="921" unicode="y"/><glyph d="M82 -4q-62 0 -62 16.5t7.5 28.5t46.5 53l538 586h-311q-78 0 -110.5 -5t-50.5 -23l-28 -28q-10 -10 -20 -10q-23 0 -22 21q0 16 12 39l72 135q74 -21 163 -21h424q25 0 25 -18t-45 -67.5t-88 -96.5l-457 -497h305q86 0 139.5 9t75.5 40.5t36 31.5q28 -1 28 -24 q0 -4 -13.5 -40.5t-32 -88t-50.5 -51.5q-12 0 -82 7t-187 7l-169 -2z" glyph-name="z" horiz-adv-x="813" unicode="z"/><glyph d="M618.5 -348q28.5 0 28.5 -21.5t-20 -21.5q-137 0 -247 88t-110 213q0 78 18.5 151.5t18.5 154.5t-52 133t-128 87q-25 12 -25 24.5t25 28.5q180 83 180 222q0 80 -18.5 154.5t-18.5 177.5t112 188q112 84 243 84q23 0 22 -21q0 -20 -28.5 -20t-62.5 -22.5t-60 -58.5 q-56 -80 -56 -154.5t12.5 -136.5t12.5 -150t-88 -178t-197 -111q113 -25 199 -115t86 -198q1 -68 -13 -151t-14 -112.5t15.5 -73.5t42 -80t60.5 -58.5t62.5 -22.5z" glyph-name="braceleft" horiz-adv-x="667" unicode="{"/><glyph d="M61 1090q0 31 16.5 48t39.5 17t41 -17.5t18 -47.5v-1233q0 -35 -17.5 -53.5t-39.5 -18.5q-23 0 -40.5 18.5t-17.5 53.5v1233z" glyph-name="bar" horiz-adv-x="237" unicode="|"/><glyph d="M41 -391q-21 0 -21 21t46 22t104 79q59 78 59 167q0 13 -13 101t-13 173.5t86 175.5t198 115q-108 21 -196 111t-88 202q0 63 12 126t12 138t-57 155q-57 79 -127 79q-23 0 -23 20t23 21q129 0 241 -84q113 -84 113 -217q0 -74 -18.5 -148.5t-18.5 -153.5 q0 -140 181 -223q25 -16 24.5 -28t-24.5 -25q-76 -35 -128.5 -87t-52.5 -133t18.5 -154.5t18.5 -175.5t-110 -190q-111 -87 -246 -87z" glyph-name="braceright" horiz-adv-x="667" unicode="}"/><glyph d="M174 346q-33 0 -33 33q0 10 2 16q39 133 96.5 183.5t147.5 50.5q42 0 158.5 -61.5t169.5 -89t90.5 -27.5t88.5 46t60 95q4 24 26 24q46 0 46 -38q0 -94 -76 -176q-76 -83 -172 -83q-64 -1 -214 89q-56 34 -106 63t-92 29t-86 -35t-59.5 -71.5t-27 -42t-19.5 -5.5z" glyph-name="asciitilde" horiz-adv-x="1136" unicode="~"/><glyph glyph-name="uni00A0" horiz-adv-x="368" unicode=" "/><glyph d="M209 -580q-59 39 -59 250.5t21 476.5t30 336q2 31 28 31q12 0 23.5 -8t11.5 -23q7 -397 43 -796q8 -94 60 -156q-23 -39 -55.5 -67.5t-102.5 -43.5zM102 725l134 147l133 -147l-133 -150z" glyph-name="exclamdown" horiz-adv-x="430" unicode="¡"/><glyph d="M80 397q0 86 35 163.5t91 133.5q115 114 273 123v168h105v-174q82 -12 136 -40t54 -50t-33 -64q-33 -43 -55 -43q-12 0 -19.5 11t-16.5 27q-24 42 -66 63v-639q75 10 172 82q8 6 18 6q23 0 23 -27t-63 -72t-150 -65v-82h-105v70q-177 4 -288 124q-111 119 -111 285z M219.5 430.5q-0.5 -106.5 75.5 -213.5t184 -135v653h-4q-179 0 -235 -145q-20 -53 -20.5 -159.5z" glyph-name="cent" horiz-adv-x="1079" unicode="¢"/><glyph d="M820 211q38 0 38 -27q0 -11 -24 -62q-24 -52 -33 -74q-24 -60 -64 -60q-25 0 -107.5 6t-197.5 6h-237q-25 0 -36.5 10t-11.5 21q0 35 80 51v332h-125l58 131h69q18 155 118 264q101 109 265 109q68 0 137 -24q130 -45 130 -81q0 -15 -37 -70t-51 -55q-18 0 -30.5 28.5 t-29.5 57.5q-29 39 -77 58.5t-87 19.5q-78 0 -134 -65.5t-56 -182.5v-59h270l-63 -131h-207q-9 -173 -53 -299h294q105 6 148 52q16 17 27.5 30.5t26.5 13.5z" glyph-name="sterling" horiz-adv-x="1032" unicode="£"/><glyph d="M129 401q0 157 96 271l-108 110q-14 14 -14.5 31.5t12 30t29.5 12.5t32 -14l107 -113q115 98 269 98t269 -94l109 109q14 14 31.5 14t30 -12.5t12.5 -29.5t-15 -32l-108 -106q100 -117 100 -275q0 -157 -98 -272l100 -96q16 -16 16 -33.5t-12 -30t-30.5 -12.5t-34.5 16 l-101 97q-112 -95 -267 -95t-271 99l-101 -101q-16 -16 -34.5 -16t-31 12.5t-12.5 29.5t17 34l102 100q-94 111 -94 268zM256 401q0 -126 88 -212q88 -87 211 -87t211 87t88 212t-87 212t-212 87t-212 -87t-87 -212z" glyph-name="currency" horiz-adv-x="1157" unicode="¤"/><glyph d="M614 55q43 16 43 47v76h-194l57 123h137v27l-276 426q-16 24 -42 34.5t-35 16.5t-9 17t11 19.5t28 8.5l98 -4l111 12q28 0 28 -27q0 -22 -32.5 -32t-32.5 -22.5t5 -20.5t11 -19l217 -338q45 78 89 151t90 150q4 10 12 27.5t8 33t-40 27.5t-40 35q0 10 9.5 18.5t25.5 8.5 l100 -4l109 12q33 0 33 -27q0 -8 -43 -40t-66 -66l-258 -403v-21h213l-57 -123h-156v-76q0 -23 12.5 -31t27.5 -13t28.5 -10t13.5 -17t-10.5 -21.5t-26.5 -9.5l-100 6l-109 -14q-16 0 -24.5 9t-8.5 23.5t43 30.5z" glyph-name="yen" horiz-adv-x="1427" unicode="¥"/><glyph d="M61 313q0 29 17.5 43.5t40.5 14.5t40 -14.5t17 -43.5v-456q0 -35 -17.5 -53.5t-39.5 -18.5q-23 0 -40.5 18.5t-17.5 53.5v456zM176 633q0 -31 -17.5 -47.5t-39.5 -16.5q-23 0 -40.5 16.5t-17.5 47.5v457q0 31 16.5 48t39.5 17t41 -17.5t18 -47.5v-457z" glyph-name="brokenbar" horiz-adv-x="237" unicode="¦"/><glyph d="M653 -29q0 -121 -73.5 -197.5t-229.5 -76.5q-109 -1 -181 23q-128 42 -128 79q0 17 36 70t60 53q8 0 17.5 -24t31.5 -54q58 -80 153 -80q96 0 148 60t52 101.5t-34 76.5t-85 67.5t-111.5 64.5t-112.5 69q-118 85 -118 184.5t80 161.5q-80 67 -80 150t71 153t182 70 t179 -22q124 -42 125 -83q0 -12 -36 -67q-36 -56 -56 -56q-12 0 -49 82t-123 82t-137.5 -33.5t-51.5 -97.5q0 -31 35 -58.5t87 -57t200.5 -109t148.5 -203.5t-55 -195q55 -64 55 -133zM539 247q0 32 -31 65.5t-79 64.5t-104.5 60.5t-107.5 64.5q-35 -39 -35 -78t33 -66.5 t83 -56.5t108.5 -59.5t109.5 -67.5q23 41 23 73z" glyph-name="section" horiz-adv-x="704" unicode="§"/><glyph d="M332 1055l110 125l115 -125l-115 -123zM139 930l-114 123l114 125l113 -125z" glyph-name="dieresis" horiz-adv-x="581" unicode="¨"/><glyph d="M61 924q0 173 121 294t293 121q174 0 295 -122t121 -293t-120 -293q-120 -121 -296 -121q-174 0 -294 120t-120 294zM137 924q0 -139 100 -237q100 -99 236 -99q138 0 237 99t99 237q1 136 -99 236t-237 100q-135 0 -236 -99q-100 -99 -100 -237zM483 1157l54 -5 q54 -5 63.5 3t13.5 8q14 0 15 -10l-2 -27l10 -84q0 -41 -35 -41q-4 0 -11 5.5t-7 23t-27 47t-82.5 29.5t-101.5 -44q-47 -44 -47 -129t41.5 -143.5t119.5 -58.5q33 0 63 23.5t30 59.5t22 36t33 -55q5 -20 22 -52q-23 -25 -74 -44t-134 -19t-147 69t-64 175t70.5 169.5 t174.5 63.5z" glyph-name="copyright" horiz-adv-x="952" unicode="©"/><glyph d="M256 662q-174 0 -174 114q0 88 82 143t274 119v70q0 88 -125 88q-63 0 -98 -22.5t-48 -33t-26.5 -10.5t-19.5 12.5t-6 20.5t10 19q124 104 252 104q90 0 135 -45t45 -106v-351q0 -44 40 -55q15 -4 28.5 -9t13.5 -24q0 -18 -13.5 -21t-42 -3t-51.5 -8t-52.5 -8.5 t-33.5 28.5l-6 53q-92 -75 -184 -75zM299 731q68 0 139 74v170q-202 -65 -223 -135q-6 -20 -6 -41q0 -68 90 -68z" glyph-name="ordfeminine" horiz-adv-x="720" unicode="ª"/><glyph d="M373 348q0 31 13 50.5t40 43.5l268 260h72l-213 -350l215 -352h-63l-279 268q-53 49 -53 80zM61 355q0 48 39 87l271 260h69l-211 -350l217 -352h-67l-279 268q-39 39 -39 87z" glyph-name="guillemotleft" horiz-adv-x="829" unicode="«"/><glyph d="M82 406q0 49 65 49h711q35 0 52.5 -13.5t17.5 -48.5v-155q0 -31 -17.5 -45.5t-38.5 -14.5q-20 0 -36.5 14.5t-16.5 45.5v120h-672q-65 0 -65 48z" glyph-name="logicalnot" horiz-adv-x="1009" unicode="¬"/><glyph d="M573 475q27 0 52 19h61l-80 -119h-278q-29 0 -52 -17h-61l80 117h278z" glyph-name="uni00AD" unicode="­"/><glyph d="M627 937q-43 -28 -86 -34q33 -20 48 -50t34.5 -62.5t34 -48t23.5 -21.5t13 -8t4 -11q0 -16 -16 -16q-61 0 -92 31t-51.5 68.5t-39 73.5t-57.5 46q-10 2 -32 17v-166q0 -26 22 -34q8 -3 15.5 -5t7.5 -8q0 -14 -17 -15l-55 2l-94 -10q-15 0 -15 10t25 21t25 35v358 q0 26 -38 37q-7 2 -7 9t16 7l55 -2h39l74 6q135 1 191 -89q16 -24 16 -68.5t-43 -72.5zM476.5 930q35.5 0 70.5 27.5t35 76.5t-39 75t-97 26h-16t-20 -5v-180q31 -20 66.5 -20zM61 924q0 173 121 294t293 121q174 0 295 -122t121 -293t-120 -293q-120 -121 -296 -121 q-174 0 -294 120t-120 294zM137 924q0 -139 100 -237q100 -99 236 -99q138 0 237 99t99 237q1 136 -99 236t-237 100q-135 0 -236 -99q-100 -99 -100 -237z" glyph-name="registered" horiz-adv-x="952" unicode="®"/><glyph d="M242 1030h526v-100h-526v100z" glyph-name="macron" horiz-adv-x="1077" unicode="¯"/><glyph d="M303 889q-96 0 -169 70t-73 170q0 101 73 171t170 70t169 -71t72 -169q0 -97 -73 -169q-74 -72 -169 -72zM162 1128q0 -57 41 -100t100 -43t101 44t42 101t-30 89q-54 57 -113 57t-100 -45.5t-41 -102.5z" glyph-name="degree" horiz-adv-x="606" unicode="°"/><glyph d="M82 49q0 47 72 47h704q23 0 46.5 -7t23.5 -40t-23.5 -41t-46.5 -8h-704q-23 0 -47.5 8t-24.5 41zM82 502q0 49 72 49h303v209q0 20 7 43.5t42 23.5t42 -23.5t7 -43.5v-209h303q23 0 46.5 -8t23.5 -41t-23.5 -40t-46.5 -7h-303v-209q0 -72 -49 -72q-33 0 -41 24.5t-8 47.5 v209h-303q-72 0 -72 47z" glyph-name="plusminus" horiz-adv-x="1009" unicode="±"/><glyph d="M592 756q26 0 26 -29q0 -12 -27.5 -60.5t-32.5 -61.5t-17 -13t-30.5 9t-64.5 9h-296q-27 0 -27 23q0 12 12 24q159 116 244 201q84 84 84 152q1 68 -51 98q-34 20 -78 20q-79 0 -144 -65q-10 -10 -22 -10q-33 0 -33 30q0 10 32 43t85 68t136.5 35t146.5 -57t63 -131.5 t-37 -118t-94 -97.5l-137 -125h127q37 0 77 28t58 28z" glyph-name="uni00B2" horiz-adv-x="741" unicode="²"/><glyph d="M154 1077q-31 0 -31 19q0 13 10 30l45 103h397q62 0 72 -35l-282 -297q6 2 50 2t104.5 -21.5t102.5 -58.5q85 -75 85 -172q0 -197 -179 -323q-126 -92 -286 -126q-34 -8 -53 -8t-29 11.5t-10 22.5q0 27 36 36q187 48 283 148t96 198q0 191 -248 191q-31 0 -58.5 -14.5 t-43.5 -14.5t-27.5 11.5t-11.5 24.5t12 25l275 287h-217q-61 -39 -92 -39z" glyph-name="uni00B3" horiz-adv-x="829" unicode="³"/><glyph d="M175 1176q24 6 64 6t91 -33l-252 -219h-53l110 211q16 29 40 35z" glyph-name="acute" horiz-adv-x="354" unicode="´"/><glyph d="M136.5 -518q-54.5 0 -54.5 85.5t48 317.5q48 231 73 400l43 309q8 32 8 59t-18.5 39.5t-40 18.5t-40 11t-18.5 21q0 25 43 35l172 35q39 8 47 8q14 0 15 -16l-2 -10v-9l-76 -538q-2 -10 -2 -18v-15q0 -119 151 -119q115 0 256 105l54 387q4 20 4 57t-18.5 50.5t-40 18.5 t-39 9t-17.5 22q0 24 39 31l201 41q16 4 28 4t12.5 -8t0.5 -12t-2 -15l-91 -639q-2 -10 -2 -31.5t17.5 -33.5t38 -18.5t38 -12.5t17.5 -20t-8 -20.5t-56.5 -6.5t-78.5 -11t-57 -11t-32.5 8t-7.5 18l-12 123q-105 -85 -257 -126q-48 -13 -87 -13q-94 0 -131 35 q0 -336 -11.5 -413t-31.5 -104.5t-74.5 -27.5z" glyph-name="uni00B5" horiz-adv-x="1062" unicode="µ"/><glyph d="M1520 1458q26 0 26 -28q0 -37 -88 -87h-422v-1521q0 -125 -31.5 -200t-68.5 -110.5t-92 -35.5q-27 0 -27 22q0 10 33.5 54t57.5 108q24 65 24 162v368q-131 -112 -294 -158q-52 -14 -124.5 -14t-154 35t-137.5 103q-120 144 -120 424t148 496q123 179 315 268 q193 90 367 90h377q55 0 109.5 12t101.5 12zM797 215q71 0 135 84v1044q-128 0 -184 -87t-56 -224v-661q0 -78 32 -117t73 -39z" glyph-name="paragraph" horiz-adv-x="1353" unicode="¶"/><glyph d="M61 393l134 148l133 -148l-133 -149z" glyph-name="periodcentered" horiz-adv-x="389" unicode="·"/><glyph d="M260 -171.5q0 43.5 -78 83.5l88 115h70l-39 -56q59 -43 59 -90q0 -90 -114 -160q-4 -2 -10 -2h-7q-23 0 -22 23q0 8 10 16q43 27 43 70.5z" glyph-name="cedilla" horiz-adv-x="487" unicode="¸"/><glyph d="M408.5 1229q35.5 0 35.5 -24.5t-16 -31t-35.5 -14.5t-36 -20.5t-16.5 -40.5v-367q0 -29 15.5 -40t34 -16t33.5 -11.5t15 -24.5q0 -29 -35 -29l-120 8q-31 0 -62 -10t-65 -10t-33 31q0 16 16.5 23t35 14.5t34.5 18.5t16 38v375q0 27 -15 38t-32.5 17t-33 11t-15.5 22 q0 31 35 31q16 0 38.5 -4.5t69 -4.5t74 10.5t63 10.5z" glyph-name="uni00B9" horiz-adv-x="567" unicode="¹"/><glyph d="M620 764q-89 -96 -215 -96t-225 80q-98 80 -98 220t96 229t213 89q119 0 218 -82q100 -82 100 -214q0 -130 -89 -226zM205 1013.5q0 -86.5 69 -171.5q69 -86 152.5 -86t122.5 52t39 137t-69 169t-149 84t-122.5 -49t-42.5 -135.5z" glyph-name="ordmasculine" horiz-adv-x="821" unicode="º"/><glyph d="M125 702l278 -268q49 -47 50 -88q0 -41 -50 -86l-268 -260h-69l210 350l-215 352h64zM774 347q0 -44 -45 -87l-268 -260h-72l211 350l-217 352h68l278 -268q45 -43 45 -87z" glyph-name="guillemotright" horiz-adv-x="835" unicode="»"/><glyph d="M690 -336v-360q0 -27 -16.5 -33t-37.5 -6t-38.5 6t-17.5 33v360h-328q-29 0 -44 5t-15 22.5t18 40.5l424 534q21 25 35 25q20 0 20 -62v-454h19q33 0 53 20h39q-8 -83 -56 -131h-55zM173 352q-34 0 -34 23.5t16.5 31t35 14.5t35 18.5t16.5 37.5v375q0 27 -15.5 38t-33 17 t-33 11.5t-15.5 21.5q0 31 35 31l77 -4q77 -4 104.5 6t63.5 10t36 -33q0 -16 -16.5 -22t-36 -14.5t-36 -20.5t-16.5 -41v-367q0 -29 15.5 -40t34 -16t34 -11t15.5 -25q0 -29 -35 -28l-121 8q-31 0 -61.5 -10.5t-64.5 -10.5zM580 -225v297l-222 -297h222z" glyph-name="onequarter" horiz-adv-x="919" unicode="¼"/><glyph d="M899 -225q0 -7 -27.5 -58t-32.5 -64t-17.5 -13t-31 9t-63.5 9h-297q-27 0 -27 23q0 12 13 24q236 171 302 271q25 38 24.5 94t-50.5 86q-34 20 -77 20q-77 0 -144 -65q-19 -19 -37 -7.5t-18 24.5t32 46q97 102 222 102q82 0 146 -56q63 -56 63 -131t-37 -119t-94 -97 l-138 -125h127q41 0 77 28q36 27 60.5 27t24.5 -28zM129 954q0 31 35 31q16 0 38.5 -4t69 -4t73.5 10t63 10t36 -32q0 -16 -16 -22.5t-35.5 -14.5t-36 -20.5t-16.5 -41.5v-366q0 -29 15.5 -40t34 -16.5t33.5 -11.5t15 -24q0 -29 -35 -29l-120 8q-31 0 -62 -10t-65 -10 t-33 30q0 16 16.5 23.5t35 14.5t34.5 18.5t16 38.5v374q0 27 -15 38t-32.5 17.5t-33 11.5t-15.5 21z" glyph-name="onehalf" horiz-adv-x="1021" unicode="½"/><glyph d="M1055 -336v-360q0 -27 -16.5 -33t-38 -6t-39 6t-17.5 33v360h-328q-29 0 -44 5t-15 22.5t18 40.5l424 534q20 25 33 25q23 0 23 -62v-454h18q33 0 53 20h39q-8 -84 -55 -131h-55zM154 831q-31 0 -31 19q0 13 10 31l45 102h397q63 0 72 -35l-282 -297q6 2 50 2 t104.5 -21.5t102.5 -57.5q85 -74 85 -173q0 -198 -179 -323q-130 -94 -286 -126q-34 -7 -53 -7t-29 10.5t-10 22.5q0 26 36 36q187 48 283 148t96 198q0 191 -248 191q-31 0 -58.5 -14.5t-43.5 -14.5t-27.5 11.5t-11.5 24.5t12 26l275 286h-217q-61 -39 -92 -39zM944 -225 v297l-221 -297h221z" glyph-name="threequarters" horiz-adv-x="1284" unicode="¾"/><glyph d="M666 487q0 29 20 29q58 0 91 -90q32 -90 32 -197q0 -147 -108 -223q-44 -31 -108 -31t-123.5 19.5t-115.5 19.5t-105 -43q-50 -43 -50 -106t56 -156q80 -133 239 -143q12 -6 12 -35.5t-28 -71.5q-28 -41 -70 -41q-55 27 -110.5 57.5t-98.5 72.5q-97 95 -97 217t32 196 t74 119t85 65.5t86.5 20.5t109.5 -18.5t111 -18.5t87 39t42 71t-10 70.5t-21.5 75.5t-21.5 65.5t-10 36.5zM532 725l134 147l133 -147l-133 -150z" glyph-name="questiondown" horiz-adv-x="870" unicode="¿"/><glyph d="M475 1397q0 30 36 30t60.5 -8t59.5 -8l67 8q31 0 45 -26l496 -1178q42 -99 70 -122q28 -24 59 -31t42 -13t11 -18t-11 -21.5t-34 -9.5l-176 8q-47 0 -100 -10t-96 -10t-43 26q0 16 19 22.5t43 13.5q62 18 62 63t-28 114l-74 176h-614l-86 -215q-31 -79 15 -102 q32 -16 120 -32q28 -5 28 -25q0 -10 -12 -19.5t-28 -9.5l-181 8q-47 0 -93 -10t-84 -10t-38 24q0 16 18 23.5t42 16.5q65 24 94 91l442 1069q8 18 8 52t-23.5 68t-82.5 34q-10 0 -21.5 8t-11.5 23zM674 1159l-266 -655h534zM543.5 1817q58.5 0 77.5 -31l116 -221h-53 l-254 219q55 33 113.5 33z" glyph-name="Agrave" horiz-adv-x="1431" unicode="À"/><glyph d="M475 1397q0 30 36 30t60.5 -8t59.5 -8l67 8q31 0 45 -26l496 -1178q42 -99 70 -122q28 -24 59 -31t42 -13t11 -18t-11 -21.5t-34 -9.5l-176 8q-47 0 -100 -10t-96 -10t-43 26q0 16 19 22.5t43 13.5q62 18 62 63t-28 114l-74 176h-614l-86 -215q-31 -79 15 -102 q32 -16 120 -32q28 -5 28 -25q0 -10 -12 -19.5t-28 -9.5l-181 8q-47 0 -93 -10t-84 -10t-38 24q0 16 18 23.5t42 16.5q65 24 94 91l442 1069q8 18 8 52t-23.5 68t-82.5 34q-10 0 -21.5 8t-11.5 23zM674 1159l-266 -655h534zM714.5 1813q22.5 4 63.5 4t90 -33l-252 -219h-53 l117 221q12 23 34.5 27z" glyph-name="Aacute" horiz-adv-x="1431" unicode="Á"/><glyph d="M475 1397q0 30 36 30t60.5 -8t59.5 -8l67 8q31 0 45 -26l496 -1178q42 -99 70 -122q28 -24 59 -31t42 -13t11 -18t-11 -21.5t-34 -9.5l-176 8q-47 0 -100 -10t-96 -10t-43 26q0 16 19 22.5t43 13.5q62 18 62 63t-28 114l-74 176h-614l-86 -215q-31 -79 15 -102 q32 -16 120 -32q28 -5 28 -25q0 -10 -12 -19.5t-28 -9.5l-181 8q-47 0 -93 -10t-84 -10t-38 24q0 16 18 23.5t42 16.5q65 24 94 91l442 1069q8 18 8 52t-23.5 68t-82.5 34q-10 0 -21.5 8t-11.5 23zM674 1159l-266 -655h534zM659 1815h31l195 -240l-35 -31l-182 150 l-166 -150l-37 33z" glyph-name="Acircumflex" horiz-adv-x="1431" unicode="Â"/><glyph d="M475 1397q0 30 36 30t60.5 -8t59.5 -8l67 8q31 0 45 -26l496 -1178q42 -99 70 -122q28 -24 59 -31t42 -13t11 -18t-11 -21.5t-34 -9.5l-176 8q-47 0 -100 -10t-96 -10t-43 26q0 16 19 22.5t43 13.5q62 18 62 63t-28 114l-74 176h-614l-86 -215q-31 -79 15 -102 q32 -16 120 -32q28 -5 28 -25q0 -10 -12 -19.5t-28 -9.5l-181 8q-47 0 -93 -10t-84 -10t-38 24q0 16 18 23.5t42 16.5q65 24 94 91l442 1069q8 18 8 52t-23.5 68t-82.5 34q-10 0 -21.5 8t-11.5 23zM674 1159l-266 -655h534zM540.5 1636q-22.5 0 -44 -9t-36 -19.5 t-24.5 -19.5t-16 -9q-16 0 -17 23q0 4 3 8q74 133 186 133q15 1 93 -27t102 -28t44.5 9t36 20.5t25.5 20.5t14 9q20 0 21 -16q0 -17 -10 -27q-70 -123 -170 -123q-24 0 -75.5 19.5t-80.5 27.5t-51.5 8z" glyph-name="Atilde" horiz-adv-x="1431" unicode="Ã"/><glyph d="M475 1397q0 30 36 30t60.5 -8t59.5 -8l67 8q31 0 45 -26l496 -1178q42 -99 70 -122q28 -24 59 -31t42 -13t11 -18t-11 -21.5t-34 -9.5l-176 8q-47 0 -100 -10t-96 -10t-43 26q0 16 19 22.5t43 13.5q62 18 62 63t-28 114l-74 176h-614l-86 -215q-31 -79 15 -102 q32 -16 120 -32q28 -5 28 -25q0 -10 -12 -19.5t-28 -9.5l-181 8q-47 0 -93 -10t-84 -10t-38 24q0 16 18 23.5t42 16.5q65 24 94 91l442 1069q8 18 8 52t-23.5 68t-82.5 34q-10 0 -21.5 8t-11.5 23zM674 1159l-266 -655h534zM707 1690l110 125l115 -125l-115 -123zM514 1565 l-115 123l115 124l113 -124z" glyph-name="Adieresis" horiz-adv-x="1431" unicode="Ä"/><glyph d="M475 1397q0 30 36 30t60.5 -8t59.5 -8l67 8q31 0 45 -26l496 -1178q42 -99 70 -122q28 -24 59 -31t42 -13t11 -18t-11 -21.5t-34 -9.5l-176 8q-47 0 -100 -10t-96 -10t-43 26q0 16 19 22.5t43 13.5q62 18 62 63t-28 114l-74 176h-614l-86 -215q-31 -79 15 -102 q32 -16 120 -32q28 -5 28 -25q0 -10 -12 -19.5t-28 -9.5l-181 8q-47 0 -93 -10t-84 -10t-38 24q0 16 18 23.5t42 16.5q65 24 94 91l442 1069q8 18 8 52t-23.5 68t-82.5 34q-10 0 -21.5 8t-11.5 23zM674 1159l-266 -655h534zM537 1673q0 53 38.5 93t92.5 40q53 0 93 -40 t40 -93t-40 -92t-93 -39t-92 39t-39 92zM598 1673q0 -31 19.5 -50t50.5 -19t50 19t19 50t-19.5 50.5t-49.5 19.5q-31 0 -50.5 -19.5t-19.5 -50.5z" glyph-name="Aring" horiz-adv-x="1431" unicode="Å"/><glyph d="M1657 1008q39 0 39 -54.5t-11.5 -98.5t-11.5 -94t11.5 -102.5t11.5 -97.5t-33 -45t-33 67t-66 101q-48 25 -175 25h-246v-541q0 -53 31 -74h243q212 0 293.5 34t120.5 87t39 143q0 16 13 24.5t28 8.5q37 0 37 -54.5t-31 -173.5t-31 -163q0 -18 -19 -18t-43 9t-79 9h-875 q-14 0 -22 9t-8 20q0 16 22 23.5t50 19.5q74 31 75 98v242h-483l-148 -203q-32 -41 -32 -74t24.5 -47t53 -21.5t53 -13.5t24.5 -24q0 -10 -20.5 -19.5t-42.5 -9.5l-172 8q-53 0 -100.5 -10t-90.5 -10t-43 21t16 29l40 20q74 35 112 92l783 1087q10 25 10 55.5t-19.5 49 t-42 26.5t-42 13t-19.5 19.5t13 24t32 9.5h698q155 0 185 12t45.5 12t19.5 -12l21 -266q2 -14 -6.5 -28.5t-18.5 -14.5q-37 0 -43 24q-19 110 -84 144q-64 34 -250 34h-282q-35 -31 -35 -75v-455h246q123 1 160 19q73 36 73 137q0 43 35 43zM987 512v573l-412 -573h412z" glyph-name="AE" horiz-adv-x="2080" unicode="Æ"/><glyph d="M1343 1125.5q0 -78.5 -41 -78.5q-36 0 -36 87t-104 156q-104 68 -285 68q-229 0 -389 -124q-85 -66 -140 -175t-55 -258t41 -278.5t116.5 -229.5t184 -159.5t244.5 -59.5q248 0 353 118q42 48 42 107t-13.5 77.5t-13.5 38t3 29t18.5 9.5t38 -25t32 -62.5t22 -91 t48.5 -92.5q-48 -74 -198 -133t-316 -63h31l-39 -56q59 -43 59 -90q0 -88 -115 -159q-6 -3 -16 -3q-23 0 -22 23q0 8 10 16q43 27 43 70.5t-78 83.5l88 115q-349 8 -550 234q-183 206 -183 435.5t58.5 366t159.5 230.5q208 194 536 194q104 0 180 -14.5t99.5 -14.5t49 7.5 t46 16.5t36 16t28.5 7t13 -20t-7 -41t-7 -54.5t14 -89t14 -134z" glyph-name="Ccedilla" horiz-adv-x="1490" unicode="Ç"/><glyph d="M1098 514q-35 0 -35 67.5t-59 97.5t-181 30h-350v-541q0 -53 31 -74h346q214 0 295.5 34t120.5 86t39 144q0 14 12 22.5t26 8.5q37 0 37 -56t-30 -171t-29 -162q0 -10 -12.5 -15t-19.5 -5t-31.5 10t-77.5 10h-975q-35 0 -35 27q0 18 22 24.5t50 18.5q74 31 75 98v1106 q1 69 -69 93q-26 9 -48 14t-22 24q0 10 14.5 19.5t32.5 9.5h889q62 0 90 11t39 11q35 0 37 -29l14 -251q2 -16 -6 -26.5t-18 -10.5q-34 0 -41 28q-12 57 -31.5 91t-67.5 58t-237 23h-385q-35 -31 -35 -75v-455h350q123 1 160 19q72 36 72 137q0 43 37 43q14 0 25 -10.5 t11 -54.5t-10 -89t-10 -95t10 -101.5t10 -97.5t-30 -46zM681.5 1817q59.5 0 76.5 -31l116 -221h-53l-254 219q55 33 114.5 33z" glyph-name="Egrave" horiz-adv-x="1441" unicode="È"/><glyph d="M1098 514q-35 0 -35 67.5t-59 97.5t-181 30h-350v-541q0 -53 31 -74h346q214 0 295.5 34t120.5 86t39 144q0 14 12 22.5t26 8.5q37 0 37 -56t-30 -171t-29 -162q0 -10 -12.5 -15t-19.5 -5t-31.5 10t-77.5 10h-975q-35 0 -35 27q0 18 22 24.5t50 18.5q74 31 75 98v1106 q1 69 -69 93q-26 9 -48 14t-22 24q0 10 14.5 19.5t32.5 9.5h889q62 0 90 11t39 11q35 0 37 -29l14 -251q2 -16 -6 -26.5t-18 -10.5q-34 0 -41 28q-12 57 -31.5 91t-67.5 58t-237 23h-385q-35 -31 -35 -75v-455h350q123 1 160 19q72 36 72 137q0 43 37 43q14 0 25 -10.5 t11 -54.5t-10 -89t-10 -95t10 -101.5t10 -97.5t-30 -46zM841.5 1813q22.5 4 63.5 4t90 -33l-252 -219h-53l117 221q12 23 34.5 27z" glyph-name="Eacute" horiz-adv-x="1441" unicode="É"/><glyph d="M1098 514q-35 0 -35 67.5t-59 97.5t-181 30h-350v-541q0 -53 31 -74h346q214 0 295.5 34t120.5 86t39 144q0 14 12 22.5t26 8.5q37 0 37 -56t-30 -171t-29 -162q0 -10 -12.5 -15t-19.5 -5t-31.5 10t-77.5 10h-975q-35 0 -35 27q0 18 22 24.5t50 18.5q74 31 75 98v1106 q1 69 -69 93q-26 9 -48 14t-22 24q0 10 14.5 19.5t32.5 9.5h889q62 0 90 11t39 11q35 0 37 -29l14 -251q2 -16 -6 -26.5t-18 -10.5q-34 0 -41 28q-12 57 -31.5 91t-67.5 58t-237 23h-385q-35 -31 -35 -75v-455h350q123 1 160 19q72 36 72 137q0 43 37 43q14 0 25 -10.5 t11 -54.5t-10 -89t-10 -95t10 -101.5t10 -97.5t-30 -46zM774 1835h31l194 -240l-34 -30l-183 149l-166 -149l-36 32z" glyph-name="Ecircumflex" horiz-adv-x="1441" unicode="Ê"/><glyph d="M1098 514q-35 0 -35 67.5t-59 97.5t-181 30h-350v-541q0 -53 31 -74h346q214 0 295.5 34t120.5 86t39 144q0 14 12 22.5t26 8.5q37 0 37 -56t-30 -171t-29 -162q0 -10 -12.5 -15t-19.5 -5t-31.5 10t-77.5 10h-975q-35 0 -35 27q0 18 22 24.5t50 18.5q74 31 75 98v1106 q1 69 -69 93q-26 9 -48 14t-22 24q0 10 14.5 19.5t32.5 9.5h889q62 0 90 11t39 11q35 0 37 -29l14 -251q2 -16 -6 -26.5t-18 -10.5q-34 0 -41 28q-12 57 -31.5 91t-67.5 58t-237 23h-385q-35 -31 -35 -75v-455h350q123 1 160 19q72 36 72 137q0 43 37 43q14 0 25 -10.5 t11 -54.5t-10 -89t-10 -95t10 -101.5t10 -97.5t-30 -46zM823 1690l111 125l115 -125l-115 -123zM631 1565l-115 123l115 124l112 -124z" glyph-name="Edieresis" horiz-adv-x="1441" unicode="Ë"/><glyph d="M579 1434q42 0 42 -27q0 -18 -24 -25.5t-51.5 -19.5t-50 -33.5t-22.5 -66.5v-1104q0 -45 21.5 -63.5t47 -28t47 -14.5t21.5 -23q0 -10 -12 -19.5t-33 -9.5l-170 8q-49 0 -95 -10t-88 -10t-42 26q0 16 22.5 24.5t50 20t51 33t23.5 66.5v1104q1 69 -69 93q-26 9 -48 14 t-22 24q0 10 13.5 19t33.5 9l170 -8q49 0 95.5 10.5t88.5 10.5zM278 1817q59 0 76 -31l117 -221h-53l-254 219q55 33 114 33z" glyph-name="Igrave" horiz-adv-x="790" unicode="Ì"/><glyph d="M579 1434q42 0 42 -27q0 -18 -24 -25.5t-51.5 -19.5t-50 -33.5t-22.5 -66.5v-1104q0 -45 21.5 -63.5t47 -28t47 -14.5t21.5 -23q0 -10 -12 -19.5t-33 -9.5l-170 8q-49 0 -95 -10t-88 -10t-42 26q0 16 22.5 24.5t50 20t51 33t23.5 66.5v1104q1 69 -69 93q-26 9 -48 14 t-22 24q0 10 13.5 19t33.5 9l170 -8q49 0 95.5 10.5t88.5 10.5zM491.5 1813q22.5 4 63.5 4t90 -33l-252 -219h-53l117 221q12 23 34.5 27z" glyph-name="Iacute" horiz-adv-x="790" unicode="Í"/><glyph d="M579 1434q42 0 42 -27q0 -18 -24 -25.5t-51.5 -19.5t-50 -33.5t-22.5 -66.5v-1104q0 -45 21.5 -63.5t47 -28t47 -14.5t21.5 -23q0 -10 -12 -19.5t-33 -9.5l-170 8q-49 0 -95 -10t-88 -10t-42 26q0 16 22.5 24.5t50 20t51 33t23.5 66.5v1104q1 69 -69 93q-26 9 -48 14 t-22 24q0 10 13.5 19t33.5 9l170 -8q49 0 95.5 10.5t88.5 10.5zM379 1835h31l194 -240l-35 -30l-182 149l-166 -149l-37 32z" glyph-name="Icircumflex" horiz-adv-x="790" unicode="Î"/><glyph d="M579 1434q42 0 42 -27q0 -18 -24 -25.5t-51.5 -19.5t-50 -33.5t-22.5 -66.5v-1104q0 -45 21.5 -63.5t47 -28t47 -14.5t21.5 -23q0 -10 -12 -19.5t-33 -9.5l-170 8q-49 0 -95 -10t-88 -10t-42 26q0 16 22.5 24.5t50 20t51 33t23.5 66.5v1104q1 69 -69 93q-26 9 -48 14 t-22 24q0 10 13.5 19t33.5 9l170 -8q49 0 95.5 10.5t88.5 10.5zM436 1690l111 125l115 -125l-115 -123zM244 1565l-115 123l115 124l112 -124z" glyph-name="Idieresis" horiz-adv-x="790" unicode="Ï"/><glyph d="M807.5 1436q150.5 0 283 -47.5t237 -137.5t168 -219t63.5 -372t-208 -457q-208 -215 -575 -215q-72 0 -206 10t-181 10t-91 -10t-86 -10t-42 26q0 16 22 24t50 20q74 31 75 102v508h-149v100h149v494q1 69 -69 93q-26 9 -48 14t-22 24q0 10 14.5 19t32.5 9l172 -8 q50 -1 155 11t255.5 12zM797 1348h-127q-92 0 -197 -17v-563h365v-100h-365v-570q136 -22 284 -22t269 52t199 141q153 175 153 456q0 282 -161 452q-161 171 -420 171z" glyph-name="Eth" horiz-adv-x="1701" unicode="Ð"/><glyph d="M1458 1423.5q47 10.5 89 10.5t42 -27q0 -16 -22.5 -24.5t-49 -20.5t-49 -32.5t-22.5 -61.5l-6 -1266q0 -14 -15 -14t-43 35l-999 1167v-1036q0 -49 30.5 -67.5t67.5 -25t68 -10.5t31 -22q0 -10 -12.5 -19.5t-32.5 -9.5l-170 8q-51 0 -97.5 -10t-87.5 -10t-41 26 q0 16 22.5 24.5t50.5 21t51.5 33t23.5 61.5v1009q-1 153 -93 185q-24 8 -44.5 13t-34 11t-13.5 18.5t13.5 21.5t34.5 9l133 -6q64 0 106 19l959 -1127v961q0 49 -32 67.5t-69 24.5t-68.5 10t-31.5 23q0 10 13.5 19t33.5 9l170 -8q47 0 94 10.5zM734.5 1636q-22.5 0 -43.5 -9 t-35.5 -19.5t-24.5 -19.5t-17 -9q-16 0 -16 23q0 4 2 8q74 133 186 133q17 1 93 -27t101.5 -28t46 9t35.5 20.5t25.5 20.5t14.5 9q20 -1 20 -17t-10 -26q-70 -123 -170 -123q-22 0 -74.5 19.5t-81.5 27.5t-51.5 8z" glyph-name="Ntilde" horiz-adv-x="1720" unicode="Ñ"/><glyph d="M860 -14q-156 0 -289 57t-233 156.5t-157.5 234.5t-57.5 365t205 439q205 208 514 208q166 0 303 -59.5t235.5 -161t152.5 -236.5t54 -288t-54 -283.5t-151.5 -227t-231.5 -150.5t-290 -54zM281 794.5q0 -104.5 44 -235.5t123.5 -234.5t190.5 -167t310 -63.5t340 150 t141 364q0 127 -44.5 257t-124 234.5t-193.5 171t-259.5 66.5t-247.5 -51t-164.5 -129t-89 -168t-26.5 -194.5zM732.5 1817q59.5 0 76.5 -31l117 -221h-54l-254 219q55 33 114.5 33z" glyph-name="Ograve" horiz-adv-x="1710" unicode="Ò"/><glyph d="M860 -14q-156 0 -289 57t-233 156.5t-157.5 234.5t-57.5 365t205 439q205 208 514 208q166 0 303 -59.5t235.5 -161t152.5 -236.5t54 -288t-54 -283.5t-151.5 -227t-231.5 -150.5t-290 -54zM281 794.5q0 -104.5 44 -235.5t123.5 -234.5t190.5 -167t310 -63.5t340 150 t141 364q0 127 -44.5 257t-124 234.5t-193.5 171t-259.5 66.5t-247.5 -51t-164.5 -129t-89 -168t-26.5 -194.5zM923.5 1813q22.5 4 63.5 4t90 -33l-252 -219h-53l117 221q12 23 34.5 27z" glyph-name="Oacute" horiz-adv-x="1710" unicode="Ó"/><glyph d="M860 -14q-156 0 -289 57t-233 156.5t-157.5 234.5t-57.5 365t205 439q205 208 514 208q166 0 303 -59.5t235.5 -161t152.5 -236.5t54 -288t-54 -283.5t-151.5 -227t-231.5 -150.5t-290 -54zM281 794.5q0 -104.5 44 -235.5t123.5 -234.5t190.5 -167t310 -63.5t340 150 t141 364q0 127 -44.5 257t-124 234.5t-193.5 171t-259.5 66.5t-247.5 -51t-164.5 -129t-89 -168t-26.5 -194.5zM840 1835h30l195 -240l-35 -30l-182 149l-166 -149l-37 32z" glyph-name="Ocircumflex" horiz-adv-x="1710" unicode="Ô"/><glyph d="M860 -14q-156 0 -289 57t-233 156.5t-157.5 234.5t-57.5 365t205 439q205 208 514 208q166 0 303 -59.5t235.5 -161t152.5 -236.5t54 -288t-54 -283.5t-151.5 -227t-231.5 -150.5t-290 -54zM281 794.5q0 -104.5 44 -235.5t123.5 -234.5t190.5 -167t310 -63.5t340 150 t141 364q0 127 -44.5 257t-124 234.5t-193.5 171t-259.5 66.5t-247.5 -51t-164.5 -129t-89 -168t-26.5 -194.5zM728.5 1636q-22.5 0 -43.5 -9t-35.5 -19.5t-25 -19.5t-16.5 -9q-16 0 -16 23q0 4 2 8q74 133 186 133q17 1 93 -27t101.5 -28t45.5 9t35.5 20.5t26 20.5t14.5 9 q20 -1 20 -17t-10 -26q-70 -123 -170 -123q-24 0 -75.5 19.5t-80.5 27.5t-51.5 8z" glyph-name="Otilde" horiz-adv-x="1710" unicode="Õ"/><glyph d="M860 -14q-156 0 -289 57t-233 156.5t-157.5 234.5t-57.5 365t205 439q205 208 514 208q166 0 303 -59.5t235.5 -161t152.5 -236.5t54 -288t-54 -283.5t-151.5 -227t-231.5 -150.5t-290 -54zM281 794.5q0 -104.5 44 -235.5t123.5 -234.5t190.5 -167t310 -63.5t340 150 t141 364q0 127 -44.5 257t-124 234.5t-193.5 171t-259.5 66.5t-247.5 -51t-164.5 -129t-89 -168t-26.5 -194.5zM895 1690l111 125l114 -125l-114 -123zM702 1565l-114 123l114 124l113 -124z" glyph-name="Odieresis" horiz-adv-x="1710" unicode="Ö"/><glyph d="M897 49q0 -17 -15.5 -33t-36.5 -16t-52 29l-306 303l-303 -303q-18 -18 -25 -23.5t-24.5 -5.5t-35 16.5t-17.5 35.5t31 50l301 304l-301 303q-31 39 -31 55.5t17.5 32.5t36.5 16t63 -43l290 -293l306 305q31 31 50.5 31t35.5 -16.5t16 -33.5t-8 -27.5t-21 -26.5 l-305 -301l305 -308q10 -12 19.5 -23t9.5 -28z" glyph-name="multiply" horiz-adv-x="978" unicode="×"/><glyph d="M1587 702q0 -308 -206 -512t-525 -204q-249 0 -444 149l-123 -125q-16 -16 -40.5 -16t-41.5 15.5t-17 39.5t19 39l119 121q-96 98 -150.5 231t-54.5 361t205 437q205 208 509.5 208t518.5 -199l110 111q16 16 38 16t40.5 -18.5t18.5 -40t-19 -39.5l-112 -113 q155 -205 155 -461zM1239 1128q-178 209 -438 209q-261 0 -405 -180q-116 -144 -115 -334q0 -133 44 -262t121 -233zM881 96q266 0 408 149q141 149 141 365t-125 424l-783 -788q154 -150 359 -150z" glyph-name="Oslash" horiz-adv-x="1710" unicode="Ø"/><glyph d="M517 1434q42 0 42 -27q0 -18 -23.5 -25.5t-51 -19.5t-50 -33.5t-22.5 -66.5v-783q0 -198 124 -299q106 -86 252 -86q221 0 422 197v971q0 69 -70 93q-26 9 -47.5 14t-21.5 24q0 10 13.5 19t33.5 9l170 -8q49 0 95.5 10.5t88.5 10.5t41 -27q0 -18 -23.5 -25.5t-51 -19.5 t-50 -33.5t-22.5 -66.5v-955q0 -105 16 -136q28 -54 109 -54q49 0 49 -37q0 -25 -53 -24.5t-139 -29.5t-111 -30t-25 22v52q0 44 2 123q-76 -55 -133 -94.5t-140 -76.5t-195.5 -36.5t-195 22t-148.5 78.5q-146 127 -146 408v768q0 69 -70 93q-26 9 -47.5 14t-21.5 24 q0 10 13 19t34 9l170 -8q49 0 95 10.5t88 10.5zM715.5 1817q58.5 0 77.5 -31l116 -221h-53l-254 219q55 33 113.5 33z" glyph-name="Ugrave" horiz-adv-x="1683" unicode="Ù"/><glyph d="M517 1434q42 0 42 -27q0 -18 -23.5 -25.5t-51 -19.5t-50 -33.5t-22.5 -66.5v-783q0 -198 124 -299q106 -86 252 -86q221 0 422 197v971q0 69 -70 93q-26 9 -47.5 14t-21.5 24q0 10 13.5 19t33.5 9l170 -8q49 0 95.5 10.5t88.5 10.5t41 -27q0 -18 -23.5 -25.5t-51 -19.5 t-50 -33.5t-22.5 -66.5v-955q0 -105 16 -136q28 -54 109 -54q49 0 49 -37q0 -25 -53 -24.5t-139 -29.5t-111 -30t-25 22v52q0 44 2 123q-76 -55 -133 -94.5t-140 -76.5t-195.5 -36.5t-195 22t-148.5 78.5q-146 127 -146 408v768q0 69 -70 93q-26 9 -47.5 14t-21.5 24 q0 10 13 19t34 9l170 -8q49 0 95 10.5t88 10.5zM917.5 1813q22.5 4 63.5 4t90 -33l-252 -219h-53l117 221q12 23 34.5 27z" glyph-name="Uacute" horiz-adv-x="1683" unicode="Ú"/><glyph d="M517 1434q42 0 42 -27q0 -18 -23.5 -25.5t-51 -19.5t-50 -33.5t-22.5 -66.5v-783q0 -198 124 -299q106 -86 252 -86q221 0 422 197v971q0 69 -70 93q-26 9 -47.5 14t-21.5 24q0 10 13.5 19t33.5 9l170 -8q49 0 95.5 10.5t88.5 10.5t41 -27q0 -18 -23.5 -25.5t-51 -19.5 t-50 -33.5t-22.5 -66.5v-955q0 -105 16 -136q28 -54 109 -54q49 0 49 -37q0 -25 -53 -24.5t-139 -29.5t-111 -30t-25 22v52q0 44 2 123q-76 -55 -133 -94.5t-140 -76.5t-195.5 -36.5t-195 22t-148.5 78.5q-146 127 -146 408v768q0 69 -70 93q-26 9 -47.5 14t-21.5 24 q0 10 13 19t34 9l170 -8q49 0 95 10.5t88 10.5zM825 1835h31l195 -240l-35 -30l-182 149l-166 -149l-37 32z" glyph-name="Ucircumflex" horiz-adv-x="1683" unicode="Û"/><glyph d="M517 1434q42 0 42 -27q0 -18 -23.5 -25.5t-51 -19.5t-50 -33.5t-22.5 -66.5v-783q0 -198 124 -299q106 -86 252 -86q221 0 422 197v971q0 69 -70 93q-26 9 -47.5 14t-21.5 24q0 10 13.5 19t33.5 9l170 -8q49 0 95.5 10.5t88.5 10.5t41 -27q0 -18 -23.5 -25.5t-51 -19.5 t-50 -33.5t-22.5 -66.5v-955q0 -105 16 -136q28 -54 109 -54q49 0 49 -37q0 -25 -53 -24.5t-139 -29.5t-111 -30t-25 22v52q0 44 2 123q-76 -55 -133 -94.5t-140 -76.5t-195.5 -36.5t-195 22t-148.5 78.5q-146 127 -146 408v768q0 69 -70 93q-26 9 -47.5 14t-21.5 24 q0 10 13 19t34 9l170 -8q49 0 95 10.5t88 10.5zM883 1690l110 125l115 -125l-115 -123zM690 1565l-115 123l115 124l113 -124z" glyph-name="Udieresis" horiz-adv-x="1683" unicode="Ü"/><glyph d="M1367 1434q42 0 42 -22t-36 -34t-57.5 -21t-34.5 -26.5t-27.5 -44t-30.5 -51.5l-443 -694v-383q0 -45 21.5 -63.5t47 -28t47.5 -14.5t22 -23q0 -10 -12.5 -19.5t-33.5 -9.5l-170 8q-49 0 -95 -10t-88 -10t-42 26q0 16 22.5 24.5t50.5 20t51.5 33t23.5 66.5v397l-502 768 q-16 24 -54 35.5t-53.5 17.5t-15.5 21q0 25 45 24l172 -8q64 1 123 11t89 10t30 -23q0 -16 -19.5 -22.5t-41.5 -13.5q-62 -19 -62 -56q0 -29 35 -88l377 -582l321 529q37 71 37 103t-21.5 49.5t-48 24.5t-48 13t-21.5 25q0 10 12 19t33 9l170 -8q53 0 98 10.5t87 10.5z M788.5 1813q22.5 4 63.5 4t90 -33l-252 -219h-53l117 221q12 23 34.5 27z" glyph-name="Yacute" horiz-adv-x="1409" unicode="Ý"/><glyph d="M210 -12q-40 0 -40 28q0 16 22.5 24.5t50 20t51 33t23.5 66.5v1102q1 69 -69 93q-26 9 -48 14t-22 24q0 10 13.5 19t33.5 9l170 -8q49 0 95.5 10.5t88.5 10.5t42 -27q0 -18 -24 -25.5t-51.5 -19.5t-50 -33.5t-22.5 -66.5v-148q146 37 256.5 37t206.5 -37.5t160 -97.5 q130 -122 131 -287q0 -165 -123 -280t-338 -115q-163 0 -293 51v-225q0 -45 29.5 -64.5t65.5 -29t66 -14.5t30 -23q0 -10 -12.5 -19.5t-33.5 -9.5l-223 10q-49 0 -97 -11t-88 -11zM473 496q39 -74 218 -74q180 0 269 89t89 218t-105 232q-105 102 -293 102q-112 0 -178 -49 v-518z" glyph-name="Thorn" horiz-adv-x="1329" unicode="Þ"/><glyph d="M467 25q0 -27 -40 -27t-80 8t-86 8t-88 -13t-80 -13t-38 26q0 16 21.5 23.5t48.5 19t48.5 30.5t21.5 63v579h-76l76 78v307q0 145 93 252q111 127 290 127q52 0 124 -33t72 -57q0 -8 -41 -56q-41 -49 -51 -49t-29.5 16.5t-62.5 52.5t-97 36t-108 -72q-53 -72 -53 -217 v-964q0 -43 21.5 -60.5t46 -27t46 -14.5t21.5 -23zM862 918q0 -125 -186 -213q93 -11 165 -79q95 -90 95 -248t-130 -274q-91 -82 -218 -122q-8 -2 -16.5 -4.5t-18.5 -2.5t-17.5 8.5t-7.5 26.5t27 29q137 45 201 138q48 71 48.5 165t-59.5 181t-167 87q-38 0 -68 -15 t-40.5 -15t-18 10t-7.5 22t15 23q149 91 189 133.5t51.5 72t11.5 68.5t-24.5 73t-58.5 34q-71 0 -147 -76q-6 -4 -12 -9t-15 -5t-18.5 10t-9.5 17t2 12l197 186q93 -1 165 -73t72 -160z" glyph-name="germandbls" horiz-adv-x="1005" unicode="ß"/><glyph d="M108.5 629q-20.5 0 -20.5 20t10 29q151 139 334 139q119 0 176 -64q58 -64 58 -155v-451q0 -77 56 -92q22 -6 40 -8t18 -20t-160 -42q-34 -5 -47 -5q-35 0 -36 32l-9 92q-39 -41 -111.5 -78.5t-169.5 -37.5t-151.5 43t-54 136t118.5 167q89 55 368 147v101 q0 135 -180 135q-82 -1 -152 -45q-28 -18 -47.5 -30.5t-40 -12.5zM326 68q98 0 202 104v242q-226 -67 -277.5 -124t-51.5 -122q0 -100 127 -100zM279.5 1182q60.5 0 80.5 -41l111 -211h-53l-254 219q55 33 115.5 33z" glyph-name="agrave" horiz-adv-x="804" unicode="à"/><glyph d="M108.5 629q-20.5 0 -20.5 20t10 29q151 139 334 139q119 0 176 -64q58 -64 58 -155v-451q0 -77 56 -92q22 -6 40 -8t18 -20t-160 -42q-34 -5 -47 -5q-35 0 -36 32l-9 92q-39 -41 -111.5 -78.5t-169.5 -37.5t-151.5 43t-54 136t118.5 167q89 55 368 147v101 q0 135 -180 135q-82 -1 -152 -45q-28 -18 -47.5 -30.5t-40 -12.5zM326 68q98 0 202 104v242q-226 -67 -277.5 -124t-51.5 -122q0 -100 127 -100zM439 1176q24 6 64 6t91 -33l-252 -219h-53l110 211q16 29 40 35z" glyph-name="aacute" horiz-adv-x="804" unicode="á"/><glyph d="M108.5 629q-20.5 0 -20.5 20t10 29q151 139 334 139q119 0 176 -64q58 -64 58 -155v-451q0 -77 56 -92q22 -6 40 -8t18 -20t-160 -42q-34 -5 -47 -5q-35 0 -36 32l-9 92q-39 -41 -111.5 -78.5t-169.5 -37.5t-151.5 43t-54 136t118.5 167q89 55 368 147v101 q0 135 -180 135q-82 -1 -152 -45q-28 -18 -47.5 -30.5t-40 -12.5zM326 68q98 0 202 104v242q-226 -67 -277.5 -124t-51.5 -122q0 -100 127 -100zM356 1200h31l195 -239l-35 -31l-182 149l-166 -149l-37 33z" glyph-name="acircumflex" horiz-adv-x="804" unicode="â"/><glyph d="M108.5 629q-20.5 0 -20.5 20t10 29q151 139 334 139q119 0 176 -64q58 -64 58 -155v-451q0 -77 56 -92q22 -6 40 -8t18 -20t-160 -42q-34 -5 -47 -5q-35 0 -36 32l-9 92q-39 -41 -111.5 -78.5t-169.5 -37.5t-151.5 43t-54 136t118.5 167q89 55 368 147v101 q0 135 -180 135q-82 -1 -152 -45q-28 -18 -47.5 -30.5t-40 -12.5zM326 68q98 0 202 104v242q-226 -67 -277.5 -124t-51.5 -122q0 -100 127 -100zM241.5 1001q-22.5 0 -44 -9t-36 -19t-24.5 -19.5t-16 -9.5q-16 0 -17 23q0 4 2 8q74 133 187 133q20 0 94 -28t99.5 -27.5 t46 9.5t36 20.5t25.5 20.5t14 9q20 0 21 -16q0 -4 -4 -14.5t-7 -12.5q-70 -123 -169 -123q-19 0 -73 19.5t-83 27.5t-51.5 8z" glyph-name="atilde" horiz-adv-x="804" unicode="ã"/><glyph d="M108.5 629q-20.5 0 -20.5 20t10 29q151 139 334 139q119 0 176 -64q58 -64 58 -155v-451q0 -77 56 -92q22 -6 40 -8t18 -20t-160 -42q-34 -5 -47 -5q-35 0 -36 32l-9 92q-39 -41 -111.5 -78.5t-169.5 -37.5t-151.5 43t-54 136t118.5 167q89 55 368 147v101 q0 135 -180 135q-82 -1 -152 -45q-28 -18 -47.5 -30.5t-40 -12.5zM326 68q98 0 202 104v242q-226 -67 -277.5 -124t-51.5 -122q0 -100 127 -100zM418 1055l110 125l115 -125l-115 -123zM225 930l-114 123l114 125l113 -125z" glyph-name="adieresis" horiz-adv-x="804" unicode="ä"/><glyph d="M108.5 629q-20.5 0 -20.5 20t10 29q151 139 334 139q119 0 176 -64q58 -64 58 -155v-451q0 -77 56 -92q22 -6 40 -8t18 -20t-160 -42q-34 -5 -47 -5q-35 0 -36 32l-9 92q-39 -41 -111.5 -78.5t-169.5 -37.5t-151.5 43t-54 136t118.5 167q89 55 368 147v101 q0 135 -180 135q-82 -1 -152 -45q-28 -18 -47.5 -30.5t-40 -12.5zM326 68q98 0 202 104v242q-226 -67 -277.5 -124t-51.5 -122q0 -100 127 -100zM236 1059q0 53 38.5 93t92.5 40q53 0 93 -40t40 -93t-40 -92t-93 -39t-92 39t-39 92zM297 1059q0 -31 19.5 -50.5t50.5 -19.5 t50 19.5t19 50.5t-19.5 50t-49.5 19q-31 0 -50.5 -19t-19.5 -50z" glyph-name="aring" horiz-adv-x="804" unicode="å"/><glyph d="M122.5 629q-20.5 0 -20.5 20t11 29q78 72 156.5 105.5t176.5 33.5q157 0 207 -112q99 112 273 112q125 -1 216 -75q43 -35 87 -101q28 -6 28 -40t-38 -46l-529 -184q27 -123 107 -197t223 -74q50 0 102 28t70 46t31 19q37 0 37 -39q0 -12 -27 -40t-71 -56 q-113 -71 -219.5 -70.5t-193.5 49.5t-143 139q-142 -188 -338 -188q-104 0 -158.5 43t-54.5 135.5t119 167.5q87 54 369 147v101q0 135 -181 135q-81 -1 -152 -45q-28 -18 -47.5 -30.5t-40 -12.5zM213 173q0 -105 127 -105q57 0 113 27t135 116q-47 92 -47 203 q-224 -67 -288 -137q-40 -44 -40 -104zM680 479q0 -12 1 -24.5t1 -24.5l395 154q0 45 -40 82q-76 69 -168 69t-138.5 -60.5t-50.5 -158.5v-37z" glyph-name="ae" horiz-adv-x="1310" unicode="æ"/><glyph d="M412 -198q0 43 -78 83l80 107q-156 15 -257 133q-100 118 -100 262q0 192 130 311t292 119q102 0 187 -33q86 -33 86 -61q0 -21 -33 -65t-52 -44t-27 18t-26 42q-45 60 -161 61q-179 0 -235 -145q-20 -53 -21 -133q0 -156 99 -270q99 -113 226 -113q95 0 157 45t73 45 q23 0 22 -23q0 -18 -23.5 -43.5t-63.5 -47.5q-103 -58 -204 -62l-30 -43q59 -43 59 -91q0 -89 -115 -159q-4 -2 -9 -2h-7q-23 0 -23 22q0 8 11 17q43 27 43 70z" glyph-name="ccedilla" horiz-adv-x="794" unicode="ç"/><glyph d="M776 154q0 -12 -26.5 -40t-70.5 -56q-191 -120 -375 -40q-147 63 -214 226q-33 80 -33 207.5t100 246.5t285 119q126 -1 216 -75q42 -35 87 -101q29 -6 29 -40t-39 -46l-526 -184q25 -123 104.5 -197t223.5 -74q51 0 102 28t70 46q18 18 30 19q37 0 37 -39zM197 496v-33 q0 -17 2 -33l395 154q0 44 -40 81q-76 70 -170.5 70t-140.5 -66.5t-46 -172.5zM303.5 1182q60.5 0 81.5 -41l111 -211h-54l-254 219q55 33 115.5 33z" glyph-name="egrave" horiz-adv-x="827" unicode="è"/><glyph d="M776 154q0 -12 -26.5 -40t-70.5 -56q-191 -120 -375 -40q-147 63 -214 226q-33 80 -33 207.5t100 246.5t285 119q126 -1 216 -75q42 -35 87 -101q29 -6 29 -40t-39 -46l-526 -184q25 -123 104.5 -197t223.5 -74q51 0 102 28t70 46q18 18 30 19q37 0 37 -39zM197 496v-33 q0 -17 2 -33l395 154q0 44 -40 81q-76 70 -170.5 70t-140.5 -66.5t-46 -172.5zM449.5 1176q23.5 6 64.5 6t90 -33l-252 -219h-53l111 211q16 29 39.5 35z" glyph-name="eacute" horiz-adv-x="827" unicode="é"/><glyph d="M776 154q0 -12 -26.5 -40t-70.5 -56q-191 -120 -375 -40q-147 63 -214 226q-33 80 -33 207.5t100 246.5t285 119q126 -1 216 -75q42 -35 87 -101q29 -6 29 -40t-39 -46l-526 -184q25 -123 104.5 -197t223.5 -74q51 0 102 28t70 46q18 18 30 19q37 0 37 -39zM197 496v-33 q0 -17 2 -33l395 154q0 44 -40 81q-76 70 -170.5 70t-140.5 -66.5t-46 -172.5zM397 1200h31l195 -239l-35 -31l-182 149l-166 -149l-37 33z" glyph-name="ecircumflex" horiz-adv-x="827" unicode="ê"/><glyph d="M776 154q0 -12 -26.5 -40t-70.5 -56q-191 -120 -375 -40q-147 63 -214 226q-33 80 -33 207.5t100 246.5t285 119q126 -1 216 -75q42 -35 87 -101q29 -6 29 -40t-39 -46l-526 -184q25 -123 104.5 -197t223.5 -74q51 0 102 28t70 46q18 18 30 19q37 0 37 -39zM197 496v-33 q0 -17 2 -33l395 154q0 44 -40 81q-76 70 -170.5 70t-140.5 -66.5t-46 -172.5zM455 1055l110 125l115 -125l-115 -123zM262 930l-115 123l115 125l113 -125z" glyph-name="edieresis" horiz-adv-x="827" unicode="ë"/><glyph d="M195 592q0 129 -70 129t-70 25t39 32l178 37q28 8 43.5 8t16.5 -20v-651q0 -66 66 -88q26 -8 46.5 -13.5t20.5 -23.5q0 -10 -10.5 -18.5t-28.5 -8.5l-162 14q-47 0 -89 -13t-81 -13t-39 26q0 16 21.5 23.5t48.5 19t48.5 32t21.5 63.5v440zM135.5 1182q60.5 0 81.5 -41 l111 -211h-54l-254 219q55 33 115.5 33z" glyph-name="igrave" horiz-adv-x="522" unicode="ì"/><glyph d="M195 592q0 129 -70 129t-70 25t39 32l178 37q28 8 43.5 8t16.5 -20v-651q0 -66 66 -88q26 -8 46.5 -13.5t20.5 -23.5q0 -10 -10.5 -18.5t-28.5 -8.5l-162 14q-47 0 -89 -13t-81 -13t-39 26q0 16 21.5 23.5t48.5 19t48.5 32t21.5 63.5v440zM300 1176q24 6 64 6t91 -33 l-252 -219h-53l110 211q16 29 40 35z" glyph-name="iacute" horiz-adv-x="522" unicode="í"/><glyph d="M195 592q0 129 -70 129t-70 25t39 32l178 37q28 8 43.5 8t16.5 -20v-651q0 -66 66 -88q26 -8 46.5 -13.5t20.5 -23.5q0 -10 -10.5 -18.5t-28.5 -8.5l-162 14q-47 0 -89 -13t-81 -13t-39 26q0 16 21.5 23.5t48.5 19t48.5 32t21.5 63.5v440zM244 1200h30l195 -239l-35 -31 l-182 149l-166 -149l-37 33z" glyph-name="icircumflex" horiz-adv-x="522" unicode="î"/><glyph d="M195 592q0 129 -70 129t-70 25t39 32l178 37q28 8 43.5 8t16.5 -20v-651q0 -66 66 -88q26 -8 46.5 -13.5t20.5 -23.5q0 -10 -10.5 -18.5t-28.5 -8.5l-162 14q-47 0 -89 -13t-81 -13t-39 26q0 16 21.5 23.5t48.5 19t48.5 32t21.5 63.5v440zM303 1055l111 125l114 -125 l-114 -123zM111 930l-115 123l115 125l112 -125z" glyph-name="idieresis" horiz-adv-x="522" unicode="ï"/><glyph d="M319 1366q122 0 314 -121l268 53l-49 -106l-115 -23q156 -129 223.5 -277.5t67.5 -355.5t-104 -362q-124 -186 -353 -186q-193 0 -321 116q-127 116 -127 298t132 298q132 117 304 117q93 0 164 -37q123 -64 168 -139q-56 259 -161 403q-42 58 -99 105l-359 -72l52 107 l192 37q-86 42 -148.5 55.5t-78 26t-15.5 25.5t10.5 25.5t34.5 12.5zM354 200q100 -126 240 -126q104 0 176 84t72 222q0 137 -92 243t-256 106q-96 0 -168 -78t-72 -201q0 -124 100 -250z" glyph-name="eth" horiz-adv-x="1136" unicode="ð"/><glyph d="M195 592q0 129 -70 129t-70 25t39 32l178 37q28 8 43.5 8t16.5 -20v-135q42 61 130 105t183 44q240 0 240 -235v-430q1 -66 67 -88q26 -8 46 -13.5t20 -23.5q0 -10 -10.5 -18.5t-28.5 -8.5l-162 14q-47 0 -89 -13t-81 -13t-39 26q0 16 21.5 23.5t48.5 19t48.5 32 t21.5 63.5v362q0 111 -45.5 154t-119 43t-145.5 -33q-73 -33 -106 -98v-428q0 -66 66 -88q26 -8 46.5 -13.5t20.5 -23.5q0 -10 -10.5 -18.5t-28.5 -8.5l-162 14q-47 0 -89 -13t-81 -13t-39 26q0 16 21.5 23.5t48.5 19t48.5 32t21.5 63.5v440zM399.5 1001q-22.5 0 -44 -9 t-36 -19t-24.5 -19.5t-16 -9.5q-16 0 -17 23q0 4 2 8q74 133 187 133q21 0 93 -28q73 -28 99.5 -27.5t47 9.5t35.5 20.5t25.5 20.5t14.5 9q20 0 20 -16t-10 -27q-70 -123 -170 -123q-17 0 -72 19.5t-83.5 27.5t-51 8z" glyph-name="ntilde" horiz-adv-x="1075" unicode="ñ"/><glyph d="M287 194q90 -120 227 -120q168 0 230 172q18 51 18 152.5t-91 216.5q-91 116 -227 116q-108 0 -177 -80q-70 -80 -70 -208q0 -129 90 -249zM901 375.5q0 -134.5 -122 -260.5q-122 -127 -290 -127q-167 0 -300 110q-132 110 -132 295q0 186 130 305t286 119 q157 0 285 -102q64 -51 103.5 -128t39.5 -211.5zM357.5 1182q60.5 0 80.5 -41l111 -211h-53l-254 219q55 33 115.5 33z" glyph-name="ograve" horiz-adv-x="966" unicode="ò"/><glyph d="M287 194q90 -120 227 -120q168 0 230 172q18 51 18 152.5t-91 216.5q-91 116 -227 116q-108 0 -177 -80q-70 -80 -70 -208q0 -129 90 -249zM901 375.5q0 -134.5 -122 -260.5q-122 -127 -290 -127q-167 0 -300 110q-132 110 -132 295q0 186 130 305t286 119 q157 0 285 -102q64 -51 103.5 -128t39.5 -211.5zM547.5 1176q23.5 6 64.5 6t90 -33l-251 -219h-54l111 211q16 29 39.5 35z" glyph-name="oacute" horiz-adv-x="966" unicode="ó"/><glyph d="M287 194q90 -120 227 -120q168 0 230 172q18 51 18 152.5t-91 216.5q-91 116 -227 116q-108 0 -177 -80q-70 -80 -70 -208q0 -129 90 -249zM901 375.5q0 -134.5 -122 -260.5q-122 -127 -290 -127q-167 0 -300 110q-132 110 -132 295q0 186 130 305t286 119 q157 0 285 -102q64 -51 103.5 -128t39.5 -211.5zM467 1200h31l194 -239l-35 -31l-182 149l-166 -149l-37 33z" glyph-name="ocircumflex" horiz-adv-x="966" unicode="ô"/><glyph d="M287 194q90 -120 227 -120q168 0 230 172q18 51 18 152.5t-91 216.5q-91 116 -227 116q-108 0 -177 -80q-70 -80 -70 -208q0 -129 90 -249zM901 375.5q0 -134.5 -122 -260.5q-122 -127 -290 -127q-167 0 -300 110q-132 110 -132 295q0 186 130 305t286 119 q157 0 285 -102q64 -51 103.5 -128t39.5 -211.5zM358.5 1001q-22.5 0 -44 -9t-36 -19t-24.5 -19.5t-16 -9.5q-16 0 -17 23q0 4 2 8q74 133 187 133q20 0 94 -28t99.5 -27.5t46 9.5t35.5 20.5t25.5 20.5t14.5 9q20 0 20 -16t-10 -27q-70 -123 -170 -123q-17 0 -72 19.5 t-83.5 27.5t-51 8z" glyph-name="otilde" horiz-adv-x="966" unicode="õ"/><glyph d="M287 194q90 -120 227 -120q168 0 230 172q18 51 18 152.5t-91 216.5q-91 116 -227 116q-108 0 -177 -80q-70 -80 -70 -208q0 -129 90 -249zM901 375.5q0 -134.5 -122 -260.5q-122 -127 -290 -127q-167 0 -300 110q-132 110 -132 295q0 186 130 305t286 119 q157 0 285 -102q64 -51 103.5 -128t39.5 -211.5zM524 1055l111 125l115 -125l-115 -123zM332 930l-115 123l115 125l112 -125z" glyph-name="odieresis" horiz-adv-x="966" unicode="ö"/><glyph d="M403 713q0 41 31 71.5t72 30.5t71.5 -30.5t30.5 -71.5t-30.5 -72t-71.5 -31t-72 31t-31 72zM403 102q0 41 31 72t72 31t71.5 -31t30.5 -72t-30.5 -71.5t-71.5 -30.5t-72 30.5t-31 71.5zM928 406q0 -50 -70 -50h-704q-72 0 -72 50q0 33 24.5 41t47.5 8h704q70 0 70 -49z " glyph-name="divide" horiz-adv-x="1009" unicode="÷"/><glyph d="M799 674q102 -106 102 -270q0 -163 -122 -289q-122 -127 -286 -127t-286 94l-82 -82q-18 -18 -35.5 -18t-31 11t-13.5 27.5t18 34.5l84 84q-90 108 -90 248q0 192 130 311t279.5 119t270.5 -88l88 88q17 17 32 17t27.5 -13t12.5 -31t-14 -32zM762 358q0 113 -64 215 l-397 -397q89 -102 213 -102q168 0 230 172q18 51 18 112zM647 639q-92 92 -201 92t-179 -80t-70 -196q0 -115 55 -211z" glyph-name="oslash" horiz-adv-x="966" unicode="ø"/><glyph d="M170 592q0 129 -69.5 129t-69.5 25t39 32l178 37q28 8 43.5 8t15.5 -20v-555q0 -150 172 -150q121 0 242 107v387q0 129 -70 129t-69 27q0 23 39 30l178 37q28 8 43.5 8t15.5 -20v-649q0 -72 56 -92q22 -8 40.5 -12.5t18.5 -22.5q0 -23 -46 -23t-69.5 -4t-39 -8t-27 -8 t-27.5 -4q-29 0 -33 32l-10 123q-159 -147 -330 -147q-106 0 -163.5 70.5t-57.5 195.5v338zM369 1182q60 0 82 -41l110 -211h-53l-254 219q55 33 115 33z" glyph-name="ugrave" horiz-adv-x="1048" unicode="ù"/><glyph d="M170 592q0 129 -69.5 129t-69.5 25t39 32l178 37q28 8 43.5 8t15.5 -20v-555q0 -150 172 -150q121 0 242 107v387q0 129 -70 129t-69 27q0 23 39 30l178 37q28 8 43.5 8t15.5 -20v-649q0 -72 56 -92q22 -8 40.5 -12.5t18.5 -22.5q0 -23 -46 -23t-69.5 -4t-39 -8t-27 -8 t-27.5 -4q-29 0 -33 32l-10 123q-159 -147 -330 -147q-106 0 -163.5 70.5t-57.5 195.5v338zM605 1176q24 6 64 6t91 -33l-252 -219h-53l110 211q16 29 40 35z" glyph-name="uacute" horiz-adv-x="1048" unicode="ú"/><glyph d="M170 592q0 129 -69.5 129t-69.5 25t39 32l178 37q28 8 43.5 8t15.5 -20v-555q0 -150 172 -150q121 0 242 107v387q0 129 -70 129t-69 27q0 23 39 30l178 37q28 8 43.5 8t15.5 -20v-649q0 -72 56 -92q22 -8 40.5 -12.5t18.5 -22.5q0 -23 -46 -23t-69.5 -4t-39 -8t-27 -8 t-27.5 -4q-29 0 -33 32l-10 123q-159 -147 -330 -147q-106 0 -163.5 70.5t-57.5 195.5v338zM487 1200h31l195 -239l-35 -31l-182 149l-166 -149l-37 33z" glyph-name="ucircumflex" horiz-adv-x="1048" unicode="û"/><glyph d="M170 592q0 129 -69.5 129t-69.5 25t39 32l178 37q28 8 43.5 8t15.5 -20v-555q0 -150 172 -150q121 0 242 107v387q0 129 -70 129t-69 27q0 23 39 30l178 37q28 8 43.5 8t15.5 -20v-649q0 -72 56 -92q22 -8 40.5 -12.5t18.5 -22.5q0 -23 -46 -23t-69.5 -4t-39 -8t-27 -8 t-27.5 -4q-29 0 -33 32l-10 123q-159 -147 -330 -147q-106 0 -163.5 70.5t-57.5 195.5v338zM541 1055l110 125l115 -125l-115 -123zM348 930l-115 123l115 125l113 -125z" glyph-name="udieresis" horiz-adv-x="1048" unicode="ü"/><glyph d="M748 803l87 7q87 7 87 -13t-13.5 -29.5t-36.5 -19.5q-48 -21 -96 -130l-401 -935q-14 -33 -27.5 -66t-31.5 -75t-17.5 -67t-34.5 -39t-131 -14q-47 0 -47 31q0 19 43 58t92 110.5t109 188.5q60 118 88 194l-330 680q-6 12 -19.5 36.5t-41.5 31.5q-43 9 -43 35t41 26 l155 -12q33 0 57.5 6t69.5 6t45 -25.5t-56 -25.5t-56 -45q0 -32 30 -92l222 -453l184 416q35 79 35 135q-1 24 -53 32q-20 3 -36 9t-16 24q0 27 8 27zM597 1176q24 6 64 6t91 -33l-252 -219h-54l111 211q16 29 40 35z" glyph-name="yacute" horiz-adv-x="921" unicode="ý"/><glyph d="M487 -483q0 -27 -38 -27q-155 0 -299 -58q-28 -12 -33 -12q-35 0 -35 27q0 18 43 33.5t57.5 38t14.5 69.5v1674q0 92 -70 120q-27 10 -48.5 14.5t-21.5 20.5q0 24 39 31l170 37q39 8 49 8q27 0 27 -27l-8 -204v-572q41 47 117.5 87t209 40t249.5 -105q116 -105 116 -302 q0 -198 -134 -310t-294.5 -112t-263.5 69v-411q0 -59 23.5 -79t53 -25t53 -5t23.5 -20zM635.5 57q107.5 0 179.5 87t72 231q0 145 -86 250q-86 106 -207 106q-78 0 -147.5 -33.5t-112.5 -91.5v-418q39 -66 116.5 -98.5t185 -32.5z" glyph-name="thorn" horiz-adv-x="1083" unicode="þ"/><glyph d="M748 803l87 7q87 7 87 -13t-13.5 -29.5t-36.5 -19.5q-48 -21 -96 -130l-401 -935q-14 -33 -27.5 -66t-31.5 -75t-17.5 -67t-34.5 -39t-131 -14q-47 0 -47 31q0 19 43 58t92 110.5t109 188.5q60 118 88 194l-330 680q-6 12 -19.5 36.5t-41.5 31.5q-43 9 -43 35t41 26 l155 -12q33 0 57.5 6t69.5 6t45 -25.5t-56 -25.5t-56 -45q0 -32 30 -92l222 -453l184 416q35 79 35 135q-1 24 -53 32q-20 3 -36 9t-16 24q0 27 8 27zM514 1055l111 125l114 -125l-114 -123zM322 930l-115 123l115 125l112 -125z" glyph-name="ydieresis" horiz-adv-x="921" unicode="ÿ"/><glyph d="M475 1397q0 30 36 30t60.5 -8t59.5 -8l67 8q31 0 45 -26l496 -1178q42 -99 70 -122q28 -24 59 -31t42 -13t11 -18t-11 -21.5t-34 -9.5l-176 8q-47 0 -100 -10t-96 -10t-43 26q0 16 19 22.5t43 13.5q62 18 62 63t-28 114l-74 176h-614l-86 -215q-31 -79 15 -102 q32 -16 120 -32q28 -5 28 -25q0 -10 -12 -19.5t-28 -9.5l-181 8q-47 0 -93 -10t-84 -10t-38 24q0 16 18 23.5t42 16.5q65 24 94 91l442 1069q8 18 8 52t-23.5 68t-82.5 34q-10 0 -21.5 8t-11.5 23zM674 1159l-266 -655h534zM403 1665h527v-100h-527v100z" glyph-name="Amacron" horiz-adv-x="1431" unicode="Ā"/><glyph d="M108.5 629q-20.5 0 -20.5 20t10 29q151 139 334 139q119 0 176 -64q58 -64 58 -155v-451q0 -77 56 -92q22 -6 40 -8t18 -20t-160 -42q-34 -5 -47 -5q-35 0 -36 32l-9 92q-39 -41 -111.5 -78.5t-169.5 -37.5t-151.5 43t-54 136t118.5 167q89 55 368 147v101 q0 135 -180 135q-82 -1 -152 -45q-28 -18 -47.5 -30.5t-40 -12.5zM326 68q98 0 202 104v242q-226 -67 -277.5 -124t-51.5 -122q0 -100 127 -100zM139 1030h527v-100h-527v100z" glyph-name="amacron" horiz-adv-x="804" unicode="ā"/><glyph d="M475 1397q0 30 36 30t60.5 -8t59.5 -8l67 8q31 0 45 -26l496 -1178q42 -99 70 -122q28 -24 59 -31t42 -13t11 -18t-11 -21.5t-34 -9.5l-176 8q-47 0 -100 -10t-96 -10t-43 26q0 16 19 22.5t43 13.5q62 18 62 63t-28 114l-74 176h-614l-86 -215q-31 -79 15 -102 q32 -16 120 -32q28 -5 28 -25q0 -10 -12 -19.5t-28 -9.5l-181 8q-47 0 -93 -10t-84 -10t-38 24q0 16 18 23.5t42 16.5q65 24 94 91l442 1069q8 18 8 52t-23.5 68t-82.5 34q-10 0 -21.5 8t-11.5 23zM674 1159l-266 -655h534zM862 1733q0 -89 -58 -139t-140 -50 q-132 0 -180 106q-16 36 -17 83h84q2 -57 39 -84t78 -27t76.5 26.5t39.5 84.5h78z" glyph-name="Abreve" horiz-adv-x="1431" unicode="Ă"/><glyph d="M108.5 629q-20.5 0 -20.5 20t10 29q151 139 334 139q119 0 176 -64q58 -64 58 -155v-451q0 -77 56 -92q22 -6 40 -8t18 -20t-160 -42q-34 -5 -47 -5q-35 0 -36 32l-9 92q-39 -41 -111.5 -78.5t-169.5 -37.5t-151.5 43t-54 136t118.5 167q89 55 368 147v101 q0 135 -180 135q-82 -1 -152 -45q-28 -18 -47.5 -30.5t-40 -12.5zM326 68q98 0 202 104v242q-226 -67 -277.5 -124t-51.5 -122q0 -100 127 -100zM600 1118q0 -89 -58 -139q-58 -49 -141 -49q-131 0 -179 105q-16 36 -17 83h84q2 -57 39 -83.5t78 -26.5t76.5 26.5t39.5 83.5 h78z" glyph-name="abreve" horiz-adv-x="804" unicode="ă"/><glyph d="M1421 31q0 -31 -38.5 -31t-137.5 6q-92 -76 -92 -176q0 -35 20.5 -61.5t82 -26.5t98.5 55l28 -24q-16 -47 -66 -84t-117 -37t-105.5 40t-38.5 95q0 115 114 219l-161 -18q-48 0 -47 26q0 16 19 22.5t43 13.5q62 18 62 63t-28 114l-74 176h-614l-86 -215q-31 -79 15 -102 q32 -16 120 -32q28 -5 28 -25q0 -10 -12 -19.5t-28 -9.5l-181 8q-47 0 -93 -10t-84 -10t-38 24q0 16 18 23.5t42 16.5q65 24 94 91l442 1069q8 18 8 52t-23.5 68t-82.5 34q-10 0 -21.5 8t-11.5 23q0 30 36 30t60.5 -8t59.5 -8l67 8q31 0 45 -26l496 -1178q42 -99 70 -122 q28 -24 59 -31t42 -13t11 -18zM674 1159l-266 -655h534z" glyph-name="Aogonek" horiz-adv-x="1431" unicode="Ą"/><glyph d="M108.5 629q-20.5 0 -20.5 20t10 29q151 139 334 139q119 0 176 -64q58 -64 58 -155v-451q0 -77 56 -92q22 -6 40 -8t18 -20q0 -12 -37.5 -18.5t-83 -24t-83 -52t-37.5 -104.5q0 -88 103 -88q62 0 97 55l29 -24q-16 -47 -66.5 -84t-117 -37t-105.5 40t-39 95 q0 106 103 209q-6 6 -6 18l-9 92q-39 -41 -111.5 -78.5t-169.5 -37.5t-151.5 43t-54 136t118.5 167q89 55 368 147v101q0 135 -180 135q-82 -1 -152 -45q-28 -18 -47.5 -30.5t-40 -12.5zM326 68q98 0 202 104v242q-226 -67 -277.5 -124t-51.5 -122q0 -100 127 -100z" glyph-name="aogonek" horiz-adv-x="804" unicode="ą"/><glyph d="M1343 1125.5q0 -78.5 -41 -78.5q-36 0 -36 87t-104 156q-104 68 -285 68q-229 0 -389 -124q-85 -66 -140 -175t-55 -258t41 -278.5t116.5 -229.5t184.5 -159.5t244 -59.5q248 0 353 118q42 48 42 107t-13.5 77.5t-13.5 38t3 29t18.5 9.5t38 -25t32 -62.5t22 -91 t48.5 -92.5q-46 -73 -202 -135q-157 -61 -340 -61t-325.5 64.5t-235.5 169t-138 234.5t-45 280.5t58.5 287t159.5 230.5q208 194 536 194q104 0 180 -14.5t99.5 -14.5t49 7.5t46 16.5t36 16t28.5 7t13 -20t-7 -41t-7 -54.5t14 -89t14 -134zM886.5 1813q22.5 4 63.5 4t90 -33 l-252 -219h-53l117 221q12 23 34.5 27z" glyph-name="Cacute" horiz-adv-x="1490" unicode="Ć"/><glyph d="M449.5 -12q-76.5 0 -151.5 34t-129 90q-112 117 -112 275q0 192 130 311t292 119q102 0 187 -33q86 -33 86 -61q0 -21 -33 -65t-52 -44t-27 18t-26 42q-45 60 -161 61q-179 0 -235 -145q-20 -53 -21 -133q0 -156 99 -270q99 -113 226 -113q95 0 157 45t73 45q23 0 22 -23 q0 -18 -25.5 -44.5t-68.5 -51.5t-98.5 -41t-132 -16zM494.5 1176q23.5 6 64.5 6t90 -33l-252 -219h-53l111 211q16 29 39.5 35z" glyph-name="cacute" horiz-adv-x="794" unicode="ć"/><glyph d="M1343 1125.5q0 -78.5 -41 -78.5q-36 0 -36 87t-104 156q-104 68 -285 68q-229 0 -389 -124q-85 -66 -140 -175t-55 -258t41 -278.5t116.5 -229.5t184.5 -159.5t244 -59.5q248 0 353 118q42 48 42 107t-13.5 77.5t-13.5 38t3 29t18.5 9.5t38 -25t32 -62.5t22 -91 t48.5 -92.5q-46 -73 -202 -135q-157 -61 -340 -61t-325.5 64.5t-235.5 169t-138 234.5t-45 280.5t58.5 287t159.5 230.5q208 194 536 194q104 0 180 -14.5t99.5 -14.5t49 7.5t46 16.5t36 16t28.5 7t13 -20t-7 -41t-7 -54.5t14 -89t14 -134zM799 1835h30l195 -240l-35 -30 l-182 149l-166 -149l-37 32z" glyph-name="Ccircumflex" horiz-adv-x="1490" unicode="Ĉ"/><glyph d="M449.5 -12q-76.5 0 -151.5 34t-129 90q-112 117 -112 275q0 192 130 311t292 119q102 0 187 -33q86 -33 86 -61q0 -21 -33 -65t-52 -44t-27 18t-26 42q-45 60 -161 61q-179 0 -235 -145q-20 -53 -21 -133q0 -156 99 -270q99 -113 226 -113q95 0 157 45t73 45q23 0 22 -23 q0 -18 -25.5 -44.5t-68.5 -51.5t-98.5 -41t-132 -16zM422 1200h31l194 -239l-35 -31l-182 149l-166 -149l-37 33z" glyph-name="ccircumflex" horiz-adv-x="794" unicode="ĉ"/><glyph d="M1343 1125.5q0 -78.5 -41 -78.5q-36 0 -36 87t-104 156q-104 68 -285 68q-229 0 -389 -124q-85 -66 -140 -175t-55 -258t41 -278.5t116.5 -229.5t184.5 -159.5t244 -59.5q248 0 353 118q42 48 42 107t-13.5 77.5t-13.5 38t3 29t18.5 9.5t38 -25t32 -62.5t22 -91 t48.5 -92.5q-46 -73 -202 -135q-157 -61 -340 -61t-325.5 64.5t-235.5 169t-138 234.5t-45 280.5t58.5 287t159.5 230.5q208 194 536 194q104 0 180 -14.5t99.5 -14.5t49 7.5t46 16.5t36 16t28.5 7t13 -20t-7 -41t-7 -54.5t14 -89t14 -134zM819 1569q-35 0 -57.5 23.5 t-22.5 58.5t22.5 58.5t57.5 23.5t59.5 -22.5t24.5 -57.5t-24.5 -59.5t-59.5 -24.5z" glyph-name="Cdotaccent" horiz-adv-x="1490" unicode="Ċ"/><glyph d="M449.5 -12q-76.5 0 -151.5 34t-129 90q-112 117 -112 275q0 192 130 311t292 119q102 0 187 -33q86 -33 86 -61q0 -21 -33 -65t-52 -44t-27 18t-26 42q-45 60 -161 61q-179 0 -235 -145q-20 -53 -21 -133q0 -156 99 -270q99 -113 226 -113q95 0 157 45t73 45q23 0 22 -23 q0 -18 -25.5 -44.5t-68.5 -51.5t-98.5 -41t-132 -16zM436 934q-35 0 -57.5 23.5t-22.5 58.5t22.5 58.5t57.5 23.5t59.5 -22.5t24.5 -57.5t-24.5 -59.5t-59.5 -24.5z" glyph-name="cdotaccent" horiz-adv-x="794" unicode="ċ"/><glyph d="M1343 1125.5q0 -78.5 -41 -78.5q-36 0 -36 87t-104 156q-104 68 -285 68q-229 0 -389 -124q-85 -66 -140 -175t-55 -258t41 -278.5t116.5 -229.5t184.5 -159.5t244 -59.5q248 0 353 118q42 48 42 107t-13.5 77.5t-13.5 38t3 29t18.5 9.5t38 -25t32 -62.5t22 -91 t48.5 -92.5q-46 -73 -202 -135q-157 -61 -340 -61t-325.5 64.5t-235.5 169t-138 234.5t-45 280.5t58.5 287t159.5 230.5q208 194 536 194q104 0 180 -14.5t99.5 -14.5t49 7.5t46 16.5t36 16t28.5 7t13 -20t-7 -41t-7 -54.5t14 -89t14 -134zM858 1565h-35l-233 333h65 l187 -184l182 184h68z" glyph-name="Ccaron" horiz-adv-x="1490" unicode="Č"/><glyph d="M449.5 -12q-76.5 0 -151.5 34t-129 90q-112 117 -112 275q0 192 130 311t292 119q102 0 187 -33q86 -33 86 -61q0 -21 -33 -65t-52 -44t-27 18t-26 42q-45 60 -161 61q-179 0 -235 -145q-20 -53 -21 -133q0 -156 99 -270q99 -113 226 -113q95 0 157 45t73 45q23 0 22 -23 q0 -18 -25.5 -44.5t-68.5 -51.5t-98.5 -41t-132 -16zM453 930h-35l-234 334h66l186 -185l182 185h68z" glyph-name="ccaron" horiz-adv-x="794" unicode="č"/><glyph d="M807.5 1436q150.5 0 283 -47.5t237 -137.5t168 -219t63.5 -372t-208 -457q-208 -215 -575 -215q-72 0 -206 10t-181 10t-91 -10t-86 -10t-42 26q0 16 22 24t50 20q74 31 75 102v1102q1 69 -69 93q-26 9 -48 14t-22 24q0 10 14.5 19t32.5 9l172 -8q50 -1 155 11t255.5 12z M757 76q148 0 269 52t199 141q153 175 153 456q0 282 -161 452q-161 171 -420 171h-76q-143 0 -248 -17v-1233q136 -22 284 -22zM815 1565h-35l-233 333h65l187 -184l182 184h68z" glyph-name="Dcaron" horiz-adv-x="1701" unicode="Ď"/><glyph d="M733 121q-128 -133 -281.5 -133t-273.5 109q-121 109 -121 297t130 306q130 117 283.5 117t264.5 -51v496q1 92 -69 120q-26 10 -48 14.5t-22 20.5q0 24 39 31l170 37q39 8 49 8q27 0 27 -27l-9 -204v-1115q0 -43 17.5 -59t39 -23.5t40 -13.5t18.5 -26q-1 -20 -157 -39 q-34 -4 -48 -4q-35 0 -37 30zM735 594q-90 149 -240.5 149t-224 -75.5t-73.5 -213.5t89 -259t226 -121t223 123v397zM1018 976q0 20 20 48q66 91 66 141q0 23 -16.5 47.5t-55.5 67.5l125 137l125 -137q-143 -229 -215 -307q-14 -16 -29 -17q-20 0 -20 20z" glyph-name="dcaron" horiz-adv-x="1155" unicode="ď"/><glyph d="M807.5 1436q150.5 0 283 -47.5t237 -137.5t168 -219t63.5 -372t-208 -457q-208 -215 -575 -215q-72 0 -206 10t-181 10t-91 -10t-86 -10t-42 26q0 16 22 24t50 20q74 31 75 102v508h-149v100h149v494q1 69 -69 93q-26 9 -48 14t-22 24q0 10 14.5 19t32.5 9l172 -8 q50 -1 155 11t255.5 12zM797 1348h-127q-92 0 -197 -17v-563h365v-100h-365v-570q136 -22 284 -22t269 52t199 141q153 175 153 456q0 282 -161 452q-161 171 -420 171z" glyph-name="Dcroat" horiz-adv-x="1701" unicode="Đ"/><glyph d="M733 121q-128 -133 -281.5 -133t-273.5 109q-121 109 -121 297t130 306q130 117 283.5 117t264.5 -51v373h-342v80h342v43q1 92 -69 120q-26 10 -48 14.5t-22 20.5q0 24 39 31l170 37q39 8 49 8q27 0 27 -27l-9 -204v-43h160v-80h-160v-992q0 -43 17.5 -59t39 -23.5 t40 -13.5t18.5 -26q-1 -20 -157 -39q-34 -4 -48 -4q-35 0 -37 30zM735 594q-90 149 -240.5 149t-224 -75.5t-73.5 -213.5t89 -259t226 -121t223 123v397z" glyph-name="dcroat" horiz-adv-x="1058" unicode="đ"/><glyph d="M1098 514q-35 0 -35 67.5t-59 97.5t-181 30h-350v-541q0 -53 31 -74h346q214 0 295.5 34t120.5 86t39 144q0 14 12 22.5t26 8.5q37 0 37 -56t-30 -171t-29 -162q0 -10 -12.5 -15t-19.5 -5t-31.5 10t-77.5 10h-975q-35 0 -35 27q0 18 22 24.5t50 18.5q74 31 75 98v1106 q1 69 -69 93q-26 9 -48 14t-22 24q0 10 14.5 19.5t32.5 9.5h889q62 0 90 11t39 11q35 0 37 -29l14 -251q2 -16 -6 -26.5t-18 -10.5q-34 0 -41 28q-12 57 -31.5 91t-67.5 58t-237 23h-385q-35 -31 -35 -75v-455h350q123 1 160 19q72 36 72 137q0 43 37 43q14 0 25 -10.5 t11 -54.5t-10 -89t-10 -95t10 -101.5t10 -97.5t-30 -46zM504 1665h526v-100h-526v100z" glyph-name="Emacron" horiz-adv-x="1441" unicode="Ē"/><glyph d="M776 154q0 -12 -26.5 -40t-70.5 -56q-191 -120 -375 -40q-147 63 -214 226q-33 80 -33 207.5t100 246.5t285 119q126 -1 216 -75q42 -35 87 -101q29 -6 29 -40t-39 -46l-526 -184q25 -123 104.5 -197t223.5 -74q51 0 102 28t70 46q18 18 30 19q37 0 37 -39zM197 496v-33 q0 -17 2 -33l395 154q0 44 -40 81q-76 70 -170.5 70t-140.5 -66.5t-46 -172.5zM152 1030h526v-100h-526v100z" glyph-name="emacron" horiz-adv-x="827" unicode="ē"/><glyph d="M1098 514q-35 0 -35 67.5t-59 97.5t-181 30h-350v-541q0 -53 31 -74h346q214 0 295.5 34t120.5 86t39 144q0 14 12 22.5t26 8.5q37 0 37 -56t-30 -171t-29 -162q0 -10 -12.5 -15t-19.5 -5t-31.5 10t-77.5 10h-975q-35 0 -35 27q0 18 22 24.5t50 18.5q74 31 75 98v1106 q1 69 -69 93q-26 9 -48 14t-22 24q0 10 14.5 19.5t32.5 9.5h889q62 0 90 11t39 11q35 0 37 -29l14 -251q2 -16 -6 -26.5t-18 -10.5q-34 0 -41 28q-12 57 -31.5 91t-67.5 58t-237 23h-385q-35 -31 -35 -75v-455h350q123 1 160 19q72 36 72 137q0 43 37 43q14 0 25 -10.5 t11 -54.5t-10 -89t-10 -95t10 -101.5t10 -97.5t-30 -46zM993 1753q0 -89 -58 -139q-58 -49 -140 -49q-133 0 -181 105q-16 36 -16 83h84q2 -57 39 -84t78 -27t76.5 27t39.5 84h78z" glyph-name="Ebreve" horiz-adv-x="1441" unicode="Ĕ"/><glyph d="M776 154q0 -12 -26.5 -40t-70.5 -56q-191 -120 -375 -40q-147 63 -214 226q-33 80 -33 207.5t100 246.5t285 119q126 -1 216 -75q42 -35 87 -101q29 -6 29 -40t-39 -46l-526 -184q25 -123 104.5 -197t223.5 -74q51 0 102 28t70 46q18 18 30 19q37 0 37 -39zM197 496v-33 q0 -17 2 -33l395 154q0 44 -40 81q-76 70 -170.5 70t-140.5 -66.5t-46 -172.5zM610 1118q0 -89 -58 -139q-58 -49 -140 -49q-132 0 -180 105q-16 36 -17 83h84q2 -57 39 -83.5t78 -26.5t76.5 26.5t39.5 83.5h78z" glyph-name="ebreve" horiz-adv-x="827" unicode="ĕ"/><glyph d="M1098 514q-35 0 -35 67.5t-59 97.5t-181 30h-350v-541q0 -53 31 -74h346q214 0 295.5 34t120.5 86t39 144q0 14 12 22.5t26 8.5q37 0 37 -56t-30 -171t-29 -162q0 -10 -12.5 -15t-19.5 -5t-31.5 10t-77.5 10h-975q-35 0 -35 27q0 18 22 24.5t50 18.5q74 31 75 98v1106 q1 69 -69 93q-26 9 -48 14t-22 24q0 10 14.5 19.5t32.5 9.5h889q62 0 90 11t39 11q35 0 37 -29l14 -251q2 -16 -6 -26.5t-18 -10.5q-34 0 -41 28q-12 57 -31.5 91t-67.5 58t-237 23h-385q-35 -31 -35 -75v-455h350q123 1 160 19q72 36 72 137q0 43 37 43q14 0 25 -10.5 t11 -54.5t-10 -89t-10 -95t10 -101.5t10 -97.5t-30 -46zM793 1569q-35 0 -57.5 23.5t-22.5 58.5t22.5 58.5t57.5 23.5t59.5 -22.5t24.5 -57.5t-24.5 -59.5t-59.5 -24.5z" glyph-name="Edotaccent" horiz-adv-x="1441" unicode="Ė"/><glyph d="M776 154q0 -12 -26.5 -40t-70.5 -56q-191 -120 -375 -40q-147 63 -214 226q-33 80 -33 207.5t100 246.5t285 119q126 -1 216 -75q42 -35 87 -101q29 -6 29 -40t-39 -46l-526 -184q25 -123 104.5 -197t223.5 -74q51 0 102 28t70 46q18 18 30 19q37 0 37 -39zM197 496v-33 q0 -17 2 -33l395 154q0 44 -40 81q-76 70 -170.5 70t-140.5 -66.5t-46 -172.5zM412 934q-35 0 -57.5 23.5t-22.5 58.5t22.5 58.5t57.5 23.5t59.5 -22.5t24.5 -57.5t-24.5 -59.5t-59.5 -24.5z" glyph-name="edotaccent" horiz-adv-x="827" unicode="ė"/><glyph d="M1098 514q-35 0 -35 67.5t-59 97.5t-181 30h-350v-541q0 -53 31 -74h346q214 0 295.5 34t120.5 86t39 144q0 14 12 22.5t26 8.5q37 0 37 -56t-30 -171t-29 -162q0 -10 -12.5 -15t-19.5 -5t-31.5 10t-77.5 10h-146q-84 -74 -84 -170q0 -88 103 -88q62 0 98 55l29 -24 q-16 -47 -66.5 -84t-117.5 -37t-105.5 40t-38.5 95q0 107 106 213h-753q-35 0 -35 27q0 18 22 24.5t50 18.5q74 31 75 98v1106q1 69 -69 93q-26 9 -48 14t-22 24q0 10 14.5 19.5t32.5 9.5h889q62 0 90 11t39 11q35 0 37 -29l14 -251q2 -16 -6 -26.5t-18 -10.5q-34 0 -41 28 q-12 57 -31.5 91t-67.5 58t-237 23h-385q-35 -31 -35 -75v-455h350q123 1 160 19q72 36 72 137q0 43 37 43q14 0 25 -10.5t11 -54.5t-10 -89t-10 -95t10 -101.5t10 -97.5t-30 -46z" glyph-name="Eogonek" horiz-adv-x="1441" unicode="Ę"/><glyph d="M567 -137q0 -88 104 -88q63 0 97 55l29 -25q-16 -47 -66.5 -83.5t-117.5 -36.5t-105.5 39.5t-38.5 93.5q0 96 78 182q-69 -12 -120.5 -12t-122.5 30t-126 88q-121 126 -121 300q0 173 100 292t285 119q126 -1 216 -75q42 -35 87 -101q29 -6 29 -40t-39 -46l-526 -184 q25 -123 104.5 -197t223.5 -74q51 0 102 28t70 46q18 18 30 19q37 0 37 -39q0 -12 -23.5 -38t-62.5 -53q-123 -84 -123 -200zM197 496v-33q0 -17 2 -33l395 154q0 44 -40 81q-76 70 -170.5 70t-140.5 -66.5t-46 -172.5z" glyph-name="eogonek" horiz-adv-x="827" unicode="ę"/><glyph d="M1098 514q-35 0 -35 67.5t-59 97.5t-181 30h-350v-541q0 -53 31 -74h346q214 0 295.5 34t120.5 86t39 144q0 14 12 22.5t26 8.5q37 0 37 -56t-30 -171t-29 -162q0 -10 -12.5 -15t-19.5 -5t-31.5 10t-77.5 10h-975q-35 0 -35 27q0 18 22 24.5t50 18.5q74 31 75 98v1106 q1 69 -69 93q-26 9 -48 14t-22 24q0 10 14.5 19.5t32.5 9.5h889q62 0 90 11t39 11q35 0 37 -29l14 -251q2 -16 -6 -26.5t-18 -10.5q-34 0 -41 28q-12 57 -31.5 91t-67.5 58t-237 23h-385q-35 -31 -35 -75v-455h350q123 1 160 19q72 36 72 137q0 43 37 43q14 0 25 -10.5 t11 -54.5t-10 -89t-10 -95t10 -101.5t10 -97.5t-30 -46zM786 1565h-34l-234 333h66l186 -184l182 184h68z" glyph-name="Ecaron" horiz-adv-x="1441" unicode="Ě"/><glyph d="M776 154q0 -12 -26.5 -40t-70.5 -56q-191 -120 -375 -40q-147 63 -214 226q-33 80 -33 207.5t100 246.5t285 119q126 -1 216 -75q42 -35 87 -101q29 -6 29 -40t-39 -46l-526 -184q25 -123 104.5 -197t223.5 -74q51 0 102 28t70 46q18 18 30 19q37 0 37 -39zM197 496v-33 q0 -17 2 -33l395 154q0 44 -40 81q-76 70 -170.5 70t-140.5 -66.5t-46 -172.5zM430 930h-35l-233 334h65l187 -185l182 185h68z" glyph-name="ecaron" horiz-adv-x="827" unicode="ě"/><glyph d="M1343 1182q0 -166 -65 -166q-37 0 -37 22t10.5 29.5t10.5 49.5t-31 87t-83 79q-115 75 -261 75q-84 0 -187.5 -29t-193.5 -95.5t-151.5 -176t-61.5 -258t43 -277.5t121 -228t188.5 -159.5t252.5 -60.5t237 38q39 16 88 38v374q0 53 -34 84t-74 31t-53 -5t-31.5 -5t-30 8 t-11.5 23t39 25q39 11 80 11t97.5 -11t103.5 -11t90 10t85 10t42 -22t-23.5 -29t-51.5 -19q-73 -30 -73 -106v-254q0 -37 9.5 -64.5t9.5 -67.5t-33 -48q-59 -10 -114.5 -26.5t-151.5 -44.5t-211 -27q-195 0 -339.5 64.5t-238.5 169t-140 233.5t-46 279.5t59.5 286.5 t161.5 230t242.5 144.5t274.5 50.5t210 -13.5t94.5 -13.5t44 7.5t45 16.5t34 16t22.5 7q18 0 18 -20t-7 -41t-7 -51.5t14 -84t14 -85.5zM784 1835h31l195 -240l-35 -30l-182 149l-166 -149l-37 32z" glyph-name="Gcircumflex" horiz-adv-x="1583" unicode="Ĝ"/><glyph d="M254 53q0 -23 49 -37t123 -25t161 -25.5t160.5 -39t123 -62.5t49.5 -96t-40 -120t-111 -112q-162 -114 -368 -114q-205 0 -289 86q-34 34 -34 110q0 140 205 257q-184 53 -185 113q0 25 54.5 70.5t136.5 107.5q-92 39 -149.5 114.5t-57.5 205.5t118 231q118 100 281 100 t275 -108q125 104 149.5 104t33.5 -10t9 -45t-9 -51.5t-27.5 -20.5t-45 -8t-61.5 -27q55 -84 55 -195.5t-117 -218.5q-117 -106 -266 -106q-76 0 -139 19q-84 -63 -84 -97zM295 294q76 -87 186 -87t176 72t66 187q0 114 -84 194q-84 81 -189 81t-168 -72t-63 -180t76 -195z M211 -326q0 -72 64.5 -119t196.5 -47t222 65t90 157q0 29 -39.5 47t-103 31.5t-142.5 25.5t-159 27q-51 -35 -90 -75t-39 -112zM473 1200h31l194 -239l-34 -31l-183 149l-166 -149l-36 33z" glyph-name="gcircumflex" horiz-adv-x="978" unicode="ĝ"/><glyph d="M1343 1182q0 -166 -65 -166q-37 0 -37 22t10.5 29.5t10.5 49.5t-31 87t-83 79q-115 75 -261 75q-84 0 -187.5 -29t-193.5 -95.5t-151.5 -176t-61.5 -258t43 -277.5t121 -228t188.5 -159.5t252.5 -60.5t237 38q39 16 88 38v374q0 53 -34 84t-74 31t-53 -5t-31.5 -5t-30 8 t-11.5 23t39 25q39 11 80 11t97.5 -11t103.5 -11t90 10t85 10t42 -22t-23.5 -29t-51.5 -19q-73 -30 -73 -106v-254q0 -37 9.5 -64.5t9.5 -67.5t-33 -48q-59 -10 -114.5 -26.5t-151.5 -44.5t-211 -27q-195 0 -339.5 64.5t-238.5 169t-140 233.5t-46 279.5t59.5 286.5 t161.5 230t242.5 144.5t274.5 50.5t210 -13.5t94.5 -13.5t44 7.5t45 16.5t34 16t22.5 7q18 0 18 -20t-7 -41t-7 -51.5t14 -84t14 -85.5zM989 1753q0 -89 -58 -139q-58 -49 -140 -49q-133 0 -181 105q-16 36 -16 83h84q2 -57 39 -84t78 -27t76.5 27t39.5 84h78z" glyph-name="Gbreve" horiz-adv-x="1583" unicode="Ğ"/><glyph d="M254 53q0 -23 49 -37t123 -25t161 -25.5t160.5 -39t123 -62.5t49.5 -96t-40 -120t-111 -112q-162 -114 -368 -114q-205 0 -289 86q-34 34 -34 110q0 140 205 257q-184 53 -185 113q0 25 54.5 70.5t136.5 107.5q-92 39 -149.5 114.5t-57.5 205.5t118 231q118 100 281 100 t275 -108q125 104 149.5 104t33.5 -10t9 -45t-9 -51.5t-27.5 -20.5t-45 -8t-61.5 -27q55 -84 55 -195.5t-117 -218.5q-117 -106 -266 -106q-76 0 -139 19q-84 -63 -84 -97zM295 294q76 -87 186 -87t176 72t66 187q0 114 -84 194q-84 81 -189 81t-168 -72t-63 -180t76 -195z M211 -326q0 -72 64.5 -119t196.5 -47t222 65t90 157q0 29 -39.5 47t-103 31.5t-142.5 25.5t-159 27q-51 -35 -90 -75t-39 -112zM686 1118q0 -89 -58 -139q-58 -49 -141 -49q-131 0 -179 105q-16 36 -17 83h84q2 -57 39 -83.5t78 -26.5t76.5 26.5t39.5 83.5h78z" glyph-name="gbreve" horiz-adv-x="978" unicode="ğ"/><glyph d="M1343 1182q0 -166 -65 -166q-37 0 -37 22t10.5 29.5t10.5 49.5t-31 87t-83 79q-115 75 -261 75q-84 0 -187.5 -29t-193.5 -95.5t-151.5 -176t-61.5 -258t43 -277.5t121 -228t188.5 -159.5t252.5 -60.5t237 38q39 16 88 38v374q0 53 -34 84t-74 31t-53 -5t-31.5 -5t-30 8 t-11.5 23t39 25q39 11 80 11t97.5 -11t103.5 -11t90 10t85 10t42 -22t-23.5 -29t-51.5 -19q-73 -30 -73 -106v-254q0 -37 9.5 -64.5t9.5 -67.5t-33 -48q-59 -10 -114.5 -26.5t-151.5 -44.5t-211 -27q-195 0 -339.5 64.5t-238.5 169t-140 233.5t-46 279.5t59.5 286.5 t161.5 230t242.5 144.5t274.5 50.5t210 -13.5t94.5 -13.5t44 7.5t45 16.5t34 16t22.5 7q18 0 18 -20t-7 -41t-7 -51.5t14 -84t14 -85.5zM805 1569q-35 0 -57.5 23.5t-22.5 58.5t22.5 58.5t57.5 23.5t59.5 -22.5t24.5 -57.5t-24.5 -59.5t-59.5 -24.5z" glyph-name="Gdotaccent" horiz-adv-x="1583" unicode="Ġ"/><glyph d="M254 53q0 -23 49 -37t123 -25t161 -25.5t160.5 -39t123 -62.5t49.5 -96t-40 -120t-111 -112q-162 -114 -368 -114q-205 0 -289 86q-34 34 -34 110q0 140 205 257q-184 53 -185 113q0 25 54.5 70.5t136.5 107.5q-92 39 -149.5 114.5t-57.5 205.5t118 231q118 100 281 100 t275 -108q125 104 149.5 104t33.5 -10t9 -45t-9 -51.5t-27.5 -20.5t-45 -8t-61.5 -27q55 -84 55 -195.5t-117 -218.5q-117 -106 -266 -106q-76 0 -139 19q-84 -63 -84 -97zM295 294q76 -87 186 -87t176 72t66 187q0 114 -84 194q-84 81 -189 81t-168 -72t-63 -180t76 -195z M211 -326q0 -72 64.5 -119t196.5 -47t222 65t90 157q0 29 -39.5 47t-103 31.5t-142.5 25.5t-159 27q-51 -35 -90 -75t-39 -112zM487 934q-35 0 -57 23.5t-22 58.5t22.5 58.5t56.5 23.5q35 0 59.5 -22.5t24.5 -57.5t-24.5 -59.5t-59.5 -24.5z" glyph-name="gdotaccent" horiz-adv-x="978" unicode="ġ"/><glyph d="M1343 1182q0 -166 -65 -166q-37 0 -37 22t10.5 29.5t10.5 49.5t-31 87t-83 79q-115 75 -261 75q-84 0 -187.5 -29t-193.5 -95.5t-151.5 -176t-61.5 -258t43 -277.5t121 -228t188.5 -159.5t252.5 -60.5t237 38q39 16 88 38v374q0 53 -34 84t-74 31t-53 -5t-31.5 -5t-30 8 t-11.5 23t39 25q39 11 80 11t97.5 -11t103.5 -11t90 10t85 10t42 -22t-23.5 -29t-51.5 -19q-73 -30 -73 -106v-254q0 -37 9.5 -64.5t9.5 -67.5t-33 -48q-59 -10 -114.5 -26.5t-151.5 -44.5t-211 -27q-195 0 -339.5 64.5t-238.5 169t-140 233.5t-46 279.5t59.5 286.5 t161.5 230t242.5 144.5t274.5 50.5t210 -13.5t94.5 -13.5t44 7.5t45 16.5t34 16t22.5 7q18 0 18 -20t-7 -41t-7 -51.5t14 -84t14 -85.5zM748 -561q-21 0 -21 24q1 15 21 43q66 91 65 142q0 23 -16.5 47t-55.5 67l125 138l125 -138q-143 -229 -215 -307q-14 -16 -28 -16z" glyph-name="Gcommaaccent" horiz-adv-x="1583" unicode="Ģ"/><glyph d="M254 53q0 -23 49 -37t123 -25t161 -25.5t160.5 -39t123 -62.5t49.5 -96t-40 -120t-111 -112q-162 -114 -368 -114q-205 0 -289 86q-34 34 -34 110q0 140 205 257q-184 53 -185 113q0 25 54.5 70.5t136.5 107.5q-92 39 -149.5 114.5t-57.5 205.5t118 231q118 100 281 100 t275 -108q125 104 149.5 104t33.5 -10t9 -45t-9 -51.5t-27.5 -20.5t-45 -8t-61.5 -27q55 -84 55 -195.5t-117 -218.5q-117 -106 -266 -106q-76 0 -139 19q-84 -63 -84 -97zM295 294q76 -87 186 -87t176 72t66 187q0 114 -84 194q-84 81 -189 81t-168 -72t-63 -180t76 -195z M211 -326q0 -72 64.5 -119t196.5 -47t222 65t90 157q0 29 -39.5 47t-103 31.5t-142.5 25.5t-159 27q-51 -35 -90 -75t-39 -112zM592.5 1378q17.5 0 17.5 -20t-20 -48q-66 -91 -66 -141q0 -23 16.5 -47t55.5 -67l-125 -137l-125 137q143 228 186 275.5t60.5 47.5z" glyph-name="gcommaaccent" horiz-adv-x="978" unicode="ģ"/><glyph d="M1572 1434q42 0 42 -27q0 -18 -23.5 -25.5t-51.5 -19.5t-50.5 -33.5t-22.5 -66.5v-1104q0 -45 21.5 -63.5t47.5 -28t47.5 -14.5t21.5 -23q0 -10 -12.5 -19.5t-32.5 -9.5l-170 8q-49 0 -95.5 -10t-88.5 -10t-42 26q0 16 22.5 24.5t50.5 20t51.5 33t23.5 66.5v553h-848 v-553q0 -45 21.5 -63.5t47 -28t47 -14.5t21.5 -23q0 -10 -12.5 -19.5t-32.5 -9.5l-170 8q-49 0 -95 -10t-88 -10t-42 26q0 16 22.5 24.5t50 20t51 33t23.5 66.5v1104q1 69 -69 93q-26 9 -48 14t-22 24q0 10 13.5 19t33.5 9l170 -8q49 0 95 10.5t88 10.5t42 -27 q0 -18 -23.5 -25.5t-51 -19.5t-50 -33.5t-22.5 -66.5v-451h848v451q0 70 -70 93q-27 9 -48.5 14t-21.5 24q0 10 13.5 19t34.5 9l170 -8q49 0 95 10.5t88 10.5zM877 1835h30l195 -240l-35 -30l-182 149l-166 -149l-37 32z" glyph-name="Hcircumflex" horiz-adv-x="1783" unicode="Ĥ"/><glyph d="M646 -12q-38 0 -38 26q0 18 21.5 26t48.5 18q70 27 70 94v362q0 111 -46 154t-142 43t-180 -70q-30 -25 -48 -61v-428q0 -66 66 -88q26 -8 46.5 -13.5t20.5 -23.5q0 -27 -47 -27l-150 14q-49 0 -93 -13t-82 -13t-38 26q0 18 21.5 26t48.5 18q70 27 70 94v1110 q0 92 -70 120q-27 10 -48.5 14.5t-21.5 24.5t39 27l170 37q39 8 51 8q25 0 25 -27l-8 -204v-594q47 63 133 106t198.5 43t167 -66.5t54.5 -168.5v-430q1 -66 67 -88q26 -8 46 -13.5t20 -23.5q0 -27 -47 -27l-150 14q-49 0 -93 -13t-82 -13zM244 1829h30l195 -240l-35 -30 l-182 149l-166 -149l-37 32z" glyph-name="hcircumflex" horiz-adv-x="1075" unicode="ĥ"/><glyph d="M202 -12q-42 0 -42 26q0 16 22.5 24.5t50 20t51 33t23.5 66.5v872h-108v100h108v132q1 69 -69 93q-26 9 -48 14t-22 24q0 10 13.5 19t33.5 9l170 -8q49 0 95 10.5t88 10.5t42 -27q0 -18 -23.5 -25.5t-51 -19.5t-50 -33.5t-22.5 -66.5v-132h848v132q0 70 -70 93 q-27 9 -48.5 14t-21.5 24q0 10 13.5 19t34.5 9l170 -8q49 0 95 10.5t88 10.5t42 -27q0 -18 -23.5 -25.5t-51.5 -19.5t-50.5 -33.5t-22.5 -66.5v-132h101v-100h-101v-872q0 -45 21.5 -63.5t47.5 -28t47.5 -14.5t21.5 -23q0 -10 -12.5 -19.5t-32.5 -9.5l-170 8 q-49 0 -95.5 -10t-88.5 -10t-42 26q0 16 22.5 24.5t50.5 20t51.5 33t23.5 66.5v553h-848v-553q0 -45 21.5 -63.5t47 -28t47 -14.5t21.5 -23q0 -10 -12.5 -19.5t-32.5 -9.5l-170 8q-49 0 -95 -10t-88 -10zM1311 811v219h-848v-219h848z" glyph-name="Hbar" horiz-adv-x="1783" unicode="Ħ"/><glyph d="M646 -12q-38 0 -38 26q0 18 21.5 26t48.5 18q70 27 70 94v362q0 111 -46 154t-142 43t-180 -70q-30 -25 -48 -61v-428q0 -66 66 -88q26 -8 46.5 -13.5t20.5 -23.5q0 -27 -47 -27l-150 14q-49 0 -93 -13t-82 -13t-38 26q0 18 21.5 26t48.5 18q70 27 70 94v987h-160v80h160 v43q0 92 -70 120q-27 10 -48.5 14.5t-21.5 24.5t39 27l170 37q39 8 51 8q25 0 25 -27l-8 -204v-43h342v-80h-342v-471q47 63 133 106t198.5 43t167 -66.5t54.5 -168.5v-430q1 -66 67 -88q26 -8 46 -13.5t20 -23.5q0 -27 -47 -27l-150 14q-49 0 -93 -13t-82 -13z" glyph-name="hbar" horiz-adv-x="1075" unicode="ħ"/><glyph d="M579 1434q42 0 42 -27q0 -18 -24 -25.5t-51.5 -19.5t-50 -33.5t-22.5 -66.5v-1104q0 -45 21.5 -63.5t47 -28t47 -14.5t21.5 -23q0 -10 -12 -19.5t-33 -9.5l-170 8q-49 0 -95 -10t-88 -10t-42 26q0 16 22.5 24.5t50 20t51 33t23.5 66.5v1104q1 69 -69 93q-26 9 -48 14 t-22 24q0 10 13.5 19t33.5 9l170 -8q49 0 95.5 10.5t88.5 10.5zM270.5 1636q-22.5 0 -44 -9t-36 -19.5t-24.5 -19.5t-16 -9q-16 0 -17 23q0 4 2 8q74 133 187 133q16 1 92 -27t101.5 -28t46 9t35.5 20.5t25.5 20.5t14.5 9q20 -1 20 -17t-10 -26q-70 -123 -170 -123 q-22 0 -74.5 19.5t-81 27.5t-51 8z" glyph-name="Itilde" horiz-adv-x="790" unicode="Ĩ"/><glyph d="M195 592q0 129 -70 129t-70 25t39 32l178 37q28 8 43.5 8t16.5 -20v-651q0 -66 66 -88q26 -8 46.5 -13.5t20.5 -23.5q0 -10 -10.5 -18.5t-28.5 -8.5l-162 14q-47 0 -89 -13t-81 -13t-39 26q0 16 21.5 23.5t48.5 19t48.5 32t21.5 63.5v440zM136.5 1001q-22.5 0 -43.5 -9 t-35.5 -19t-24.5 -19.5t-17 -9.5q-16 0 -16 23q0 4 2 8q74 133 186 133q22 0 94 -28q73 -28 99.5 -27.5t47 9.5t35.5 20.5t25.5 20.5t14.5 9q20 0 20 -16t-10 -27q-70 -123 -170 -123q-17 0 -72 19.5t-84 27.5t-51.5 8z" glyph-name="itilde" horiz-adv-x="522" unicode="ĩ"/><glyph d="M579 1434q42 0 42 -27q0 -18 -24 -25.5t-51.5 -19.5t-50 -33.5t-22.5 -66.5v-1104q0 -45 21.5 -63.5t47 -28t47 -14.5t21.5 -23q0 -10 -12 -19.5t-33 -9.5l-170 8q-49 0 -95 -10t-88 -10t-42 26q0 16 22.5 24.5t50 20t51 33t23.5 66.5v1104q1 69 -69 93q-26 9 -48 14 t-22 24q0 10 13.5 19t33.5 9l170 -8q49 0 95.5 10.5t88.5 10.5zM133 1665h526v-100h-526v100z" glyph-name="Imacron" horiz-adv-x="790" unicode="Ī"/><glyph d="M195 592q0 129 -70 129t-70 25t39 32l178 37q28 8 43.5 8t16.5 -20v-651q0 -66 66 -88q26 -8 46.5 -13.5t20.5 -23.5q0 -10 -10.5 -18.5t-28.5 -8.5l-162 14q-47 0 -89 -13t-81 -13t-39 26q0 16 21.5 23.5t48.5 19t48.5 32t21.5 63.5v440zM-2 1030h526v-100h-526v100z " glyph-name="imacron" horiz-adv-x="522" unicode="ī"/><glyph d="M579 1434q42 0 42 -27q0 -18 -24 -25.5t-51.5 -19.5t-50 -33.5t-22.5 -66.5v-1104q0 -45 21.5 -63.5t47 -28t47 -14.5t21.5 -23q0 -10 -12 -19.5t-33 -9.5l-170 8q-49 0 -95 -10t-88 -10t-42 26q0 16 22.5 24.5t50 20t51 33t23.5 66.5v1104q1 69 -69 93q-26 9 -48 14 t-22 24q0 10 13.5 19t33.5 9l170 -8q49 0 95.5 10.5t88.5 10.5zM592 1753q0 -89 -58 -139q-58 -49 -141 -49q-133 0 -180 105q-16 36 -16 83h84q2 -57 38.5 -84t77.5 -27t77 27t40 84h78z" glyph-name="Ibreve" horiz-adv-x="790" unicode="Ĭ"/><glyph d="M195 592q0 129 -70 129t-70 25t39 32l178 37q28 8 43.5 8t16.5 -20v-651q0 -66 66 -88q26 -8 46.5 -13.5t20.5 -23.5q0 -10 -10.5 -18.5t-28.5 -8.5l-162 14q-47 0 -89 -13t-81 -13t-39 26q0 16 21.5 23.5t48.5 19t48.5 32t21.5 63.5v440zM459 1118q0 -89 -58 -139 q-58 -49 -141 -49q-132 0 -180 105q-16 36 -17 83h84q2 -57 39 -83.5t78 -26.5t77 26.5t40 83.5h78z" glyph-name="ibreve" horiz-adv-x="522" unicode="ĭ"/><glyph d="M373 -170q0 -88 103 -88q62 0 97 55l29 -24q-16 -47 -66.5 -84t-117 -37t-105.5 40t-39 95q0 111 115 221q-47 -2 -92 -11t-86 -9t-41 26q0 16 22.5 24.5t50 20t51 33t23.5 66.5v1104q1 69 -69 93q-26 9 -48 14t-22 24q0 10 13.5 19t33.5 9l170 -8q49 0 95.5 10.5 t88.5 10.5t42 -27q0 -18 -24 -25.5t-51.5 -19.5t-50 -33.5t-22.5 -66.5v-1104q0 -45 21.5 -63.5t47 -28t47 -14.5t21.5 -23q0 -10 -12 -19.5t-34.5 -9.5t-100.5 6q-90 -74 -90 -176z" glyph-name="Iogonek" horiz-adv-x="790" unicode="Į"/><glyph d="M465 27q0 -27 -39.5 -27t-112.5 10q-82 -72 -82 -168q0 -88 104 -88q63 0 97 56l29 -25q-16 -47 -66.5 -84t-117.5 -37t-105.5 40t-38.5 95q0 109 109 213q-41 -4 -78 -14t-73 -10t-36 26q0 16 21.5 23.5t48.5 19t48.5 32t21.5 63.5v440q0 129 -70 129t-70 25t39 32 l178 37q28 8 43.5 8t16.5 -20v-651q0 -66 66 -88q26 -8 46.5 -13.5t20.5 -23.5zM244 1192q0 33 22.5 56.5t55.5 23.5t56 -23.5t23 -56.5t-23.5 -55.5t-55.5 -22.5q-33 0 -55.5 22.5t-22.5 55.5z" glyph-name="iogonek" horiz-adv-x="522" unicode="į"/><glyph d="M579 1434q42 0 42 -27q0 -18 -24 -25.5t-51.5 -19.5t-50 -33.5t-22.5 -66.5v-1104q0 -45 21.5 -63.5t47 -28t47 -14.5t21.5 -23q0 -10 -12 -19.5t-33 -9.5l-170 8q-49 0 -95 -10t-88 -10t-42 26q0 16 22.5 24.5t50 20t51 33t23.5 66.5v1104q1 69 -69 93q-26 9 -48 14 t-22 24q0 10 13.5 19t33.5 9l170 -8q49 0 95.5 10.5t88.5 10.5zM393 1569q-35 0 -57.5 23.5t-22.5 58.5t22.5 58.5t57.5 23.5t59.5 -22.5t24.5 -57.5t-24.5 -59.5t-59.5 -24.5z" glyph-name="Idotaccent" horiz-adv-x="790" unicode="İ"/><glyph d="M195 592q0 129 -70 129t-70 25t39 32l178 37q28 8 43.5 8t16.5 -20v-651q0 -66 66 -88q26 -8 46.5 -13.5t20.5 -23.5q0 -10 -10.5 -18.5t-28.5 -8.5l-162 14q-47 0 -89 -13t-81 -13t-39 26q0 16 21.5 23.5t48.5 19t48.5 32t21.5 63.5v440z" glyph-name="dotlessi" horiz-adv-x="522" unicode="ı"/><glyph d="M20 -358q1 16 62.5 62t132.5 166q72 120 72 286v1106q0 70 -70 93q-27 9 -48.5 14t-21.5 24q0 10 13.5 19t34.5 9l170 -8q49 0 95 10.5t88 10.5t42 -27q0 -18 -23.5 -25.5t-51.5 -19.5t-50.5 -33.5t-22.5 -66.5v-1014q0 -326 -229 -538q-111 -104 -152 -103q-41 0 -41 35 zM338 1835h31l194 -240l-35 -30l-182 149l-166 -149l-37 32z" glyph-name="Jcircumflex" horiz-adv-x="708" unicode="Ĵ"/><glyph d="M195 592q0 129 -70 129t-70 25t39 32l178 37q28 8 43.5 8t16.5 -20v-826q0 -316 -176 -481q-37 -37 -64 -37q-31 0 -31 25q0 14 35 45q99 74 99 459v604zM211 1200h31l194 -239l-35 -31l-182 149l-166 -149l-37 33z" glyph-name="jcircumflex" horiz-adv-x="450" unicode="ĵ"/><glyph d="M579 1434q42 0 42 -27q0 -18 -24 -25.5t-51.5 -19.5t-50 -33.5t-22.5 -66.5v-514l479 469q58 55 58 76.5t-21.5 35.5t-46 23.5t-46.5 17.5t-22 20.5t13.5 21.5t34.5 9l170 -8q49 0 96 10.5t88 10.5t41 -25t-8.5 -29t-30.5 -12q-90 -32 -182 -126q-91 -94 -182 -178.5 t-222 -207.5l631 -713q39 -44 84 -64t58.5 -28t13.5 -20t-13.5 -21.5t-33.5 -9.5l-205 8q-47 0 -105.5 -10t-100.5 -10t-42 26q0 16 18.5 21.5t40.5 11.5q60 16 60 69.5t-35 92.5l-483 543l-107 -103v-491q0 -45 21.5 -63.5t47 -28t47 -14.5t21.5 -23q0 -10 -12 -19.5 t-33 -9.5l-170 8q-49 0 -95 -10t-88 -10t-42 26q0 16 22.5 24.5t50 20t51 33t23.5 66.5v1104q1 69 -69 93q-26 9 -48 14t-22 24q0 10 13.5 19t33.5 9l170 -8q49 0 95.5 10.5t88.5 10.5zM672 -563q-21 0 -21 24q1 15 21 43q66 91 65 142q0 23 -16 47t-55 67l125 138l124 -138 q-143 -229 -215 -307q-14 -16 -28 -16z" glyph-name="Kcommaaccent" horiz-adv-x="1478" unicode="Ķ"/><glyph d="M94 -12q-39 0 -39 26q0 16 21.5 23.5t48.5 19t48.5 32t21.5 63.5v1110q0 92 -70 120q-27 10 -48.5 14.5t-21.5 20.5q0 24 39 31l170 37q39 8 49 8q27 0 27 -27l-8 -204v-832l176 164q40 40 57 74t17 55t-36 37t-36 28q0 25 33 25t58.5 -7t60.5 -7l157 14q41 0 41 -27 q0 -10 -10 -20t-33 -10q-59 0 -155 -99l-140 -143l295 -377q45 -57 95 -79q18 -8 27 -12.5t9 -16.5q0 -29 -35.5 -29t-95.5 12t-107.5 -6t-87 -18t-38.5 26q0 12 13 19.5t29 14.5q42 19 42 46q0 26 -35 72l-209 256l-92 -80v-190q0 -66 66 -88q26 -8 46.5 -13.5t20.5 -23.5 q0 -10 -10.5 -18.5t-28.5 -8.5l-162 14q-47 0 -89 -13t-81 -13zM473 -326q0 36 -61 107l106 117l107 -117q-125 -201 -185 -264q-10 -14 -24 -15q-16 0 -17 21q1 10 7 20q67 95 67 131z" glyph-name="kcommaaccent" horiz-adv-x="948" unicode="ķ"/><glyph d="M94 -12q-39 0 -39 26q0 16 21.5 23.5t48.5 19t48.5 32t21.5 63.5v466q0 94 -70 122q-27 10 -48.5 14t-21.5 20q0 24 39 31l170 37q39 8 49 8q27 0 27 -27l-8 -205v-188l176 164q40 40 57 74t17 55t-36 37t-36 28q0 25 33 25t58.5 -7t60.5 -7l157 14q41 0 41 -27 q0 -10 -10 -20t-33 -10q-59 0 -155 -99l-140 -143l295 -377q45 -57 95 -79q18 -8 27 -12.5t9 -16.5q0 -29 -35.5 -29t-95.5 12t-107.5 -6t-87 -18t-38.5 26q0 12 13 19.5t29 14.5q42 19 42 46q0 26 -35 72l-209 256l-92 -80v-190q0 -66 66 -88q26 -8 46.5 -13.5t20.5 -23.5 q0 -10 -10.5 -18.5t-28.5 -8.5l-162 14q-47 0 -89 -13t-81 -13z" glyph-name="kgreenlandic" horiz-adv-x="948" unicode="ĸ"/><glyph d="M838 1339q0 -26 -18.5 -26t-62 24.5t-137.5 24.5t-116.5 -16t-26.5 -35t-4 -76v-1151h262q334 0 447 142q45 56 45 147q0 16 12 25.5t25.5 9.5t26 -10.5t12.5 -41t-35 -161.5q-35 -130 -35 -191q0 -20 -20.5 -20t-46 8t-79.5 8h-741l-141 -12q-33 0 -33 26 q0 18 22.5 25.5t50 20t50 34t22.5 66.5v1095q1 73 -69 97q-26 10 -48 17t-22 21q0 30 47 31l164 -8q61 1 117 15q57 14 119.5 14t118.5 -18q94 -30 94 -85zM540.5 1813q22.5 4 63.5 4t90 -33l-252 -219h-53l117 221q12 23 34.5 27z" glyph-name="Lacute" horiz-adv-x="1323" unicode="Ĺ"/><glyph d="M94 -12q-39 0 -39 26q0 16 21.5 23.5t48.5 19t48.5 32t21.5 63.5v1110q0 92 -70 120q-27 10 -48.5 14.5t-21.5 20.5q0 24 39 31l170 37q39 8 49 8q27 0 27 -27l-8 -204v-1110q0 -66 66 -88q26 -8 46.5 -13.5t20.5 -23.5q0 -10 -10.5 -18.5t-28.5 -8.5l-162 14 q-47 0 -89 -13t-81 -13zM330.5 1835q23.5 6 65.5 6t89 -33l-252 -219h-53l111 211q16 29 39.5 35z" glyph-name="lacute" horiz-adv-x="520" unicode="ĺ"/><glyph d="M838 1339q0 -26 -18.5 -26t-62 24.5t-137.5 24.5t-116.5 -16t-26.5 -35t-4 -76v-1151h262q334 0 447 142q45 56 45 147q0 16 12 25.5t25.5 9.5t26 -10.5t12.5 -41t-35 -161.5q-35 -130 -35 -191q0 -20 -20.5 -20t-46 8t-79.5 8h-741l-141 -12q-33 0 -33 26 q0 18 22.5 25.5t50 20t50 34t22.5 66.5v1095q1 73 -69 97q-26 10 -48 17t-22 21q0 30 47 31l164 -8q61 1 117 15q57 14 119.5 14t118.5 -18q94 -30 94 -85zM639 -563q-21 0 -20 19.5t21 47.5q66 91 65 142q0 23 -16.5 47t-55.5 67l125 138l125 -138q-143 -229 -215 -307 q-14 -16 -29 -16z" glyph-name="Lcommaaccent" horiz-adv-x="1323" unicode="Ļ"/><glyph d="M94 -12q-39 0 -39 26q0 16 21.5 23.5t48.5 19t48.5 32t21.5 63.5v1110q0 92 -70 120q-27 10 -48.5 14.5t-21.5 20.5q0 24 39 31l170 37q39 8 49 8q27 0 27 -27l-8 -204v-1110q0 -66 66 -88q26 -8 46.5 -13.5t20.5 -23.5q0 -10 -10.5 -18.5t-28.5 -8.5l-162 14 q-47 0 -89 -13t-81 -13zM221 -324.5q0 37.5 -61 105.5l106 117l107 -117q-125 -201 -185 -264q-10 -14 -24 -15q-16 0 -17 21q1 10 7 20q67 95 67 132.5z" glyph-name="lcommaaccent" horiz-adv-x="520" unicode="ļ"/><glyph d="M838 1339q0 -26 -18.5 -26t-62 24.5t-137.5 24.5t-116.5 -16t-26.5 -35t-4 -76v-1151h262q334 0 447 142q45 56 45 147q0 16 12 25.5t25.5 9.5t26 -10.5t12.5 -41t-35 -161.5q-35 -130 -35 -191q0 -20 -20.5 -20t-46 8t-79.5 8h-741l-141 -12q-33 0 -33 26 q0 18 22.5 25.5t50 20t50 34t22.5 66.5v1095q1 73 -69 97q-26 10 -48 17t-22 21q0 30 47 31l164 -8q61 1 117 15q57 14 119.5 14t118.5 -18q94 -30 94 -85zM1010 971q-21 0 -21 24q1 15 21 43q66 91 65 142q0 23 -16.5 47t-54.5 67l124 138l125 -138q-143 -229 -215 -307 q-14 -16 -28 -16z" glyph-name="Lcaron" horiz-adv-x="1323" unicode="Ľ"/><glyph d="M94 -12q-39 0 -39 26q0 16 21.5 23.5t48.5 19t48.5 32t21.5 63.5v1110q0 92 -70 120q-27 10 -48.5 14.5t-21.5 20.5q0 24 39 31l170 37q39 8 49 8q27 0 27 -27l-8 -204v-1110q0 -66 66 -88q26 -8 46.5 -13.5t20.5 -23.5q0 -10 -10.5 -18.5t-28.5 -8.5l-162 14 q-47 0 -89 -13t-81 -13zM477 981q1 15 21 43q66 91 65 141q0 23 -16.5 47.5t-54.5 67.5l124 137l125 -137q-143 -229 -215 -307q-14 -16 -28 -17q-21 0 -21 25z" glyph-name="lcaron" horiz-adv-x="614" unicode="ľ"/><glyph d="M838 1339q0 -26 -18.5 -26t-62 24.5t-137.5 24.5t-116.5 -16t-26.5 -35t-4 -76v-1151h262q334 0 447 142q45 56 45 147q0 16 12 25.5t25.5 9.5t26 -10.5t12.5 -41t-35 -161.5q-35 -130 -35 -191q0 -20 -20.5 -20t-46 8t-79.5 8h-741l-141 -12q-33 0 -33 26 q0 18 22.5 25.5t50 20t50 34t22.5 66.5v1095q1 73 -69 97q-26 10 -48 17t-22 21q0 30 47 31l164 -8q61 1 117 15q57 14 119.5 14t118.5 -18q94 -30 94 -85zM895 754l133 147l133 -147l-133 -150z" glyph-name="Ldot" horiz-adv-x="1323" unicode="Ŀ"/><glyph d="M94 -12q-39 0 -39 26q0 16 21.5 23.5t48.5 19t48.5 32t21.5 63.5v1110q0 92 -70 120q-27 10 -48.5 14.5t-21.5 20.5q0 24 39 31l170 37q39 8 49 8q27 0 27 -27l-8 -204v-1110q0 -66 66 -88q26 -8 46.5 -13.5t20.5 -23.5q0 -10 -10.5 -18.5t-28.5 -8.5l-162 14 q-47 0 -89 -13t-81 -13zM481 666l133 147l134 -147l-134 -150z" glyph-name="ldot" horiz-adv-x="716" unicode="ŀ"/><glyph d="M838 1339q0 -26 -18.5 -26t-62 24.5t-137.5 24.5t-116.5 -16t-26.5 -35t-4 -76v-573l285 135v-101l-285 -135v-477h262q334 0 447 142q45 56 45 147q0 16 12 25.5t25.5 9.5t26 -10.5t12.5 -41t-35 -161.5q-35 -130 -35 -191q0 -20 -20.5 -20t-46 8t-79.5 8h-741l-141 -12 q-33 0 -33 26q0 18 22.5 25.5t50 20t50 34t22.5 66.5v327l-165 -77v100l165 78v667q1 73 -69 97q-26 10 -48 17t-22 21q0 30 47 31l164 -8q61 1 117 15q57 14 119.5 14t118.5 -18q94 -30 94 -85z" glyph-name="Lslash" horiz-adv-x="1323" unicode="Ł"/><glyph d="M373 150q0 -43 20.5 -60.5t46 -26t46 -13.5t20.5 -23q0 -10 -10.5 -18.5t-28.5 -8.5l-162 14q-47 0 -89 -13t-81 -13t-39 26q0 16 21.5 23.5t48.5 19t48.5 30.5t21.5 63v491l-175 -72v136l175 71v486q0 72 -32 101.5t-70 29.5t-38 22t39 33l170 37q39 8 48 8q28 0 28 -27 l-8 -204v-431l162 66v-135l-162 -66v-546z" glyph-name="lslash" horiz-adv-x="595" unicode="ł"/><glyph d="M1458 1423.5q47 10.5 89 10.5t42 -27q0 -16 -22.5 -24.5t-49 -20.5t-49 -32.5t-22.5 -61.5l-6 -1266q0 -14 -15 -14t-43 35l-999 1167v-1036q0 -49 30.5 -67.5t67.5 -25t68 -10.5t31 -22q0 -10 -12.5 -19.5t-32.5 -9.5l-170 8q-51 0 -97.5 -10t-87.5 -10t-41 26 q0 16 22.5 24.5t50.5 21t51.5 33t23.5 61.5v1009q-1 153 -93 185q-24 8 -44.5 13t-34 11t-13.5 18.5t13.5 21.5t34.5 9l133 -6q64 0 106 19l959 -1127v961q0 49 -32 67.5t-69 24.5t-68.5 10t-31.5 23q0 10 13.5 19t33.5 9l170 -8q47 0 94 10.5zM925.5 1813q22.5 4 63.5 4 t90 -33l-252 -219h-53l117 221q12 23 34.5 27z" glyph-name="Nacute" horiz-adv-x="1720" unicode="Ń"/><glyph d="M195 592q0 129 -70 129t-70 25t39 32l178 37q28 8 43.5 8t16.5 -20v-135q42 61 130 105t183 44q240 0 240 -235v-430q1 -66 67 -88q26 -8 46 -13.5t20 -23.5q0 -10 -10.5 -18.5t-28.5 -8.5l-162 14q-47 0 -89 -13t-81 -13t-39 26q0 16 21.5 23.5t48.5 19t48.5 32 t21.5 63.5v362q0 111 -45.5 154t-119 43t-145.5 -33q-73 -33 -106 -98v-428q0 -66 66 -88q26 -8 46.5 -13.5t20.5 -23.5q0 -10 -10.5 -18.5t-28.5 -8.5l-162 14q-47 0 -89 -13t-81 -13t-39 26q0 16 21.5 23.5t48.5 19t48.5 32t21.5 63.5v440zM609 1176q24 6 64 6t91 -33 l-252 -219h-53l110 211q16 29 40 35z" glyph-name="nacute" horiz-adv-x="1075" unicode="ń"/><glyph d="M1458 1423.5q47 10.5 89 10.5t42 -27q0 -16 -22.5 -24.5t-49 -20.5t-49 -32.5t-22.5 -61.5l-6 -1266q0 -14 -15 -14t-43 35l-999 1167v-1036q0 -49 30.5 -67.5t67.5 -25t68 -10.5t31 -22q0 -10 -12.5 -19.5t-32.5 -9.5l-170 8q-51 0 -97.5 -10t-87.5 -10t-41 26 q0 16 22.5 24.5t50.5 21t51.5 33t23.5 61.5v1009q-1 153 -93 185q-24 8 -44.5 13t-34 11t-13.5 18.5t13.5 21.5t34.5 9l133 -6q64 0 106 19l959 -1127v961q0 49 -32 67.5t-69 24.5t-68.5 10t-31.5 23q0 10 13.5 19t33.5 9l170 -8q47 0 94 10.5zM814.5 -522q-17.5 0 -17 20 t20.5 48q66 91 65 141q0 23 -16.5 47t-55.5 67l125 138l125 -138q-143 -228 -186 -275.5t-60.5 -47.5z" glyph-name="Ncommaaccent" horiz-adv-x="1720" unicode="Ņ"/><glyph d="M195 592q0 129 -70 129t-70 25t39 32l178 37q28 8 43.5 8t16.5 -20v-135q42 61 130 105t183 44q240 0 240 -235v-430q1 -66 67 -88q26 -8 46 -13.5t20 -23.5q0 -10 -10.5 -18.5t-28.5 -8.5l-162 14q-47 0 -89 -13t-81 -13t-39 26q0 16 21.5 23.5t48.5 19t48.5 32 t21.5 63.5v362q0 111 -45.5 154t-119 43t-145.5 -33q-73 -33 -106 -98v-428q0 -66 66 -88q26 -8 46.5 -13.5t20.5 -23.5q0 -10 -10.5 -18.5t-28.5 -8.5l-162 14q-47 0 -89 -13t-81 -13t-39 26q0 16 21.5 23.5t48.5 19t48.5 32t21.5 63.5v440zM498 -325q0 36 -62 106l107 117 l106 -117q-127 -204 -184 -264q-10 -14 -25 -15q-16 0 -16 21q0 10 6 20q68 96 68 132z" glyph-name="ncommaaccent" horiz-adv-x="1075" unicode="ņ"/><glyph d="M1458 1423.5q47 10.5 89 10.5t42 -27q0 -16 -22.5 -24.5t-49 -20.5t-49 -32.5t-22.5 -61.5l-6 -1266q0 -14 -15 -14t-43 35l-999 1167v-1036q0 -49 30.5 -67.5t67.5 -25t68 -10.5t31 -22q0 -10 -12.5 -19.5t-32.5 -9.5l-170 8q-51 0 -97.5 -10t-87.5 -10t-41 26 q0 16 22.5 24.5t50.5 21t51.5 33t23.5 61.5v1009q-1 153 -93 185q-24 8 -44.5 13t-34 11t-13.5 18.5t13.5 21.5t34.5 9l133 -6q64 0 106 19l959 -1127v961q0 49 -32 67.5t-69 24.5t-68.5 10t-31.5 23q0 10 13.5 19t33.5 9l170 -8q47 0 94 10.5zM877 1565h-35l-234 333h66 l186 -184l182 184h68z" glyph-name="Ncaron" horiz-adv-x="1720" unicode="Ň"/><glyph d="M195 592q0 129 -70 129t-70 25t39 32l178 37q28 8 43.5 8t16.5 -20v-135q42 61 130 105t183 44q240 0 240 -235v-430q1 -66 67 -88q26 -8 46 -13.5t20 -23.5q0 -10 -10.5 -18.5t-28.5 -8.5l-162 14q-47 0 -89 -13t-81 -13t-39 26q0 16 21.5 23.5t48.5 19t48.5 32 t21.5 63.5v362q0 111 -45.5 154t-119 43t-145.5 -33q-73 -33 -106 -98v-428q0 -66 66 -88q26 -8 46.5 -13.5t20.5 -23.5q0 -10 -10.5 -18.5t-28.5 -8.5l-162 14q-47 0 -89 -13t-81 -13t-39 26q0 16 21.5 23.5t48.5 19t48.5 32t21.5 63.5v440zM555 930h-35l-233 334h65 l187 -185l182 185h67z" glyph-name="ncaron" horiz-adv-x="1075" unicode="ň"/><glyph d="M1022 -358q0 16 20 30q158 114 220 306q22 70 26 155l-905 1057v-1036q0 -49 30.5 -67.5t67.5 -25t68 -10.5t31 -22q0 -10 -12.5 -19.5t-32.5 -9.5l-170 8q-51 0 -97.5 -10t-87.5 -10t-41 26q0 16 22.5 24.5t50.5 21t51.5 33t23.5 61.5v1009q-1 153 -93 185 q-24 8 -44.5 13t-34 11t-13.5 18.5t13.5 21.5t34.5 9l133 -6q64 0 106 19l899 -1057v885q0 69 -70 93q-26 9 -47.5 14t-21.5 24q0 10 13.5 19t33.5 9l170 -8q49 0 95 10.5t88 10.5t42 -27q0 -18 -23.5 -25.5t-51 -19.5t-50 -33.5t-22.5 -66.5v-1014q0 -326 -230 -538 q-112 -104 -152 -103q-40 0 -40 35z" glyph-name="Eng" horiz-adv-x="1722" unicode="Ŋ"/><glyph d="M195 592q0 129 -70 129t-70 25t39 32l178 37q28 8 43.5 8t16.5 -20v-135q42 61 130 105t183 44q240 0 240 -235v-605q0 -316 -176 -481q-37 -37 -64 -37q-31 0 -31 25q0 14 35 45q99 74 99 459v526q0 111 -45.5 154t-119 43t-145.5 -33q-73 -33 -106 -98v-428 q0 -66 66 -88q26 -8 46.5 -13.5t20.5 -23.5q0 -10 -10.5 -18.5t-28.5 -8.5l-162 14q-47 0 -89 -13t-81 -13t-39 26q0 16 21.5 23.5t48.5 19t48.5 32t21.5 63.5v440z" glyph-name="eng" horiz-adv-x="1073" unicode="ŋ"/><glyph d="M860 -14q-156 0 -289 57t-233 156.5t-157.5 234.5t-57.5 365t205 439q205 208 514 208q166 0 303 -59.5t235.5 -161t152.5 -236.5t54 -288t-54 -283.5t-151.5 -227t-231.5 -150.5t-290 -54zM281 794.5q0 -104.5 44 -235.5t123.5 -234.5t190.5 -167t310 -63.5t340 150 t141 364q0 127 -44.5 257t-124 234.5t-193.5 171t-259.5 66.5t-247.5 -51t-164.5 -129t-89 -168t-26.5 -194.5zM592 1665h526v-100h-526v100z" glyph-name="Omacron" horiz-adv-x="1710" unicode="Ō"/><glyph d="M287 194q90 -120 227 -120q168 0 230 172q18 51 18 152.5t-91 216.5q-91 116 -227 116q-108 0 -177 -80q-70 -80 -70 -208q0 -129 90 -249zM901 375.5q0 -134.5 -122 -260.5q-122 -127 -290 -127q-167 0 -300 110q-132 110 -132 295q0 186 130 305t286 119 q157 0 285 -102q64 -51 103.5 -128t39.5 -211.5zM221 1030h527v-100h-527v100z" glyph-name="omacron" horiz-adv-x="966" unicode="ō"/><glyph d="M860 -14q-156 0 -289 57t-233 156.5t-157.5 234.5t-57.5 365t205 439q205 208 514 208q166 0 303 -59.5t235.5 -161t152.5 -236.5t54 -288t-54 -283.5t-151.5 -227t-231.5 -150.5t-290 -54zM281 794.5q0 -104.5 44 -235.5t123.5 -234.5t190.5 -167t310 -63.5t340 150 t141 364q0 127 -44.5 257t-124 234.5t-193.5 171t-259.5 66.5t-247.5 -51t-164.5 -129t-89 -168t-26.5 -194.5zM1053 1753q0 -89 -58 -139q-58 -49 -141 -49q-132 0 -180 105q-16 36 -17 83h84q2 -57 39 -84t78 -27t77 27t40 84h78z" glyph-name="Obreve" horiz-adv-x="1710" unicode="Ŏ"/><glyph d="M287 194q90 -120 227 -120q168 0 230 172q18 51 18 152.5t-91 216.5q-91 116 -227 116q-108 0 -177 -80q-70 -80 -70 -208q0 -129 90 -249zM901 375.5q0 -134.5 -122 -260.5q-122 -127 -290 -127q-167 0 -300 110q-132 110 -132 295q0 186 130 305t286 119 q157 0 285 -102q64 -51 103.5 -128t39.5 -211.5zM680 1118q0 -89 -58 -139q-58 -49 -141 -49q-133 0 -180 105q-16 36 -16 83h84q2 -57 38.5 -83.5t77.5 -26.5t77 26.5t40 83.5h78z" glyph-name="obreve" horiz-adv-x="966" unicode="ŏ"/><glyph d="M860 -14q-156 0 -289 57t-233 156.5t-157.5 234.5t-57.5 365t205 439q205 208 514 208q166 0 303 -59.5t235.5 -161t152.5 -236.5t54 -288t-54 -283.5t-151.5 -227t-231.5 -150.5t-290 -54zM281 794.5q0 -104.5 44 -235.5t123.5 -234.5t190.5 -167t310 -63.5t340 150 t141 364q0 127 -44.5 257t-124 234.5t-193.5 171t-259.5 66.5t-247.5 -51t-164.5 -129t-89 -168t-26.5 -194.5zM621 1565l-41 61l294 240l82 -107zM920 1565l-41 61l295 240l81 -107z" glyph-name="Ohungarumlaut" horiz-adv-x="1710" unicode="Ő"/><glyph d="M287 194q90 -120 227 -120q168 0 230 172q18 51 18 152.5t-91 216.5q-91 116 -227 116q-108 0 -177 -80q-70 -80 -70 -208q0 -129 90 -249zM901 375.5q0 -134.5 -122 -260.5q-122 -127 -290 -127q-167 0 -300 110q-132 110 -132 295q0 186 130 305t286 119 q157 0 285 -102q64 -51 103.5 -128t39.5 -211.5zM260 930l-41 61l295 240l82 -107zM559 930l-41 61l295 240l82 -107z" glyph-name="ohungarumlaut" horiz-adv-x="966" unicode="ő"/><glyph d="M1753 516q-31 0 -31 68t-57 96t-182 29h-250v-541q0 -52 29 -74h247q213 0 293 34t119 86t39 142q0 33 38 33t38 -52t-30 -175t-30 -162q0 -18 -19 -18t-42 9t-78 9h-842q-82 -14 -141 -14q-152 0 -285 57t-232 156.5t-156.5 235.5t-57.5 288.5t53 284t148.5 228.5 t226.5 153.5t287 56.5q18 0 147 -12h783q78 0 114 18l51 -6l21 -266q2 -14 -7.5 -27.5t-18.5 -13.5q-36 0 -42 22q-12 57 -31.5 92t-69.5 61t-235 25h-284q-33 -33 -33 -75v-455h250q121 1 158 19q73 36 73 137q0 23 11.5 33t21.5 10q39 0 39 -43q0 -66 -9.5 -111t-9.5 -95 t10.5 -101.5t10.5 -96.5t-35 -45zM746 1337q-204 0 -350 -179q-116 -142 -115 -335q0 -133 44 -263t122.5 -233.5t188 -168t220.5 -64.5t211 29q10 25 10 47v1096q-127 71 -331 71z" glyph-name="OE" horiz-adv-x="2168" unicode="Œ"/><glyph d="M1495 154q0 -12 -26.5 -40t-70.5 -56q-213 -133 -422 -20q-93 50 -140 161q-53 -104 -145.5 -157.5t-230.5 -53.5t-271 110q-132 110 -132 295q0 186 130 305t286 119q94 0 193.5 -46t164.5 -136q110 182 330 182q125 -1 216 -75q43 -35 87 -101q29 -6 29 -40t-39 -46 l-526 -184q25 -123 104.5 -197t222.5 -74q52 0 103 28t69 46t31 19q37 0 37 -39zM287 194q90 -120 227 -120q168 0 230 172q18 51 18 152.5t-91 216.5q-91 116 -227 116q-108 0 -177 -80q-70 -80 -70 -208q0 -129 90 -249zM915 496v-32q0 -16 3 -32l395 152q0 44 -40 81 q-76 70 -170.5 70t-141 -66.5t-46.5 -172.5z" glyph-name="oe" horiz-adv-x="1546" unicode="œ"/><glyph d="M1391.5 66q60.5 0 60.5 -39q0 -16 -13.5 -27.5t-41.5 -11.5q-283 0 -393 218q-32 62 -61.5 116.5t-93 174t-171.5 150.5q-78 25 -205 35v-522q0 -47 21.5 -65.5t47 -28t47 -14.5t21.5 -23q0 -10 -12 -19.5t-31 -9.5l-172 8q-47 0 -95 -10t-89 -10t-41 26q0 16 22.5 24.5 t50 20t51 33t23.5 68.5v1102q1 69 -69 93q-26 9 -48 14t-22 24q0 10 13.5 19t33.5 9l170 -8q109 -1 195 11t186 12t200 -35t166 -93q130 -114 130 -291t-148 -280q-100 -70 -241 -88q95 -59 181 -217q36 -66 67.5 -130t69.5 -117.5t84 -86t106.5 -32.5zM730.5 725 q151.5 0 257.5 79t106 225q0 147 -113 233t-291 86q-116 0 -217 -19v-557q106 -47 257.5 -47zM800.5 1813q22.5 4 63.5 4t90 -33l-252 -219h-53l117 221q12 23 34.5 27z" glyph-name="Racute" horiz-adv-x="1513" unicode="Ŕ"/><glyph d="M94 -12q-39 0 -39 26q0 16 21.5 23.5t48.5 18t48.5 30.5t21.5 64v442q0 72 -32 100.5t-70 28.5t-38 27q0 20 39 28l197 43q16 4 22 4q18 0 19 -20v-76q55 41 112.5 68.5t89.5 27.5t76 -50q43 -50 43 -83.5t-39 -67.5t-56 -34t-25.5 18t-19.5 42q-28 60 -74.5 60.5 t-106.5 -46.5v-510q0 -43 25.5 -61.5t57 -27t57.5 -14.5t26 -22q0 -10 -10.5 -18.5t-28.5 -8.5l-197 14q-45 0 -87 -13t-81 -13zM433 1176q24 6 64 6t91 -33l-252 -219h-53l110 211q16 29 40 35z" glyph-name="racute" horiz-adv-x="663" unicode="ŕ"/><glyph d="M1391.5 66q60.5 0 60.5 -39q0 -16 -13.5 -27.5t-41.5 -11.5q-283 0 -393 218q-32 62 -61.5 116.5t-93 174t-171.5 150.5q-78 25 -205 35v-522q0 -47 21.5 -65.5t47 -28t47 -14.5t21.5 -23q0 -10 -12 -19.5t-31 -9.5l-172 8q-47 0 -95 -10t-89 -10t-41 26q0 16 22.5 24.5 t50 20t51 33t23.5 68.5v1102q1 69 -69 93q-26 9 -48 14t-22 24q0 10 13.5 19t33.5 9l170 -8q109 -1 195 11t186 12t200 -35t166 -93q130 -114 130 -291t-148 -280q-100 -70 -241 -88q95 -59 181 -217q36 -66 67.5 -130t69.5 -117.5t84 -86t106.5 -32.5zM730.5 725 q151.5 0 257.5 79t106 225q0 147 -113 233t-291 86q-116 0 -217 -19v-557q106 -47 257.5 -47zM758 -518q0 14 20 42q66 91 66 142q0 23 -16.5 47.5t-55.5 67.5l125 137l125 -137q-143 -229 -215 -307q-14 -16 -29 -17q-20 0 -20 25z" glyph-name="Rcommaaccent" horiz-adv-x="1513" unicode="Ŗ"/><glyph d="M94 -12q-39 0 -39 26q0 16 21.5 23.5t48.5 18t48.5 30.5t21.5 64v442q0 72 -32 100.5t-70 28.5t-38 27q0 20 39 28l197 43q16 4 22 4q18 0 19 -20v-76q55 41 112.5 68.5t89.5 27.5t76 -50q43 -50 43 -83.5t-39 -67.5t-56 -34t-25.5 18t-19.5 42q-28 60 -74.5 60.5 t-106.5 -46.5v-510q0 -43 25.5 -61.5t57 -27t57.5 -14.5t26 -22q0 -10 -10.5 -18.5t-28.5 -8.5l-197 14q-45 0 -87 -13t-81 -13zM231 -324.5q0 37.5 -61 105.5l106 117l107 -117q-127 -204 -184 -264q-10 -14 -25 -15q-16 0 -16 21q0 10 6 20q67 95 67 132.5z" glyph-name="rcommaaccent" horiz-adv-x="663" unicode="ŗ"/><glyph d="M1391.5 66q60.5 0 60.5 -39q0 -16 -13.5 -27.5t-41.5 -11.5q-283 0 -393 218q-32 62 -61.5 116.5t-93 174t-171.5 150.5q-78 25 -205 35v-522q0 -47 21.5 -65.5t47 -28t47 -14.5t21.5 -23q0 -10 -12 -19.5t-31 -9.5l-172 8q-47 0 -95 -10t-89 -10t-41 26q0 16 22.5 24.5 t50 20t51 33t23.5 68.5v1102q1 69 -69 93q-26 9 -48 14t-22 24q0 10 13.5 19t33.5 9l170 -8q109 -1 195 11t186 12t200 -35t166 -93q130 -114 130 -291t-148 -280q-100 -70 -241 -88q95 -59 181 -217q36 -66 67.5 -130t69.5 -117.5t84 -86t106.5 -32.5zM730.5 725 q151.5 0 257.5 79t106 225q0 147 -113 233t-291 86q-116 0 -217 -19v-557q106 -47 257.5 -47zM735 1565h-35l-233 333h65l187 -184l182 184h68z" glyph-name="Rcaron" horiz-adv-x="1513" unicode="Ř"/><glyph d="M94 -12q-39 0 -39 26q0 16 21.5 23.5t48.5 18t48.5 30.5t21.5 64v442q0 72 -32 100.5t-70 28.5t-38 27q0 20 39 28l197 43q16 4 22 4q18 0 19 -20v-76q55 41 112.5 68.5t89.5 27.5t76 -50q43 -50 43 -83.5t-39 -67.5t-56 -34t-25.5 18t-19.5 42q-28 60 -74.5 60.5 t-106.5 -46.5v-510q0 -43 25.5 -61.5t57 -27t57.5 -14.5t26 -22q0 -10 -10.5 -18.5t-28.5 -8.5l-197 14q-45 0 -87 -13t-81 -13zM387 930h-35l-233 334h65l187 -185l182 185h68z" glyph-name="rcaron" horiz-adv-x="663" unicode="ř"/><glyph d="M569 1358q-266 0 -266 -228q1 -126 265 -250q104 -48 213.5 -113t161.5 -117q114 -114 114 -272t-120 -275t-325 -117q-133 0 -309 78q-33 14 -49 14t-20.5 -13.5t-11.5 -29.5t-22 -15.5t-27.5 13t-12.5 35t-9.5 70.5t-19.5 93t-19.5 80t-9.5 56.5t14.5 35t28.5 13.5 t20.5 -17.5t22.5 -72.5t39 -86q119 -166 389 -166q125 0 208 83t83 210q0 92 -98 180t-220 147.5t-278.5 145t-156.5 282.5q0 139 113 232q113 92 265 92q66 0 170.5 -28.5t123.5 -28.5t30 22q3 6 18.5 6t28 -12t12.5 -36t5.5 -61.5t10.5 -71.5t10 -59.5t5 -47t-20.5 -35 t-24.5 -13.5q-12 0 -18 16.5t-22 68.5t-46.5 89t-106.5 70q-77 33 -139 33zM598 1813q23 4 63 4t91 -33l-252 -219h-54l117 221q12 23 35 27z" glyph-name="Sacute" horiz-adv-x="1159" unicode="Ś"/><glyph d="M324 752q-107 0 -107 -86q0 -33 33 -60.5t82 -54.5t189.5 -100.5t140.5 -214.5q0 -164 -164 -228q-54 -20 -125 -20t-127 26q-57 27 -71.5 27.5t-30.5 -21.5q-16 -21 -29 -22q-33 0 -33 43l4 78q0 47 -7 67.5t-7 36.5t9 23.5t18 7.5t17.5 -12t17.5 -36t38 -60.5t87 -61.5 t129 -25t116 43t45 86.5t-33 76t-83 61t-190.5 99.5t-140.5 196t129 177q45 18 94.5 18.5t74 -6.5t43 -16.5t29.5 -16.5t24.5 -7t23.5 6t17.5 12.5t12.5 12.5t11 6q25 0 25 -43l-2 -62l8 -53q0 -53 -25 -53q-14 0 -20 14q-86 142 -223 142zM402 1176q24 6 64 6t91 -33 l-252 -219h-53l110 211q16 29 40 35z" glyph-name="sacute" horiz-adv-x="702" unicode="ś"/><glyph d="M569 1358q-266 0 -266 -228q1 -126 265 -250q104 -48 213.5 -113t161.5 -117q114 -114 114 -272t-120 -275t-325 -117q-133 0 -309 78q-33 14 -49 14t-20.5 -13.5t-11.5 -29.5t-22 -15.5t-27.5 13t-12.5 35t-9.5 70.5t-19.5 93t-19.5 80t-9.5 56.5t14.5 35t28.5 13.5 t20.5 -17.5t22.5 -72.5t39 -86q119 -166 389 -166q125 0 208 83t83 210q0 92 -98 180t-220 147.5t-278.5 145t-156.5 282.5q0 139 113 232q113 92 265 92q66 0 170.5 -28.5t123.5 -28.5t30 22q3 6 18.5 6t28 -12t12.5 -36t5.5 -61.5t10.5 -71.5t10 -59.5t5 -47t-20.5 -35 t-24.5 -13.5q-12 0 -18 16.5t-22 68.5t-46.5 89t-106.5 70q-77 33 -139 33zM543 1835h30l195 -240l-35 -30l-182 149l-166 -149l-37 32z" glyph-name="Scircumflex" horiz-adv-x="1159" unicode="Ŝ"/><glyph d="M324 752q-107 0 -107 -86q0 -33 33 -60.5t82 -54.5t189.5 -100.5t140.5 -214.5q0 -164 -164 -228q-54 -20 -125 -20t-127 26q-57 27 -71.5 27.5t-30.5 -21.5q-16 -21 -29 -22q-33 0 -33 43l4 78q0 47 -7 67.5t-7 36.5t9 23.5t18 7.5t17.5 -12t17.5 -36t38 -60.5t87 -61.5 t129 -25t116 43t45 86.5t-33 76t-83 61t-190.5 99.5t-140.5 196t129 177q45 18 94.5 18.5t74 -6.5t43 -16.5t29.5 -16.5t24.5 -7t23.5 6t17.5 12.5t12.5 12.5t11 6q25 0 25 -43l-2 -62l8 -53q0 -53 -25 -53q-14 0 -20 14q-86 142 -223 142zM336 1200h31l194 -239l-35 -31 l-182 149l-166 -149l-37 33z" glyph-name="scircumflex" horiz-adv-x="702" unicode="ŝ"/><glyph d="M569 1358q-266 0 -266 -228q1 -126 265 -250q104 -48 213.5 -113t161.5 -117q114 -114 114 -268t-112 -269q-112 -114 -288 -125l-32 -47q59 -43 59 -91q0 -89 -115 -159q-4 -2 -9 -2h-7q-23 0 -23 22q0 8 11 17q43 27 43 70t-78 83l80 105q-98 3 -177 34t-110 44.5 t-46 13.5t-19.5 -13.5t-11.5 -29.5t-22 -15.5t-27.5 13t-12.5 35t-9.5 70.5t-19.5 93t-19.5 80t-9.5 56.5t14.5 35t28.5 13.5t20.5 -17.5t22.5 -72.5t39 -86q119 -166 389 -166q125 0 208 83t83 210q0 92 -98 180t-220 147.5t-278.5 145t-156.5 282.5q0 139 113 232 q113 92 265 92q66 0 170.5 -28.5t123.5 -28.5t30 22q3 6 18.5 6t28 -12t12.5 -36t5.5 -61.5t10.5 -71.5t10 -59.5t5 -47t-20.5 -35t-24.5 -13.5q-12 0 -18 16.5t-22 68.5t-46.5 89t-106.5 70q-77 33 -139 33z" glyph-name="Scedilla" horiz-adv-x="1159" unicode="Ş"/><glyph d="M324 752q-107 0 -107 -86q0 -33 33 -60.5t82 -54.5t189.5 -100.5t140.5 -189t-60.5 -185.5t-177.5 -84l-33 -49q59 -43 59 -91q1 -89 -114 -159q-4 -2 -9 -2h-8q-23 0 -22 22q0 8 10 17q43 27 43 70t-78 83l80 105q-55 3 -109 28t-68.5 25.5t-30.5 -21.5q-16 -21 -29 -22 q-33 0 -33 43l4 78q0 47 -7 67.5t-7 36.5t9 23.5t18 7.5t17.5 -12t17.5 -36t38 -60.5t87 -61.5t129 -25t116 43t45 86.5t-33 76t-83 61t-190.5 99.5t-140.5 196t129 177q45 18 94.5 18.5t74 -6.5t43 -16.5t29.5 -16.5t24.5 -7t23.5 6t17.5 12.5t12.5 12.5t11 6q25 0 25 -43 l-2 -62l8 -53q0 -53 -25 -53q-14 0 -20 14q-86 142 -223 142z" glyph-name="scedilla" horiz-adv-x="702" unicode="ş"/><glyph d="M569 1358q-266 0 -266 -228q1 -126 265 -250q104 -48 213.5 -113t161.5 -117q114 -114 114 -272t-120 -275t-325 -117q-133 0 -309 78q-33 14 -49 14t-20.5 -13.5t-11.5 -29.5t-22 -15.5t-27.5 13t-12.5 35t-9.5 70.5t-19.5 93t-19.5 80t-9.5 56.5t14.5 35t28.5 13.5 t20.5 -17.5t22.5 -72.5t39 -86q119 -166 389 -166q125 0 208 83t83 210q0 92 -98 180t-220 147.5t-278.5 145t-156.5 282.5q0 139 113 232q113 92 265 92q66 0 170.5 -28.5t123.5 -28.5t30 22q3 6 18.5 6t28 -12t12.5 -36t5.5 -61.5t10.5 -71.5t10 -59.5t5 -47t-20.5 -35 t-24.5 -13.5q-12 0 -18 16.5t-22 68.5t-46.5 89t-106.5 70q-77 33 -139 33zM575 1565h-34l-234 333h66l186 -184l182 184h68z" glyph-name="Scaron" horiz-adv-x="1159" unicode="Š"/><glyph d="M324 752q-107 0 -107 -86q0 -33 33 -60.5t82 -54.5t189.5 -100.5t140.5 -214.5q0 -164 -164 -228q-54 -20 -125 -20t-127 26q-57 27 -71.5 27.5t-30.5 -21.5q-16 -21 -29 -22q-33 0 -33 43l4 78q0 47 -7 67.5t-7 36.5t9 23.5t18 7.5t17.5 -12t17.5 -36t38 -60.5t87 -61.5 t129 -25t116 43t45 86.5t-33 76t-83 61t-190.5 99.5t-140.5 196t129 177q45 18 94.5 18.5t74 -6.5t43 -16.5t29.5 -16.5t24.5 -7t23.5 6t17.5 12.5t12.5 12.5t11 6q25 0 25 -43l-2 -62l8 -53q0 -53 -25 -53q-14 0 -20 14q-86 142 -223 142zM369 930h-35l-234 334h66 l186 -185l183 185h67z" glyph-name="scaron" horiz-adv-x="702" unicode="š"/><glyph d="M176 1427h903q23 1 53 15t46 14q44 0 17 -107q-26 -107 -26 -190q0 -18 -14 -30.5t-20 -12.5q-23 0 -30 68.5t-47 108.5t-161 40h-217v-1175q0 -45 26.5 -64.5t57.5 -28t57.5 -13.5t26.5 -23q0 -10 -12.5 -19.5t-32.5 -9.5l-201 8q-55 0 -98 -10t-85 -10t-42 26 q0 16 22.5 24.5t50 20t51 33t23.5 66.5v1175h-194q-121 0 -163 -25.5t-63.5 -58t-36 -72t-34.5 -38.5q-10 0 -21.5 10t-11.5 27l2 26l59 248q50 -23 115 -23zM498 -563q-21 0 -21 24q1 15 21 43q66 91 65 142q0 23 -16.5 47t-54.5 67l124 138l125 -138q-143 -229 -215 -307 q-14 -16 -28 -16z" glyph-name="Tcommaaccent" horiz-adv-x="1204" unicode="Ţ"/><glyph d="M414 739h-123v-497q0 -74 29.5 -112t101.5 -38q32 0 86 36t67 36q20 0 21 -23q0 -10 -4 -16q-89 -137 -246 -137q-116 0 -170 92q-22 37 -22 96v563q-47 0 -61.5 3t-14.5 12.5t15.5 24t35.5 34.5l107 107q12 12 26 12q29 0 29 -35v-84h219q72 0 72 -29q0 -48 -43 -69 q-32 24 -125 24zM326 -325q0 36 -62 106l107 117l106 -117q-127 -204 -184 -264q-10 -14 -25 -15q-16 0 -16 21q0 10 6 20q68 96 68 132z" glyph-name="tcommaaccent" horiz-adv-x="606" unicode="ţ"/><glyph d="M176 1427h903q23 1 53 15t46 14q44 0 17 -107q-26 -107 -26 -190q0 -18 -14 -30.5t-20 -12.5q-23 0 -30 68.5t-47 108.5t-161 40h-217v-1175q0 -45 26.5 -64.5t57.5 -28t57.5 -13.5t26.5 -23q0 -10 -12.5 -19.5t-32.5 -9.5l-201 8q-55 0 -98 -10t-85 -10t-42 26 q0 16 22.5 24.5t50 20t51 33t23.5 66.5v1175h-194q-121 0 -163 -25.5t-63.5 -58t-36 -72t-34.5 -38.5q-10 0 -21.5 10t-11.5 27l2 26l59 248q50 -23 115 -23zM618 1565h-34l-234 333h66l186 -184l182 184h68z" glyph-name="Tcaron" horiz-adv-x="1204" unicode="Ť"/><glyph d="M414 739h-123v-497q0 -74 29.5 -112t101.5 -38q32 0 86 36t67 36q20 0 21 -23q0 -10 -4 -16q-89 -137 -246 -137q-116 0 -170 92q-22 37 -22 96v563q-47 0 -61.5 3t-14.5 12.5t15.5 24t35.5 34.5l107 107q12 12 26 12q29 0 29 -35v-84h219q72 0 72 -29q0 -48 -43 -69 q-32 24 -125 24zM470.5 922q-17.5 0 -17 20t20.5 48q66 91 65 140q0 23 -16.5 47.5t-55.5 67.5l125 137l125 -137q-143 -228 -186 -275.5t-60.5 -47.5z" glyph-name="tcaron" horiz-adv-x="606" unicode="ť"/><glyph d="M419 -12q-42 0 -42 26q0 16 22.5 24.5t50 20t51 33t23.5 66.5v643h-227v100h227v432h-194q-121 0 -163 -25.5t-63.5 -58t-36 -72t-34.5 -38.5q-10 0 -21.5 10t-11.5 27l2 26l59 248q50 -23 115 -23h903q23 1 53 15t46 14q44 0 17 -107q-26 -107 -26 -190q0 -18 -14 -30.5 t-20 -12.5q-23 0 -30 68.5t-47 108.5t-161 40h-217v-432h225v-100h-225v-643q0 -45 26.5 -64.5t57.5 -28t57.5 -13.5t26.5 -23q0 -10 -12.5 -19.5t-32.5 -9.5l-201 8q-55 0 -98 -10t-85 -10z" glyph-name="Tbar" horiz-adv-x="1204" unicode="Ŧ"/><glyph d="M414 739h-123v-227h235v-80h-235v-190q0 -74 29.5 -112t101.5 -38q32 0 86 36t67 36q20 0 21 -23q0 -10 -4 -16q-89 -137 -246 -137q-116 0 -170 92q-22 37 -22 96v256h-113v60l113 20v227q-47 0 -61.5 3t-14.5 12.5t15.5 24t35.5 34.5l107 107q12 12 26 12q29 0 29 -35 v-84h219q72 0 72 -29q0 -48 -43 -69q-32 24 -125 24z" glyph-name="tbar" horiz-adv-x="606" unicode="ŧ"/><glyph d="M517 1434q42 0 42 -27q0 -18 -23.5 -25.5t-51 -19.5t-50 -33.5t-22.5 -66.5v-783q0 -198 124 -299q106 -86 252 -86q221 0 422 197v971q0 69 -70 93q-26 9 -47.5 14t-21.5 24q0 10 13.5 19t33.5 9l170 -8q49 0 95.5 10.5t88.5 10.5t41 -27q0 -18 -23.5 -25.5t-51 -19.5 t-50 -33.5t-22.5 -66.5v-955q0 -105 16 -136q28 -54 109 -54q49 0 49 -37q0 -25 -53 -24.5t-139 -29.5t-111 -30t-25 22v52q0 44 2 123q-76 -55 -133 -94.5t-140 -76.5t-195.5 -36.5t-195 22t-148.5 78.5q-146 127 -146 408v768q0 69 -70 93q-26 9 -47.5 14t-21.5 24 q0 10 13 19t34 9l170 -8q49 0 95 10.5t88 10.5zM716.5 1636q-22.5 0 -44 -9t-35.5 -19.5t-24.5 -19.5t-16.5 -9q-16 0 -16 23q0 4 2 8q74 133 186 133q15 1 93 -27t102.5 -28t44.5 9t35.5 20.5t25.5 20.5t14 9q20 0 21 -16q0 -17 -10 -27q-70 -123 -170 -123 q-24 0 -75.5 19.5t-80.5 27.5t-51.5 8z" glyph-name="Utilde" horiz-adv-x="1683" unicode="Ũ"/><glyph d="M170 592q0 129 -69.5 129t-69.5 25t39 32l178 37q28 8 43.5 8t15.5 -20v-555q0 -150 172 -150q121 0 242 107v387q0 129 -70 129t-69 27q0 23 39 30l178 37q28 8 43.5 8t15.5 -20v-649q0 -72 56 -92q22 -8 40.5 -12.5t18.5 -22.5q0 -23 -46 -23t-69.5 -4t-39 -8t-27 -8 t-27.5 -4q-29 0 -33 32l-10 123q-159 -147 -330 -147q-106 0 -163.5 70.5t-57.5 195.5v338zM366.5 1001q-22.5 0 -44 -9t-36 -19t-24.5 -19.5t-16 -9.5q-16 0 -17 23q0 4 2 8q74 133 187 133q20 0 94 -28t99.5 -27.5t46 9.5t36 20.5t25.5 20.5t14 9q20 0 21 -16 q0 -16 -11 -27q-70 -123 -170 -123q-17 0 -72 19.5t-83.5 27.5t-51 8z" glyph-name="utilde" horiz-adv-x="1048" unicode="ũ"/><glyph d="M517 1434q42 0 42 -27q0 -18 -23.5 -25.5t-51 -19.5t-50 -33.5t-22.5 -66.5v-783q0 -198 124 -299q106 -86 252 -86q221 0 422 197v971q0 69 -70 93q-26 9 -47.5 14t-21.5 24q0 10 13.5 19t33.5 9l170 -8q49 0 95.5 10.5t88.5 10.5t41 -27q0 -18 -23.5 -25.5t-51 -19.5 t-50 -33.5t-22.5 -66.5v-955q0 -105 16 -136q28 -54 109 -54q49 0 49 -37q0 -25 -53 -24.5t-139 -29.5t-111 -30t-25 22v52q0 44 2 123q-76 -55 -133 -94.5t-140 -76.5t-195.5 -36.5t-195 22t-148.5 78.5q-146 127 -146 408v768q0 69 -70 93q-26 9 -47.5 14t-21.5 24 q0 10 13 19t34 9l170 -8q49 0 95 10.5t88 10.5zM559 1665h526v-100h-526v100z" glyph-name="Umacron" horiz-adv-x="1683" unicode="Ū"/><glyph d="M170 592q0 129 -69.5 129t-69.5 25t39 32l178 37q28 8 43.5 8t15.5 -20v-555q0 -150 172 -150q121 0 242 107v387q0 129 -70 129t-69 27q0 23 39 30l178 37q28 8 43.5 8t15.5 -20v-649q0 -72 56 -92q22 -8 40.5 -12.5t18.5 -22.5q0 -23 -46 -23t-69.5 -4t-39 -8t-27 -8 t-27.5 -4q-29 0 -33 32l-10 123q-159 -147 -330 -147q-106 0 -163.5 70.5t-57.5 195.5v338zM229 1030h527v-100h-527v100z" glyph-name="umacron" horiz-adv-x="1048" unicode="ū"/><glyph d="M517 1434q42 0 42 -27q0 -18 -23.5 -25.5t-51 -19.5t-50 -33.5t-22.5 -66.5v-783q0 -198 124 -299q106 -86 252 -86q221 0 422 197v971q0 69 -70 93q-26 9 -47.5 14t-21.5 24q0 10 13.5 19t33.5 9l170 -8q49 0 95.5 10.5t88.5 10.5t41 -27q0 -18 -23.5 -25.5t-51 -19.5 t-50 -33.5t-22.5 -66.5v-955q0 -105 16 -136q28 -54 109 -54q49 0 49 -37q0 -25 -53 -24.5t-139 -29.5t-111 -30t-25 22v52q0 44 2 123q-76 -55 -133 -94.5t-140 -76.5t-195.5 -36.5t-195 22t-148.5 78.5q-146 127 -146 408v768q0 69 -70 93q-26 9 -47.5 14t-21.5 24 q0 10 13 19t34 9l170 -8q49 0 95 10.5t88 10.5zM1026 1753q0 -89 -58 -139q-58 -49 -141 -49q-131 0 -179 105q-16 36 -17 83h84q2 -57 39 -84t77 -27q41 0 77 27t40 84h78z" glyph-name="Ubreve" horiz-adv-x="1683" unicode="Ŭ"/><glyph d="M170 592q0 129 -69.5 129t-69.5 25t39 32l178 37q28 8 43.5 8t15.5 -20v-555q0 -150 172 -150q121 0 242 107v387q0 129 -70 129t-69 27q0 23 39 30l178 37q28 8 43.5 8t15.5 -20v-649q0 -72 56 -92q22 -8 40.5 -12.5t18.5 -22.5q0 -23 -46 -23t-69.5 -4t-39 -8t-27 -8 t-27.5 -4q-29 0 -33 32l-10 123q-159 -147 -330 -147q-106 0 -163.5 70.5t-57.5 195.5v338zM686 1118q0 -89 -58 -139q-58 -49 -141 -49q-131 0 -179 105q-16 36 -17 83h84q2 -57 39 -83.5t78 -26.5t76.5 26.5t39.5 83.5h78z" glyph-name="ubreve" horiz-adv-x="1048" unicode="ŭ"/><glyph d="M517 1434q42 0 42 -27q0 -18 -23.5 -25.5t-51 -19.5t-50 -33.5t-22.5 -66.5v-783q0 -198 124 -299q106 -86 252 -86q221 0 422 197v971q0 69 -70 93q-26 9 -47.5 14t-21.5 24q0 10 13.5 19t33.5 9l170 -8q49 0 95.5 10.5t88.5 10.5t41 -27q0 -18 -23.5 -25.5t-51 -19.5 t-50 -33.5t-22.5 -66.5v-955q0 -105 16 -136q28 -54 109 -54q49 0 49 -37q0 -25 -53 -24.5t-139 -29.5t-111 -30t-25 22v52q0 44 2 123q-76 -55 -133 -94.5t-140 -76.5t-195.5 -36.5t-195 22t-148.5 78.5q-146 127 -146 408v768q0 69 -70 93q-26 9 -47.5 14t-21.5 24 q0 10 13 19t34 9l170 -8q49 0 95 10.5t88 10.5zM709 1694q0 53 38.5 93t92.5 40q53 0 93 -40t40 -93t-40 -92t-93 -39t-92 39t-39 92zM770 1694q0 -31 19.5 -50.5t50.5 -19.5t50 19.5t19 50.5t-19.5 50t-49.5 19q-31 0 -50.5 -19t-19.5 -50z" glyph-name="Uring" horiz-adv-x="1683" unicode="Ů"/><glyph d="M170 592q0 129 -69.5 129t-69.5 25t39 32l178 37q28 8 43.5 8t15.5 -20v-555q0 -150 172 -150q121 0 242 107v387q0 129 -70 129t-69 27q0 23 39 30l178 37q28 8 43.5 8t15.5 -20v-649q0 -72 56 -92q22 -8 40.5 -12.5t18.5 -22.5q0 -23 -46 -23t-69.5 -4t-39 -8t-27 -8 t-27.5 -4q-29 0 -33 32l-10 123q-159 -147 -330 -147q-106 0 -163.5 70.5t-57.5 195.5v338zM371 1059q0 53 39 93t92 40t93 -40t40 -93t-40 -92t-93 -39t-92 39t-39 92zM432 1059q0 -31 19.5 -50.5t50.5 -19.5t50 19.5t19 50.5t-19.5 50t-49.5 19q-31 0 -50.5 -19t-19.5 -50 z" glyph-name="uring" horiz-adv-x="1048" unicode="ů"/><glyph d="M517 1434q42 0 42 -27q0 -18 -23.5 -25.5t-51 -19.5t-50 -33.5t-22.5 -66.5v-783q0 -198 124 -299q106 -86 252 -86q221 0 422 197v971q0 69 -70 93q-26 9 -47.5 14t-21.5 24q0 10 13.5 19t33.5 9l170 -8q49 0 95.5 10.5t88.5 10.5t41 -27q0 -18 -23.5 -25.5t-51 -19.5 t-50 -33.5t-22.5 -66.5v-955q0 -105 16 -136q28 -54 109 -54q49 0 49 -37q0 -25 -53 -24.5t-139 -29.5t-111 -30t-25 22v52q0 44 2 123q-76 -55 -133 -94.5t-140 -76.5t-195.5 -36.5t-195 22t-148.5 78.5q-146 127 -146 408v768q0 69 -70 93q-26 9 -47.5 14t-21.5 24 q0 10 13 19t34 9l170 -8q49 0 95 10.5t88 10.5zM606 1565l-41 61l295 240l82 -107zM905 1565l-41 61l295 240l82 -107z" glyph-name="Uhungarumlaut" horiz-adv-x="1683" unicode="Ű"/><glyph d="M170 592q0 129 -69.5 129t-69.5 25t39 32l178 37q28 8 43.5 8t15.5 -20v-555q0 -150 172 -150q121 0 242 107v387q0 129 -70 129t-69 27q0 23 39 30l178 37q28 8 43.5 8t15.5 -20v-649q0 -72 56 -92q22 -8 40.5 -12.5t18.5 -22.5q0 -23 -46 -23t-69.5 -4t-39 -8t-27 -8 t-27.5 -4q-29 0 -33 32l-10 123q-159 -147 -330 -147q-106 0 -163.5 70.5t-57.5 195.5v338zM258 930l-41 61l295 240l82 -107zM557 930l-41 61l295 240l82 -107z" glyph-name="uhungarumlaut" horiz-adv-x="1048" unicode="ű"/><glyph d="M1206 -143q0 -88 104 -88q63 0 97 55l29 -25q-16 -47 -66.5 -84t-117.5 -37t-105.5 40t-38.5 96q0 110 104 209v53q0 43 2 117q-76 -55 -133 -94.5t-140 -76.5t-195.5 -36.5t-195 22t-148.5 78.5q-146 127 -146 408v768q0 69 -70 93q-26 9 -47.5 14t-21.5 24q0 10 13 19 t34 9l170 -8q49 0 95 10.5t88 10.5t42 -27q0 -18 -23.5 -25.5t-51 -19.5t-50 -33.5t-22.5 -66.5v-783q0 -198 124 -299q106 -86 252 -86q221 0 422 197v971q0 69 -70 93q-26 9 -47.5 14t-21.5 24q0 10 13.5 19t33.5 9l170 -8q49 0 95.5 10.5t88.5 10.5t41 -27 q0 -18 -23.5 -25.5t-51 -19.5t-50 -33.5t-22.5 -66.5v-955q0 -105 16 -136q28 -54 109 -54q49 0 49 -37q0 -25 -33 -25q-301 0 -301 -198z" glyph-name="Uogonek" horiz-adv-x="1683" unicode="Ų"/><glyph d="M721 592q0 129 -70 129t-69 27q0 23 39 30l178 37q28 8 43.5 8t15.5 -20v-649q0 -72 56 -92q22 -8 40.5 -12.5t18.5 -22.5q0 -23 -69.5 -23t-125 -49t-55.5 -125q0 -35 20.5 -61.5t82 -26.5t98.5 55l28 -24q-16 -47 -66 -84t-117 -37t-105.5 40t-38.5 95q0 110 108 213 q0 2 -1 5t-4 40t-7 90q-159 -147 -330 -147q-106 0 -163.5 70.5t-57.5 195.5v338q0 129 -69.5 129t-69.5 25t39 32l178 37q28 8 43.5 8t15.5 -20v-555q0 -150 172 -150q121 0 242 107v387z" glyph-name="uogonek" horiz-adv-x="1048" unicode="ų"/><glyph d="M1295 1423.5q48 10.5 90 10.5t42 -27q0 -18 -20.5 -24.5t-46.5 -14.5q-66 -21 -66 -72q0 -36 31 -110l399 -963l361 926q41 100 41 133t-26.5 48.5t-58.5 22.5t-58.5 13t-26.5 27q0 10 13 19t32 9l170 -8q55 0 99 10.5t86 10.5t42 -27q0 -18 -18 -25.5t-44 -17.5 q-68 -27 -98 -94l-520 -1272q-16 -31 -31 -31t-26 31l-453 1051l-454 -1051q-16 -31 -29.5 -31t-28.5 31l-512 1241q-4 8 -9 21.5t-11 26.5t-12.5 24.5t-16.5 22.5t-33.5 18.5t-43 12.5t-34 11t-14.5 19q0 26 45 26l189 -8q61 0 108 10.5t89 10.5t42 -27q0 -18 -20.5 -24.5 t-46 -14.5t-46 -22.5t-20.5 -42.5t7.5 -50t23.5 -67l381 -963l397 940l-26 64q-32 81 -49 98.5t-39.5 25t-42 12.5t-34 11t-14.5 19q0 28 45 28l189 -8q59 0 107 10.5zM1188 1835h31l194 -240l-35 -30l-182 149l-166 -149l-37 32z" glyph-name="Wcircumflex" horiz-adv-x="2408" unicode="Ŵ"/><glyph d="M1119 815l149 -12l110 8q37 0 37 -23t-12.5 -29.5t-30.5 -16.5q-54 -28 -84 -89l-293 -620q-20 -49 -34.5 -49t-22.5 14l-229 549l-242 -514q-24 -49 -40 -49q-15 0 -24 14l-307 684q-27 60 -69.5 71t-42.5 31q0 27 53 27l151 -12q35 0 60.5 6t69 6t42.5 -25 q0 -28 -53 -28t-53 -40t25 -89l190 -436l201 446l-19 43q-26 58 -87 66q-60 9 -60 36t43 27l190 -12q33 0 51.5 7t62.5 7t44 -25q0 -16 -15.5 -21t-50 -10.5t-34.5 -24.5q0 -14 26 -79l176 -460l197 438q25 55 25 80t-17.5 32t-37 10t-37 9t-17.5 26q0 27 9 27zM692 1200h31 l195 -239l-35 -31l-183 149l-165 -149l-37 33z" glyph-name="wcircumflex" horiz-adv-x="1415" unicode="ŵ"/><glyph d="M1367 1434q42 0 42 -22t-36 -34t-57.5 -21t-34.5 -26.5t-27.5 -44t-30.5 -51.5l-443 -694v-383q0 -45 21.5 -63.5t47 -28t47.5 -14.5t22 -23q0 -10 -12.5 -19.5t-33.5 -9.5l-170 8q-49 0 -95 -10t-88 -10t-42 26q0 16 22.5 24.5t50.5 20t51.5 33t23.5 66.5v397l-502 768 q-16 24 -54 35.5t-53.5 17.5t-15.5 21q0 25 45 24l172 -8q64 1 123 11t89 10t30 -23q0 -16 -19.5 -22.5t-41.5 -13.5q-62 -19 -62 -56q0 -29 35 -88l377 -582l321 529q37 71 37 103t-21.5 49.5t-48 24.5t-48 13t-21.5 25q0 10 12 19t33 9l170 -8q53 0 98 10.5t87 10.5z M688 1835h31l194 -240l-34 -30l-183 149l-166 -149l-36 32z" glyph-name="Ycircumflex" horiz-adv-x="1409" unicode="Ŷ"/><glyph d="M748 803l87 7q87 7 87 -13t-13.5 -29.5t-36.5 -19.5q-48 -21 -96 -130l-401 -935q-14 -33 -27.5 -66t-31.5 -75t-17.5 -67t-34.5 -39t-131 -14q-47 0 -47 31q0 19 43 58t92 110.5t109 188.5q60 118 88 194l-330 680q-6 12 -19.5 36.5t-41.5 31.5q-43 9 -43 35t41 26 l155 -12q33 0 57.5 6t69.5 6t45 -25.5t-56 -25.5t-56 -45q0 -32 30 -92l222 -453l184 416q35 79 35 135q-1 24 -53 32q-20 3 -36 9t-16 24q0 27 8 27zM467 1200h31l194 -239l-35 -31l-182 149l-166 -149l-37 33z" glyph-name="ycircumflex" horiz-adv-x="921" unicode="ŷ"/><glyph d="M1367 1434q42 0 42 -22t-36 -34t-57.5 -21t-34.5 -26.5t-27.5 -44t-30.5 -51.5l-443 -694v-383q0 -45 21.5 -63.5t47 -28t47.5 -14.5t22 -23q0 -10 -12.5 -19.5t-33.5 -9.5l-170 8q-49 0 -95 -10t-88 -10t-42 26q0 16 22.5 24.5t50.5 20t51.5 33t23.5 66.5v397l-502 768 q-16 24 -54 35.5t-53.5 17.5t-15.5 21q0 25 45 24l172 -8q64 1 123 11t89 10t30 -23q0 -16 -19.5 -22.5t-41.5 -13.5q-62 -19 -62 -56q0 -29 35 -88l377 -582l321 529q37 71 37 103t-21.5 49.5t-48 24.5t-48 13t-21.5 25q0 10 12 19t33 9l170 -8q53 0 98 10.5t87 10.5z M750 1690l110 125l115 -125l-115 -123zM557 1565l-115 123l115 124l113 -124z" glyph-name="Ydieresis" horiz-adv-x="1409" unicode="Ÿ"/><glyph d="M129 0q-37 0 -37 23q0 16 23 40l993 1262h-518q-307 0 -348 -84t-50.5 -87t-19.5 -3t-18.5 9t-8.5 18.5t5 17.5l98 238q12 35 39 34q6 0 39.5 -24.5t74.5 -24.5h906q43 0 43 -16q0 -10 -17 -27l-1018 -1282h414q143 0 236.5 4t153 26.5t96 74t65.5 143.5q6 16 33 16 q45 0 45 -39q0 -50 -27.5 -123t-37 -110t-22.5 -80t-36 -43q-16 0 -51.5 18.5t-85.5 18.5h-969zM815 1813q23 4 63 4t91 -33l-252 -219h-53l116 221q12 23 35 27z" glyph-name="Zacute" horiz-adv-x="1449" unicode="Ź"/><glyph d="M82 -4q-62 0 -62 16.5t7.5 28.5t46.5 53l538 586h-311q-78 0 -110.5 -5t-50.5 -23l-28 -28q-10 -10 -20 -10q-23 0 -22 21q0 16 12 39l72 135q74 -21 163 -21h424q25 0 25 -18t-45 -67.5t-88 -96.5l-457 -497h305q86 0 139.5 9t75.5 40.5t36 31.5q28 -1 28 -24 q0 -4 -13.5 -40.5t-32 -88t-50.5 -51.5q-12 0 -82 7t-187 7l-169 -2zM504.5 1176q23.5 6 64.5 6t90 -33l-251 -219h-54l111 211q16 29 39.5 35z" glyph-name="zacute" horiz-adv-x="813" unicode="ź"/><glyph d="M129 0q-37 0 -37 23q0 16 23 40l993 1262h-518q-307 0 -348 -84t-50.5 -87t-19.5 -3t-18.5 9t-8.5 18.5t5 17.5l98 238q12 35 39 34q6 0 39.5 -24.5t74.5 -24.5h906q43 0 43 -16q0 -10 -17 -27l-1018 -1282h414q143 0 236.5 4t153 26.5t96 74t65.5 143.5q6 16 33 16 q45 0 45 -39q0 -50 -27.5 -123t-37 -110t-22.5 -80t-36 -43q-16 0 -51.5 18.5t-85.5 18.5h-969zM723 1569q-35 0 -57.5 23.5t-22.5 58.5t22.5 58.5t57.5 23.5t59.5 -22.5t24.5 -57.5t-24.5 -59.5t-59.5 -24.5z" glyph-name="Zdotaccent" horiz-adv-x="1449" unicode="Ż"/><glyph d="M82 -4q-62 0 -62 16.5t7.5 28.5t46.5 53l538 586h-311q-78 0 -110.5 -5t-50.5 -23l-28 -28q-10 -10 -20 -10q-23 0 -22 21q0 16 12 39l72 135q74 -21 163 -21h424q25 0 25 -18t-45 -67.5t-88 -96.5l-457 -497h305q86 0 139.5 9t75.5 40.5t36 31.5q28 -1 28 -24 q0 -4 -13.5 -40.5t-32 -88t-50.5 -51.5q-12 0 -82 7t-187 7l-169 -2zM436 934q-35 0 -57.5 23.5t-22.5 58.5t22.5 58.5t57.5 23.5t59.5 -22.5t24.5 -57.5t-24.5 -59.5t-59.5 -24.5z" glyph-name="zdotaccent" horiz-adv-x="813" unicode="ż"/><glyph d="M129 0q-37 0 -37 23q0 16 23 40l993 1262h-518q-307 0 -348 -84t-50.5 -87t-19.5 -3t-18.5 9t-8.5 18.5t5 17.5l98 238q12 35 39 34q6 0 39.5 -24.5t74.5 -24.5h906q43 0 43 -16q0 -10 -17 -27l-1018 -1282h414q143 0 236.5 4t153 26.5t96 74t65.5 143.5q6 16 33 16 q45 0 45 -39q0 -50 -27.5 -123t-37 -110t-22.5 -80t-36 -43q-16 0 -51.5 18.5t-85.5 18.5h-969zM741 1565h-34l-234 333h66l186 -184l182 184h68z" glyph-name="Zcaron" horiz-adv-x="1449" unicode="Ž"/><glyph d="M82 -4q-62 0 -62 16.5t7.5 28.5t46.5 53l538 586h-311q-78 0 -110.5 -5t-50.5 -23l-28 -28q-10 -10 -20 -10q-23 0 -22 21q0 16 12 39l72 135q74 -21 163 -21h424q25 0 25 -18t-45 -67.5t-88 -96.5l-457 -497h305q86 0 139.5 9t75.5 40.5t36 31.5q28 -1 28 -24 q0 -4 -13.5 -40.5t-32 -88t-50.5 -51.5q-12 0 -82 7t-187 7l-169 -2zM442 930h-34l-234 334h66l186 -185l182 185h68z" glyph-name="zcaron" horiz-adv-x="813" unicode="ž"/><glyph d="M94 -12q-39 0 -39 26q0 16 21.5 23.5t48.5 19t48.5 32t21.5 63.5v962q0 147 101 263t282 116q104 -1 178 -63q18 -16 18 -26t-42 -58t-55 -48t-63 56.5t-118 56.5t-116 -72t-48 -223v-964q0 -43 25.5 -60.5t57 -27t57.5 -14.5t26 -23q0 -10 -10.5 -18.5t-28.5 -8.5 l-195 14q-47 0 -89 -13t-81 -13z" glyph-name="longs" horiz-adv-x="555" unicode="ſ"/><glyph d="M819 729h-82l-147 -928q-42 -253 -232 -339q-68 -30 -149.5 -30.5t-135 27t-53.5 65.5t19.5 66.5t51 28.5t56.5 -15.5t74 -47.5t91 -32.5t78 65.5t59 216l147 924h-76l88 80l47 305q22 153 144 266t305 113q61 0 121 -31q61 -31 61 -57q0 -25 -78 -95q-18 -16 -28 -16 t-56 58.5t-127 58.5q-58 0 -117 -76t-81 -219l-49 -307h163q63 0 64 -29q0 -29 -16.5 -51t-26.5 -22q-22 22 -115 22z" glyph-name="florin" horiz-adv-x="1306" unicode="ƒ"/><glyph d="M1657 1008q39 0 39 -54.5t-11.5 -98.5t-11.5 -94t11.5 -102.5t11.5 -97.5t-33 -45t-33 67t-66 101q-48 25 -175 25h-246v-541q0 -53 31 -74h243q212 0 293.5 34t120.5 87t39 143q0 16 13 24.5t28 8.5q37 0 37 -54.5t-31 -173.5t-31 -163q0 -18 -19 -18t-43 9t-79 9h-875 q-14 0 -22 9t-8 20q0 16 22 23.5t50 19.5q74 31 75 98v242h-483l-148 -203q-32 -41 -32 -74t24.5 -47t53 -21.5t53 -13.5t24.5 -24q0 -10 -20.5 -19.5t-42.5 -9.5l-172 8q-53 0 -100.5 -10t-90.5 -10t-43 21t16 29l40 20q74 35 112 92l783 1087q10 25 10 55.5t-19.5 49 t-42 26.5t-42 13t-19.5 19.5t13 24t32 9.5h698q155 0 185 12t45.5 12t19.5 -12l21 -266q2 -14 -6.5 -28.5t-18.5 -14.5q-37 0 -43 24q-19 110 -84 144q-64 34 -250 34h-282q-35 -31 -35 -75v-455h246q123 1 160 19q73 36 73 137q0 43 35 43zM987 512v573l-412 -573h412z M1460 1790q23 4 64 4t90 -33l-252 -219h-53l116 221q12 23 35 27z" glyph-name="AEacute" horiz-adv-x="2080" unicode="Ǽ"/><glyph d="M122.5 629q-20.5 0 -20.5 20t11 29q78 72 156.5 105.5t176.5 33.5q157 0 207 -112q99 112 273 112q125 -1 216 -75q43 -35 87 -101q28 -6 28 -40t-38 -46l-529 -184q27 -123 107 -197t223 -74q50 0 102 28t70 46t31 19q37 0 37 -39q0 -12 -27 -40t-71 -56 q-113 -71 -219.5 -70.5t-193.5 49.5t-143 139q-142 -188 -338 -188q-104 0 -158.5 43t-54.5 135.5t119 167.5q87 54 369 147v101q0 135 -181 135q-81 -1 -152 -45q-28 -18 -47.5 -30.5t-40 -12.5zM213 173q0 -105 127 -105q57 0 113 27t135 116q-47 92 -47 203 q-224 -67 -288 -137q-40 -44 -40 -104zM680 479q0 -12 1 -24.5t1 -24.5l395 154q0 45 -40 82q-76 69 -168 69t-138.5 -60.5t-50.5 -158.5v-37zM744.5 1176q23.5 6 63.5 6t91 -33l-252 -219h-53l111 211q16 29 39.5 35z" glyph-name="aeacute" horiz-adv-x="1310" unicode="ǽ"/><glyph d="M1587 702q0 -308 -206 -512t-525 -204q-249 0 -444 149l-123 -125q-16 -16 -40.5 -16t-41.5 15.5t-17 39.5t19 39l119 121q-96 98 -150.5 231t-54.5 361t205 437q205 208 509.5 208t518.5 -199l110 111q16 16 38 16t40.5 -18.5t18.5 -40t-19 -39.5l-112 -113 q155 -205 155 -461zM1239 1128q-178 209 -438 209q-261 0 -405 -180q-116 -144 -115 -334q0 -133 44 -262t121 -233zM881 96q266 0 408 149q141 149 141 365t-125 424l-783 -788q154 -150 359 -150zM923.5 1813q22.5 4 63.5 4t90 -33l-252 -219h-53l117 221q12 23 34.5 27z " glyph-name="Oslashacute" horiz-adv-x="1710" unicode="Ǿ"/><glyph d="M799 674q102 -106 102 -270q0 -163 -122 -289q-122 -127 -286 -127t-286 94l-82 -82q-18 -18 -35.5 -18t-31 11t-13.5 27.5t18 34.5l84 84q-90 108 -90 248q0 192 130 311t279.5 119t270.5 -88l88 88q17 17 32 17t27.5 -13t12.5 -31t-14 -32zM762 358q0 113 -64 215 l-397 -397q89 -102 213 -102q168 0 230 172q18 51 18 112zM647 639q-92 92 -201 92t-179 -80t-70 -196q0 -115 55 -211zM547.5 1176q23.5 6 64.5 6t90 -33l-251 -219h-54l111 211q16 29 39.5 35z" glyph-name="oslashacute" horiz-adv-x="966" unicode="ǿ"/><glyph d="M569 1358q-266 0 -266 -228q1 -126 265 -250q104 -48 213.5 -113t161.5 -117q114 -114 114 -272t-120 -275t-325 -117q-133 0 -309 78q-33 14 -49 14t-20.5 -13.5t-11.5 -29.5t-22 -15.5t-27.5 13t-12.5 35t-9.5 70.5t-19.5 93t-19.5 80t-9.5 56.5t14.5 35t28.5 13.5 t20.5 -17.5t22.5 -72.5t39 -86q119 -166 389 -166q125 0 208 83t83 210q0 92 -98 180t-220 147.5t-278.5 145t-156.5 282.5q0 139 113 232q113 92 265 92q66 0 170.5 -28.5t123.5 -28.5t30 22q3 6 18.5 6t28 -12t12.5 -36t5.5 -61.5t10.5 -71.5t10 -59.5t5 -47t-20.5 -35 t-24.5 -13.5q-12 0 -18 16.5t-22 68.5t-46.5 89t-106.5 70q-77 33 -139 33zM573 -320.5q0 37.5 -61 105.5l106 117l107 -117q-127 -204 -184 -264q-10 -14 -25 -15q-16 0 -16 21q0 10 6 20q67 95 67 132.5z" glyph-name="Scommaaccent" horiz-adv-x="1159" unicode="Ș"/><glyph d="M324 752q-107 0 -107 -86q0 -33 33 -60.5t82 -54.5t189.5 -100.5t140.5 -214.5q0 -164 -164 -228q-54 -20 -125 -20t-127 26q-57 27 -71.5 27.5t-30.5 -21.5q-16 -21 -29 -22q-33 0 -33 43l4 78q0 47 -7 67.5t-7 36.5t9 23.5t18 7.5t17.5 -12t17.5 -36t38 -60.5t87 -61.5 t129 -25t116 43t45 86.5t-33 76t-83 61t-190.5 99.5t-140.5 196t129 177q45 18 94.5 18.5t74 -6.5t43 -16.5t29.5 -16.5t24.5 -7t23.5 6t17.5 12.5t12.5 12.5t11 6q25 0 25 -43l-2 -62l8 -53q0 -53 -25 -53q-14 0 -20 14q-86 142 -223 142zM348 -326q0 36 -61 107l106 117 l107 -117q-125 -201 -185 -264q-10 -14 -24 -15q-16 0 -17 21q1 10 7 20q67 95 67 131z" glyph-name="scommaaccent" horiz-adv-x="702" unicode="ș"/><glyph d="M195 592q0 129 -70 129t-70 25t39 32l178 37q28 8 43.5 8t16.5 -20v-826q0 -316 -176 -481q-37 -37 -64 -37q-31 0 -31 25q0 14 35 45q99 74 99 459v604z" glyph-name="uni0237" horiz-adv-x="450" unicode="ȷ"/><glyph d="M279 1200h30l195 -239l-35 -31l-182 149l-166 -149l-37 33z" glyph-name="circumflex" horiz-adv-x="557" unicode="ˆ"/><glyph d="M311 930h-35l-233 334h66l186 -185l182 185h68z" glyph-name="caron" horiz-adv-x="497" unicode="ˇ"/><glyph d="M463 1118q0 -89 -58 -139q-58 -49 -141 -49q-133 0 -180 105q-16 36 -16 83h84q2 -57 38.5 -83.5t77.5 -26.5t77 26.5t40 83.5h78z" glyph-name="breve" horiz-adv-x="497" unicode="˘"/><glyph d="M150 934q-35 0 -57.5 23.5t-22.5 58.5t22.5 58.5t57.5 23.5t59 -22.5t24 -57.5t-24 -59.5t-59 -24.5z" glyph-name="dotaccent" horiz-adv-x="303" unicode="˙"/><glyph d="M223 1059q0 53 39 93t92 40t93 -40t40 -93t-39.5 -92t-93.5 -39q-53 0 -92 39t-39 92zM285 1059q0 -31 19.5 -50.5t49.5 -19.5q31 0 50.5 19.5t19.5 50.5t-19.5 50t-50.5 19t-50 -19t-19 -50z" glyph-name="ring" horiz-adv-x="702" unicode="˚"/><glyph d="M522.5 -258q61.5 0 98.5 55l28 -24q-16 -47 -66.5 -84t-117 -37t-105 40t-38.5 106t53 139t125 124l43 -30q-123 -84 -123 -201q0 -35 20.5 -61.5t82 -26.5z" glyph-name="ogonek" horiz-adv-x="976" unicode="˛"/><glyph d="M179.5 1001q-22.5 0 -43.5 -9t-35.5 -19t-24.5 -19.5t-17 -9.5q-16 0 -16 23q0 4 2 8q74 133 186 133q23 0 95 -28q73 -28 99 -27.5t46.5 9.5t35.5 20.5t25.5 20.5t14.5 9q20 0 20 -16t-10 -27q-70 -123 -170 -123q-17 0 -72 19.5t-84 27.5t-51.5 8z" glyph-name="tilde" horiz-adv-x="575" unicode="˜"/><glyph d="M139 930l-41 61l295 240l82 -107zM438 930l-41 61l295 240l82 -107z" glyph-name="hungarumlaut" horiz-adv-x="784" unicode="˝"/><glyph d="M877 821q63 0 63 -27.5t-17.5 -45t-69.5 -17.5t-65.5 -31.5t-45.5 -219.5t-31 -339q0 -45 51 -45t99 46q9 8 13 8q35 0 39 -25q0 -12 -6 -21q-70 -72 -141.5 -97t-118.5 -25t-74.5 30t-27.5 76t6 70l78 571h-320l-100 -698l-156 -49l105 747q-33 0 -64 -8l-46 -12 q-16 -4 -39.5 -4t-35.5 13t-12 33t21.5 40t62.5 20h707z" glyph-name="pi" unicode="π"/><glyph d="M816 1436q150 0 273 -96t123 -224.5t-70.5 -200t-174.5 -100.5q168 -41 271 -144t103 -253t-51 -231t-131 -126q-130 -73 -377 -73q-117 0 -208 10t-160.5 10t-115.5 -10t-87 -10t-41 26q0 18 22.5 25.5t50 19t51 33t23.5 68.5v1102q1 69 -69 93q-26 9 -48 14t-22 24 q0 10 13.5 18t29.5 8l174 -6q79 -1 175 11t246 12zM784.5 76q184.5 0 293.5 98q83 75 83 230t-115 258q-115 102 -305 102h-268v-666q127 -22 311.5 -22zM701.5 1348q-82.5 0 -228.5 -17v-487h150q184 0 256.5 28.5t114.5 81t42 139.5t-26.5 134t-69.5 73.5t-99.5 37 t-139 10.5zM694 1569q-35 0 -57.5 23.5t-22.5 58.5t22.5 58.5t57.5 23.5t59.5 -22.5t24.5 -57.5t-24.5 -59.5t-59.5 -24.5z" glyph-name="uni1E02" horiz-adv-x="1474" unicode="Ḃ"/><glyph d="M125 37q0 22 4 52t4 104v1069q1 92 -69 120q-26 10 -48 14.5t-22 20.5q0 24 39 31l170 37q39 8 49 8q27 0 27 -27l-9 -204v-543q120 98 256 98q176 0 306 -106q131 -106 131 -292q0 -185 -127 -308t-308 -123q-113 0 -177 30q-63 30 -87.5 30t-44.5 -24t-57 -24t-37 37z M823 348q0 146 -93 264t-234 118.5t-226 -99.5v-441q79 -133 293 -133q116 0 188 81q72 82 72 210zM604 1067q-35 0 -57.5 23.5t-22.5 58.5t22.5 58.5t57.5 23.5t59.5 -22.5t24.5 -57.5t-24.5 -59.5t-59.5 -24.5z" glyph-name="uni1E03" horiz-adv-x="1028" unicode="ḃ"/><glyph d="M807.5 1436q150.5 0 283 -47.5t237 -137.5t168 -219t63.5 -372t-208 -457q-208 -215 -575 -215q-72 0 -206 10t-181 10t-91 -10t-86 -10t-42 26q0 16 22 24t50 20q74 31 75 102v1102q1 69 -69 93q-26 9 -48 14t-22 24q0 10 14.5 19t32.5 9l172 -8q50 -1 155 11t255.5 12z M757 76q148 0 269 52t199 141q153 175 153 456q0 282 -161 452q-161 171 -420 171h-76q-143 0 -248 -17v-1233q136 -22 284 -22zM807 1569q-35 0 -57.5 23.5t-22.5 58.5t22.5 58.5t57.5 23.5t59.5 -22.5t24.5 -57.5t-24.5 -59.5t-59.5 -24.5z" glyph-name="uni1E0A" horiz-adv-x="1701" unicode="Ḋ"/><glyph d="M733 121q-128 -133 -281.5 -133t-273.5 109q-121 109 -121 297t130 306q130 117 283.5 117t264.5 -51v496q1 92 -69 120q-26 10 -48 14.5t-22 20.5q0 24 39 31l170 37q39 8 49 8q27 0 27 -27l-9 -204v-1115q0 -43 17.5 -59t39 -23.5t40 -13.5t18.5 -26q-1 -20 -157 -39 q-34 -4 -48 -4q-35 0 -37 30zM735 594q-90 149 -240.5 149t-224 -75.5t-73.5 -213.5t89 -259t226 -121t223 123v397zM354 1067q-35 0 -57.5 23.5t-22.5 58.5t22.5 58.5t57.5 23.5t59.5 -22.5t24.5 -57.5t-24.5 -59.5t-59.5 -24.5z" glyph-name="uni1E0B" horiz-adv-x="1058" unicode="ḋ"/><glyph d="M212 -12q-42 0 -42 26q0 16 22.5 24.5t50 20t51 33t23.5 66.5v1116q1 68 -67 93q-24 9 -46 14t-22 24q0 10 11.5 19.5t31.5 9.5h889q41 0 75 11t61.5 11t29.5 -29l14 -251q2 -16 -6 -26.5t-18 -10.5q-34 0 -41 28q-12 57 -31.5 91t-67.5 58t-237 23h-387q-33 -28 -33 -75 v-455h334q125 1 162 19q71 36 71 137q0 23 11.5 33t25.5 10t24.5 -10.5t10.5 -54.5t-9 -89t-9 -95t10 -101.5t10 -97.5t-32.5 -46t-32 68t-59.5 97q-60 30 -183 30h-334v-551q0 -45 25.5 -63.5t56.5 -28t56.5 -14.5t25.5 -23q0 -10 -12.5 -19.5t-32.5 -9.5l-197 8 q-49 0 -95 -10t-88 -10zM788 1569q-35 0 -57 23.5t-22 58.5t22.5 58.5t56.5 23.5q35 0 59.5 -22.5t24.5 -57.5t-24.5 -59.5t-59.5 -24.5z" glyph-name="uni1E1E" horiz-adv-x="1398" unicode="Ḟ"/><glyph d="M94 -12q-39 0 -39 26q0 16 21.5 23.5t48.5 19t48.5 32t21.5 63.5v587h-76l76 74v301q0 147 101 263t282 116q104 -1 178 -63q18 -16 18 -35t-32 -55q-32 -37 -49 -37t-65.5 60t-133.5 60q-57 0 -109 -77q-53 -77 -53 -230v-303h174q37 0 50 -5t13 -29t-16 -43t-27 -19 q-22 22 -114 22h-80v-587q0 -43 25.5 -60.5t57 -27t57.5 -14.5t26 -23q0 -10 -10.5 -18.5t-28.5 -8.5l-195 14q-47 0 -89 -13t-81 -13zM510 1593q-35 0 -57.5 23.5t-22.5 58.5t22.5 58.5t57.5 23.5t59.5 -22.5t24.5 -57.5t-24.5 -59.5t-59.5 -24.5z" glyph-name="uni1E1F" horiz-adv-x="593" unicode="ḟ"/><glyph d="M1457 -12q-40 0 -40 26q0 16 24.5 24.5t54.5 21t54.5 35t24.5 69.5v1106l-522 -1235q-16 -31 -30.5 -31t-27.5 31l-612 1212v-1093q0 -49 30.5 -67.5t67.5 -25t68 -10.5t31 -22q0 -10 -13.5 -19.5t-31.5 -9.5l-170 8q-47 0 -94.5 -10t-89.5 -10t-42 26q0 16 22.5 24.5 t50.5 21t51.5 33t23.5 61.5v1118q-4 41 -31 59.5t-58.5 26.5t-57 13t-25.5 24q0 10 12 19t33 9l278 -8q43 0 91.5 10.5t121.5 10.5q37 0 37 -27q0 -16 -21 -23.5t-45 -14.5q-66 -19 -65 -71q0 -25 4 -45t29 -67l467 -922l397 965q33 80 33 96t-17.5 24.5t-38 12.5t-38 10 t-17.5 18.5t13.5 21.5t33.5 9l170 -8l242 21q35 0 35 -27q0 -16 -22 -24.5t-48 -20.5q-70 -31 -69 -94v-1110q0 -45 20.5 -64.5t45 -29t45 -14.5t20.5 -23q0 -10 -11.5 -19.5t-31.5 -9.5l-179 6q-49 0 -96 -9t-87 -9zM1040 1516q-35 0 -57 23.5t-22 57.5q0 35 22.5 58.5 t56.5 23.5q35 0 59.5 -22.5t24.5 -57.5t-24.5 -59t-59.5 -24z" glyph-name="uni1E40" horiz-adv-x="2048" unicode="Ṁ"/><glyph d="M1006 27q0 -27 -40 -27t-73 7t-79 7t-88 -13t-81 -13t-39 26q0 16 21.5 23.5t48 19t48 32t21.5 63.5v366q0 100 -46 146.5t-143 46.5t-179 -70q-29 -25 -45 -61v-428q0 -64 64 -88q24 -8 44.5 -13.5t20.5 -23.5q0 -10 -10.5 -18.5t-28.5 -8.5l-158 14q-47 0 -89 -13 t-81 -13t-39 26q0 16 21.5 23.5t48.5 19t48.5 32t21.5 63.5v440q0 129 -70 129t-70 25t39 32l178 37q28 8 43.5 8t16.5 -20v-135q68 98 219 137q47 12 94 12q98 0 156.5 -42t79.5 -109q44 60 134 105q89 46 200.5 46t167 -64.5t55.5 -179.5v-421q0 -64 64 -88 q24 -8 44.5 -13.5t20.5 -23.5q0 -10 -10.5 -18.5t-28.5 -8.5l-158 14q-47 0 -89 -13t-81 -13t-39 26q0 16 21.5 23.5t48 19t48 32t21.5 63.5v362q0 197 -161 197q-123 -1 -204 -65q-32 -26 -52 -66v-428q-1 -64 61 -88q22 -8 42 -13.5t20 -23.5zM811 934q-35 0 -57.5 23.5 t-22.5 58.5t22.5 58.5t57.5 23.5t59.5 -22.5t24.5 -57.5t-24.5 -59.5t-59.5 -24.5z" glyph-name="uni1E41" horiz-adv-x="1628" unicode="ṁ"/><glyph d="M811 1436q139 0 297 -146t158 -349t-145 -361t-353 -158q-165 0 -295 51v-313q0 -45 31 -64.5t66.5 -29t66.5 -14.5t31 -23q0 -10 -13.5 -19.5t-33.5 -9.5l-226 8q-47 0 -94 -10t-89 -10t-42 26q0 16 22 24t50 20q74 31 75 102v1102q1 69 -69 93q-26 9 -48 14t-22 24 q0 10 13.5 19t33.5 9l170 -8q113 -1 195 11t221 12zM680 1352q-104 0 -207 -27v-741q39 -74 236 -74q157 0 267 120q111 120 111 324q0 158 -111 278t-296 120zM717 1569q-35 0 -57.5 23.5t-22.5 58.5t22.5 58.5t57.5 23.5t59.5 -22.5t24.5 -57.5t-24.5 -59.5t-59.5 -24.5z " glyph-name="uni1E56" horiz-adv-x="1368" unicode="Ṗ"/><glyph d="M186 592q0 129 -69.5 129t-69.5 25t39 32l178 37q28 8 43.5 8t16.5 -20v-113q41 47 117.5 87t209.5 40.5t249 -105.5t116 -303t-134 -309t-294.5 -112t-263.5 69v-411q0 -59 23.5 -79t53 -25t53 -5t23.5 -20q0 -27 -52.5 -27t-110.5 -11t-102 -23.5t-72.5 -24 t-33.5 -11.5q-35 0 -34 27q0 18 42.5 33.5t57 38t14.5 69.5v1004zM625.5 57q107.5 0 179.5 87t72 230q0 144 -86 250q-86 107 -207 107q-78 0 -147.5 -33.5t-112.5 -91.5v-418q39 -66 116.5 -98.5t185 -32.5zM596 934q-35 0 -57.5 23.5t-22.5 58.5t22.5 58.5t57.5 23.5 t59.5 -22.5t24.5 -57.5t-24.5 -59.5t-59.5 -24.5z" glyph-name="uni1E57" horiz-adv-x="1073" unicode="ṗ"/><glyph d="M569 1358q-266 0 -266 -228q1 -126 265 -250q104 -48 213.5 -113t161.5 -117q114 -114 114 -272t-120 -275t-325 -117q-133 0 -309 78q-33 14 -49 14t-20.5 -13.5t-11.5 -29.5t-22 -15.5t-27.5 13t-12.5 35t-9.5 70.5t-19.5 93t-19.5 80t-9.5 56.5t14.5 35t28.5 13.5 t20.5 -17.5t22.5 -72.5t39 -86q119 -166 389 -166q125 0 208 83t83 210q0 92 -98 180t-220 147.5t-278.5 145t-156.5 282.5q0 139 113 232q113 92 265 92q66 0 170.5 -28.5t123.5 -28.5t30 22q3 6 18.5 6t28 -12t12.5 -36t5.5 -61.5t10.5 -71.5t10 -59.5t5 -47t-20.5 -35 t-24.5 -13.5q-12 0 -18 16.5t-22 68.5t-46.5 89t-106.5 70q-77 33 -139 33zM553 1569q-35 0 -57.5 23.5t-22.5 58.5t22.5 58.5t57.5 23.5t59.5 -22.5t24.5 -57.5t-24.5 -59.5t-59.5 -24.5z" glyph-name="uni1E60" horiz-adv-x="1159" unicode="Ṡ"/><glyph d="M324 752q-107 0 -107 -86q0 -33 33 -60.5t82 -54.5t189.5 -100.5t140.5 -214.5q0 -164 -164 -228q-54 -20 -125 -20t-127 26q-57 27 -71.5 27.5t-30.5 -21.5q-16 -21 -29 -22q-33 0 -33 43l4 78q0 47 -7 67.5t-7 36.5t9 23.5t18 7.5t17.5 -12t17.5 -36t38 -60.5t87 -61.5 t129 -25t116 43t45 86.5t-33 76t-83 61t-190.5 99.5t-140.5 196t129 177q45 18 94.5 18.5t74 -6.5t43 -16.5t29.5 -16.5t24.5 -7t23.5 6t17.5 12.5t12.5 12.5t11 6q25 0 25 -43l-2 -62l8 -53q0 -53 -25 -53q-14 0 -20 14q-86 142 -223 142zM334 934q-35 0 -57.5 23.5 t-22.5 58.5t22.5 58.5t57.5 23.5t59.5 -22.5t24.5 -57.5t-24.5 -59.5t-59.5 -24.5z" glyph-name="uni1E61" horiz-adv-x="702" unicode="ṡ"/><glyph d="M176 1427h903q23 1 53 15t46 14q44 0 17 -107q-26 -107 -26 -190q0 -18 -14 -30.5t-20 -12.5q-23 0 -30 68.5t-47 108.5t-161 40h-217v-1175q0 -45 26.5 -64.5t57.5 -28t57.5 -13.5t26.5 -23q0 -10 -12.5 -19.5t-32.5 -9.5l-201 8q-55 0 -98 -10t-85 -10t-42 26 q0 16 22.5 24.5t50 20t51 33t23.5 66.5v1175h-194q-121 0 -163 -25.5t-63.5 -58t-36 -72t-34.5 -38.5q-10 0 -21.5 10t-11.5 27l2 26l59 248q50 -23 115 -23zM600 1569q-35 0 -57.5 23.5t-22.5 58.5t22.5 58.5t57.5 23.5t59.5 -22.5t24.5 -57.5t-24.5 -59.5t-59.5 -24.5z " glyph-name="uni1E6A" horiz-adv-x="1204" unicode="Ṫ"/><glyph d="M414 739h-123v-497q0 -74 29.5 -112t101.5 -38q32 0 86 36t67 36q20 0 21 -23q0 -10 -4 -16q-89 -137 -246 -137q-116 0 -170 92q-22 37 -22 96v563q-47 0 -61.5 3t-14.5 12.5t15.5 24t35.5 34.5l107 107q12 12 26 12q29 0 29 -35v-84h219q72 0 72 -29q0 -48 -43 -69 q-32 24 -125 24zM236 1026q-35 0 -57.5 23.5t-22.5 58.5t22.5 58.5t57.5 23.5t59 -22.5t24 -57.5t-24 -59.5t-59 -24.5z" glyph-name="uni1E6B" horiz-adv-x="606" unicode="ṫ"/><glyph d="M1295 1423.5q48 10.5 90 10.5t42 -27q0 -18 -20.5 -24.5t-46.5 -14.5q-66 -21 -66 -72q0 -36 31 -110l399 -963l361 926q41 100 41 133t-26.5 48.5t-58.5 22.5t-58.5 13t-26.5 27q0 10 13 19t32 9l170 -8q55 0 99 10.5t86 10.5t42 -27q0 -18 -18 -25.5t-44 -17.5 q-68 -27 -98 -94l-520 -1272q-16 -31 -31 -31t-26 31l-453 1051l-454 -1051q-16 -31 -29.5 -31t-28.5 31l-512 1241q-4 8 -9 21.5t-11 26.5t-12.5 24.5t-16.5 22.5t-33.5 18.5t-43 12.5t-34 11t-14.5 19q0 26 45 26l189 -8q61 0 108 10.5t89 10.5t42 -27q0 -18 -20.5 -24.5 t-46 -14.5t-46 -22.5t-20.5 -42.5t7.5 -50t23.5 -67l381 -963l397 940l-26 64q-32 81 -49 98.5t-39.5 25t-42 12.5t-34 11t-14.5 19q0 28 45 28l189 -8q59 0 107 10.5zM1143.5 1817q58.5 0 77.5 -31l116 -221h-53l-254 219q55 33 113.5 33z" glyph-name="Wgrave" horiz-adv-x="2408" unicode="Ẁ"/><glyph d="M1119 815l149 -12l110 8q37 0 37 -23t-12.5 -29.5t-30.5 -16.5q-54 -28 -84 -89l-293 -620q-20 -49 -34.5 -49t-22.5 14l-229 549l-242 -514q-24 -49 -40 -49q-15 0 -24 14l-307 684q-27 60 -69.5 71t-42.5 31q0 27 53 27l151 -12q35 0 60.5 6t69 6t42.5 -25 q0 -28 -53 -28t-53 -40t25 -89l190 -436l201 446l-19 43q-26 58 -87 66q-60 9 -60 36t43 27l190 -12q33 0 51.5 7t62.5 7t44 -25q0 -16 -15.5 -21t-50 -10.5t-34.5 -24.5q0 -14 26 -79l176 -460l197 438q25 55 25 80t-17.5 32t-37 10t-37 9t-17.5 26q0 27 9 27zM607.5 1182 q60.5 0 80.5 -41l111 -211h-54l-253 219q55 33 115.5 33z" glyph-name="wgrave" horiz-adv-x="1415" unicode="ẁ"/><glyph d="M1295 1423.5q48 10.5 90 10.5t42 -27q0 -18 -20.5 -24.5t-46.5 -14.5q-66 -21 -66 -72q0 -36 31 -110l399 -963l361 926q41 100 41 133t-26.5 48.5t-58.5 22.5t-58.5 13t-26.5 27q0 10 13 19t32 9l170 -8q55 0 99 10.5t86 10.5t42 -27q0 -18 -18 -25.5t-44 -17.5 q-68 -27 -98 -94l-520 -1272q-16 -31 -31 -31t-26 31l-453 1051l-454 -1051q-16 -31 -29.5 -31t-28.5 31l-512 1241q-4 8 -9 21.5t-11 26.5t-12.5 24.5t-16.5 22.5t-33.5 18.5t-43 12.5t-34 11t-14.5 19q0 26 45 26l189 -8q61 0 108 10.5t89 10.5t42 -27q0 -18 -20.5 -24.5 t-46 -14.5t-46 -22.5t-20.5 -42.5t7.5 -50t23.5 -67l381 -963l397 940l-26 64q-32 81 -49 98.5t-39.5 25t-42 12.5t-34 11t-14.5 19q0 28 45 28l189 -8q59 0 107 10.5zM1282 1813q23 4 63 4t91 -33l-252 -219h-54l117 221q12 23 35 27z" glyph-name="Wacute" horiz-adv-x="2408" unicode="Ẃ"/><glyph d="M1119 815l149 -12l110 8q37 0 37 -23t-12.5 -29.5t-30.5 -16.5q-54 -28 -84 -89l-293 -620q-20 -49 -34.5 -49t-22.5 14l-229 549l-242 -514q-24 -49 -40 -49q-15 0 -24 14l-307 684q-27 60 -69.5 71t-42.5 31q0 27 53 27l151 -12q35 0 60.5 6t69 6t42.5 -25 q0 -28 -53 -28t-53 -40t25 -89l190 -436l201 446l-19 43q-26 58 -87 66q-60 9 -60 36t43 27l190 -12q33 0 51.5 7t62.5 7t44 -25q0 -16 -15.5 -21t-50 -10.5t-34.5 -24.5q0 -14 26 -79l176 -460l197 438q25 55 25 80t-17.5 32t-37 10t-37 9t-17.5 26q0 27 9 27zM797.5 1176 q23.5 6 64.5 6t90 -33l-252 -219h-53l111 211q16 29 39.5 35z" glyph-name="wacute" horiz-adv-x="1415" unicode="ẃ"/><glyph d="M1295 1423.5q48 10.5 90 10.5t42 -27q0 -18 -20.5 -24.5t-46.5 -14.5q-66 -21 -66 -72q0 -36 31 -110l399 -963l361 926q41 100 41 133t-26.5 48.5t-58.5 22.5t-58.5 13t-26.5 27q0 10 13 19t32 9l170 -8q55 0 99 10.5t86 10.5t42 -27q0 -18 -18 -25.5t-44 -17.5 q-68 -27 -98 -94l-520 -1272q-16 -31 -31 -31t-26 31l-453 1051l-454 -1051q-16 -31 -29.5 -31t-28.5 31l-512 1241q-4 8 -9 21.5t-11 26.5t-12.5 24.5t-16.5 22.5t-33.5 18.5t-43 12.5t-34 11t-14.5 19q0 26 45 26l189 -8q61 0 108 10.5t89 10.5t42 -27q0 -18 -20.5 -24.5 t-46 -14.5t-46 -22.5t-20.5 -42.5t7.5 -50t23.5 -67l381 -963l397 940l-26 64q-32 81 -49 98.5t-39.5 25t-42 12.5t-34 11t-14.5 19q0 28 45 28l189 -8q59 0 107 10.5zM1241 1690l111 125l114 -125l-114 -123zM1049 1565l-115 123l115 124l112 -124z" glyph-name="Wdieresis" horiz-adv-x="2408" unicode="Ẅ"/><glyph d="M1119 815l149 -12l110 8q37 0 37 -23t-12.5 -29.5t-30.5 -16.5q-54 -28 -84 -89l-293 -620q-20 -49 -34.5 -49t-22.5 14l-229 549l-242 -514q-24 -49 -40 -49q-15 0 -24 14l-307 684q-27 60 -69.5 71t-42.5 31q0 27 53 27l151 -12q35 0 60.5 6t69 6t42.5 -25 q0 -28 -53 -28t-53 -40t25 -89l190 -436l201 446l-19 43q-26 58 -87 66q-60 9 -60 36t43 27l190 -12q33 0 51.5 7t62.5 7t44 -25q0 -16 -15.5 -21t-50 -10.5t-34.5 -24.5q0 -14 26 -79l176 -460l197 438q25 55 25 80t-17.5 32t-37 10t-37 9t-17.5 26q0 27 9 27zM748 1055 l110 125l115 -125l-115 -123zM555 930l-115 123l115 125l113 -125z" glyph-name="wdieresis" horiz-adv-x="1415" unicode="ẅ"/><glyph d="M1367 1434q42 0 42 -22t-36 -34t-57.5 -21t-34.5 -26.5t-27.5 -44t-30.5 -51.5l-443 -694v-383q0 -45 21.5 -63.5t47 -28t47.5 -14.5t22 -23q0 -10 -12.5 -19.5t-33.5 -9.5l-170 8q-49 0 -95 -10t-88 -10t-42 26q0 16 22.5 24.5t50.5 20t51.5 33t23.5 66.5v397l-502 768 q-16 24 -54 35.5t-53.5 17.5t-15.5 21q0 25 45 24l172 -8q64 1 123 11t89 10t30 -23q0 -16 -19.5 -22.5t-41.5 -13.5q-62 -19 -62 -56q0 -29 35 -88l377 -582l321 529q37 71 37 103t-21.5 49.5t-48 24.5t-48 13t-21.5 25q0 10 12 19t33 9l170 -8q53 0 98 10.5t87 10.5z M629.5 1817q58.5 0 77.5 -31l116 -221h-53l-254 219q55 33 113.5 33z" glyph-name="Ygrave" horiz-adv-x="1409" unicode="Ỳ"/><glyph d="M748 803l87 7q87 7 87 -13t-13.5 -29.5t-36.5 -19.5q-48 -21 -96 -130l-401 -935q-14 -33 -27.5 -66t-31.5 -75t-17.5 -67t-34.5 -39t-131 -14q-47 0 -47 31q0 19 43 58t92 110.5t109 188.5q60 118 88 194l-330 680q-6 12 -19.5 36.5t-41.5 31.5q-43 9 -43 35t41 26 l155 -12q33 0 57.5 6t69.5 6t45 -25.5t-56 -25.5t-56 -45q0 -32 30 -92l222 -453l184 416q35 79 35 135q-1 24 -53 32q-20 3 -36 9t-16 24q0 27 8 27zM363.5 1182q60.5 0 80.5 -41l111 -211h-53l-254 219q55 33 115.5 33z" glyph-name="ygrave" horiz-adv-x="921" unicode="ỳ"/><glyph d="M772 475q33 0 53 19h62l-78 -119h-594q-35 0 -53 -17h-62l78 117h594z" glyph-name="endash" horiz-adv-x="995" unicode="–"/><glyph d="M1286 475q30 0 51 19h62l-78 -119h-1110q-33 0 -51 -17h-62l78 117h1110z" glyph-name="emdash" horiz-adv-x="1521" unicode="—"/><glyph d="M305 1376q21 0 20 -20t-21 -48q-64 -90 -64 -141q0 -23 16 -47t55 -67l-125 -138l-125 138q143 229 215 307q14 16 29 16z" glyph-name="quoteleft" horiz-adv-x="387" unicode="‘"/><glyph d="M147 1165q0 23 -16 47.5t-55 67.5l125 137l125 -137q-143 -229 -215 -307q-14 -16 -29 -17q-21 0 -20.5 20t20.5 48q64 90 65 141z" glyph-name="quoteright" horiz-adv-x="387" unicode="’"/><glyph d="M147 8q0 23 -16 47.5t-55 67.5l125 137l125 -137q-143 -229 -215 -307q-14 -16 -29 -17q-21 0 -21 25q1 14 21 42q64 90 65 142z" glyph-name="quotesinglbase" horiz-adv-x="387" unicode="‚"/><glyph d="M305 1376q21 0 20 -20t-21 -48q-64 -90 -64 -141q0 -23 16 -47t55 -67l-125 -138l-125 138q143 229 215 307q14 16 29 16zM655 1376q21 0 21 -24q0 -16 -20 -44q-66 -91 -66 -141q0 -23 16.5 -47t55.5 -67l-125 -138l-125 138q143 229 215 307q14 16 28 16z" glyph-name="quotedblleft" horiz-adv-x="737" unicode="“"/><glyph d="M147 1165q0 23 -16 47.5t-55 67.5l125 137l125 -137q-143 -229 -215 -307q-14 -16 -29 -17q-21 0 -20.5 20t20.5 48q64 90 65 141zM428 981q0 15 20 43q66 91 66 141q0 23 -16.5 47.5t-55.5 67.5l125 137l125 -137q-143 -229 -215 -307q-14 -16 -28 -17q-21 0 -21 25z " glyph-name="quotedblright" horiz-adv-x="753" unicode="”"/><glyph d="M147 8q0 23 -16 47.5t-55 67.5l125 137l125 -137q-143 -229 -215 -307q-14 -16 -29 -17q-21 0 -21 25q1 14 21 42q64 90 65 142zM420 -176q0 14 20 42q66 91 66 142q0 23 -16.5 47.5t-55.5 67.5l125 137l125 -137q-143 -229 -215 -307q-14 -16 -29 -17q-20 0 -20 25z" glyph-name="quotedblbase" horiz-adv-x="745" unicode="„"/><glyph d="M549 874q116 0 266 64q47 20 74 45l151 -135l-151 -137q-43 43 -157 75q-115 33 -183 33q-1 -123 61 -267q20 -48 47 -75q-59 -67 -87 -461q-10 -134 -9 -301q0 -27 -13 -39t-28.5 -12t-28 12.5t-12.5 38.5q0 305 -31 511t-65 251q44 44 77 162q32 118 32 180 q-116 -1 -267 -63q-47 -20 -73 -45l-152 137l152 135q76 -69 269 -101q46 -8 71 -8q0 63 -32 182t-77 161l137 151l137 -151q-70 -65 -101 -271q-7 -47 -7 -72z" glyph-name="dagger" horiz-adv-x="1040" unicode="†"/><glyph d="M492 158q-62 0 -177 -31t-163 -78l-152 135l152 138q50 -46 161 -78q111 -31 179 -31q0 102 -62 237q-20 42 -47 66q69 70 101 239q8 40 8 64q-116 -1 -267 -63q-47 -20 -73 -45l-152 137l152 135q76 -69 269 -101q46 -8 71 -8q0 63 -32 182t-77 161l137 151l137 -151 q-70 -65 -101 -271q-7 -47 -7 -72q116 0 266 64q47 20 74 45l151 -135l-151 -137q-43 43 -157 75q-115 33 -183 33q0 -57 29 -154t79 -149q-71 -66 -101 -238q-7 -40 -7 -65q120 -1 266 63q47 20 74 46l151 -138l-151 -135q-75 69 -269 101q-46 8 -71 8q-1 -126 61 -268 q20 -48 47 -74l-135 -146l-139 146q45 45 77 161q32 117 32 181z" glyph-name="daggerdbl" horiz-adv-x="1040" unicode="‡"/><glyph d="M604 195q-88 -93 -209 -93q-120 0 -217 79q-96 79 -96 215q0 135 92 220q92 86 210 86t213 -78t95 -208q0 -128 -88 -221z" glyph-name="bullet" horiz-adv-x="774" unicode="•"/><glyph d="M61 127l134 147l133 -147l-133 -150zM514 127l133 147l133 -147l-133 -150zM973 127l133 147l133 -147l-133 -150z" glyph-name="ellipsis" horiz-adv-x="1300" unicode="…"/><glyph d="M648 766q-89 -96 -214 -96q-124 0 -223 80q-98 80 -98 220t96 229t213.5 89t215.5 -84t99 -213q0 -129 -89 -225zM225 1020q0 -97 71 -186t158 -89q86 0 129 57q44 57 44 142.5t-71 174.5t-167 89q-164 0 -164 -188zM1441 -47q-89 -96 -214 -96t-223 82q-99 82 -99 221 t97 227t211 88q115 0 216 -82t101 -213t-89 -227zM1018 207q0 -98 71 -186q71 -89 157 -89q87 0 130 56t43 142t-70 176q-70 89 -167 89q-164 0 -164 -188zM2197 -46q-89 -97 -213 -97t-223 81q-100 81 -100 220t96 228t213 89t216 -82q100 -82 100 -213q0 -129 -89 -226z M1774 207q0 -100 71 -187q71 -88 158 -88q86 0 129 57t43 142t-70 175q-70 89 -166 89q-165 0 -165 -188zM506 -297q-31 0 -48.5 15.5t-17.5 35.5t4 27l588 1536q14 37 43 37t48.5 -16.5t19.5 -37t-2 -26.5l-590 -1532q-14 -39 -45 -39z" glyph-name="perthousand" horiz-adv-x="2387" unicode="‰"/><glyph d="M239.5 1311q35.5 0 56.5 -18.5t21 -41.5t-22 -53l-172 -235l-41 22l104 277q18 49 53.5 49z" glyph-name="minute" horiz-adv-x="399" unicode="′"/><glyph d="M239.5 1311q35.5 0 56.5 -18.5t21 -41.5t-22 -53l-172 -235l-41 22l104 277q18 49 53.5 49zM559 1311q29 0 50.5 -18.5t21.5 -42.5t-23 -52l-172 -235l-41 22l105 277q6 16 18 32.5t41 16.5z" glyph-name="second" horiz-adv-x="712" unicode="″"/><glyph d="M389 0l-280 268q-71 72 -35 130q12 20 35 44l272 260h68l-211 -350l217 -352h-66z" glyph-name="guilsinglleft" horiz-adv-x="516" unicode="‹"/><glyph d="M455 356q0 -31 -12.5 -51t-34.5 -45l-273 -260h-67l211 350l-218 352h66l281 -268q47 -47 47 -78z" glyph-name="guilsinglright" horiz-adv-x="516" unicode="›"/><glyph d="M670 1360q38 0 39 -39q0 -9 -4 -27l-633 -1646q-10 -23 -35 -23q-37 0 -37 35l2 16l637 1659q13 25 31 25z" glyph-name="fraction" horiz-adv-x="708" unicode="⁄"/><glyph d="M654 703q-89 -97 -213 -97t-221 82t-97 221q0 140 95 228t210 88q119 0 217 -81t98 -213q0 -131 -89 -228zM233 958q0 -97 71 -185q71 -89 158 -89t131 57t44 142t-70 175q-70 89 -170 89q-164 -1 -164 -189z" glyph-name="uni2070" horiz-adv-x="866" unicode="⁰"/><glyph d="M592 610v-360q0 -27 -17.5 -33t-42.5 -6t-43 6t-18 33v360h-365q-66 0 -65 33q0 16 18 35l471 534q25 25 37 25q18 0 21.5 -19.5t3.5 -41.5v-455h20q40 0 60 20h43q-8 -82 -60 -131h-63zM471 721v297l-248 -297h248z" glyph-name="uni2074" horiz-adv-x="837" unicode="⁴"/><glyph d="M344 944q162 0 255 -81t93 -207t-56 -208.5t-136 -139t-168.5 -86t-125 -29.5t-52 4t-15.5 21q0 35 39 44q185 43 281 141t96 205q0 188 -142 220q-42 10 -102 10t-105 -22q-44 -22 -54 -23q-33 0 -27 30l111 406h469q8 -16 8 -30.5t-20 -65.5q-20 -52 -31 -52 q-23 0 -52.5 13.5t-62.5 13.5h-256l-51 -186q53 22 104 22z" glyph-name="uni2075" horiz-adv-x="835" unicode="⁵"/><glyph d="M458 598q-81 0 -146.5 37t-107.5 95q-81 112 -81 263t50 263q90 202 304 318q100 54 176 54q20 0 31.5 -10t11.5 -25q0 -25 -43 -32q-249 -61 -345 -285q-28 -66 -48 -139q45 45 106.5 71.5t158.5 26.5t195 -87t97 -225q0 -139 -104 -232t-255 -93zM320 764 q68 -80 196 -80q76 0 121 56.5t45 166.5t-72 174t-153 64q-78 0 -141 -51q-64 -51 -64 -150q0 -100 68 -180z" glyph-name="uni2076" horiz-adv-x="940" unicode="⁶"/><glyph d="M117 193q-86 1 -86 39t30 83q119 190 262.5 392t268.5 401h-334q-23 0 -40 -7t-46 -7t-29 22q0 4 9 21l49 92h526q25 0 25 -21q0 -12 -9 -22q-332 -443 -555 -944q-8 -20 -28.5 -34.5t-42.5 -14.5z" glyph-name="uni2077" horiz-adv-x="874" unicode="⁷"/><glyph d="M518 1167q205 -154 205 -290t-96 -207q-96 -72 -212 -72q-115 0 -204 70q-88 70 -88 197t125 221q39 30 86 59q-84 66 -108 95q-54 62 -54 135.5t81 138.5t175 65q100 0 171 -53t71 -156.5t-152 -202.5zM288 725q52 -57 129 -57t133 46t56 132t-58.5 144.5t-150.5 113.5 q-84 -47 -122.5 -117.5t-38.5 -137.5t52 -124zM345 1291q60 -56 116 -87q53 37 82.5 75t29.5 92t-44 102.5t-106 48.5t-100 -38t-38 -87.5t60 -105.5z" glyph-name="uni2078" horiz-adv-x="845" unicode="⁸"/><glyph d="M678 692q-103 -98 -232 -98t-226 84t-97 225q0 140 105 234t254 94q81 0 146.5 -37.5t107.5 -95.5q81 -113 81 -279q0 -109 -45 -220.5t-119.5 -201.5t-172 -147t-201.5 -57q-41 0 -41 28q0 20 13 28.5t73.5 24t126 56.5t109.5 96q75 94 118 266zM619 1065 q-69 78 -195 78q-78 0 -123 -56.5t-45 -140t21.5 -127t54.5 -73.5q65 -58 148 -58q82 0 145 48t63 149q0 102 -69 180z" glyph-name="uni2079" horiz-adv-x="940" unicode="⁹"/><glyph d="M693 -410q-89 -96 -215 -96q-125 0 -221 82q-97 82 -97 221q0 140 95 228t210 88q119 0 218 -82t99 -214q0 -131 -89 -227zM270 -154q0 -97 71 -185q71 -89 177 -89t144 120q10 34 10 101.5t-72 154.5t-166 87q-164 -1 -164 -189z" glyph-name="uni2080" horiz-adv-x="942" unicode="₀"/><glyph d="M531.5 94q27.5 10 63.5 10t36 -24t-16.5 -30.5t-36 -14.5t-36 -20.5t-16.5 -41.5v-366q0 -29 15.5 -40t34 -16.5t34 -11.5t15.5 -24q0 -29 -35 -29l-121 8q-31 0 -61.5 -10t-64.5 -10t-34 30q0 16 16.5 23.5t35 14.5t35 18.5t16.5 38.5v374q0 39 -48 56q-18 6 -33.5 11 t-15.5 21q0 31 35 31l77 -4q77 -4 104.5 6z" glyph-name="uni2081" horiz-adv-x="942" unicode="₁"/><glyph d="M719 -397q0 -7 -27.5 -58t-33 -64t-17.5 -13t-30.5 9t-63.5 9h-297q-27 0 -27 22q0 12 13 25q232 169 302 271q26 38 25.5 93t-51.5 87q-33 20 -77 20q-77 0 -144 -65q-20 -20 -37.5 -8t-17.5 25t32 46q97 102 221 102q83 0 146 -55t63 -131t-36.5 -120t-94.5 -97 l-137 -125h127q39 0 77 28q37 28 61 27.5t24 -28.5z" glyph-name="uni2082" horiz-adv-x="942" unicode="₂"/><glyph d="M209 -47q-31 0 -31 16t10 33l45 102h398q61 0 71 -34l-282 -297q6 2 50 2t104.5 -21.5t102.5 -58.5q85 -75 85 -172q0 -197 -178 -324q-131 -95 -287 -126q-35 -7 -53.5 -7t-28.5 11.5t-10 22.5t10 21.5t67.5 25t129 54t117.5 87.5q92 96 92 194q0 190 -248 190 q-31 0 -58.5 -14t-44.5 -14q-16 0 -27.5 11t-11.5 24.5t13 25.5l274 287h-217q-61 -39 -92 -39z" glyph-name="uni2083" horiz-adv-x="942" unicode="₃"/><glyph d="M682 -524v-371q0 -27 -16.5 -33t-41 -6t-41 6t-16.5 33v371h-364q-66 0 -66 32q0 16 19 35l471 535q48 48 53 4q2 -20 2 -41v-455h20q39 0 60 21h43q-8 -84 -60 -131h-63zM567 -414v297l-256 -297h256z" glyph-name="uni2084" horiz-adv-x="942" unicode="₄"/><glyph d="M397 -178q162 0 257.5 -81t95.5 -228q0 -109 -56.5 -192t-137.5 -139t-170.5 -86t-126 -30t-51.5 4t-15 22q0 36 38 44q186 43 282 140q95 98 95 206q0 189 -142 223q-42 10 -104 10t-126 -34q-20 -10 -31 -11q-29 0 -29 29q0 4 4 20l111 387h467q8 -16 8 -32t-20 -66 q-21 -50 -31 -49q-23 0 -52.5 13.5t-62.5 13.5h-256l-51 -187q56 23 104 23z" glyph-name="uni2085" horiz-adv-x="942" unicode="₅"/><glyph d="M485 109q137 0 235 -87t97 -225q0 -139 -104 -232t-242 -93q-173 0 -260 122q-88 122 -88 273t50 263q90 202 304 318q100 54 176 54q20 0 31.5 -10.5t11.5 -24.5q0 -25 -43 -33q-249 -62 -345 -284q-28 -66 -48 -140q99 99 225 99zM320 -363q68 -79 196 -79q76 0 121 56 t45 140t-21.5 128t-54.5 74q-64 58 -149 58q-80 0 -143 -48q-62 -48 -62 -149t68 -180z" glyph-name="uni2086" horiz-adv-x="942" unicode="₆"/><glyph d="M197 -934q-86 0 -86 41q0 20 39.5 99t106.5 178.5t137.5 199t143 199.5t134.5 199h-334q-23 0 -40 -7.5t-46 -7.5t-29 23q0 4 8 20l50 92h526q25 0 24 -20q0 -12 -8 -23q-332 -443 -555 -944q-20 -49 -71 -49z" glyph-name="uni2087" horiz-adv-x="942" unicode="₇"/><glyph d="M770 -253.5q0 -79.5 -26.5 -127t-71.5 -81.5q-93 -70 -210 -70t-205 70q-87 70 -87 196t125 222q39 30 86 58q-81 64 -107 93q-55 62 -55 136.5t81 139.5q81 66 175 66q100 0 171 -53t71 -159.5t-152 -199.5q94 -72 149.5 -141.5t55.5 -149zM336 -406q53 -57 129 -57 t132 46t56 132t-58 144.5t-151 113.5q-84 -47 -122.5 -117.5t-38.5 -137.5t53 -124zM394 159q62 -58 114 -85q53 37 83 74.5t30 92t-44.5 100.5t-106.5 46t-100 -36t-38 -85t62 -107z" glyph-name="uni2088" horiz-adv-x="942" unicode="₈"/><glyph d="M678 -442q-104 -99 -232 -99q-129 0 -226 84t-97 225q0 140 105 234t241 94q173 0 260 -122q88 -122 88 -275q0 -327 -263 -519q-156 -114 -269 -114q-18 0 -31.5 10.5t-13.5 20.5q0 27 45 37q249 52 345 280q28 68 48 144zM621 -73q-67 79 -197 79q-78 0 -123 -55 t-45 -139t21.5 -127t54.5 -73q64 -58 147 -58q84 0 147 48q62 48 62 147t-67 178z" glyph-name="uni2089" horiz-adv-x="942" unicode="₉"/></font>
</defs>
</svg>
